<?xml version="1.0" encoding="UTF-8" standalone="no"?>
<!DOCTYPE svg PUBLIC "-//W3C//DTD SVG 1.1//EN"
 "http://www.w3.org/Graphics/SVG/1.1/DTD/svg11.dtd">
<!-- Generated by graphviz version 8.0.1 (20230327.1645)
 -->
<!-- Pages: 1 -->
<svg width="2878pt" height="515pt"
 viewBox="0.00 0.00 2878.00 515.00" xmlns="http://www.w3.org/2000/svg" xmlns:xlink="http://www.w3.org/1999/xlink">
<g id="graph0" class="graph" transform="scale(1 1) rotate(0) translate(144 371)">
<g id="cluster_production" class="cluster">
<title>cluster_Production/Staging</title>
<path fill="#e5f5fd" stroke="#aeb6be" d="M20,-8C20,-8 1570,-8 1570,-8 1576,-8 1582,-14 1582,-20 1582,-20 1582,-207 1582,-207 1582,-213 1576,-219 1570,-219 1570,-219 20,-219 20,-219 14,-219 8,-213 8,-207 8,-207 8,-20 8,-20 8,-14 14,-8 20,-8"/>
<text text-anchor="middle" x="67.5" y="-205.4" font-family="Sans-Serif" font-size="12.00" fill="#2d3436">Production/Staging</text>
</g>
<g id="cluster_aperture" class="cluster">
<title>cluster_Aperture</title>
<path fill="#ebf3e7" stroke="#aeb6be" d="M1324,-16C1324,-16 1562,-16 1562,-16 1568,-16 1574,-22 1574,-28 1574,-28 1574,-178 1574,-178 1574,-184 1568,-190 1562,-190 1562,-190 1324,-190 1324,-190 1318,-190 1312,-184 1312,-178 1312,-178 1312,-28 1312,-28 1312,-22 1318,-16 1324,-16"/>
<text text-anchor="middle" x="1343" y="-176.4" font-family="Sans-Serif" font-size="12.00" fill="#2d3436">Aperture</text>
</g>
<g id="cluster_ec2" class="cluster">
<title>cluster_EC2 Services</title>
<path fill="#ebf3e7" stroke="#aeb6be" d="M748,-16C748,-16 1274,-16 1274,-16 1280,-16 1286,-22 1286,-28 1286,-28 1286,-178 1286,-178 1286,-184 1280,-190 1274,-190 1274,-190 748,-190 748,-190 742,-190 736,-184 736,-178 736,-178 736,-28 736,-28 736,-22 742,-16 748,-16"/>
<text text-anchor="middle" x="781" y="-176.4" font-family="Sans-Serif" font-size="12.00" fill="#2d3436">EC2 Services</text>
</g>
<g id="cluster_production" class="cluster">
<title>cluster_Vault</title>
<path fill="#ebf3e7" stroke="#aeb6be" d="M604,-16C604,-16 698,-16 698,-16 704,-16 710,-22 710,-28 710,-28 710,-178 710,-178 710,-184 704,-190 698,-190 698,-190 604,-190 604,-190 598,-190 592,-184 592,-178 592,-178 592,-28 592,-28 592,-22 598,-16 604,-16"/>
<text text-anchor="middle" x="613.5" y="-176.4" font-family="Sans-Serif" font-size="12.00" fill="#2d3436">Vault</text>
</g>
<g id="cluster_kafka" class="cluster">
<title>cluster_Event Bus (Kafka)</title>
<path fill="#ebf3e7" stroke="#aeb6be" d="M316,-16C316,-16 554,-16 554,-16 560,-16 566,-22 566,-28 566,-28 566,-178 566,-178 566,-184 560,-190 554,-190 554,-190 316,-190 316,-190 310,-190 304,-184 304,-178 304,-178 304,-28 304,-28 304,-22 310,-16 316,-16"/>
<text text-anchor="middle" x="360.5" y="-176.4" font-family="Sans-Serif" font-size="12.00" fill="#2d3436">Event Bus (Kafka)</text>
</g>
<g id="cluster_data_storage" class="cluster">
<title>cluster_Stateful Services</title>
<path fill="#ebf3e7" stroke="#aeb6be" d="M28,-16C28,-16 266,-16 266,-16 272,-16 278,-22 278,-28 278,-28 278,-178 278,-178 278,-184 272,-190 266,-190 266,-190 28,-190 28,-190 22,-190 16,-184 16,-178 16,-178 16,-28 16,-28 16,-22 22,-16 28,-16"/>
<text text-anchor="middle" x="69.5" y="-176.4" font-family="Sans-Serif" font-size="12.00" fill="#2d3436">Stateful Services</text>
</g>
<g id="cluster_k8s" class="cluster">
<title>cluster_Kubernetes Cluster</title>
<path fill="#e5f5fd" stroke="#aeb6be" d="M1612,-16C1612,-16 2138,-16 2138,-16 2144,-16 2150,-22 2150,-28 2150,-28 2150,-178 2150,-178 2150,-184 2144,-190 2138,-190 2138,-190 1612,-190 1612,-190 1606,-190 1600,-184 1600,-178 1600,-178 1600,-28 1600,-28 1600,-22 1606,-16 1612,-16"/>
<text text-anchor="middle" x="1659.5" y="-176.4" font-family="Sans-Serif" font-size="12.00" fill="#2d3436">Kubernetes Cluster</text>
</g>
<g id="cluster_owly" class="cluster">
<title>cluster_US&#45;West&#45;1 &#45; Owly</title>
<path fill="#e5f5fd" stroke="#aeb6be" d="M2188,-16C2188,-16 2570,-16 2570,-16 2576,-16 2582,-22 2582,-28 2582,-28 2582,-178 2582,-178 2582,-184 2576,-190 2570,-190 2570,-190 2188,-190 2188,-190 2182,-190 2176,-184 2176,-178 2176,-178 2176,-28 2176,-28 2176,-22 2182,-16 2188,-16"/>
<text text-anchor="middle" x="2232" y="-176.4" font-family="Sans-Serif" font-size="12.00" fill="#2d3436">US&#45;West&#45;1 &#45; Owly</text>
</g>
<!-- f458165b1398446584f04c3b0f637c1f -->
<g id="ec2_aperture_traefik" class="node">
<title>f458165b1398446584f04c3b0f637c1f</title>
<image xlink:href="/opt/homebrew/lib/python3.10/site-packages/resources/aws/compute/application-auto-scaling.png" width="101px" height="101px" preserveAspectRatio="xMinYMin meet" x="1464.5" y="-143"/>
<text text-anchor="middle" x="1515" y="-27.6" font-family="Sans-Serif" font-size="13.00" fill="#2d3436">Traefik Aperture</text>
</g>
<!-- e3ca90eedcac454a953af8c96dd9bf77 -->
<g id="ec2_aperture_authfacade" class="node">
<title>e3ca90eedcac454a953af8c96dd9bf77</title>
<image xlink:href="/opt/homebrew/lib/python3.10/site-packages/resources/aws/compute/application-auto-scaling.png" width="101px" height="101px" preserveAspectRatio="xMinYMin meet" x="1320.5" y="-143"/>
<text text-anchor="middle" x="1371" y="-27.6" font-family="Sans-Serif" font-size="13.00" fill="#2d3436">Auth Facade</text>
</g>
<!-- c6b04d69f19142b29de4e994320a6d2b -->
<g id="ec2&#45;AuthFacade" class="node">
<title>c6b04d69f19142b29de4e994320a6d2b</title>
<image xlink:href="/opt/homebrew/lib/python3.10/site-packages/resources/aws/compute/ec2.png" width="101px" height="101px" preserveAspectRatio="xMinYMin meet" x="1176.5" y="-143"/>
<text text-anchor="middle" x="1227" y="-27.6" font-family="Sans-Serif" font-size="13.00" fill="#2d3436">Auth Facade</text>
</g>
<!-- 13e431282b9f4149b6c1430870579ebd -->
<g id="ec2&#45;WebhookEgressProxy" class="node">
<title>13e431282b9f4149b6c1430870579ebd</title>
<image xlink:href="/opt/homebrew/lib/python3.10/site-packages/resources/aws/compute/ec2.png" width="101px" height="101px" preserveAspectRatio="xMinYMin meet" x="1032.5" y="-143"/>
<text text-anchor="middle" x="1083" y="-27.6" font-family="Sans-Serif" font-size="13.00" fill="#2d3436">Webhook Egress Proxy</text>
</g>
<!-- 5a9823b34a004a099e90b67082026b0c -->
<g id="ec2&#45;ExternalAPI" class="node">
<title>5a9823b34a004a099e90b67082026b0c</title>
<image xlink:href="/opt/homebrew/lib/python3.10/site-packages/resources/aws/compute/ec2.png" width="101px" height="101px" preserveAspectRatio="xMinYMin meet" x="888.5" y="-143"/>
<text text-anchor="middle" x="939" y="-27.6" font-family="Sans-Serif" font-size="13.00" fill="#2d3436">External API</text>
</g>
<!-- 41fa01178e5c4d7faccac457ce4729d3 -->
<g id="ec2&#45;DataDeletion" class="node">
<title>41fa01178e5c4d7faccac457ce4729d3</title>
<image xlink:href="/opt/homebrew/lib/python3.10/site-packages/resources/aws/compute/ec2.png" width="101px" height="101px" preserveAspectRatio="xMinYMin meet" x="744.5" y="-143"/>
<text text-anchor="middle" x="795" y="-27.6" font-family="Sans-Serif" font-size="13.00" fill="#2d3436">Data Deletion</text>
</g>
<!-- 85687177b50a4b2b92e99431f0f36421 -->
<g id="ec2&#45;vault" class="node">
<title>85687177b50a4b2b92e99431f0f36421</title>
<image xlink:href="/opt/homebrew/lib/python3.10/site-packages/resources/aws/compute/ec2.png" width="101px" height="101px" preserveAspectRatio="xMinYMin meet" x="600.5" y="-143"/>
<text text-anchor="middle" x="651" y="-27.6" font-family="Sans-Serif" font-size="13.00" fill="#2d3436">Vault</text>
</g>
<!-- 6bd0b2dacc6a416ab113a9b89207df83 -->
<g id="node8" class="node">
<title>6bd0b2dacc6a416ab113a9b89207df83</title>
<image xlink:href="/opt/homebrew/lib/python3.10/site-packages/resources/onprem/queue/kafka.png" width="101px" height="101px" preserveAspectRatio="xMinYMin meet" x="456.5" y="-143"/>
<text text-anchor="middle" x="507" y="-27.6" font-family="Sans-Serif" font-size="13.00" fill="#2d3436">Kafka</text>
</g>
<!-- 8d506506ca004a9c9c5db205b6e408ff -->
<g id="node9" class="node">
<title>8d506506ca004a9c9c5db205b6e408ff</title>
<image xlink:href="/opt/homebrew/lib/python3.10/site-packages/resources/onprem/network/zookeeper.png" width="101px" height="101px" preserveAspectRatio="xMinYMin meet" x="312.5" y="-143"/>
<text text-anchor="middle" x="363" y="-27.6" font-family="Sans-Serif" font-size="13.00" fill="#2d3436">Zookeeper</text>
</g>
<!-- c15f7f8433064a8f911bbe37fa3ddc3b -->
<g id="node10" class="node">
<title>c15f7f8433064a8f911bbe37fa3ddc3b</title>
<image xlink:href="/opt/homebrew/lib/python3.10/site-packages/resources/aws/database/rds.png" width="101px" height="101px" preserveAspectRatio="xMinYMin meet" x="168.5" y="-143"/>
<text text-anchor="middle" x="219" y="-27.6" font-family="Sans-Serif" font-size="13.00" fill="#2d3436">Aurora 5.6</text>
</g>
<!-- 621a7a68e3c84eddadc8f61d8f7a8b40 -->
<g id="node11" class="node">
<title>621a7a68e3c84eddadc8f61d8f7a8b40</title>
<image xlink:href="/opt/homebrew/lib/python3.10/site-packages/resources/aws/database/elasticache-for-redis.png" width="101px" height="101px" preserveAspectRatio="xMinYMin meet" x="24.5" y="-143"/>
<text text-anchor="middle" x="75" y="-27.6" font-family="Sans-Serif" font-size="13.00" fill="#2d3436">Redis</text>
</g>
<!-- 0ef9420996384754917190aebccbdba1 -->
<g id="node12" class="node">
<title>0ef9420996384754917190aebccbdba1</title>
<image xlink:href="/opt/homebrew/lib/python3.10/site-packages/resources/aws/network/elb-network-load-balancer.png" width="101px" height="101px" preserveAspectRatio="xMinYMin meet" x="2040.5" y="-143"/>
<text text-anchor="middle" x="2091" y="-27.6" font-family="Sans-Serif" font-size="13.00" fill="#2d3436">Traefik Ingress</text>
</g>
<!-- 8c2767a43d19435c9e9875f40cdf9743 -->
<g id="dashboard" class="node">
<title>8c2767a43d19435c9e9875f40cdf9743</title>
<image xlink:href="/opt/homebrew/lib/python3.10/site-packages/resources/k8s/compute/pod.png" width="101px" height="101px" preserveAspectRatio="xMinYMin meet" x="1896.5" y="-143"/>
<text text-anchor="middle" x="1947" y="-27.6" font-family="Sans-Serif" font-size="13.00" fill="#2d3436">Dashboard PHP</text>
</g>
<!-- cfd20ccea0f34c4abbd42973b30c3e50 -->
<g id="amplify" class="node">
<title>cfd20ccea0f34c4abbd42973b30c3e50</title>
<image xlink:href="/opt/homebrew/lib/python3.10/site-packages/resources/k8s/compute/pod.png" width="101px" height="101px" preserveAspectRatio="xMinYMin meet" x="1752.5" y="-143"/>
<text text-anchor="middle" x="1803" y="-27.6" font-family="Sans-Serif" font-size="13.00" fill="#2d3436">Amplify</text>
</g>
<!-- 2f2cbfdcb6524844bb6ead50c092dbb5 -->
<g id="servicePods" class="node">
<title>2f2cbfdcb6524844bb6ead50c092dbb5</title>
<image xlink:href="/opt/homebrew/lib/python3.10/site-packages/resources/k8s/compute/pod.png" width="101px" height="101px" preserveAspectRatio="xMinYMin meet" x="1608.5" y="-143"/>
<text text-anchor="middle" x="1659" y="-27.6" font-family="Sans-Serif" font-size="13.00" fill="#2d3436">Other Microservices Pods... </text>
</g>
<!-- ba0c4f8b83774aa0894cb2be089f6494 -->
<g id="haproxy" class="node">
<title>ba0c4f8b83774aa0894cb2be089f6494</title>
<image xlink:href="/opt/homebrew/lib/python3.10/site-packages/resources/aws/network/elb-network-load-balancer.png" width="101px" height="101px" preserveAspectRatio="xMinYMin meet" x="2472.5" y="-143"/>
<text text-anchor="middle" x="2523" y="-27.6" font-family="Sans-Serif" font-size="13.00" fill="#2d3436">HAProxy</text>
</g>
<!-- 7ed9cfcba5fa415fa4c7c4e1326494e3 -->
<g id="owlyweb" class="node">
<title>7ed9cfcba5fa415fa4c7c4e1326494e3</title>
<image xlink:href="/opt/homebrew/lib/python3.10/site-packages/resources/aws/compute/ec2.png" width="101px" height="101px" preserveAspectRatio="xMinYMin meet" x="2328.5" y="-143"/>
<text text-anchor="middle" x="2379" y="-27.6" font-family="Sans-Serif" font-size="13.00" fill="#2d3436">Owly Web</text>
</g>
<!-- 43529ebe90064fd88bc8639e25657f79 -->
<g id="owly&#45;analytics" class="node">
<title>43529ebe90064fd88bc8639e25657f79</title>
<image xlink:href="/opt/homebrew/lib/python3.10/site-packages/resources/aws/compute/ec2.png" width="101px" height="101px" preserveAspectRatio="xMinYMin meet" x="2184.5" y="-143"/>
<text text-anchor="middle" x="2235" y="-27.6" font-family="Sans-Serif" font-size="13.00" fill="#2d3436">Owly Analytics</text>
</g>
</g>
</svg>
