<?xml version="1.0" encoding="UTF-8" standalone="no"?>
<!DOCTYPE svg PUBLIC "-//W3C//DTD SVG 1.1//EN"
 "http://www.w3.org/Graphics/SVG/1.1/DTD/svg11.dtd">
<!-- Generated by graphviz version 8.0.1 (20230327.1645)
 -->
<!-- Pages: 1 -->
<svg width="2014pt" height="706pt"
 viewBox="0.00 0.00 2014.00 706.00" xmlns="http://www.w3.org/2000/svg" xmlns:xlink="http://www.w3.org/1999/xlink">
<g id="graph0" class="graph" transform="scale(1 1) rotate(0) translate(144 562)">
<g id="cluster_production" class="cluster">
<title>cluster_Production/Staging</title>
<path fill="#e5f5fd" stroke="#aeb6be" d="M20,-8C20,-8 994,-8 994,-8 1000,-8 1006,-14 1006,-20 1006,-20 1006,-398 1006,-398 1006,-404 1000,-410 994,-410 994,-410 20,-410 20,-410 14,-410 8,-404 8,-398 8,-398 8,-20 8,-20 8,-14 14,-8 20,-8"/>
<text text-anchor="middle" x="67.5" y="-396.4" font-family="Sans-Serif" font-size="12.00" fill="#2d3436">Production/Staging</text>
</g>
<g id="cluster_edge_aperture" class="cluster">
<title>cluster_Aperture</title>
<path fill="#ebf3e7" stroke="#aeb6be" d="M604,-207C604,-207 842,-207 842,-207 848,-207 854,-213 854,-219 854,-219 854,-369 854,-369 854,-375 848,-381 842,-381 842,-381 604,-381 604,-381 598,-381 592,-375 592,-369 592,-369 592,-219 592,-219 592,-213 598,-207 604,-207"/>
<text text-anchor="middle" x="623" y="-367.4" font-family="Sans-Serif" font-size="12.00" fill="#2d3436">Aperture</text>
</g>
<g id="cluster_ec2" class="cluster">
<title>cluster_EC2 Services</title>
<path fill="#ebf3e7" stroke="#aeb6be" d="M388,-16C388,-16 914,-16 914,-16 920,-16 926,-22 926,-28 926,-28 926,-178 926,-178 926,-184 920,-190 914,-190 914,-190 388,-190 388,-190 382,-190 376,-184 376,-178 376,-178 376,-28 376,-28 376,-22 382,-16 388,-16"/>
<text text-anchor="middle" x="421" y="-176.4" font-family="Sans-Serif" font-size="12.00" fill="#2d3436">EC2 Services</text>
</g>
<g id="cluster_production" class="cluster">
<title>cluster_Vault</title>
<path fill="#ebf3e7" stroke="#aeb6be" d="M892,-207C892,-207 986,-207 986,-207 992,-207 998,-213 998,-219 998,-219 998,-369 998,-369 998,-375 992,-381 986,-381 986,-381 892,-381 892,-381 886,-381 880,-375 880,-369 880,-369 880,-219 880,-219 880,-213 886,-207 892,-207"/>
<text text-anchor="middle" x="901.5" y="-367.4" font-family="Sans-Serif" font-size="12.00" fill="#2d3436">Vault</text>
</g>
<g id="cluster_kafka" class="cluster">
<title>cluster_Event Bus (Kafka)</title>
<path fill="#ebf3e7" stroke="#aeb6be" d="M316,-207C316,-207 554,-207 554,-207 560,-207 566,-213 566,-219 566,-219 566,-369 566,-369 566,-375 560,-381 554,-381 554,-381 316,-381 316,-381 310,-381 304,-375 304,-369 304,-369 304,-219 304,-219 304,-213 310,-207 316,-207"/>
<text text-anchor="middle" x="360.5" y="-367.4" font-family="Sans-Serif" font-size="12.00" fill="#2d3436">Event Bus (Kafka)</text>
</g>
<g id="cluster_data_storage" class="cluster">
<title>cluster_Stateful Services</title>
<path fill="#ebf3e7" stroke="#aeb6be" d="M28,-207C28,-207 266,-207 266,-207 272,-207 278,-213 278,-219 278,-219 278,-369 278,-369 278,-375 272,-381 266,-381 266,-381 28,-381 28,-381 22,-381 16,-375 16,-369 16,-369 16,-219 16,-219 16,-213 22,-207 28,-207"/>
<text text-anchor="middle" x="69.5" y="-367.4" font-family="Sans-Serif" font-size="12.00" fill="#2d3436">Stateful Services</text>
</g>
<g id="cluster_k8s" class="cluster">
<title>cluster_Kubernetes Cluster</title>
<path fill="#e5f5fd" stroke="#aeb6be" d="M1036,-16C1036,-16 1274,-16 1274,-16 1280,-16 1286,-22 1286,-28 1286,-28 1286,-369 1286,-369 1286,-375 1280,-381 1274,-381 1274,-381 1036,-381 1036,-381 1030,-381 1024,-375 1024,-369 1024,-369 1024,-28 1024,-28 1024,-22 1030,-16 1036,-16"/>
<text text-anchor="middle" x="1083.5" y="-367.4" font-family="Sans-Serif" font-size="12.00" fill="#2d3436">Kubernetes Cluster</text>
</g>
<g id="clust8" class="cluster">
<title>cluster_US&#45;West&#45;1 &#45; Owly</title>
<path fill="#e5f5fd" stroke="#aeb6be" d="M1324,-207C1324,-207 1706,-207 1706,-207 1712,-207 1718,-213 1718,-219 1718,-219 1718,-369 1718,-369 1718,-375 1712,-381 1706,-381 1706,-381 1324,-381 1324,-381 1318,-381 1312,-375 1312,-369 1312,-369 1312,-219 1312,-219 1312,-213 1318,-207 1324,-207"/>
<text text-anchor="middle" x="1368" y="-367.4" font-family="Sans-Serif" font-size="12.00" fill="#2d3436">US&#45;West&#45;1 &#45; Owly</text>
</g>
<!-- ae47821fa98446adb0237107f0f136ad -->
<g id="cluster_edge_traefik" class="node">
<title>ae47821fa98446adb0237107f0f136ad</title>
<image xlink:href="/opt/homebrew/lib/python3.10/site-packages/resources/aws/compute/application-auto-scaling.png" width="101px" height="101px" preserveAspectRatio="xMinYMin meet" x="600.5" y="-334"/>
<text text-anchor="middle" x="651" y="-218.6" font-family="Sans-Serif" font-size="13.00" fill="#2d3436">Traefik Aperture</text>
</g>
<!-- caaadea4aca94a3f97a7401b7147e8de -->
<g id="ec2&#45;AuthFacade" class="node">
<title>caaadea4aca94a3f97a7401b7147e8de</title>
<image xlink:href="/opt/homebrew/lib/python3.10/site-packages/resources/aws/compute/ec2.png" width="101px" height="101px" preserveAspectRatio="xMinYMin meet" x="816.5" y="-143"/>
<text text-anchor="middle" x="867" y="-27.6" font-family="Sans-Serif" font-size="13.00" fill="#2d3436">Auth Facade</text>
</g>
<!-- ae47821fa98446adb0237107f0f136ad&#45;&gt;caaadea4aca94a3f97a7401b7147e8de -->
<g id="edge_ec2_traefik" class="edge">
<title>ae47821fa98446adb0237107f0f136ad&#45;&gt;caaadea4aca94a3f97a7401b7147e8de</title>
<path fill="none" stroke="#7b8894" d="M687,-204.09C687,-204.09 687,-174 687,-174 687,-174 826.17,-174 826.17,-174 826.17,-174 826.17,-171.91 826.17,-171.91"/>
<polygon fill="#7b8894" stroke="#7b8894" points="683.5,-204.09 687,-214.09 690.5,-204.09 683.5,-204.09"/>
<polygon fill="#7b8894" stroke="#7b8894" points="829.67,-171.91 826.17,-161.91 822.67,-171.91 829.67,-171.91"/>
</g>
<!-- d96eccfa501f4aca8e421b12a1cc9fba -->
<g id="ec2&#45;WebhookEgressProxy" class="node">
<title>d96eccfa501f4aca8e421b12a1cc9fba</title>
<image xlink:href="/opt/homebrew/lib/python3.10/site-packages/resources/aws/compute/ec2.png" width="101px" height="101px" preserveAspectRatio="xMinYMin meet" x="672.5" y="-143"/>
<text text-anchor="middle" x="723" y="-27.6" font-family="Sans-Serif" font-size="13.00" fill="#2d3436">Webhook Egress Proxy</text>
</g>
<!-- ae47821fa98446adb0237107f0f136ad&#45;&gt;d96eccfa501f4aca8e421b12a1cc9fba -->
<g id="edge_ec2_traefik" class="edge">
<title>ae47821fa98446adb0237107f0f136ad&#45;&gt;d96eccfa501f4aca8e421b12a1cc9fba</title>
<path fill="none" stroke="#7b8894" d="M679.75,-204.08C679.75,-204.08 679.75,-171.76 679.75,-171.76"/>
<polygon fill="#7b8894" stroke="#7b8894" points="683.25,-171.76 679.75,-161.76 676.25,-171.76 683.25,-171.76"/>
<polygon fill="#7b8894" stroke="#7b8894" points="676.25,-204.08 679.75,-214.08 683.25,-204.08 676.25,-204.08"/>
</g>
<!-- d0c09b70a00e4436840b523388f91771 -->
<g id="ec2&#45;ExternalAPI" class="node">
<title>d0c09b70a00e4436840b523388f91771</title>
<image xlink:href="/opt/homebrew/lib/python3.10/site-packages/resources/aws/compute/ec2.png" width="101px" height="101px" preserveAspectRatio="xMinYMin meet" x="528.5" y="-143"/>
<text text-anchor="middle" x="579" y="-27.6" font-family="Sans-Serif" font-size="13.00" fill="#2d3436">External API</text>
</g>
<!-- ae47821fa98446adb0237107f0f136ad&#45;&gt;d0c09b70a00e4436840b523388f91771 -->
<g id="edge_ec2_traefik" class="edge">
<title>ae47821fa98446adb0237107f0f136ad&#45;&gt;d0c09b70a00e4436840b523388f91771</title>
<path fill="none" stroke="#7b8894" d="M619.83,-204.08C619.83,-204.08 619.83,-171.76 619.83,-171.76"/>
<polygon fill="#7b8894" stroke="#7b8894" points="623.33,-171.76 619.83,-161.76 616.33,-171.76 623.33,-171.76"/>
<polygon fill="#7b8894" stroke="#7b8894" points="616.33,-204.08 619.83,-214.08 623.33,-204.08 616.33,-204.08"/>
</g>
<!-- 3081b12984fc45cd95af010d5fdedbf1 -->
<g id="ec2&#45;DataDeletion" class="node">
<title>3081b12984fc45cd95af010d5fdedbf1</title>
<image xlink:href="/opt/homebrew/lib/python3.10/site-packages/resources/aws/compute/ec2.png" width="101px" height="101px" preserveAspectRatio="xMinYMin meet" x="384.5" y="-143"/>
<text text-anchor="middle" x="435" y="-27.6" font-family="Sans-Serif" font-size="13.00" fill="#2d3436">Data Deletion</text>
</g>
<!-- ae47821fa98446adb0237107f0f136ad&#45;&gt;3081b12984fc45cd95af010d5fdedbf1 -->
<g id="edge_ec2_traefik" class="edge">
<title>ae47821fa98446adb0237107f0f136ad&#45;&gt;3081b12984fc45cd95af010d5fdedbf1</title>
<path fill="none" stroke="#7b8894" d="M610.17,-204.13C610.17,-204.13 610.17,-181 610.17,-181 610.17,-181 471,-181 471,-181 471,-181 471,-171.92 471,-171.92"/>
<polygon fill="#7b8894" stroke="#7b8894" points="606.67,-204.13 610.17,-214.13 613.67,-204.13 606.67,-204.13"/>
<polygon fill="#7b8894" stroke="#7b8894" points="474.5,-171.92 471,-161.92 467.5,-171.92 474.5,-171.92"/>
</g>
<!-- 652e0c49bd2742ffbad1ba9ed94dcae0 -->
<g id="node12" class="node">
<title>652e0c49bd2742ffbad1ba9ed94dcae0</title>
<image xlink:href="/opt/homebrew/lib/python3.10/site-packages/resources/aws/network/elb-network-load-balancer.png" width="101px" height="101px" preserveAspectRatio="xMinYMin meet" x="1176.5" y="-334"/>
<text text-anchor="middle" x="1227" y="-218.6" font-family="Sans-Serif" font-size="13.00" fill="#2d3436">Traefik Ingress</text>
</g>
<!-- ae47821fa98446adb0237107f0f136ad&#45;&gt;652e0c49bd2742ffbad1ba9ed94dcae0 -->
<g id="edge1" class="edge">
<title>ae47821fa98446adb0237107f0f136ad&#45;&gt;652e0c49bd2742ffbad1ba9ed94dcae0</title>
<path fill="none" stroke="#7b8894" d="M694.25,-215.21C694.25,-202.96 694.25,-194 694.25,-194 694.25,-194 1227,-194 1227,-194 1227,-194 1227,-204.21 1227,-204.21"/>
<polygon fill="#7b8894" stroke="#7b8894" points="1223.5,-204.21 1227,-214.21 1230.5,-204.21 1223.5,-204.21"/>
</g>
<!-- fb3039ad9574446bbbf38fb71e0a23a0 -->
<g id="cluster_edge_aperture" class="node">
<title>fb3039ad9574446bbbf38fb71e0a23a0</title>
<image xlink:href="/opt/homebrew/lib/python3.10/site-packages/resources/aws/compute/application-auto-scaling.png" width="101px" height="101px" preserveAspectRatio="xMinYMin meet" x="744.5" y="-334"/>
<text text-anchor="middle" x="795" y="-218.6" font-family="Sans-Serif" font-size="13.00" fill="#2d3436">Auth Facade</text>
</g>
<!-- fb3039ad9574446bbbf38fb71e0a23a0&#45;&gt;652e0c49bd2742ffbad1ba9ed94dcae0 -->
<g id="edge2" class="edge">
<title>fb3039ad9574446bbbf38fb71e0a23a0&#45;&gt;652e0c49bd2742ffbad1ba9ed94dcae0</title>
<path fill="none" stroke="#7b8894" d="M835.83,-215.37C835.83,-206.82 835.83,-201 835.83,-201 835.83,-201 1210.17,-201 1210.17,-201 1210.17,-201 1210.17,-204.37 1210.17,-204.37"/>
<polygon fill="#7b8894" stroke="#7b8894" points="1206.67,-204.37 1210.17,-214.37 1213.67,-204.37 1206.67,-204.37"/>
</g>
<!-- f2db4e2fcd17475b8cac63b7888e052f -->
<g id="ec2&#45;vault" class="node">
<title>f2db4e2fcd17475b8cac63b7888e052f</title>
<image xlink:href="/opt/homebrew/lib/python3.10/site-packages/resources/aws/compute/ec2.png" width="101px" height="101px" preserveAspectRatio="xMinYMin meet" x="888.5" y="-334"/>
<text text-anchor="middle" x="939" y="-218.6" font-family="Sans-Serif" font-size="13.00" fill="#2d3436">Vault</text>
</g>
<!-- c6881cb787a249e796ade83fe48cdadb -->
<g id="dashboard" class="node">
<title>c6881cb787a249e796ade83fe48cdadb</title>
<image xlink:href="/opt/homebrew/lib/python3.10/site-packages/resources/k8s/compute/pod.png" width="101px" height="101px" preserveAspectRatio="xMinYMin meet" x="1032.5" y="-143"/>
<text text-anchor="middle" x="1083" y="-27.6" font-family="Sans-Serif" font-size="13.00" fill="#2d3436">Dashboard PHP</text>
</g>
<!-- f2db4e2fcd17475b8cac63b7888e052f&#45;&gt;c6881cb787a249e796ade83fe48cdadb -->
<g id="edge8" class="edge">
<title>f2db4e2fcd17475b8cac63b7888e052f&#45;&gt;c6881cb787a249e796ade83fe48cdadb</title>
<path fill="none" stroke="#7b8894" d="M965.5,-204.18C965.5,-204.18 965.5,-92 965.5,-92 965.5,-92 1021.83,-92 1021.83,-92"/>
<polygon fill="#7b8894" stroke="#7b8894" points="962,-204.18 965.5,-214.18 969,-204.18 962,-204.18"/>
<polygon fill="#7b8894" stroke="#7b8894" points="1021.83,-95.5 1031.83,-92 1021.83,-88.5 1021.83,-95.5"/>
</g>
<!-- 097690f6efe04b0b93ef0c82d211ed42 -->
<g id="amplify" class="node">
<title>097690f6efe04b0b93ef0c82d211ed42</title>
<image xlink:href="/opt/homebrew/lib/python3.10/site-packages/resources/k8s/compute/pod.png" width="101px" height="101px" preserveAspectRatio="xMinYMin meet" x="1176.5" y="-143"/>
<text text-anchor="middle" x="1227" y="-27.6" font-family="Sans-Serif" font-size="13.00" fill="#2d3436">Amplify</text>
</g>
<!-- f2db4e2fcd17475b8cac63b7888e052f&#45;&gt;097690f6efe04b0b93ef0c82d211ed42 -->
<g id="edge9" class="edge">
<title>f2db4e2fcd17475b8cac63b7888e052f&#45;&gt;097690f6efe04b0b93ef0c82d211ed42</title>
<path fill="none" stroke="#7b8894" d="M941.5,-204.11C941.5,-204.11 941.5,-188 941.5,-188 941.5,-188 1193.33,-188 1193.33,-188 1193.33,-188 1193.33,-171.89 1193.33,-171.89"/>
<polygon fill="#7b8894" stroke="#7b8894" points="938,-204.11 941.5,-214.11 945,-204.11 938,-204.11"/>
<polygon fill="#7b8894" stroke="#7b8894" points="1196.83,-171.89 1193.33,-161.89 1189.83,-171.89 1196.83,-171.89"/>
</g>
<!-- 6247b500c89c419187423d109fb8b11b -->
<g id="node8" class="node">
<title>6247b500c89c419187423d109fb8b11b</title>
<image xlink:href="/opt/homebrew/lib/python3.10/site-packages/resources/onprem/queue/kafka.png" width="101px" height="101px" preserveAspectRatio="xMinYMin meet" x="456.5" y="-334"/>
<text text-anchor="middle" x="507" y="-218.6" font-family="Sans-Serif" font-size="13.00" fill="#2d3436">Kafka</text>
</g>
<!-- a9f7dfc0a48c477eada0609c2305f3c4 -->
<g id="node9" class="node">
<title>a9f7dfc0a48c477eada0609c2305f3c4</title>
<image xlink:href="/opt/homebrew/lib/python3.10/site-packages/resources/onprem/network/zookeeper.png" width="101px" height="101px" preserveAspectRatio="xMinYMin meet" x="312.5" y="-334"/>
<text text-anchor="middle" x="363" y="-218.6" font-family="Sans-Serif" font-size="13.00" fill="#2d3436">Zookeeper</text>
</g>
<!-- 3ca7e71f60794b21b2f7efcdc4b573d5 -->
<g id="node10" class="node">
<title>3ca7e71f60794b21b2f7efcdc4b573d5</title>
<image xlink:href="/opt/homebrew/lib/python3.10/site-packages/resources/aws/database/rds.png" width="101px" height="101px" preserveAspectRatio="xMinYMin meet" x="168.5" y="-334"/>
<text text-anchor="middle" x="219" y="-218.6" font-family="Sans-Serif" font-size="13.00" fill="#2d3436">Aurora 5.6</text>
</g>
<!-- d1dc17332e7f4c60a2c5b1b486e754f4 -->
<g id="node11" class="node">
<title>d1dc17332e7f4c60a2c5b1b486e754f4</title>
<image xlink:href="/opt/homebrew/lib/python3.10/site-packages/resources/aws/database/elasticache-for-redis.png" width="101px" height="101px" preserveAspectRatio="xMinYMin meet" x="24.5" y="-334"/>
<text text-anchor="middle" x="75" y="-218.6" font-family="Sans-Serif" font-size="13.00" fill="#2d3436">Redis</text>
</g>
<!-- 652e0c49bd2742ffbad1ba9ed94dcae0&#45;&gt;c6881cb787a249e796ade83fe48cdadb -->
<g id="edge10" class="edge">
<title>652e0c49bd2742ffbad1ba9ed94dcae0&#45;&gt;c6881cb787a249e796ade83fe48cdadb</title>
<path fill="none" stroke="#7b8894" d="M1243.83,-204.06C1243.83,-204.06 1243.83,-167 1243.83,-167 1243.83,-167 1099.83,-167 1099.83,-167 1099.83,-167 1099.83,-166.39 1099.83,-166.39"/>
<polygon fill="#7b8894" stroke="#7b8894" points="1240.33,-204.06 1243.83,-214.06 1247.33,-204.06 1240.33,-204.06"/>
<polygon fill="#7b8894" stroke="#7b8894" points="1103.33,-171.9 1099.83,-161.9 1096.33,-171.9 1103.33,-171.9"/>
</g>
<!-- 652e0c49bd2742ffbad1ba9ed94dcae0&#45;&gt;097690f6efe04b0b93ef0c82d211ed42 -->
<g id="edge11" class="edge">
<title>652e0c49bd2742ffbad1ba9ed94dcae0&#45;&gt;097690f6efe04b0b93ef0c82d211ed42</title>
<path fill="none" stroke="#7b8894" d="M1260.67,-204.08C1260.67,-204.08 1260.67,-171.76 1260.67,-171.76"/>
<polygon fill="#7b8894" stroke="#7b8894" points="1264.17,-171.76 1260.67,-161.76 1257.17,-171.76 1264.17,-171.76"/>
<polygon fill="#7b8894" stroke="#7b8894" points="1257.17,-204.08 1260.67,-214.08 1264.17,-204.08 1257.17,-204.08"/>
</g>
<!-- 9a13755f528043b9b303691881441b20 -->
<g id="servicePods" class="node">
<title>9a13755f528043b9b303691881441b20</title>
<image xlink:href="/opt/homebrew/lib/python3.10/site-packages/resources/k8s/compute/pod.png" width="101px" height="101px" preserveAspectRatio="xMinYMin meet" x="1032.5" y="-334"/>
<text text-anchor="middle" x="1083" y="-218.6" font-family="Sans-Serif" font-size="13.00" fill="#2d3436">Other Microservices Pods... </text>
</g>
<!-- 9a13755f528043b9b303691881441b20&#45;&gt;6247b500c89c419187423d109fb8b11b -->
<g id="edge7" class="edge">
<title>9a13755f528043b9b303691881441b20&#45;&gt;6247b500c89c419187423d109fb8b11b</title>
<path fill="none" stroke="#7b8894" d="M1066.17,-208.72C1066.17,-208.72 1066.17,-208 1066.17,-208 1066.17,-208 543,-208 543,-208 543,-208 543,-208.72 543,-208.72"/>
<polygon fill="#7b8894" stroke="#7b8894" points="1062.67,-204.24 1066.17,-214.24 1069.67,-204.24 1062.67,-204.24"/>
<polygon fill="#7b8894" stroke="#7b8894" points="539.5,-204.24 543,-214.24 546.5,-204.24 539.5,-204.24"/>
</g>
<!-- 9a13755f528043b9b303691881441b20&#45;&gt;3ca7e71f60794b21b2f7efcdc4b573d5 -->
<g id="edge_datastore" class="edge">
<title>9a13755f528043b9b303691881441b20&#45;&gt;3ca7e71f60794b21b2f7efcdc4b573d5</title>
<path fill="none" stroke="#7b8894" d="M1066.17,-362.77C1066.17,-362.77 1066.17,-364 1066.17,-364 1066.17,-364 219,-364 219,-364 219,-364 219,-362.77 219,-362.77"/>
<polygon fill="#7b8894" stroke="#7b8894" points="1069.67,-362.77 1066.17,-352.77 1062.67,-362.77 1069.67,-362.77"/>
<polygon fill="#7b8894" stroke="#7b8894" points="222.5,-362.77 219,-352.77 215.5,-362.77 222.5,-362.77"/>
</g>
<!-- 9a13755f528043b9b303691881441b20&#45;&gt;d1dc17332e7f4c60a2c5b1b486e754f4 -->
<g id="edge_datastore" class="edge">
<title>9a13755f528043b9b303691881441b20&#45;&gt;d1dc17332e7f4c60a2c5b1b486e754f4</title>
<path fill="none" stroke="#7b8894" d="M1099.83,-362.7C1099.83,-362.7 1099.83,-376 1099.83,-376 1099.83,-376 75,-376 75,-376 75,-376 75,-362.7 75,-362.7"/>
<polygon fill="#7b8894" stroke="#7b8894" points="1103.33,-362.7 1099.83,-352.7 1096.33,-362.7 1103.33,-362.7"/>
<polygon fill="#7b8894" stroke="#7b8894" points="78.5,-362.7 75,-352.7 71.5,-362.7 78.5,-362.7"/>
</g>
<!-- b393cebe7f2e46f2904ceb1f4b4e9372 -->
<g id="node16" class="node">
<title>b393cebe7f2e46f2904ceb1f4b4e9372</title>
<image xlink:href="/opt/homebrew/lib/python3.10/site-packages/resources/aws/network/elb-network-load-balancer.png" width="101px" height="101px" preserveAspectRatio="xMinYMin meet" x="1608.5" y="-334"/>
<text text-anchor="middle" x="1659" y="-218.6" font-family="Sans-Serif" font-size="13.00" fill="#2d3436">HAProxy</text>
</g>
<!-- 138886fb1fbe4562884d0a0ae68ee67b -->
<g id="node17" class="node">
<title>138886fb1fbe4562884d0a0ae68ee67b</title>
<image xlink:href="/opt/homebrew/lib/python3.10/site-packages/resources/aws/compute/ec2.png" width="101px" height="101px" preserveAspectRatio="xMinYMin meet" x="1464.5" y="-334"/>
<text text-anchor="middle" x="1515" y="-218.6" font-family="Sans-Serif" font-size="13.00" fill="#2d3436">Owly Web</text>
</g>
<!-- 9a5deb7b95bb40e1a054f761cc81cf9f -->
<g id="node18" class="node">
<title>9a5deb7b95bb40e1a054f761cc81cf9f</title>
<image xlink:href="/opt/homebrew/lib/python3.10/site-packages/resources/aws/compute/ec2.png" width="101px" height="101px" preserveAspectRatio="xMinYMin meet" x="1320.5" y="-334"/>
<text text-anchor="middle" x="1371" y="-218.6" font-family="Sans-Serif" font-size="13.00" fill="#2d3436">Owly DBs</text>
</g>
</g>
</svg>
