<?xml version="1.0" encoding="UTF-8" standalone="no"?>
<!DOCTYPE svg PUBLIC "-//W3C//DTD SVG 1.1//EN"
 "http://www.w3.org/Graphics/SVG/1.1/DTD/svg11.dtd">
<!-- Generated by graphviz version 8.0.1 (20230327.1645)
 -->
<!-- Pages: 1 -->
<svg width="1726pt" height="889pt"
 viewBox="0.00 0.00 1726.00 889.00" xmlns="http://www.w3.org/2000/svg" xmlns:xlink="http://www.w3.org/1999/xlink">
<g id="graph0" class="graph" transform="scale(1 1) rotate(0) translate(144 745)">
<g id="cluster_production" class="cluster">
<title>cluster_Production/Staging</title>
<path fill="#e5f5fd" stroke="#aeb6be" d="M20,-191C20,-191 994,-191 994,-191 1000,-191 1006,-197 1006,-203 1006,-203 1006,-581 1006,-581 1006,-587 1000,-593 994,-593 994,-593 20,-593 20,-593 14,-593 8,-587 8,-581 8,-581 8,-203 8,-203 8,-197 14,-191 20,-191"/>
<text text-anchor="middle" x="67.5" y="-579.4" font-family="Sans-Serif" font-size="12.00" fill="#2d3436">Production/Staging</text>
</g>
<g id="cluster_edge_aperture" class="cluster">
<title>cluster_Aperture</title>
<path fill="#ebf3e7" stroke="#aeb6be" d="M28,-390C28,-390 266,-390 266,-390 272,-390 278,-396 278,-402 278,-402 278,-552 278,-552 278,-558 272,-564 266,-564 266,-564 28,-564 28,-564 22,-564 16,-558 16,-552 16,-552 16,-402 16,-402 16,-396 22,-390 28,-390"/>
<text text-anchor="middle" x="47" y="-550.4" font-family="Sans-Serif" font-size="12.00" fill="#2d3436">Aperture</text>
</g>
<g id="cluster_ec2" class="cluster">
<title>cluster_EC2 Services</title>
<path fill="#ebf3e7" stroke="#aeb6be" d="M28,-199C28,-199 554,-199 554,-199 560,-199 566,-205 566,-211 566,-211 566,-361 566,-361 566,-367 560,-373 554,-373 554,-373 28,-373 28,-373 22,-373 16,-367 16,-361 16,-361 16,-211 16,-211 16,-205 22,-199 28,-199"/>
<text text-anchor="middle" x="61" y="-359.4" font-family="Sans-Serif" font-size="12.00" fill="#2d3436">EC2 Services</text>
</g>
<g id="cluster_production" class="cluster">
<title>cluster_Vault</title>
<path fill="#ebf3e7" stroke="#aeb6be" d="M316,-390C316,-390 410,-390 410,-390 416,-390 422,-396 422,-402 422,-402 422,-552 422,-552 422,-558 416,-564 410,-564 410,-564 316,-564 316,-564 310,-564 304,-558 304,-552 304,-552 304,-402 304,-402 304,-396 310,-390 316,-390"/>
<text text-anchor="middle" x="325.5" y="-550.4" font-family="Sans-Serif" font-size="12.00" fill="#2d3436">Vault</text>
</g>
<g id="cluster_kafka" class="cluster">
<title>cluster_Event Bus (Kafka)</title>
<path fill="#ebf3e7" stroke="#aeb6be" d="M460,-390C460,-390 698,-390 698,-390 704,-390 710,-396 710,-402 710,-402 710,-552 710,-552 710,-558 704,-564 698,-564 698,-564 460,-564 460,-564 454,-564 448,-558 448,-552 448,-552 448,-402 448,-402 448,-396 454,-390 460,-390"/>
<text text-anchor="middle" x="504.5" y="-550.4" font-family="Sans-Serif" font-size="12.00" fill="#2d3436">Event Bus (Kafka)</text>
</g>
<g id="cluster_data_storage" class="cluster">
<title>cluster_Stateful Services</title>
<path fill="#ebf3e7" stroke="#aeb6be" d="M748,-390C748,-390 986,-390 986,-390 992,-390 998,-396 998,-402 998,-402 998,-552 998,-552 998,-558 992,-564 986,-564 986,-564 748,-564 748,-564 742,-564 736,-558 736,-552 736,-552 736,-402 736,-402 736,-396 742,-390 748,-390"/>
<text text-anchor="middle" x="789.5" y="-550.4" font-family="Sans-Serif" font-size="12.00" fill="#2d3436">Stateful Services</text>
</g>
<g id="cluster_k8s" class="cluster">
<title>cluster_Kubernetes Cluster</title>
<path fill="#e5f5fd" stroke="#aeb6be" d="M1026,-8C1026,-8 1408,-8 1408,-8 1414,-8 1420,-14 1420,-20 1420,-20 1420,-361 1420,-361 1420,-367 1414,-373 1408,-373 1408,-373 1026,-373 1026,-373 1020,-373 1014,-367 1014,-361 1014,-361 1014,-20 1014,-20 1014,-14 1020,-8 1026,-8"/>
<text text-anchor="middle" x="1073.5" y="-359.4" font-family="Sans-Serif" font-size="12.00" fill="#2d3436">Kubernetes Cluster</text>
</g>
<g id="cluster_owly" class="cluster">
<title>cluster_US&#45;West&#45;1 &#45; Owly</title>
<path fill="#e5f5fd" stroke="#aeb6be" d="M1036,-390C1036,-390 1418,-390 1418,-390 1424,-390 1430,-396 1430,-402 1430,-402 1430,-552 1430,-552 1430,-558 1424,-564 1418,-564 1418,-564 1036,-564 1036,-564 1030,-564 1024,-558 1024,-552 1024,-552 1024,-402 1024,-402 1024,-396 1030,-390 1036,-390"/>
<text text-anchor="middle" x="1080" y="-550.4" font-family="Sans-Serif" font-size="12.00" fill="#2d3436">US&#45;West&#45;1 &#45; Owly</text>
</g>
<!-- e0293ed20d4940a9a22233db55d2a778 -->
<g id="ec2_aperture_traefik" class="node">
<title>e0293ed20d4940a9a22233db55d2a778</title>
<image xlink:href="/opt/homebrew/lib/python3.10/site-packages/resources/aws/compute/application-auto-scaling.png" width="101px" height="101px" preserveAspectRatio="xMinYMin meet" x="24.5" y="-517"/>
<text text-anchor="middle" x="75" y="-401.6" font-family="Sans-Serif" font-size="13.00" fill="#2d3436">Traefik Aperture</text>
</g>
<!-- 90dc400599ee4bc5b1c1e7d5aa42dcd9 -->
<g id="ec2&#45;AuthFacade" class="node">
<title>90dc400599ee4bc5b1c1e7d5aa42dcd9</title>
<image xlink:href="/opt/homebrew/lib/python3.10/site-packages/resources/aws/compute/ec2.png" width="101px" height="101px" preserveAspectRatio="xMinYMin meet" x="456.5" y="-326"/>
<text text-anchor="middle" x="507" y="-210.6" font-family="Sans-Serif" font-size="13.00" fill="#2d3436">Auth Facade</text>
</g>
<!-- e0293ed20d4940a9a22233db55d2a778&#45;&gt;90dc400599ee4bc5b1c1e7d5aa42dcd9 -->
<g id="edge_ec2_traefik" class="edge">
<title>e0293ed20d4940a9a22233db55d2a778&#45;&gt;90dc400599ee4bc5b1c1e7d5aa42dcd9</title>
<path fill="none" stroke="#7b8894" d="M91.83,-387.13C91.83,-387.13 91.83,-364 91.83,-364 91.83,-364 507,-364 507,-364 507,-364 507,-354.92 507,-354.92"/>
<polygon fill="#7b8894" stroke="#7b8894" points="88.33,-387.13 91.83,-397.13 95.33,-387.13 88.33,-387.13"/>
<polygon fill="#7b8894" stroke="#7b8894" points="510.5,-354.92 507,-344.92 503.5,-354.92 510.5,-354.92"/>
</g>
<!-- 44c833644f484a799280d7221f58bbfa -->
<g id="ec2&#45;WebhookEgressProxy" class="node">
<title>44c833644f484a799280d7221f58bbfa</title>
<image xlink:href="/opt/homebrew/lib/python3.10/site-packages/resources/aws/compute/ec2.png" width="101px" height="101px" preserveAspectRatio="xMinYMin meet" x="312.5" y="-326"/>
<text text-anchor="middle" x="363" y="-210.6" font-family="Sans-Serif" font-size="13.00" fill="#2d3436">Webhook Egress Proxy</text>
</g>
<!-- e0293ed20d4940a9a22233db55d2a778&#45;&gt;44c833644f484a799280d7221f58bbfa -->
<g id="edge_ec2_traefik" class="edge">
<title>e0293ed20d4940a9a22233db55d2a778&#45;&gt;44c833644f484a799280d7221f58bbfa</title>
<path fill="none" stroke="#7b8894" d="M75,-387.09C75,-387.09 75,-357 75,-357 75,-357 337.75,-357 337.75,-357 337.75,-357 337.75,-354.91 337.75,-354.91"/>
<polygon fill="#7b8894" stroke="#7b8894" points="71.5,-387.09 75,-397.09 78.5,-387.09 71.5,-387.09"/>
<polygon fill="#7b8894" stroke="#7b8894" points="341.25,-354.91 337.75,-344.91 334.25,-354.91 341.25,-354.91"/>
</g>
<!-- 67a4ac1ddb574f999b94dc9dc489f4d2 -->
<g id="ec2&#45;ExternalAPI" class="node">
<title>67a4ac1ddb574f999b94dc9dc489f4d2</title>
<image xlink:href="/opt/homebrew/lib/python3.10/site-packages/resources/aws/compute/ec2.png" width="101px" height="101px" preserveAspectRatio="xMinYMin meet" x="168.5" y="-326"/>
<text text-anchor="middle" x="219" y="-210.6" font-family="Sans-Serif" font-size="13.00" fill="#2d3436">External API</text>
</g>
<!-- e0293ed20d4940a9a22233db55d2a778&#45;&gt;67a4ac1ddb574f999b94dc9dc489f4d2 -->
<g id="edge_ec2_traefik" class="edge">
<title>e0293ed20d4940a9a22233db55d2a778&#45;&gt;67a4ac1ddb574f999b94dc9dc489f4d2</title>
<path fill="none" stroke="#7b8894" d="M58.17,-387.06C58.17,-387.06 58.17,-350 58.17,-350 58.17,-350 202.17,-350 202.17,-350 202.17,-350 202.17,-349.39 202.17,-349.39"/>
<polygon fill="#7b8894" stroke="#7b8894" points="54.67,-387.06 58.17,-397.06 61.67,-387.06 54.67,-387.06"/>
<polygon fill="#7b8894" stroke="#7b8894" points="205.67,-354.9 202.17,-344.9 198.67,-354.9 205.67,-354.9"/>
</g>
<!-- 270a1ae779c8433aa2a163294e7550db -->
<g id="ec2&#45;DataDeletion" class="node">
<title>270a1ae779c8433aa2a163294e7550db</title>
<image xlink:href="/opt/homebrew/lib/python3.10/site-packages/resources/aws/compute/ec2.png" width="101px" height="101px" preserveAspectRatio="xMinYMin meet" x="24.5" y="-326"/>
<text text-anchor="middle" x="75" y="-210.6" font-family="Sans-Serif" font-size="13.00" fill="#2d3436">Data Deletion</text>
</g>
<!-- e0293ed20d4940a9a22233db55d2a778&#45;&gt;270a1ae779c8433aa2a163294e7550db -->
<g id="edge_ec2_traefik" class="edge">
<title>e0293ed20d4940a9a22233db55d2a778&#45;&gt;270a1ae779c8433aa2a163294e7550db</title>
<path fill="none" stroke="#7b8894" d="M41.33,-387.08C41.33,-387.08 41.33,-354.76 41.33,-354.76"/>
<polygon fill="#7b8894" stroke="#7b8894" points="44.83,-354.76 41.33,-344.76 37.83,-354.76 44.83,-354.76"/>
<polygon fill="#7b8894" stroke="#7b8894" points="37.83,-387.08 41.33,-397.08 44.83,-387.08 37.83,-387.08"/>
</g>
<!-- ccd512f5deae4f59abaaa731541f297e -->
<g id="node12" class="node">
<title>ccd512f5deae4f59abaaa731541f297e</title>
<image xlink:href="/opt/homebrew/lib/python3.10/site-packages/resources/aws/network/elb-network-load-balancer.png" width="101px" height="101px" preserveAspectRatio="xMinYMin meet" x="1022.5" y="-326"/>
<text text-anchor="middle" x="1073" y="-210.6" font-family="Sans-Serif" font-size="13.00" fill="#2d3436">Traefik Ingress</text>
</g>
<!-- e0293ed20d4940a9a22233db55d2a778&#45;&gt;ccd512f5deae4f59abaaa731541f297e -->
<g id="edge1" class="edge">
<title>e0293ed20d4940a9a22233db55d2a778&#45;&gt;ccd512f5deae4f59abaaa731541f297e</title>
<path fill="none" stroke="#7b8894" d="M108.67,-398.11C108.67,-382.8 108.67,-371 108.67,-371 108.67,-371 1025.83,-371 1025.83,-371 1025.83,-371 1025.83,-354.89 1025.83,-354.89"/>
<polygon fill="#7b8894" stroke="#7b8894" points="1029.33,-354.89 1025.83,-344.89 1022.33,-354.89 1029.33,-354.89"/>
</g>
<!-- c7275020309947ca95fc0d90882b5c20 -->
<g id="ec2_aperture_authfacade" class="node">
<title>c7275020309947ca95fc0d90882b5c20</title>
<image xlink:href="/opt/homebrew/lib/python3.10/site-packages/resources/aws/compute/application-auto-scaling.png" width="101px" height="101px" preserveAspectRatio="xMinYMin meet" x="168.5" y="-517"/>
<text text-anchor="middle" x="219" y="-401.6" font-family="Sans-Serif" font-size="13.00" fill="#2d3436">Auth Facade</text>
</g>
<!-- c7275020309947ca95fc0d90882b5c20&#45;&gt;ccd512f5deae4f59abaaa731541f297e -->
<g id="edge2" class="edge">
<title>c7275020309947ca95fc0d90882b5c20&#45;&gt;ccd512f5deae4f59abaaa731541f297e</title>
<path fill="none" stroke="#7b8894" d="M235.83,-398.21C235.83,-385.96 235.83,-377 235.83,-377 235.83,-377 1029.17,-377 1029.17,-377 1029.17,-377 1029.17,-354.77 1029.17,-354.77"/>
<polygon fill="#7b8894" stroke="#7b8894" points="1032.67,-354.77 1029.17,-344.77 1025.67,-354.77 1032.67,-354.77"/>
</g>
<!-- a0dcae5c0cce4274867af2b21d6f65f3 -->
<g id="ec2&#45;vault" class="node">
<title>a0dcae5c0cce4274867af2b21d6f65f3</title>
<image xlink:href="/opt/homebrew/lib/python3.10/site-packages/resources/aws/compute/ec2.png" width="101px" height="101px" preserveAspectRatio="xMinYMin meet" x="312.5" y="-517"/>
<text text-anchor="middle" x="363" y="-401.6" font-family="Sans-Serif" font-size="13.00" fill="#2d3436">Vault</text>
</g>
<!-- 7f67fc6f1d9e4b81bdc7546c57d60961 -->
<g id="dashboard" class="node">
<title>7f67fc6f1d9e4b81bdc7546c57d60961</title>
<image xlink:href="/opt/homebrew/lib/python3.10/site-packages/resources/k8s/compute/pod.png" width="101px" height="101px" preserveAspectRatio="xMinYMin meet" x="1166.5" y="-326"/>
<text text-anchor="middle" x="1217" y="-210.6" font-family="Sans-Serif" font-size="13.00" fill="#2d3436">Dashboard PHP</text>
</g>
<!-- a0dcae5c0cce4274867af2b21d6f65f3&#45;&gt;7f67fc6f1d9e4b81bdc7546c57d60961 -->
<g id="edge8" class="edge">
<title>a0dcae5c0cce4274867af2b21d6f65f3&#45;&gt;7f67fc6f1d9e4b81bdc7546c57d60961</title>
<path fill="none" stroke="#7b8894" d="M363,-387.37C363,-387.37 363,-384 363,-384 363,-384 1171.5,-384 1171.5,-384 1171.5,-384 1171.5,-354.91 1171.5,-354.91"/>
<polygon fill="#7b8894" stroke="#7b8894" points="359.5,-387.37 363,-397.37 366.5,-387.37 359.5,-387.37"/>
<polygon fill="#7b8894" stroke="#7b8894" points="1175,-354.91 1171.5,-344.91 1168,-354.91 1175,-354.91"/>
</g>
<!-- e8d1e06ae4df4d57ab38a4aa19db8e3e -->
<g id="amplify" class="node">
<title>e8d1e06ae4df4d57ab38a4aa19db8e3e</title>
<image xlink:href="/opt/homebrew/lib/python3.10/site-packages/resources/k8s/compute/pod.png" width="101px" height="101px" preserveAspectRatio="xMinYMin meet" x="1310.5" y="-326"/>
<text text-anchor="middle" x="1361" y="-210.6" font-family="Sans-Serif" font-size="13.00" fill="#2d3436">Amplify</text>
</g>
<!-- a0dcae5c0cce4274867af2b21d6f65f3&#45;&gt;e8d1e06ae4df4d57ab38a4aa19db8e3e -->
<g id="edge9" class="edge">
<title>a0dcae5c0cce4274867af2b21d6f65f3&#45;&gt;e8d1e06ae4df4d57ab38a4aa19db8e3e</title>
<path fill="none" stroke="#7b8894" d="M388.25,-391.72C388.25,-391.72 388.25,-391 388.25,-391 388.25,-391 1315.5,-391 1315.5,-391 1315.5,-391 1315.5,-354.69 1315.5,-354.69"/>
<polygon fill="#7b8894" stroke="#7b8894" points="384.75,-387.24 388.25,-397.24 391.75,-387.24 384.75,-387.24"/>
<polygon fill="#7b8894" stroke="#7b8894" points="1319,-354.69 1315.5,-344.69 1312,-354.69 1319,-354.69"/>
</g>
<!-- b000cdb95e654fe3a166c6c86aa487f5 -->
<g id="node8" class="node">
<title>b000cdb95e654fe3a166c6c86aa487f5</title>
<image xlink:href="/opt/homebrew/lib/python3.10/site-packages/resources/onprem/queue/kafka.png" width="101px" height="101px" preserveAspectRatio="xMinYMin meet" x="600.5" y="-517"/>
<text text-anchor="middle" x="651" y="-401.6" font-family="Sans-Serif" font-size="13.00" fill="#2d3436">Kafka</text>
</g>
<!-- f232fac4dd6547e0b3a6c77e5e52fb47 -->
<g id="node9" class="node">
<title>f232fac4dd6547e0b3a6c77e5e52fb47</title>
<image xlink:href="/opt/homebrew/lib/python3.10/site-packages/resources/onprem/network/zookeeper.png" width="101px" height="101px" preserveAspectRatio="xMinYMin meet" x="456.5" y="-517"/>
<text text-anchor="middle" x="507" y="-401.6" font-family="Sans-Serif" font-size="13.00" fill="#2d3436">Zookeeper</text>
</g>
<!-- 222b39bf4d39482c8b4311e72856a87c -->
<g id="node10" class="node">
<title>222b39bf4d39482c8b4311e72856a87c</title>
<image xlink:href="/opt/homebrew/lib/python3.10/site-packages/resources/aws/database/rds.png" width="101px" height="101px" preserveAspectRatio="xMinYMin meet" x="744.5" y="-517"/>
<text text-anchor="middle" x="795" y="-401.6" font-family="Sans-Serif" font-size="13.00" fill="#2d3436">Aurora 5.6</text>
</g>
<!-- e1d9192898a9436280a2ac0595057c02 -->
<g id="node11" class="node">
<title>e1d9192898a9436280a2ac0595057c02</title>
<image xlink:href="/opt/homebrew/lib/python3.10/site-packages/resources/aws/database/elasticache-for-redis.png" width="101px" height="101px" preserveAspectRatio="xMinYMin meet" x="888.5" y="-517"/>
<text text-anchor="middle" x="939" y="-401.6" font-family="Sans-Serif" font-size="13.00" fill="#2d3436">Redis</text>
</g>
<!-- e9506f9572ef436088250ecadeab6d7f -->
<g id="servicePods" class="node">
<title>e9506f9572ef436088250ecadeab6d7f</title>
<image xlink:href="/opt/homebrew/lib/python3.10/site-packages/resources/k8s/compute/pod.png" width="101px" height="101px" preserveAspectRatio="xMinYMin meet" x="1310.5" y="-135"/>
<text text-anchor="middle" x="1361" y="-19.6" font-family="Sans-Serif" font-size="13.00" fill="#2d3436">Other Microservices Pods... </text>
</g>
<!-- ccd512f5deae4f59abaaa731541f297e&#45;&gt;e9506f9572ef436088250ecadeab6d7f -->
<g id="edge10" class="edge">
<title>ccd512f5deae4f59abaaa731541f297e&#45;&gt;e9506f9572ef436088250ecadeab6d7f</title>
<path fill="none" stroke="#7b8894" d="M1073,-196.3C1073,-196.3 1073,-125 1073,-125 1073,-125 1299.5,-125 1299.5,-125"/>
<polygon fill="#7b8894" stroke="#7b8894" points="1069.5,-196.3 1073,-206.3 1076.5,-196.3 1069.5,-196.3"/>
<polygon fill="#7b8894" stroke="#7b8894" points="1299.5,-128.5 1309.5,-125 1299.5,-121.5 1299.5,-128.5"/>
</g>
<!-- e9506f9572ef436088250ecadeab6d7f&#45;&gt;b000cdb95e654fe3a166c6c86aa487f5 -->
<g id="edge7" class="edge">
<title>e9506f9572ef436088250ecadeab6d7f&#45;&gt;b000cdb95e654fe3a166c6c86aa487f5</title>
<path fill="none" stroke="#7b8894" d="M1299.51,-43C1299.51,-43 651,-43 651,-43 651,-43 651,-387.46 651,-387.46"/>
<polygon fill="#7b8894" stroke="#7b8894" points="1299.51,-46.5 1309.51,-43 1299.51,-39.5 1299.51,-46.5"/>
<polygon fill="#7b8894" stroke="#7b8894" points="647.5,-387.46 651,-397.46 654.5,-387.46 647.5,-387.46"/>
</g>
<!-- e9506f9572ef436088250ecadeab6d7f&#45;&gt;222b39bf4d39482c8b4311e72856a87c -->
<g id="edge_datastore" class="edge">
<title>e9506f9572ef436088250ecadeab6d7f&#45;&gt;222b39bf4d39482c8b4311e72856a87c</title>
<path fill="none" stroke="#7b8894" d="M1299.52,-70C1299.52,-70 795,-70 795,-70 795,-70 795,-387.34 795,-387.34"/>
<polygon fill="#7b8894" stroke="#7b8894" points="1299.52,-73.5 1309.52,-70 1299.52,-66.5 1299.52,-73.5"/>
<polygon fill="#7b8894" stroke="#7b8894" points="791.5,-387.34 795,-397.34 798.5,-387.34 791.5,-387.34"/>
</g>
<!-- e9506f9572ef436088250ecadeab6d7f&#45;&gt;e1d9192898a9436280a2ac0595057c02 -->
<g id="edge_datastore" class="edge">
<title>e9506f9572ef436088250ecadeab6d7f&#45;&gt;e1d9192898a9436280a2ac0595057c02</title>
<path fill="none" stroke="#7b8894" d="M1299.52,-98C1299.52,-98 939,-98 939,-98 939,-98 939,-387.05 939,-387.05"/>
<polygon fill="#7b8894" stroke="#7b8894" points="1299.52,-101.5 1309.52,-98 1299.52,-94.5 1299.52,-101.5"/>
<polygon fill="#7b8894" stroke="#7b8894" points="935.5,-387.05 939,-397.05 942.5,-387.05 935.5,-387.05"/>
</g>
<!-- 0e46f086219b449b9fc960dab666154e -->
<g id="haproxy" class="node">
<title>0e46f086219b449b9fc960dab666154e</title>
<image xlink:href="/opt/homebrew/lib/python3.10/site-packages/resources/aws/network/elb-network-load-balancer.png" width="101px" height="101px" preserveAspectRatio="xMinYMin meet" x="1320.5" y="-517"/>
<text text-anchor="middle" x="1371" y="-401.6" font-family="Sans-Serif" font-size="13.00" fill="#2d3436">HAProxy</text>
</g>
<!-- a9ffb6af7b4c4e29b7dfb834c2d6d81c -->
<g id="owlyweb" class="node">
<title>a9ffb6af7b4c4e29b7dfb834c2d6d81c</title>
<image xlink:href="/opt/homebrew/lib/python3.10/site-packages/resources/aws/compute/ec2.png" width="101px" height="101px" preserveAspectRatio="xMinYMin meet" x="1176.5" y="-517"/>
<text text-anchor="middle" x="1227" y="-401.6" font-family="Sans-Serif" font-size="13.00" fill="#2d3436">Owly Web</text>
</g>
<!-- c868cf3a7c1741b79924a8b42686017c -->
<g id="owly&#45;analytics" class="node">
<title>c868cf3a7c1741b79924a8b42686017c</title>
<image xlink:href="/opt/homebrew/lib/python3.10/site-packages/resources/aws/compute/ec2.png" width="101px" height="101px" preserveAspectRatio="xMinYMin meet" x="1032.5" y="-517"/>
<text text-anchor="middle" x="1083" y="-401.6" font-family="Sans-Serif" font-size="13.00" fill="#2d3436">Owly Analytics</text>
</g>
</g>
</svg>
