<?xml version="1.0" encoding="UTF-8" standalone="no"?>
<!DOCTYPE svg PUBLIC "-//W3C//DTD SVG 1.1//EN"
 "http://www.w3.org/Graphics/SVG/1.1/DTD/svg11.dtd">
<!-- Generated by graphviz version 7.0.0 (20221023.0053)
 -->
<!-- Pages: 1 -->
<svg width="2870pt" height="2444pt"
 viewBox="0.00 0.00 2870.00 2444.00" xmlns="http://www.w3.org/2000/svg" xmlns:xlink="http://www.w3.org/1999/xlink">
<g id="graph0" class="graph" transform="scale(1 1) rotate(0) translate(144 2300)">
<g id="cluster_edge" class="cluster">
<title>cluster_Edge</title>
<path fill="#e5f5fd" stroke="#aeb6be" d="M1020,-1584C1020,-1584 1274,-1584 1274,-1584 1280,-1584 1286,-1590 1286,-1596 1286,-1596 1286,-2136 1286,-2136 1286,-2142 1280,-2148 1274,-2148 1274,-2148 1020,-2148 1020,-2148 1014,-2148 1008,-2142 1008,-2136 1008,-2136 1008,-1596 1008,-1596 1008,-1590 1014,-1584 1020,-1584"/>
<text text-anchor="middle" x="1030.5" y="-2134.4" font-family="Sans-Serif" font-size="12.00" fill="#2d3436">Edge</text>
</g>
<g id="cluster_auth_facade" class="cluster">
<title>cluster_Auth Facade</title>
<path fill="#ebf3e7" stroke="#aeb6be" d="M1028,-1592C1028,-1592 1122,-1592 1122,-1592 1128,-1592 1134,-1598 1134,-1604 1134,-1604 1134,-1945 1134,-1945 1134,-1951 1128,-1957 1122,-1957 1122,-1957 1028,-1957 1028,-1957 1022,-1957 1016,-1951 1016,-1945 1016,-1945 1016,-1604 1016,-1604 1016,-1598 1022,-1592 1028,-1592"/>
<text text-anchor="middle" x="1058.5" y="-1943.4" font-family="Sans-Serif" font-size="12.00" fill="#2d3436">Auth Facade</text>
</g>
<g id="cluster_aperture" class="cluster">
<title>cluster_Aperture</title>
<path fill="#ebf3e7" stroke="#aeb6be" d="M1172,-1592C1172,-1592 1266,-1592 1266,-1592 1272,-1592 1278,-1598 1278,-1604 1278,-1604 1278,-1945 1278,-1945 1278,-1951 1272,-1957 1266,-1957 1266,-1957 1172,-1957 1172,-1957 1166,-1957 1160,-1951 1160,-1945 1160,-1945 1160,-1604 1160,-1604 1160,-1598 1166,-1592 1172,-1592"/>
<text text-anchor="middle" x="1191" y="-1943.4" font-family="Sans-Serif" font-size="12.00" fill="#2d3436">Aperture</text>
</g>
<g id="cluster_k8s" class="cluster">
<title>cluster_Kubernetes Cluster</title>
<path fill="#e5f5fd" stroke="#aeb6be" d="M1236,-418C1236,-418 1922,-418 1922,-418 1928,-418 1934,-424 1934,-430 1934,-430 1934,-999 1934,-999 1934,-1005 1928,-1011 1922,-1011 1922,-1011 1236,-1011 1236,-1011 1230,-1011 1224,-1005 1224,-999 1224,-999 1224,-430 1224,-430 1224,-424 1230,-418 1236,-418"/>
<text text-anchor="middle" x="1283.5" y="-997.4" font-family="Sans-Serif" font-size="12.00" fill="#2d3436">Kubernetes Cluster</text>
</g>
<g id="cluster_k8s_ingress" class="cluster">
<title>cluster_Ingress Nodes</title>
<path fill="#ebf3e7" stroke="#aeb6be" d="M1460,-617C1460,-617 1554,-617 1554,-617 1560,-617 1566,-623 1566,-629 1566,-629 1566,-970 1566,-970 1566,-976 1560,-982 1554,-982 1554,-982 1460,-982 1460,-982 1454,-982 1448,-976 1448,-970 1448,-970 1448,-629 1448,-629 1448,-623 1454,-617 1460,-617"/>
<text text-anchor="middle" x="1495" y="-968.4" font-family="Sans-Serif" font-size="12.00" fill="#2d3436">Ingress Nodes</text>
</g>
<g id="cluster_k8s_worker" class="cluster">
<title>cluster_Worker Nodes</title>
<path fill="#ebf3e7" stroke="#aeb6be" d="M1244,-426C1244,-426 1914,-426 1914,-426 1920,-426 1926,-432 1926,-438 1926,-438 1926,-588 1926,-588 1926,-594 1920,-600 1914,-600 1914,-600 1244,-600 1244,-600 1238,-600 1232,-594 1232,-588 1232,-588 1232,-438 1232,-438 1232,-432 1238,-426 1244,-426"/>
<text text-anchor="middle" x="1278.5" y="-586.4" font-family="Sans-Serif" font-size="12.00" fill="#2d3436">Worker Nodes</text>
</g>
<g id="cluster_ec2" class="cluster">
<title>cluster_EC2 Services</title>
<path fill="#e5f5fd" stroke="#aeb6be" d="M20,-1401C20,-1401 2418,-1401 2418,-1401 2424,-1401 2430,-1407 2430,-1413 2430,-1413 2430,-1563 2430,-1563 2430,-1569 2424,-1575 2418,-1575 2418,-1575 20,-1575 20,-1575 14,-1575 8,-1569 8,-1563 8,-1563 8,-1413 8,-1413 8,-1407 14,-1401 20,-1401"/>
<text text-anchor="middle" x="53" y="-1561.4" font-family="Sans-Serif" font-size="12.00" fill="#2d3436">EC2 Services</text>
</g>
<g id="cluster_skyline" class="cluster">
<title>cluster_Skyline</title>
<path fill="#e5f5fd" stroke="#aeb6be" d="M1460,-1019C1460,-1019 1554,-1019 1554,-1019 1560,-1019 1566,-1025 1566,-1031 1566,-1031 1566,-1372 1566,-1372 1566,-1378 1560,-1384 1554,-1384 1554,-1384 1460,-1384 1460,-1384 1454,-1384 1448,-1378 1448,-1372 1448,-1372 1448,-1031 1448,-1031 1448,-1025 1454,-1019 1460,-1019"/>
<text text-anchor="middle" x="1476" y="-1370.4" font-family="Sans-Serif" font-size="12.00" fill="#2d3436">Skyline</text>
</g>
<g id="cluster_kafka" class="cluster">
<title>cluster_Event Bus (Kafka)</title>
<path fill="#e5f5fd" stroke="#aeb6be" d="M1277,-8C1277,-8 1531,-8 1531,-8 1537,-8 1543,-14 1543,-20 1543,-20 1543,-398 1543,-398 1543,-404 1537,-410 1531,-410 1531,-410 1277,-410 1277,-410 1271,-410 1265,-404 1265,-398 1265,-398 1265,-20 1265,-20 1265,-14 1271,-8 1277,-8"/>
<text text-anchor="middle" x="1321.5" y="-396.4" font-family="Sans-Serif" font-size="12.00" fill="#2d3436">Event Bus (Kafka)</text>
</g>
<g id="cluster_kafka_vpc" class="cluster">
<title>cluster_VPC</title>
<path fill="#ebf3e7" stroke="#aeb6be" d="M1285,-207C1285,-207 1523,-207 1523,-207 1529,-207 1535,-213 1535,-219 1535,-219 1535,-369 1535,-369 1535,-375 1529,-381 1523,-381 1523,-381 1285,-381 1285,-381 1279,-381 1273,-375 1273,-369 1273,-369 1273,-219 1273,-219 1273,-213 1279,-207 1285,-207"/>
<text text-anchor="middle" x="1294" y="-367.4" font-family="Sans-Serif" font-size="12.00" fill="#2d3436">VPC</text>
</g>
<g id="cluster_kafka_limbo" class="cluster">
<title>cluster_EC2 Classic aka Limbo</title>
<path fill="#ebf3e7" stroke="#aeb6be" d="M1285,-16C1285,-16 1523,-16 1523,-16 1529,-16 1535,-22 1535,-28 1535,-28 1535,-178 1535,-178 1535,-184 1529,-190 1523,-190 1523,-190 1285,-190 1285,-190 1279,-190 1273,-184 1273,-178 1273,-178 1273,-28 1273,-28 1273,-22 1279,-16 1285,-16"/>
<text text-anchor="middle" x="1344" y="-176.4" font-family="Sans-Serif" font-size="12.00" fill="#2d3436">EC2 Classic aka Limbo</text>
</g>
<g id="cluster_data_storage" class="cluster">
<title>cluster_Data Storage</title>
<path fill="#e5f5fd" stroke="#aeb6be" d="M1748,-207C1748,-207 2562,-207 2562,-207 2568,-207 2574,-213 2574,-219 2574,-219 2574,-369 2574,-369 2574,-375 2568,-381 2562,-381 2562,-381 1748,-381 1748,-381 1742,-381 1736,-375 1736,-369 1736,-369 1736,-219 1736,-219 1736,-213 1742,-207 1748,-207"/>
<text text-anchor="middle" x="1779.5" y="-367.4" font-family="Sans-Serif" font-size="12.00" fill="#2d3436">Data Storage</text>
</g>
<!-- b5c4b440fcfd4c75be9c5f09acd59fee -->
<g id="node1" class="node">
<title>b5c4b440fcfd4c75be9c5f09acd59fee</title>
<image xlink:href="/usr/local/lib/python3.10/site-packages/resources/aws/network/route-53.png" width="101px" height="101px" preserveAspectRatio="xMinYMin meet" x="1096.5" y="-2101"/>
<text text-anchor="middle" x="1147" y="-1985.6" font-family="Sans-Serif" font-size="13.00" fill="#2d3436">dns</text>
</g>
<!-- a623f8dac08142349719ae97f21b9045 -->
<g id="node3" class="node">
<title>a623f8dac08142349719ae97f21b9045</title>
<image xlink:href="/usr/local/lib/python3.10/site-packages/resources/aws/network/elb-application-load-balancer.png" width="101px" height="101px" preserveAspectRatio="xMinYMin meet" x="1024.5" y="-1910"/>
<text text-anchor="middle" x="1075" y="-1794.6" font-family="Sans-Serif" font-size="13.00" fill="#2d3436">Auth Facade ALB</text>
</g>
<!-- b5c4b440fcfd4c75be9c5f09acd59fee&#45;&gt;a623f8dac08142349719ae97f21b9045 -->
<g id="edge9" class="edge">
<title>b5c4b440fcfd4c75be9c5f09acd59fee&#45;&gt;a623f8dac08142349719ae97f21b9045</title>
<path fill="none" stroke="#7b8894" d="M1111,-1982.08C1111,-1982.08 1111,-1939.27 1111,-1939.27"/>
<polygon fill="#7b8894" stroke="#7b8894" points="1114.5,-1939.27 1111,-1929.27 1107.5,-1939.27 1114.5,-1939.27"/>
</g>
<!-- ac669eb48d6c4be3b0e341a9cf55d58d -->
<g id="apertureNLB" class="node">
<title>ac669eb48d6c4be3b0e341a9cf55d58d</title>
<image xlink:href="/usr/local/lib/python3.10/site-packages/resources/aws/network/elb-network-load-balancer.png" width="101px" height="101px" preserveAspectRatio="xMinYMin meet" x="1168.5" y="-1910"/>
<text text-anchor="middle" x="1219" y="-1794.6" font-family="Sans-Serif" font-size="13.00" fill="#2d3436">Aperture NLB</text>
</g>
<!-- b5c4b440fcfd4c75be9c5f09acd59fee&#45;&gt;ac669eb48d6c4be3b0e341a9cf55d58d -->
<g id="edge6" class="edge">
<title>b5c4b440fcfd4c75be9c5f09acd59fee&#45;&gt;ac669eb48d6c4be3b0e341a9cf55d58d</title>
<path fill="none" stroke="#7b8894" d="M1183,-1982.08C1183,-1982.08 1183,-1939.27 1183,-1939.27"/>
<polygon fill="#7b8894" stroke="#7b8894" points="1186.5,-1939.27 1183,-1929.27 1179.5,-1939.27 1186.5,-1939.27"/>
</g>
<!-- f1e1a1d2ea4548dbba331833bca253cd -->
<g id="node2" class="node">
<title>f1e1a1d2ea4548dbba331833bca253cd</title>
<image xlink:href="/usr/local/lib/python3.10/site-packages/resources/aws/compute/application-auto-scaling.png" width="101px" height="101px" preserveAspectRatio="xMinYMin meet" x="1024.5" y="-1719"/>
<text text-anchor="middle" x="1075" y="-1603.6" font-family="Sans-Serif" font-size="13.00" fill="#2d3436">Auth Facade</text>
</g>
<!-- c6edaa91a72f476eb8c8e13c5798c3ff -->
<g id="node6" class="node">
<title>c6edaa91a72f476eb8c8e13c5798c3ff</title>
<image xlink:href="/usr/local/lib/python3.10/site-packages/resources/aws/network/elb-network-load-balancer.png" width="101px" height="101px" preserveAspectRatio="xMinYMin meet" x="1456.5" y="-935"/>
<text text-anchor="middle" x="1507" y="-819.6" font-family="Sans-Serif" font-size="13.00" fill="#2d3436">Ingress LB</text>
</g>
<!-- f1e1a1d2ea4548dbba331833bca253cd&#45;&gt;c6edaa91a72f476eb8c8e13c5798c3ff -->
<g id="edge11" class="edge">
<title>f1e1a1d2ea4548dbba331833bca253cd&#45;&gt;c6edaa91a72f476eb8c8e13c5798c3ff</title>
<path fill="none" stroke="#7b8894" d="M1125.4,-1668C1137.5,-1668 1147,-1668 1147,-1668 1147,-1668 1147,-861 1147,-861 1147,-861 1445.05,-861 1445.05,-861"/>
<polygon fill="#7b8894" stroke="#7b8894" points="1445.05,-864.5 1455.05,-861 1445.05,-857.5 1445.05,-864.5"/>
</g>
<!-- a623f8dac08142349719ae97f21b9045&#45;&gt;f1e1a1d2ea4548dbba331833bca253cd -->
<g id="edge10" class="edge">
<title>a623f8dac08142349719ae97f21b9045&#45;&gt;f1e1a1d2ea4548dbba331833bca253cd</title>
<path fill="none" stroke="#7b8894" d="M1075,-1791.08C1075,-1791.08 1075,-1748.27 1075,-1748.27"/>
<polygon fill="#7b8894" stroke="#7b8894" points="1078.5,-1748.27 1075,-1738.27 1071.5,-1748.27 1078.5,-1748.27"/>
</g>
<!-- cfa40167eb8c478eaedaef63134f7adb -->
<g id="traefik" class="node">
<title>cfa40167eb8c478eaedaef63134f7adb</title>
<image xlink:href="/usr/local/lib/python3.10/site-packages/resources/aws/compute/application-auto-scaling.png" width="101px" height="101px" preserveAspectRatio="xMinYMin meet" x="1168.5" y="-1719"/>
<text text-anchor="middle" x="1219" y="-1603.6" font-family="Sans-Serif" font-size="13.00" fill="#2d3436">Aperture Traefik</text>
</g>
<!-- ac669eb48d6c4be3b0e341a9cf55d58d&#45;&gt;cfa40167eb8c478eaedaef63134f7adb -->
<g id="edge7" class="edge">
<title>ac669eb48d6c4be3b0e341a9cf55d58d&#45;&gt;cfa40167eb8c478eaedaef63134f7adb</title>
<path fill="none" stroke="#7b8894" d="M1219,-1791.08C1219,-1791.08 1219,-1748.27 1219,-1748.27"/>
<polygon fill="#7b8894" stroke="#7b8894" points="1222.5,-1748.27 1219,-1738.27 1215.5,-1748.27 1222.5,-1748.27"/>
</g>
<!-- cfa40167eb8c478eaedaef63134f7adb&#45;&gt;c6edaa91a72f476eb8c8e13c5798c3ff -->
<g id="edge8" class="edge">
<title>cfa40167eb8c478eaedaef63134f7adb&#45;&gt;c6edaa91a72f476eb8c8e13c5798c3ff</title>
<path fill="none" stroke="#7b8894" d="M1269.4,-1682C1281.5,-1682 1291,-1682 1291,-1682 1291,-1682 1291,-907 1291,-907 1291,-907 1445.12,-907 1445.12,-907"/>
<polygon fill="#7b8894" stroke="#7b8894" points="1445.12,-910.5 1455.12,-907 1445.12,-903.5 1445.12,-910.5"/>
</g>
<!-- c10b7504df0846aabf6e45bbd70c2a63 -->
<g id="ec2&#45;Aperture Authz" class="node">
<title>c10b7504df0846aabf6e45bbd70c2a63</title>
<image xlink:href="/usr/local/lib/python3.10/site-packages/resources/aws/compute/ec2.png" width="101px" height="101px" preserveAspectRatio="xMinYMin meet" x="1456.5" y="-1528"/>
<text text-anchor="middle" x="1507" y="-1412.6" font-family="Sans-Serif" font-size="13.00" fill="#2d3436">Aperture Authz</text>
</g>
<!-- cfa40167eb8c478eaedaef63134f7adb&#45;&gt;c10b7504df0846aabf6e45bbd70c2a63 -->
<g id="edge42" class="edge">
<title>cfa40167eb8c478eaedaef63134f7adb&#45;&gt;c10b7504df0846aabf6e45bbd70c2a63</title>
<path fill="none" stroke="black" stroke-dasharray="5,2" d="M1281.01,-1627C1281.01,-1627 1507,-1627 1507,-1627 1507,-1627 1507,-1557.2 1507,-1557.2"/>
<polygon fill="black" stroke="black" points="1281.01,-1623.5 1271.01,-1627 1281.01,-1630.5 1281.01,-1623.5"/>
<polygon fill="black" stroke="black" points="1510.5,-1557.2 1507,-1547.2 1503.5,-1557.2 1510.5,-1557.2"/>
</g>
<!-- 779882b976fb4c8ebe838a69b5d09eb3 -->
<g id="ec2&#45;Dashboard&#45;Web" class="node">
<title>779882b976fb4c8ebe838a69b5d09eb3</title>
<image xlink:href="/usr/local/lib/python3.10/site-packages/resources/aws/compute/ec2.png" width="101px" height="101px" preserveAspectRatio="xMinYMin meet" x="1312.5" y="-1528"/>
<text text-anchor="middle" x="1363" y="-1412.6" font-family="Sans-Serif" font-size="13.00" fill="#2d3436">Dashboard&#45;Web</text>
</g>
<!-- cfa40167eb8c478eaedaef63134f7adb&#45;&gt;779882b976fb4c8ebe838a69b5d09eb3 -->
<g id="edge27" class="edge">
<title>cfa40167eb8c478eaedaef63134f7adb&#45;&gt;779882b976fb4c8ebe838a69b5d09eb3</title>
<path fill="none" stroke="black" stroke-dasharray="5,2" d="M1280.88,-1613C1280.88,-1613 1363,-1613 1363,-1613 1363,-1613 1363,-1557.16 1363,-1557.16"/>
<polygon fill="black" stroke="black" points="1280.88,-1609.5 1270.88,-1613 1280.88,-1616.5 1280.88,-1609.5"/>
<polygon fill="black" stroke="black" points="1366.5,-1557.16 1363,-1547.16 1359.5,-1557.16 1366.5,-1557.16"/>
</g>
<!-- 3cc29c2062164510adc0b354efab2208 -->
<g id="ec2&#45;Dashboard&#45;Gear" class="node">
<title>3cc29c2062164510adc0b354efab2208</title>
<image xlink:href="/usr/local/lib/python3.10/site-packages/resources/aws/compute/ec2.png" width="101px" height="101px" preserveAspectRatio="xMinYMin meet" x="1168.5" y="-1528"/>
<text text-anchor="middle" x="1219" y="-1412.6" font-family="Sans-Serif" font-size="13.00" fill="#2d3436">Dashboard&#45;Gear</text>
</g>
<!-- cfa40167eb8c478eaedaef63134f7adb&#45;&gt;3cc29c2062164510adc0b354efab2208 -->
<g id="edge28" class="edge">
<title>cfa40167eb8c478eaedaef63134f7adb&#45;&gt;3cc29c2062164510adc0b354efab2208</title>
<path fill="none" stroke="black" stroke-dasharray="5,2" d="M1259.4,-1588.57C1259.4,-1588.57 1259.4,-1557.27 1259.4,-1557.27"/>
<polygon fill="black" stroke="black" points="1262.9,-1557.27 1259.4,-1547.27 1255.9,-1557.27 1262.9,-1557.27"/>
<polygon fill="black" stroke="black" points="1255.9,-1588.57 1259.4,-1598.57 1262.9,-1588.57 1255.9,-1588.57"/>
</g>
<!-- 0bce4d45dfa54e059250e8d4841d87aa -->
<g id="ec2&#45;Dashboard&#45;Cron" class="node">
<title>0bce4d45dfa54e059250e8d4841d87aa</title>
<image xlink:href="/usr/local/lib/python3.10/site-packages/resources/aws/compute/ec2.png" width="101px" height="101px" preserveAspectRatio="xMinYMin meet" x="1024.5" y="-1528"/>
<text text-anchor="middle" x="1075" y="-1412.6" font-family="Sans-Serif" font-size="13.00" fill="#2d3436">Dashboard&#45;Cron</text>
</g>
<!-- cfa40167eb8c478eaedaef63134f7adb&#45;&gt;0bce4d45dfa54e059250e8d4841d87aa -->
<g id="edge29" class="edge">
<title>cfa40167eb8c478eaedaef63134f7adb&#45;&gt;0bce4d45dfa54e059250e8d4841d87aa</title>
<path fill="none" stroke="black" stroke-dasharray="5,2" d="M1249.3,-1588.54C1249.3,-1588.54 1249.3,-1552 1249.3,-1552 1249.3,-1552 1075,-1552 1075,-1552 1075,-1552 1075,-1551.39 1075,-1551.39"/>
<polygon fill="black" stroke="black" points="1245.8,-1588.54 1249.3,-1598.54 1252.8,-1588.54 1245.8,-1588.54"/>
<polygon fill="black" stroke="black" points="1078.5,-1557.42 1075,-1547.42 1071.5,-1557.42 1078.5,-1557.42"/>
</g>
<!-- 1b1e93d7f9d94f8c8fb711317b70a3da -->
<g id="ec2&#45;Member" class="node">
<title>1b1e93d7f9d94f8c8fb711317b70a3da</title>
<image xlink:href="/usr/local/lib/python3.10/site-packages/resources/aws/compute/ec2.png" width="101px" height="101px" preserveAspectRatio="xMinYMin meet" x="880.5" y="-1528"/>
<text text-anchor="middle" x="931" y="-1412.6" font-family="Sans-Serif" font-size="13.00" fill="#2d3436">Member</text>
</g>
<!-- cfa40167eb8c478eaedaef63134f7adb&#45;&gt;1b1e93d7f9d94f8c8fb711317b70a3da -->
<g id="edge30" class="edge">
<title>cfa40167eb8c478eaedaef63134f7adb&#45;&gt;1b1e93d7f9d94f8c8fb711317b70a3da</title>
<path fill="none" stroke="black" stroke-dasharray="5,2" d="M1239.2,-1588.58C1239.2,-1588.58 1239.2,-1558 1239.2,-1558 1239.2,-1558 931,-1558 931,-1558 931,-1558 931,-1556.78 931,-1556.78"/>
<polygon fill="black" stroke="black" points="1235.7,-1588.58 1239.2,-1598.58 1242.7,-1588.58 1235.7,-1588.58"/>
<polygon fill="black" stroke="black" points="934.5,-1557.29 931,-1547.29 927.5,-1557.29 934.5,-1557.29"/>
</g>
<!-- 0faf4eae516f40a88e1077bdb545b754 -->
<g id="ec2&#45;SCUM" class="node">
<title>0faf4eae516f40a88e1077bdb545b754</title>
<image xlink:href="/usr/local/lib/python3.10/site-packages/resources/aws/compute/ec2.png" width="101px" height="101px" preserveAspectRatio="xMinYMin meet" x="736.5" y="-1528"/>
<text text-anchor="middle" x="787" y="-1412.6" font-family="Sans-Serif" font-size="13.00" fill="#2d3436">SCUM</text>
</g>
<!-- cfa40167eb8c478eaedaef63134f7adb&#45;&gt;0faf4eae516f40a88e1077bdb545b754 -->
<g id="edge31" class="edge">
<title>cfa40167eb8c478eaedaef63134f7adb&#45;&gt;0faf4eae516f40a88e1077bdb545b754</title>
<path fill="none" stroke="black" stroke-dasharray="5,2" d="M1229.1,-1588.74C1229.1,-1588.74 1229.1,-1564 1229.1,-1564 1229.1,-1564 787,-1564 787,-1564 787,-1564 787,-1557.17 787,-1557.17"/>
<polygon fill="black" stroke="black" points="1225.6,-1588.74 1229.1,-1598.74 1232.6,-1588.74 1225.6,-1588.74"/>
<polygon fill="black" stroke="black" points="790.5,-1557.17 787,-1547.17 783.5,-1557.17 790.5,-1557.17"/>
</g>
<!-- b36b681d73ed4ef3be859b07fbdfd856 -->
<g id="ec2&#45;Billing" class="node">
<title>b36b681d73ed4ef3be859b07fbdfd856</title>
<image xlink:href="/usr/local/lib/python3.10/site-packages/resources/aws/compute/ec2.png" width="101px" height="101px" preserveAspectRatio="xMinYMin meet" x="592.5" y="-1528"/>
<text text-anchor="middle" x="643" y="-1412.6" font-family="Sans-Serif" font-size="13.00" fill="#2d3436">Billing</text>
</g>
<!-- cfa40167eb8c478eaedaef63134f7adb&#45;&gt;b36b681d73ed4ef3be859b07fbdfd856 -->
<g id="edge32" class="edge">
<title>cfa40167eb8c478eaedaef63134f7adb&#45;&gt;b36b681d73ed4ef3be859b07fbdfd856</title>
<path fill="none" stroke="black" stroke-dasharray="5,2" d="M1219,-1588.57C1219,-1588.57 1219,-1570 1219,-1570 1219,-1570 643,-1570 643,-1570 643,-1570 643,-1557.21 643,-1557.21"/>
<polygon fill="black" stroke="black" points="1215.5,-1588.57 1219,-1598.57 1222.5,-1588.57 1215.5,-1588.57"/>
<polygon fill="black" stroke="black" points="646.5,-1557.21 643,-1547.21 639.5,-1557.21 646.5,-1557.21"/>
</g>
<!-- 910b90025848435ea384fb2d99e8c5d3 -->
<g id="ec2&#45;Message Achieve" class="node">
<title>910b90025848435ea384fb2d99e8c5d3</title>
<image xlink:href="/usr/local/lib/python3.10/site-packages/resources/aws/compute/ec2.png" width="101px" height="101px" preserveAspectRatio="xMinYMin meet" x="448.5" y="-1528"/>
<text text-anchor="middle" x="499" y="-1412.6" font-family="Sans-Serif" font-size="13.00" fill="#2d3436">Message Achieve</text>
</g>
<!-- cfa40167eb8c478eaedaef63134f7adb&#45;&gt;910b90025848435ea384fb2d99e8c5d3 -->
<g id="edge33" class="edge">
<title>cfa40167eb8c478eaedaef63134f7adb&#45;&gt;910b90025848435ea384fb2d99e8c5d3</title>
<path fill="none" stroke="black" stroke-dasharray="5,2" d="M1208.9,-1588.79C1208.9,-1588.79 1208.9,-1576 1208.9,-1576 1208.9,-1576 499,-1576 499,-1576 499,-1576 499,-1557.43 499,-1557.43"/>
<polygon fill="black" stroke="black" points="1205.4,-1588.79 1208.9,-1598.79 1212.4,-1588.79 1205.4,-1588.79"/>
<polygon fill="black" stroke="black" points="502.5,-1557.43 499,-1547.43 495.5,-1557.43 502.5,-1557.43"/>
</g>
<!-- 7cc8a5cfff994e74ab08ac80501fc4a0 -->
<g id="ec2&#45;Message Review" class="node">
<title>7cc8a5cfff994e74ab08ac80501fc4a0</title>
<image xlink:href="/usr/local/lib/python3.10/site-packages/resources/aws/compute/ec2.png" width="101px" height="101px" preserveAspectRatio="xMinYMin meet" x="304.5" y="-1528"/>
<text text-anchor="middle" x="355" y="-1412.6" font-family="Sans-Serif" font-size="13.00" fill="#2d3436">Message Review</text>
</g>
<!-- cfa40167eb8c478eaedaef63134f7adb&#45;&gt;7cc8a5cfff994e74ab08ac80501fc4a0 -->
<g id="edge34" class="edge">
<title>cfa40167eb8c478eaedaef63134f7adb&#45;&gt;7cc8a5cfff994e74ab08ac80501fc4a0</title>
<path fill="none" stroke="black" stroke-dasharray="5,2" d="M1198.8,-1588.83C1198.8,-1588.83 1198.8,-1582 1198.8,-1582 1198.8,-1582 355,-1582 355,-1582 355,-1582 355,-1557.26 355,-1557.26"/>
<polygon fill="black" stroke="black" points="1195.3,-1588.83 1198.8,-1598.83 1202.3,-1588.83 1195.3,-1588.83"/>
<polygon fill="black" stroke="black" points="358.5,-1557.26 355,-1547.26 351.5,-1557.26 358.5,-1557.26"/>
</g>
<!-- 563a1ab46bb744deb5bb2d1c34ece23f -->
<g id="ec2&#45;Scheduled Data" class="node">
<title>563a1ab46bb744deb5bb2d1c34ece23f</title>
<image xlink:href="/usr/local/lib/python3.10/site-packages/resources/aws/compute/ec2.png" width="101px" height="101px" preserveAspectRatio="xMinYMin meet" x="160.5" y="-1528"/>
<text text-anchor="middle" x="211" y="-1412.6" font-family="Sans-Serif" font-size="13.00" fill="#2d3436">Scheduled Data</text>
</g>
<!-- cfa40167eb8c478eaedaef63134f7adb&#45;&gt;563a1ab46bb744deb5bb2d1c34ece23f -->
<g id="edge35" class="edge">
<title>cfa40167eb8c478eaedaef63134f7adb&#45;&gt;563a1ab46bb744deb5bb2d1c34ece23f</title>
<path fill="none" stroke="black" stroke-dasharray="5,2" d="M1188.7,-1589.22C1188.7,-1589.22 1188.7,-1588 1188.7,-1588 1188.7,-1588 211,-1588 211,-1588 211,-1588 211,-1557.42 211,-1557.42"/>
<polygon fill="black" stroke="black" points="1185.2,-1588.71 1188.7,-1598.71 1192.2,-1588.71 1185.2,-1588.71"/>
<polygon fill="black" stroke="black" points="214.5,-1557.42 211,-1547.42 207.5,-1557.42 214.5,-1557.42"/>
</g>
<!-- 2946582e24c1426fb7d060adb4cc9ffd -->
<g id="ec2&#45;Core" class="node">
<title>2946582e24c1426fb7d060adb4cc9ffd</title>
<image xlink:href="/usr/local/lib/python3.10/site-packages/resources/aws/compute/ec2.png" width="101px" height="101px" preserveAspectRatio="xMinYMin meet" x="16.5" y="-1528"/>
<text text-anchor="middle" x="67" y="-1412.6" font-family="Sans-Serif" font-size="13.00" fill="#2d3436">Core</text>
</g>
<!-- cfa40167eb8c478eaedaef63134f7adb&#45;&gt;2946582e24c1426fb7d060adb4cc9ffd -->
<g id="edge36" class="edge">
<title>cfa40167eb8c478eaedaef63134f7adb&#45;&gt;2946582e24c1426fb7d060adb4cc9ffd</title>
<path fill="none" stroke="black" stroke-dasharray="5,2" d="M1178.6,-1594.61C1178.6,-1594.61 1178.6,-1594 1178.6,-1594 1178.6,-1594 67,-1594 67,-1594 67,-1594 67,-1557.46 67,-1557.46"/>
<polygon fill="black" stroke="black" points="1175.1,-1588.58 1178.6,-1598.58 1182.1,-1588.58 1175.1,-1588.58"/>
<polygon fill="black" stroke="black" points="70.5,-1557.46 67,-1547.46 63.5,-1557.46 70.5,-1557.46"/>
</g>
<!-- 8d6eda39ee174c53a134c6378204c234 -->
<g id="ec2&#45;TOPS" class="node">
<title>8d6eda39ee174c53a134c6378204c234</title>
<image xlink:href="/usr/local/lib/python3.10/site-packages/resources/aws/compute/ec2.png" width="101px" height="101px" preserveAspectRatio="xMinYMin meet" x="2320.5" y="-1528"/>
<text text-anchor="middle" x="2371" y="-1412.6" font-family="Sans-Serif" font-size="13.00" fill="#2d3436">TOPS</text>
</g>
<!-- cfa40167eb8c478eaedaef63134f7adb&#45;&gt;8d6eda39ee174c53a134c6378204c234 -->
<g id="edge37" class="edge">
<title>cfa40167eb8c478eaedaef63134f7adb&#45;&gt;8d6eda39ee174c53a134c6378204c234</title>
<path fill="none" stroke="black" stroke-dasharray="5,2" d="M1280.75,-1723C1280.75,-1723 2371,-1723 2371,-1723 2371,-1723 2371,-1557.4 2371,-1557.4"/>
<polygon fill="black" stroke="black" points="1280.75,-1719.5 1270.75,-1723 1280.75,-1726.5 1280.75,-1719.5"/>
<polygon fill="black" stroke="black" points="2374.5,-1557.4 2371,-1547.4 2367.5,-1557.4 2374.5,-1557.4"/>
</g>
<!-- 38f69c2dba864085a1fcc3fe36d64cf5 -->
<g id="ec2&#45;GSS" class="node">
<title>38f69c2dba864085a1fcc3fe36d64cf5</title>
<image xlink:href="/usr/local/lib/python3.10/site-packages/resources/aws/compute/ec2.png" width="101px" height="101px" preserveAspectRatio="xMinYMin meet" x="2176.5" y="-1528"/>
<text text-anchor="middle" x="2227" y="-1412.6" font-family="Sans-Serif" font-size="13.00" fill="#2d3436">GSS</text>
</g>
<!-- cfa40167eb8c478eaedaef63134f7adb&#45;&gt;38f69c2dba864085a1fcc3fe36d64cf5 -->
<g id="edge38" class="edge">
<title>cfa40167eb8c478eaedaef63134f7adb&#45;&gt;38f69c2dba864085a1fcc3fe36d64cf5</title>
<path fill="none" stroke="black" stroke-dasharray="5,2" d="M1280.85,-1709C1280.85,-1709 2227,-1709 2227,-1709 2227,-1709 2227,-1557.22 2227,-1557.22"/>
<polygon fill="black" stroke="black" points="1280.85,-1705.5 1270.85,-1709 1280.85,-1712.5 1280.85,-1705.5"/>
<polygon fill="black" stroke="black" points="2230.5,-1557.22 2227,-1547.22 2223.5,-1557.22 2230.5,-1557.22"/>
</g>
<!-- 54f946d5f5ff42579f7c5bf03f44bb53 -->
<g id="ec2&#45;HootSupport" class="node">
<title>54f946d5f5ff42579f7c5bf03f44bb53</title>
<image xlink:href="/usr/local/lib/python3.10/site-packages/resources/aws/compute/ec2.png" width="101px" height="101px" preserveAspectRatio="xMinYMin meet" x="2032.5" y="-1528"/>
<text text-anchor="middle" x="2083" y="-1412.6" font-family="Sans-Serif" font-size="13.00" fill="#2d3436">HootSupport</text>
</g>
<!-- cfa40167eb8c478eaedaef63134f7adb&#45;&gt;54f946d5f5ff42579f7c5bf03f44bb53 -->
<g id="edge39" class="edge">
<title>cfa40167eb8c478eaedaef63134f7adb&#45;&gt;54f946d5f5ff42579f7c5bf03f44bb53</title>
<path fill="none" stroke="black" stroke-dasharray="5,2" d="M1280.7,-1695C1280.7,-1695 2083,-1695 2083,-1695 2083,-1695 2083,-1557.24 2083,-1557.24"/>
<polygon fill="black" stroke="black" points="1280.7,-1691.5 1270.7,-1695 1280.7,-1698.5 1280.7,-1691.5"/>
<polygon fill="black" stroke="black" points="2086.5,-1557.24 2083,-1547.24 2079.5,-1557.24 2086.5,-1557.24"/>
</g>
<!-- bd5574c51d364a59aa29c1d219b20be5 -->
<g id="ec2&#45;Push Notifications" class="node">
<title>bd5574c51d364a59aa29c1d219b20be5</title>
<image xlink:href="/usr/local/lib/python3.10/site-packages/resources/aws/compute/ec2.png" width="101px" height="101px" preserveAspectRatio="xMinYMin meet" x="1888.5" y="-1528"/>
<text text-anchor="middle" x="1939" y="-1412.6" font-family="Sans-Serif" font-size="13.00" fill="#2d3436">Push Notifications</text>
</g>
<!-- cfa40167eb8c478eaedaef63134f7adb&#45;&gt;bd5574c51d364a59aa29c1d219b20be5 -->
<g id="edge40" class="edge">
<title>cfa40167eb8c478eaedaef63134f7adb&#45;&gt;bd5574c51d364a59aa29c1d219b20be5</title>
<path fill="none" stroke="black" stroke-dasharray="5,2" d="M1280.86,-1668C1280.86,-1668 1939,-1668 1939,-1668 1939,-1668 1939,-1557.25 1939,-1557.25"/>
<polygon fill="black" stroke="black" points="1280.86,-1664.5 1270.86,-1668 1280.86,-1671.5 1280.86,-1664.5"/>
<polygon fill="black" stroke="black" points="1942.5,-1557.25 1939,-1547.25 1935.5,-1557.25 1942.5,-1557.25"/>
</g>
<!-- 1d676b555d6545de8d18bf160c6d4208 -->
<g id="ec2&#45;Crypto" class="node">
<title>1d676b555d6545de8d18bf160c6d4208</title>
<image xlink:href="/usr/local/lib/python3.10/site-packages/resources/aws/compute/ec2.png" width="101px" height="101px" preserveAspectRatio="xMinYMin meet" x="1744.5" y="-1528"/>
<text text-anchor="middle" x="1795" y="-1412.6" font-family="Sans-Serif" font-size="13.00" fill="#2d3436">Crypto</text>
</g>
<!-- cfa40167eb8c478eaedaef63134f7adb&#45;&gt;1d676b555d6545de8d18bf160c6d4208 -->
<g id="edge41" class="edge">
<title>cfa40167eb8c478eaedaef63134f7adb&#45;&gt;1d676b555d6545de8d18bf160c6d4208</title>
<path fill="none" stroke="black" stroke-dasharray="5,2" d="M1280.87,-1654C1280.87,-1654 1795,-1654 1795,-1654 1795,-1654 1795,-1557.51 1795,-1557.51"/>
<polygon fill="black" stroke="black" points="1280.87,-1650.5 1270.87,-1654 1280.87,-1657.5 1280.87,-1650.5"/>
<polygon fill="black" stroke="black" points="1798.5,-1557.51 1795,-1547.51 1791.5,-1557.51 1798.5,-1557.51"/>
</g>
<!-- a900a0c58f1e4930998e4953a4a27e72 -->
<g id="ec2&#45;Amplify" class="node">
<title>a900a0c58f1e4930998e4953a4a27e72</title>
<image xlink:href="/usr/local/lib/python3.10/site-packages/resources/aws/compute/ec2.png" width="101px" height="101px" preserveAspectRatio="xMinYMin meet" x="1600.5" y="-1528"/>
<text text-anchor="middle" x="1651" y="-1412.6" font-family="Sans-Serif" font-size="13.00" fill="#2d3436">Amplify</text>
</g>
<!-- cfa40167eb8c478eaedaef63134f7adb&#45;&gt;a900a0c58f1e4930998e4953a4a27e72 -->
<g id="edge43" class="edge">
<title>cfa40167eb8c478eaedaef63134f7adb&#45;&gt;a900a0c58f1e4930998e4953a4a27e72</title>
<path fill="none" stroke="black" stroke-dasharray="5,2" d="M1280.91,-1641C1280.91,-1641 1651,-1641 1651,-1641 1651,-1641 1651,-1557.4 1651,-1557.4"/>
<polygon fill="black" stroke="black" points="1280.91,-1637.5 1270.91,-1641 1280.91,-1644.5 1280.91,-1637.5"/>
<polygon fill="black" stroke="black" points="1654.5,-1557.4 1651,-1547.4 1647.5,-1557.4 1654.5,-1557.4"/>
</g>
<!-- af17ca8eccde4a3e8cff2b62118fe971 -->
<g id="traefikPods" class="node">
<title>af17ca8eccde4a3e8cff2b62118fe971</title>
<image xlink:href="/usr/local/lib/python3.10/site-packages/resources/k8s/compute/pod.png" width="101px" height="101px" preserveAspectRatio="xMinYMin meet" x="1456.5" y="-744"/>
<text text-anchor="middle" x="1507" y="-628.6" font-family="Sans-Serif" font-size="13.00" fill="#2d3436">Traefik Pods</text>
</g>
<!-- c6edaa91a72f476eb8c8e13c5798c3ff&#45;&gt;af17ca8eccde4a3e8cff2b62118fe971 -->
<g id="edge16" class="edge">
<title>c6edaa91a72f476eb8c8e13c5798c3ff&#45;&gt;af17ca8eccde4a3e8cff2b62118fe971</title>
<path fill="none" stroke="#7b8894" d="M1507,-816.08C1507,-816.08 1507,-773.27 1507,-773.27"/>
<polygon fill="#7b8894" stroke="#7b8894" points="1510.5,-773.27 1507,-763.27 1503.5,-773.27 1510.5,-773.27"/>
</g>
<!-- a9e1d3e650f04a7fa5a7eecf22643bee -->
<g id="service_pod" class="node">
<title>a9e1d3e650f04a7fa5a7eecf22643bee</title>
<image xlink:href="/usr/local/lib/python3.10/site-packages/resources/k8s/compute/pod.png" width="101px" height="101px" preserveAspectRatio="xMinYMin meet" x="1240.5" y="-553"/>
<text text-anchor="middle" x="1291" y="-437.6" font-family="Sans-Serif" font-size="13.00" fill="#2d3436">Service POD</text>
</g>
<!-- af17ca8eccde4a3e8cff2b62118fe971&#45;&gt;a9e1d3e650f04a7fa5a7eecf22643bee -->
<g id="edge17" class="edge">
<title>af17ca8eccde4a3e8cff2b62118fe971&#45;&gt;a9e1d3e650f04a7fa5a7eecf22643bee</title>
<path fill="none" stroke="black" stroke-dasharray="5,2" d="M1445.35,-693C1445.35,-693 1327,-693 1327,-693 1327,-693 1327,-582.25 1327,-582.25"/>
<polygon fill="black" stroke="black" points="1445.35,-696.5 1455.35,-693 1445.35,-689.5 1445.35,-696.5"/>
<polygon fill="black" stroke="black" points="1330.5,-582.25 1327,-572.25 1323.5,-582.25 1330.5,-582.25"/>
</g>
<!-- d1816f8790aa478fadc062eafb29c811 -->
<g id="service_pod" class="node">
<title>d1816f8790aa478fadc062eafb29c811</title>
<image xlink:href="/usr/local/lib/python3.10/site-packages/resources/k8s/compute/pod.png" width="101px" height="101px" preserveAspectRatio="xMinYMin meet" x="1672.5" y="-553"/>
<text text-anchor="middle" x="1723" y="-437.6" font-family="Sans-Serif" font-size="13.00" fill="#2d3436">Service POD</text>
</g>
<!-- af17ca8eccde4a3e8cff2b62118fe971&#45;&gt;d1816f8790aa478fadc062eafb29c811 -->
<g id="edge18" class="edge">
<title>af17ca8eccde4a3e8cff2b62118fe971&#45;&gt;d1816f8790aa478fadc062eafb29c811</title>
<path fill="none" stroke="black" stroke-dasharray="5,2" d="M1568.65,-693C1568.65,-693 1687,-693 1687,-693 1687,-693 1687,-582.25 1687,-582.25"/>
<polygon fill="black" stroke="black" points="1568.65,-689.5 1558.65,-693 1568.65,-696.5 1568.65,-689.5"/>
<polygon fill="black" stroke="black" points="1690.5,-582.25 1687,-572.25 1683.5,-582.25 1690.5,-582.25"/>
</g>
<!-- 5eeb0673aad0426e8f9a0a21aa0de312 -->
<g id="service_pod" class="node">
<title>5eeb0673aad0426e8f9a0a21aa0de312</title>
<image xlink:href="/usr/local/lib/python3.10/site-packages/resources/k8s/compute/pod.png" width="101px" height="101px" preserveAspectRatio="xMinYMin meet" x="1528.5" y="-553"/>
<text text-anchor="middle" x="1579" y="-437.6" font-family="Sans-Serif" font-size="13.00" fill="#2d3436">Service POD</text>
</g>
<!-- af17ca8eccde4a3e8cff2b62118fe971&#45;&gt;5eeb0673aad0426e8f9a0a21aa0de312 -->
<g id="edge19" class="edge">
<title>af17ca8eccde4a3e8cff2b62118fe971&#45;&gt;5eeb0673aad0426e8f9a0a21aa0de312</title>
<path fill="none" stroke="black" stroke-dasharray="5,2" d="M1543,-613.57C1543,-613.57 1543,-582.27 1543,-582.27"/>
<polygon fill="black" stroke="black" points="1546.5,-582.27 1543,-572.27 1539.5,-582.27 1546.5,-582.27"/>
<polygon fill="black" stroke="black" points="1539.5,-613.57 1543,-623.57 1546.5,-613.57 1539.5,-613.57"/>
</g>
<!-- 97d3b540b0aa4794a74321f2551ebef9 -->
<g id="service_pod" class="node">
<title>97d3b540b0aa4794a74321f2551ebef9</title>
<image xlink:href="/usr/local/lib/python3.10/site-packages/resources/k8s/compute/pod.png" width="101px" height="101px" preserveAspectRatio="xMinYMin meet" x="1384.5" y="-553"/>
<text text-anchor="middle" x="1435" y="-437.6" font-family="Sans-Serif" font-size="13.00" fill="#2d3436">Service POD</text>
</g>
<!-- af17ca8eccde4a3e8cff2b62118fe971&#45;&gt;97d3b540b0aa4794a74321f2551ebef9 -->
<g id="edge20" class="edge">
<title>af17ca8eccde4a3e8cff2b62118fe971&#45;&gt;97d3b540b0aa4794a74321f2551ebef9</title>
<path fill="none" stroke="black" stroke-dasharray="5,2" d="M1471,-613.57C1471,-613.57 1471,-582.27 1471,-582.27"/>
<polygon fill="black" stroke="black" points="1474.5,-582.27 1471,-572.27 1467.5,-582.27 1474.5,-582.27"/>
<polygon fill="black" stroke="black" points="1467.5,-613.57 1471,-623.57 1474.5,-613.57 1467.5,-613.57"/>
</g>
<!-- bb9854252ba64c3e8cc994983f0e1854 -->
<g id="servicePods" class="node">
<title>bb9854252ba64c3e8cc994983f0e1854</title>
<image xlink:href="/usr/local/lib/python3.10/site-packages/resources/k8s/compute/pod.png" width="101px" height="101px" preserveAspectRatio="xMinYMin meet" x="1816.5" y="-553"/>
<text text-anchor="middle" x="1867" y="-437.6" font-family="Sans-Serif" font-size="13.00" fill="#2d3436">More service pods... </text>
</g>
<!-- 9131ca65ad904a3da88b47682b4a32da -->
<g id="VPC Local" class="node">
<title>9131ca65ad904a3da88b47682b4a32da</title>
<image xlink:href="/usr/local/lib/python3.10/site-packages/resources/onprem/queue/kafka.png" width="101px" height="101px" preserveAspectRatio="xMinYMin meet" x="1425.5" y="-334"/>
<text text-anchor="middle" x="1476" y="-218.6" font-family="Sans-Serif" font-size="13.00" fill="#2d3436">VPC Local</text>
</g>
<!-- bb9854252ba64c3e8cc994983f0e1854&#45;&gt;9131ca65ad904a3da88b47682b4a32da -->
<g id="edge12" class="edge">
<title>bb9854252ba64c3e8cc994983f0e1854&#45;&gt;9131ca65ad904a3da88b47682b4a32da</title>
<path fill="none" stroke="black" stroke-dasharray="5,2" d="M1831,-422.73C1831,-422.73 1831,-379 1831,-379 1831,-379 1506,-379 1506,-379 1506,-379 1506,-363.4 1506,-363.4"/>
<polygon fill="black" stroke="black" points="1827.5,-422.73 1831,-432.73 1834.5,-422.73 1827.5,-422.73"/>
<polygon fill="black" stroke="black" points="1509.5,-363.4 1506,-353.4 1502.5,-363.4 1509.5,-363.4"/>
</g>
<!-- d62e35aa5a884abbbf80e51f8a4a5b8a -->
<g id="Limbo Aggregate" class="node">
<title>d62e35aa5a884abbbf80e51f8a4a5b8a</title>
<image xlink:href="/usr/local/lib/python3.10/site-packages/resources/onprem/queue/kafka.png" width="101px" height="101px" preserveAspectRatio="xMinYMin meet" x="1425.5" y="-143"/>
<text text-anchor="middle" x="1476" y="-27.6" font-family="Sans-Serif" font-size="13.00" fill="#2d3436">Limbo Aggregate</text>
</g>
<!-- bb9854252ba64c3e8cc994983f0e1854&#45;&gt;d62e35aa5a884abbbf80e51f8a4a5b8a -->
<g id="edge15" class="edge">
<title>bb9854252ba64c3e8cc994983f0e1854&#45;&gt;d62e35aa5a884abbbf80e51f8a4a5b8a</title>
<path fill="none" stroke="black" stroke-dasharray="5,2" d="M1874.17,-422.74C1874.17,-422.74 1874.17,-92 1874.17,-92 1874.17,-92 1537.94,-92 1537.94,-92"/>
<polygon fill="black" stroke="black" points="1870.67,-422.74 1874.17,-432.74 1877.67,-422.74 1870.67,-422.74"/>
<polygon fill="black" stroke="black" points="1537.94,-88.5 1527.94,-92 1537.94,-95.5 1537.94,-88.5"/>
</g>
<!-- 99f9bc5a1bae46eba3118cf99042b99c -->
<g id="Limbo Local" class="node">
<title>99f9bc5a1bae46eba3118cf99042b99c</title>
<image xlink:href="/usr/local/lib/python3.10/site-packages/resources/onprem/queue/kafka.png" width="101px" height="101px" preserveAspectRatio="xMinYMin meet" x="1281.5" y="-143"/>
<text text-anchor="middle" x="1332" y="-27.6" font-family="Sans-Serif" font-size="13.00" fill="#2d3436">Limbo Local</text>
</g>
<!-- bb9854252ba64c3e8cc994983f0e1854&#45;&gt;99f9bc5a1bae46eba3118cf99042b99c -->
<g id="edge14" class="edge">
<title>bb9854252ba64c3e8cc994983f0e1854&#45;&gt;99f9bc5a1bae46eba3118cf99042b99c</title>
<path fill="none" stroke="black" stroke-dasharray="5,2" d="M1859.83,-422.74C1859.83,-422.74 1859.83,-188 1859.83,-188 1859.83,-188 1348.83,-188 1348.83,-188 1348.83,-188 1348.83,-172.4 1348.83,-172.4"/>
<polygon fill="black" stroke="black" points="1856.33,-422.74 1859.83,-432.74 1863.33,-422.74 1856.33,-422.74"/>
<polygon fill="black" stroke="black" points="1352.33,-172.4 1348.83,-162.4 1345.33,-172.4 1352.33,-172.4"/>
</g>
<!-- 41820cfc1d3d4dbb8562b4c270d7d8c4 -->
<g id="VPC Aggregate" class="node">
<title>41820cfc1d3d4dbb8562b4c270d7d8c4</title>
<image xlink:href="/usr/local/lib/python3.10/site-packages/resources/onprem/queue/kafka.png" width="101px" height="101px" preserveAspectRatio="xMinYMin meet" x="1281.5" y="-334"/>
<text text-anchor="middle" x="1332" y="-218.6" font-family="Sans-Serif" font-size="13.00" fill="#2d3436">VPC Aggregate</text>
</g>
<!-- bb9854252ba64c3e8cc994983f0e1854&#45;&gt;41820cfc1d3d4dbb8562b4c270d7d8c4 -->
<g id="edge13" class="edge">
<title>bb9854252ba64c3e8cc994983f0e1854&#45;&gt;41820cfc1d3d4dbb8562b4c270d7d8c4</title>
<path fill="none" stroke="black" stroke-dasharray="5,2" d="M1823.75,-422.66C1823.75,-422.66 1823.75,-406 1823.75,-406 1823.75,-406 1362,-406 1362,-406 1362,-406 1362,-363.43 1362,-363.43"/>
<polygon fill="black" stroke="black" points="1820.25,-422.66 1823.75,-432.66 1827.25,-422.66 1820.25,-422.66"/>
<polygon fill="black" stroke="black" points="1365.5,-363.43 1362,-353.43 1358.5,-363.43 1365.5,-363.43"/>
</g>
<!-- 8d7f8a80079149e098c604209b44ad05 -->
<g id="node36" class="node">
<title>8d7f8a80079149e098c604209b44ad05</title>
<image xlink:href="/usr/local/lib/python3.10/site-packages/resources/aws/database/rds.png" width="101px" height="101px" preserveAspectRatio="xMinYMin meet" x="2464.5" y="-334"/>
<text text-anchor="middle" x="2515" y="-218.6" font-family="Sans-Serif" font-size="13.00" fill="#2d3436">RDS</text>
</g>
<!-- bb9854252ba64c3e8cc994983f0e1854&#45;&gt;8d7f8a80079149e098c604209b44ad05 -->
<g id="edge21" class="edge">
<title>bb9854252ba64c3e8cc994983f0e1854&#45;&gt;8d7f8a80079149e098c604209b44ad05</title>
<path fill="none" stroke="black" stroke-dasharray="5,2" d="M1928.82,-543C1928.82,-543 2515,-543 2515,-543 2515,-543 2515,-363.19 2515,-363.19"/>
<polygon fill="black" stroke="black" points="1928.82,-539.5 1918.82,-543 1928.82,-546.5 1928.82,-539.5"/>
<polygon fill="black" stroke="black" points="2518.5,-363.19 2515,-353.19 2511.5,-363.19 2518.5,-363.19"/>
</g>
<!-- dc1ec08ebab441659fc1117184906fc8 -->
<g id="node37" class="node">
<title>dc1ec08ebab441659fc1117184906fc8</title>
<image xlink:href="/usr/local/lib/python3.10/site-packages/resources/aws/database/aurora.png" width="101px" height="101px" preserveAspectRatio="xMinYMin meet" x="2320.5" y="-334"/>
<text text-anchor="middle" x="2371" y="-218.6" font-family="Sans-Serif" font-size="13.00" fill="#2d3436">Aurora</text>
</g>
<!-- bb9854252ba64c3e8cc994983f0e1854&#45;&gt;dc1ec08ebab441659fc1117184906fc8 -->
<g id="edge22" class="edge">
<title>bb9854252ba64c3e8cc994983f0e1854&#45;&gt;dc1ec08ebab441659fc1117184906fc8</title>
<path fill="none" stroke="black" stroke-dasharray="5,2" d="M1928.68,-516C1928.68,-516 2371,-516 2371,-516 2371,-516 2371,-363.2 2371,-363.2"/>
<polygon fill="black" stroke="black" points="1928.68,-512.5 1918.68,-516 1928.68,-519.5 1928.68,-512.5"/>
<polygon fill="black" stroke="black" points="2374.5,-363.2 2371,-353.2 2367.5,-363.2 2374.5,-363.2"/>
</g>
<!-- 0e4361a9215843e7b33fb7bee2297216 -->
<g id="node38" class="node">
<title>0e4361a9215843e7b33fb7bee2297216</title>
<image xlink:href="/usr/local/lib/python3.10/site-packages/resources/aws/database/elasticache-for-memcached.png" width="101px" height="101px" preserveAspectRatio="xMinYMin meet" x="2176.5" y="-334"/>
<text text-anchor="middle" x="2227" y="-218.6" font-family="Sans-Serif" font-size="13.00" fill="#2d3436">Memcached</text>
</g>
<!-- bb9854252ba64c3e8cc994983f0e1854&#45;&gt;0e4361a9215843e7b33fb7bee2297216 -->
<g id="edge23" class="edge">
<title>bb9854252ba64c3e8cc994983f0e1854&#45;&gt;0e4361a9215843e7b33fb7bee2297216</title>
<path fill="none" stroke="black" stroke-dasharray="5,2" d="M1928.95,-488C1928.95,-488 2227,-488 2227,-488 2227,-488 2227,-363.39 2227,-363.39"/>
<polygon fill="black" stroke="black" points="1928.95,-484.5 1918.95,-488 1928.95,-491.5 1928.95,-484.5"/>
<polygon fill="black" stroke="black" points="2230.5,-363.39 2227,-353.39 2223.5,-363.39 2230.5,-363.39"/>
</g>
<!-- f2066e62676442cbaaa9f5a45e6e65b6 -->
<g id="node39" class="node">
<title>f2066e62676442cbaaa9f5a45e6e65b6</title>
<image xlink:href="/usr/local/lib/python3.10/site-packages/resources/aws/database/elasticache-for-redis.png" width="101px" height="101px" preserveAspectRatio="xMinYMin meet" x="2032.5" y="-334"/>
<text text-anchor="middle" x="2083" y="-218.6" font-family="Sans-Serif" font-size="13.00" fill="#2d3436">Redis</text>
</g>
<!-- bb9854252ba64c3e8cc994983f0e1854&#45;&gt;f2066e62676442cbaaa9f5a45e6e65b6 -->
<g id="edge24" class="edge">
<title>bb9854252ba64c3e8cc994983f0e1854&#45;&gt;f2066e62676442cbaaa9f5a45e6e65b6</title>
<path fill="none" stroke="black" stroke-dasharray="5,2" d="M1928.88,-461C1928.88,-461 2083,-461 2083,-461 2083,-461 2083,-363.39 2083,-363.39"/>
<polygon fill="black" stroke="black" points="1928.88,-457.5 1918.88,-461 1928.88,-464.5 1928.88,-457.5"/>
<polygon fill="black" stroke="black" points="2086.5,-363.39 2083,-353.39 2079.5,-363.39 2086.5,-363.39"/>
</g>
<!-- 5071ac7061ab45528711194c5cfacd50 -->
<g id="node40" class="node">
<title>5071ac7061ab45528711194c5cfacd50</title>
<image xlink:href="/usr/local/lib/python3.10/site-packages/resources/aws/storage/simple-storage-service-s3.png" width="101px" height="101px" preserveAspectRatio="xMinYMin meet" x="1888.5" y="-334"/>
<text text-anchor="middle" x="1939" y="-218.6" font-family="Sans-Serif" font-size="13.00" fill="#2d3436">S3</text>
</g>
<!-- bb9854252ba64c3e8cc994983f0e1854&#45;&gt;5071ac7061ab45528711194c5cfacd50 -->
<g id="edge25" class="edge">
<title>bb9854252ba64c3e8cc994983f0e1854&#45;&gt;5071ac7061ab45528711194c5cfacd50</title>
<path fill="none" stroke="black" stroke-dasharray="5,2" d="M1903,-422.59C1903,-422.59 1903,-363.26 1903,-363.26"/>
<polygon fill="black" stroke="black" points="1906.5,-363.26 1903,-353.26 1899.5,-363.26 1906.5,-363.26"/>
<polygon fill="black" stroke="black" points="1899.5,-422.59 1903,-432.59 1906.5,-422.59 1899.5,-422.59"/>
</g>
<!-- b5ead45e693246fb8173941783bfd1ca -->
<g id="node41" class="node">
<title>b5ead45e693246fb8173941783bfd1ca</title>
<image xlink:href="/usr/local/lib/python3.10/site-packages/resources/aws/compute/ec2.png" width="101px" height="101px" preserveAspectRatio="xMinYMin meet" x="1744.5" y="-334"/>
<text text-anchor="middle" x="1795" y="-218.6" font-family="Sans-Serif" font-size="13.00" fill="#2d3436">Mongo</text>
</g>
<!-- bb9854252ba64c3e8cc994983f0e1854&#45;&gt;b5ead45e693246fb8173941783bfd1ca -->
<g id="edge26" class="edge">
<title>bb9854252ba64c3e8cc994983f0e1854&#45;&gt;b5ead45e693246fb8173941783bfd1ca</title>
<path fill="none" stroke="black" stroke-dasharray="5,2" d="M1838.25,-422.59C1838.25,-422.59 1838.25,-363.26 1838.25,-363.26"/>
<polygon fill="black" stroke="black" points="1841.75,-363.26 1838.25,-353.26 1834.75,-363.26 1841.75,-363.26"/>
<polygon fill="black" stroke="black" points="1834.75,-422.59 1838.25,-432.59 1841.75,-422.59 1834.75,-422.59"/>
</g>
<!-- 0270073ec35f4a7d80f129bf0448bc3d -->
<g id="skylineLB" class="node">
<title>0270073ec35f4a7d80f129bf0448bc3d</title>
<image xlink:href="/usr/local/lib/python3.10/site-packages/resources/aws/network/elb-application-load-balancer.png" width="101px" height="101px" preserveAspectRatio="xMinYMin meet" x="1456.5" y="-1337"/>
<text text-anchor="middle" x="1507" y="-1221.6" font-family="Sans-Serif" font-size="13.00" fill="#2d3436">Skyline ALB</text>
</g>
<!-- c10b7504df0846aabf6e45bbd70c2a63&#45;&gt;0270073ec35f4a7d80f129bf0448bc3d -->
<g id="edge3" class="edge">
<title>c10b7504df0846aabf6e45bbd70c2a63&#45;&gt;0270073ec35f4a7d80f129bf0448bc3d</title>
<path fill="none" stroke="#7b8894" d="M1507,-1409.08C1507,-1409.08 1507,-1366.27 1507,-1366.27"/>
<polygon fill="#7b8894" stroke="#7b8894" points="1510.5,-1366.27 1507,-1356.27 1503.5,-1366.27 1510.5,-1366.27"/>
</g>
<!-- 103fd5c4f31a44fb9ba1e7a97697a4f1 -->
<g id="skylineBridge" class="node">
<title>103fd5c4f31a44fb9ba1e7a97697a4f1</title>
<image xlink:href="/usr/local/lib/python3.10/site-packages/resources/aws/compute/ec2.png" width="101px" height="101px" preserveAspectRatio="xMinYMin meet" x="1456.5" y="-1146"/>
<text text-anchor="middle" x="1507" y="-1030.6" font-family="Sans-Serif" font-size="13.00" fill="#2d3436">Skyline Bridge</text>
</g>
<!-- 0270073ec35f4a7d80f129bf0448bc3d&#45;&gt;103fd5c4f31a44fb9ba1e7a97697a4f1 -->
<g id="edge4" class="edge">
<title>0270073ec35f4a7d80f129bf0448bc3d&#45;&gt;103fd5c4f31a44fb9ba1e7a97697a4f1</title>
<path fill="none" stroke="#7b8894" d="M1507,-1218.08C1507,-1218.08 1507,-1175.27 1507,-1175.27"/>
<polygon fill="#7b8894" stroke="#7b8894" points="1510.5,-1175.27 1507,-1165.27 1503.5,-1175.27 1510.5,-1175.27"/>
</g>
<!-- 103fd5c4f31a44fb9ba1e7a97697a4f1&#45;&gt;c6edaa91a72f476eb8c8e13c5798c3ff -->
<g id="edge5" class="edge">
<title>103fd5c4f31a44fb9ba1e7a97697a4f1&#45;&gt;c6edaa91a72f476eb8c8e13c5798c3ff</title>
<path fill="none" stroke="#7b8894" d="M1507,-1027.29C1507,-1027.29 1507,-964.35 1507,-964.35"/>
<polygon fill="#7b8894" stroke="#7b8894" points="1510.5,-964.35 1507,-954.35 1503.5,-964.35 1510.5,-964.35"/>
</g>
<!-- 9131ca65ad904a3da88b47682b4a32da&#45;&gt;d62e35aa5a884abbbf80e51f8a4a5b8a -->
<g id="edge1" class="edge">
<title>9131ca65ad904a3da88b47682b4a32da&#45;&gt;d62e35aa5a884abbbf80e51f8a4a5b8a</title>
<path fill="none" stroke="#7b8894" d="M1476,-215.08C1476,-215.08 1476,-172.27 1476,-172.27"/>
<polygon fill="#7b8894" stroke="#7b8894" points="1479.5,-172.27 1476,-162.27 1472.5,-172.27 1479.5,-172.27"/>
</g>
<!-- 99f9bc5a1bae46eba3118cf99042b99c&#45;&gt;41820cfc1d3d4dbb8562b4c270d7d8c4 -->
<g id="edge2" class="edge">
<title>99f9bc5a1bae46eba3118cf99042b99c&#45;&gt;41820cfc1d3d4dbb8562b4c270d7d8c4</title>
<path fill="none" stroke="#7b8894" d="M1315.17,-160.92C1315.17,-160.92 1315.17,-203.73 1315.17,-203.73"/>
<polygon fill="#7b8894" stroke="#7b8894" points="1311.67,-203.73 1315.17,-213.73 1318.67,-203.73 1311.67,-203.73"/>
</g>
</g>
</svg>
