<?xml version="1.0" encoding="UTF-8" standalone="no"?>
<!DOCTYPE svg PUBLIC "-//W3C//DTD SVG 1.1//EN"
 "http://www.w3.org/Graphics/SVG/1.1/DTD/svg11.dtd">
<!-- Generated by graphviz version 7.0.0 (20221023.0053)
 -->
<!-- Pages: 1 -->
<svg width="3444pt" height="1879pt"
 viewBox="0.00 0.00 3444.00 1879.00" xmlns="http://www.w3.org/2000/svg" xmlns:xlink="http://www.w3.org/1999/xlink">
<g id="graph0" class="graph" transform="scale(1 1) rotate(0) translate(144 1735)">
<g id="clust1" class="cluster">
<title>cluster_Edge</title>
<path fill="#e5f5fd" stroke="#aeb6be" d="M452,-1019C452,-1019 706,-1019 706,-1019 712,-1019 718,-1025 718,-1031 718,-1031 718,-1571 718,-1571 718,-1577 712,-1583 706,-1583 706,-1583 452,-1583 452,-1583 446,-1583 440,-1577 440,-1571 440,-1571 440,-1031 440,-1031 440,-1025 446,-1019 452,-1019"/>
<text text-anchor="middle" x="462.5" y="-1569.4" font-family="Sans-Serif" font-size="12.00" fill="#2d3436">Edge</text>
</g>
<g id="clust2" class="cluster">
<title>cluster_Auth Facade</title>
<path fill="#ebf3e7" stroke="#aeb6be" d="M460,-1027C460,-1027 554,-1027 554,-1027 560,-1027 566,-1033 566,-1039 566,-1039 566,-1380 566,-1380 566,-1386 560,-1392 554,-1392 554,-1392 460,-1392 460,-1392 454,-1392 448,-1386 448,-1380 448,-1380 448,-1039 448,-1039 448,-1033 454,-1027 460,-1027"/>
<text text-anchor="middle" x="490.5" y="-1378.4" font-family="Sans-Serif" font-size="12.00" fill="#2d3436">Auth Facade</text>
</g>
<g id="clust3" class="cluster">
<title>cluster_Aperture</title>
<path fill="#ebf3e7" stroke="#aeb6be" d="M604,-1027C604,-1027 698,-1027 698,-1027 704,-1027 710,-1033 710,-1039 710,-1039 710,-1380 710,-1380 710,-1386 704,-1392 698,-1392 698,-1392 604,-1392 604,-1392 598,-1392 592,-1386 592,-1380 592,-1380 592,-1039 592,-1039 592,-1033 598,-1027 604,-1027"/>
<text text-anchor="middle" x="623" y="-1378.4" font-family="Sans-Serif" font-size="12.00" fill="#2d3436">Aperture</text>
</g>
<g id="clust4" class="cluster">
<title>cluster_EC2 Services</title>
<path fill="#e5f5fd" stroke="#aeb6be" d="M738,-1409C738,-1409 3136,-1409 3136,-1409 3142,-1409 3148,-1415 3148,-1421 3148,-1421 3148,-1571 3148,-1571 3148,-1577 3142,-1583 3136,-1583 3136,-1583 738,-1583 738,-1583 732,-1583 726,-1577 726,-1571 726,-1571 726,-1421 726,-1421 726,-1415 732,-1409 738,-1409"/>
<text text-anchor="middle" x="771" y="-1569.4" font-family="Sans-Serif" font-size="12.00" fill="#2d3436">EC2 Services</text>
</g>
<g id="clust5" class="cluster">
<title>cluster_Skyline</title>
<path fill="#e5f5fd" stroke="#aeb6be" d="M1818,-1027C1818,-1027 1912,-1027 1912,-1027 1918,-1027 1924,-1033 1924,-1039 1924,-1039 1924,-1380 1924,-1380 1924,-1386 1918,-1392 1912,-1392 1912,-1392 1818,-1392 1818,-1392 1812,-1392 1806,-1386 1806,-1380 1806,-1380 1806,-1039 1806,-1039 1806,-1033 1812,-1027 1818,-1027"/>
<text text-anchor="middle" x="1834" y="-1378.4" font-family="Sans-Serif" font-size="12.00" fill="#2d3436">Skyline</text>
</g>
<g id="clust6" class="cluster">
<title>cluster_Kubernetes Cluster</title>
<path fill="#e5f5fd" stroke="#aeb6be" d="M20,-418C20,-418 724,-418 724,-418 730,-418 736,-424 736,-430 736,-430 736,-999 736,-999 736,-1005 730,-1011 724,-1011 724,-1011 20,-1011 20,-1011 14,-1011 8,-1005 8,-999 8,-999 8,-430 8,-430 8,-424 14,-418 20,-418"/>
<text text-anchor="middle" x="67.5" y="-997.4" font-family="Sans-Serif" font-size="12.00" fill="#2d3436">Kubernetes Cluster</text>
</g>
<g id="clust7" class="cluster">
<title>cluster_Ingress Nodes</title>
<path fill="#ebf3e7" stroke="#aeb6be" d="M604,-617C604,-617 698,-617 698,-617 704,-617 710,-623 710,-629 710,-629 710,-970 710,-970 710,-976 704,-982 698,-982 698,-982 604,-982 604,-982 598,-982 592,-976 592,-970 592,-970 592,-629 592,-629 592,-623 598,-617 604,-617"/>
<text text-anchor="middle" x="639" y="-968.4" font-family="Sans-Serif" font-size="12.00" fill="#2d3436">Ingress Nodes</text>
</g>
<g id="clust8" class="cluster">
<title>cluster_Worker Nodes</title>
<path fill="#ebf3e7" stroke="#aeb6be" d="M28,-426C28,-426 716,-426 716,-426 722,-426 728,-432 728,-438 728,-438 728,-588 728,-588 728,-594 722,-600 716,-600 716,-600 28,-600 28,-600 22,-600 16,-594 16,-588 16,-588 16,-438 16,-438 16,-432 22,-426 28,-426"/>
<text text-anchor="middle" x="62.5" y="-586.4" font-family="Sans-Serif" font-size="12.00" fill="#2d3436">Worker Nodes</text>
</g>
<g id="clust9" class="cluster">
<title>cluster_Event Bus (Kafka)</title>
<path fill="#e5f5fd" stroke="#aeb6be" d="M336,-8C336,-8 590,-8 590,-8 596,-8 602,-14 602,-20 602,-20 602,-398 602,-398 602,-404 596,-410 590,-410 590,-410 336,-410 336,-410 330,-410 324,-404 324,-398 324,-398 324,-20 324,-20 324,-14 330,-8 336,-8"/>
<text text-anchor="middle" x="380.5" y="-396.4" font-family="Sans-Serif" font-size="12.00" fill="#2d3436">Event Bus (Kafka)</text>
</g>
<g id="clust10" class="cluster">
<title>cluster_VPC</title>
<path fill="#ebf3e7" stroke="#aeb6be" d="M344,-207C344,-207 582,-207 582,-207 588,-207 594,-213 594,-219 594,-219 594,-369 594,-369 594,-375 588,-381 582,-381 582,-381 344,-381 344,-381 338,-381 332,-375 332,-369 332,-369 332,-219 332,-219 332,-213 338,-207 344,-207"/>
<text text-anchor="middle" x="353" y="-367.4" font-family="Sans-Serif" font-size="12.00" fill="#2d3436">VPC</text>
</g>
<g id="clust11" class="cluster">
<title>cluster_EC2 Classic aka Limbo</title>
<path fill="#ebf3e7" stroke="#aeb6be" d="M344,-16C344,-16 582,-16 582,-16 588,-16 594,-22 594,-28 594,-28 594,-178 594,-178 594,-184 588,-190 582,-190 582,-190 344,-190 344,-190 338,-190 332,-184 332,-178 332,-178 332,-28 332,-28 332,-22 338,-16 344,-16"/>
<text text-anchor="middle" x="403" y="-176.4" font-family="Sans-Serif" font-size="12.00" fill="#2d3436">EC2 Classic aka Limbo</text>
</g>
<g id="clust12" class="cluster">
<title>cluster_Data Storage</title>
<path fill="#e5f5fd" stroke="#aeb6be" d="M807,-207C807,-207 1621,-207 1621,-207 1627,-207 1633,-213 1633,-219 1633,-219 1633,-369 1633,-369 1633,-375 1627,-381 1621,-381 1621,-381 807,-381 807,-381 801,-381 795,-375 795,-369 795,-369 795,-219 795,-219 795,-213 801,-207 807,-207"/>
<text text-anchor="middle" x="838.5" y="-367.4" font-family="Sans-Serif" font-size="12.00" fill="#2d3436">Data Storage</text>
</g>
<!-- 3c91bd02550242559b3d4924a1c411fb -->
<g id="node1" class="node">
<title>3c91bd02550242559b3d4924a1c411fb</title>
<image xlink:href="/usr/local/lib/python3.10/site-packages/resources/aws/network/route-53.png" width="101px" height="101px" preserveAspectRatio="xMinYMin meet" x="523.5" y="-1536"/>
<text text-anchor="middle" x="574" y="-1420.6" font-family="Sans-Serif" font-size="13.00" fill="#2d3436">dns</text>
</g>
<!-- d583ea3fd1634877a34243a03b786601 -->
<g id="node3" class="node">
<title>d583ea3fd1634877a34243a03b786601</title>
<image xlink:href="/usr/local/lib/python3.10/site-packages/resources/aws/network/elb-application-load-balancer.png" width="101px" height="101px" preserveAspectRatio="xMinYMin meet" x="456.5" y="-1345"/>
<text text-anchor="middle" x="507" y="-1229.6" font-family="Sans-Serif" font-size="13.00" fill="#2d3436">Auth Facade ALB</text>
</g>
<!-- 3c91bd02550242559b3d4924a1c411fb&#45;&gt;d583ea3fd1634877a34243a03b786601 -->
<g id="edge25" class="edge">
<title>3c91bd02550242559b3d4924a1c411fb&#45;&gt;d583ea3fd1634877a34243a03b786601</title>
<path fill="none" stroke="#7b8894" d="M540.5,-1417.08C540.5,-1417.08 540.5,-1374.27 540.5,-1374.27"/>
<polygon fill="#7b8894" stroke="#7b8894" points="544,-1374.27 540.5,-1364.27 537,-1374.27 544,-1374.27"/>
</g>
<!-- 3b65c452a32e4a3b80d95eb787e71fc6 -->
<g id="apertureNLB" class="node">
<title>3b65c452a32e4a3b80d95eb787e71fc6</title>
<image xlink:href="/usr/local/lib/python3.10/site-packages/resources/aws/network/elb-network-load-balancer.png" width="101px" height="101px" preserveAspectRatio="xMinYMin meet" x="600.5" y="-1345"/>
<text text-anchor="middle" x="651" y="-1229.6" font-family="Sans-Serif" font-size="13.00" fill="#2d3436">Aperture NLB</text>
</g>
<!-- 3c91bd02550242559b3d4924a1c411fb&#45;&gt;3b65c452a32e4a3b80d95eb787e71fc6 -->
<g id="edge22" class="edge">
<title>3c91bd02550242559b3d4924a1c411fb&#45;&gt;3b65c452a32e4a3b80d95eb787e71fc6</title>
<path fill="none" stroke="#7b8894" d="M612.5,-1417.08C612.5,-1417.08 612.5,-1374.27 612.5,-1374.27"/>
<polygon fill="#7b8894" stroke="#7b8894" points="616,-1374.27 612.5,-1364.27 609,-1374.27 616,-1374.27"/>
</g>
<!-- 51f9d3beeb854cfc8581d05230a84465 -->
<g id="node2" class="node">
<title>51f9d3beeb854cfc8581d05230a84465</title>
<image xlink:href="/usr/local/lib/python3.10/site-packages/resources/aws/compute/application-auto-scaling.png" width="101px" height="101px" preserveAspectRatio="xMinYMin meet" x="456.5" y="-1154"/>
<text text-anchor="middle" x="507" y="-1038.6" font-family="Sans-Serif" font-size="13.00" fill="#2d3436">Auth Facade</text>
</g>
<!-- 3473fc02de934d40918ecc8c736ecd4b -->
<g id="node25" class="node">
<title>3473fc02de934d40918ecc8c736ecd4b</title>
<image xlink:href="/usr/local/lib/python3.10/site-packages/resources/aws/network/elb-network-load-balancer.png" width="101px" height="101px" preserveAspectRatio="xMinYMin meet" x="600.5" y="-935"/>
<text text-anchor="middle" x="651" y="-819.6" font-family="Sans-Serif" font-size="13.00" fill="#2d3436">Ingress LB</text>
</g>
<!-- 51f9d3beeb854cfc8581d05230a84465&#45;&gt;3473fc02de934d40918ecc8c736ecd4b -->
<g id="edge27" class="edge">
<title>51f9d3beeb854cfc8581d05230a84465&#45;&gt;3473fc02de934d40918ecc8c736ecd4b</title>
<path fill="none" stroke="#7b8894" d="M507,-1035.25C507,-970.82 507,-884 507,-884 507,-884 589.12,-884 589.12,-884"/>
<polygon fill="#7b8894" stroke="#7b8894" points="589.12,-887.5 599.12,-884 589.12,-880.5 589.12,-887.5"/>
</g>
<!-- d583ea3fd1634877a34243a03b786601&#45;&gt;51f9d3beeb854cfc8581d05230a84465 -->
<g id="edge26" class="edge">
<title>d583ea3fd1634877a34243a03b786601&#45;&gt;51f9d3beeb854cfc8581d05230a84465</title>
<path fill="none" stroke="#7b8894" d="M507,-1226.08C507,-1226.08 507,-1183.27 507,-1183.27"/>
<polygon fill="#7b8894" stroke="#7b8894" points="510.5,-1183.27 507,-1173.27 503.5,-1183.27 510.5,-1183.27"/>
</g>
<!-- e33c8d57d8724ba39d98c4f9b6312ab6 -->
<g id="traefik" class="node">
<title>e33c8d57d8724ba39d98c4f9b6312ab6</title>
<image xlink:href="/usr/local/lib/python3.10/site-packages/resources/aws/compute/application-auto-scaling.png" width="101px" height="101px" preserveAspectRatio="xMinYMin meet" x="600.5" y="-1154"/>
<text text-anchor="middle" x="651" y="-1038.6" font-family="Sans-Serif" font-size="13.00" fill="#2d3436">Aperture Traefik</text>
</g>
<!-- 3b65c452a32e4a3b80d95eb787e71fc6&#45;&gt;e33c8d57d8724ba39d98c4f9b6312ab6 -->
<g id="edge23" class="edge">
<title>3b65c452a32e4a3b80d95eb787e71fc6&#45;&gt;e33c8d57d8724ba39d98c4f9b6312ab6</title>
<path fill="none" stroke="#7b8894" d="M651,-1226.08C651,-1226.08 651,-1183.27 651,-1183.27"/>
<polygon fill="#7b8894" stroke="#7b8894" points="654.5,-1183.27 651,-1173.27 647.5,-1183.27 654.5,-1183.27"/>
</g>
<!-- e33c8d57d8724ba39d98c4f9b6312ab6&#45;&gt;3473fc02de934d40918ecc8c736ecd4b -->
<g id="edge24" class="edge">
<title>e33c8d57d8724ba39d98c4f9b6312ab6&#45;&gt;3473fc02de934d40918ecc8c736ecd4b</title>
<path fill="none" stroke="#7b8894" d="M651,-1035.11C651,-1035.11 651,-964.26 651,-964.26"/>
<polygon fill="#7b8894" stroke="#7b8894" points="654.5,-964.26 651,-954.26 647.5,-964.26 654.5,-964.26"/>
</g>
<!-- 7bf3683e0f6f41fca25f33ffa83a9ee8 -->
<g id="ec2&#45;Dashboard&#45;Web" class="node">
<title>7bf3683e0f6f41fca25f33ffa83a9ee8</title>
<image xlink:href="/usr/local/lib/python3.10/site-packages/resources/aws/compute/ec2.png" width="101px" height="101px" preserveAspectRatio="xMinYMin meet" x="2750.5" y="-1536"/>
<text text-anchor="middle" x="2801" y="-1420.6" font-family="Sans-Serif" font-size="13.00" fill="#2d3436">Dashboard&#45;Web</text>
</g>
<!-- d4df5144c3a9481298cc6ac135412aa3 -->
<g id="skylineLB" class="node">
<title>d4df5144c3a9481298cc6ac135412aa3</title>
<image xlink:href="/usr/local/lib/python3.10/site-packages/resources/aws/network/elb-application-load-balancer.png" width="101px" height="101px" preserveAspectRatio="xMinYMin meet" x="1814.5" y="-1345"/>
<text text-anchor="middle" x="1865" y="-1229.6" font-family="Sans-Serif" font-size="13.00" fill="#2d3436">Skyline ALB</text>
</g>
<!-- 7bf3683e0f6f41fca25f33ffa83a9ee8&#45;&gt;d4df5144c3a9481298cc6ac135412aa3 -->
<g id="edge3" class="edge">
<title>7bf3683e0f6f41fca25f33ffa83a9ee8&#45;&gt;d4df5144c3a9481298cc6ac135412aa3</title>
<path fill="none" stroke="#7b8894" d="M2801,-1417.04C2801,-1354.27 2801,-1271 2801,-1271 2801,-1271 1926.84,-1271 1926.84,-1271"/>
<polygon fill="#7b8894" stroke="#7b8894" points="1926.84,-1267.5 1916.84,-1271 1926.84,-1274.5 1926.84,-1267.5"/>
</g>
<!-- 2710164581564a7591ef4820b02cf4c2 -->
<g id="ec2&#45;Dashboard&#45;Gear" class="node">
<title>2710164581564a7591ef4820b02cf4c2</title>
<image xlink:href="/usr/local/lib/python3.10/site-packages/resources/aws/compute/ec2.png" width="101px" height="101px" preserveAspectRatio="xMinYMin meet" x="2606.5" y="-1536"/>
<text text-anchor="middle" x="2657" y="-1420.6" font-family="Sans-Serif" font-size="13.00" fill="#2d3436">Dashboard&#45;Gear</text>
</g>
<!-- 2710164581564a7591ef4820b02cf4c2&#45;&gt;d4df5144c3a9481298cc6ac135412aa3 -->
<g id="edge4" class="edge">
<title>2710164581564a7591ef4820b02cf4c2&#45;&gt;d4df5144c3a9481298cc6ac135412aa3</title>
<path fill="none" stroke="#7b8894" d="M2657,-1417.12C2657,-1359.37 2657,-1286 2657,-1286 2657,-1286 1926.96,-1286 1926.96,-1286"/>
<polygon fill="#7b8894" stroke="#7b8894" points="1926.96,-1282.5 1916.96,-1286 1926.96,-1289.5 1926.96,-1282.5"/>
</g>
<!-- 8eafb9078b2d492f89172e170fb64cb1 -->
<g id="ec2&#45;Dashboard&#45;Cron" class="node">
<title>8eafb9078b2d492f89172e170fb64cb1</title>
<image xlink:href="/usr/local/lib/python3.10/site-packages/resources/aws/compute/ec2.png" width="101px" height="101px" preserveAspectRatio="xMinYMin meet" x="2462.5" y="-1536"/>
<text text-anchor="middle" x="2513" y="-1420.6" font-family="Sans-Serif" font-size="13.00" fill="#2d3436">Dashboard&#45;Cron</text>
</g>
<!-- 8eafb9078b2d492f89172e170fb64cb1&#45;&gt;d4df5144c3a9481298cc6ac135412aa3 -->
<g id="edge5" class="edge">
<title>8eafb9078b2d492f89172e170fb64cb1&#45;&gt;d4df5144c3a9481298cc6ac135412aa3</title>
<path fill="none" stroke="#7b8894" d="M2513,-1417.17C2513,-1365 2513,-1302 2513,-1302 2513,-1302 1926.82,-1302 1926.82,-1302"/>
<polygon fill="#7b8894" stroke="#7b8894" points="1926.82,-1298.5 1916.82,-1302 1926.82,-1305.5 1926.82,-1298.5"/>
</g>
<!-- abe75f8f4cc842748265915f566323f1 -->
<g id="ec2&#45;Member" class="node">
<title>abe75f8f4cc842748265915f566323f1</title>
<image xlink:href="/usr/local/lib/python3.10/site-packages/resources/aws/compute/ec2.png" width="101px" height="101px" preserveAspectRatio="xMinYMin meet" x="2318.5" y="-1536"/>
<text text-anchor="middle" x="2369" y="-1420.6" font-family="Sans-Serif" font-size="13.00" fill="#2d3436">Member</text>
</g>
<!-- abe75f8f4cc842748265915f566323f1&#45;&gt;d4df5144c3a9481298cc6ac135412aa3 -->
<g id="edge6" class="edge">
<title>abe75f8f4cc842748265915f566323f1&#45;&gt;d4df5144c3a9481298cc6ac135412aa3</title>
<path fill="none" stroke="#7b8894" d="M2369,-1417.45C2369,-1370.69 2369,-1317 2369,-1317 2369,-1317 1926.68,-1317 1926.68,-1317"/>
<polygon fill="#7b8894" stroke="#7b8894" points="1926.68,-1313.5 1916.68,-1317 1926.68,-1320.5 1926.68,-1313.5"/>
</g>
<!-- d35fcdc062a349ec9024d489e3046cf4 -->
<g id="ec2&#45;SCUM" class="node">
<title>d35fcdc062a349ec9024d489e3046cf4</title>
<image xlink:href="/usr/local/lib/python3.10/site-packages/resources/aws/compute/ec2.png" width="101px" height="101px" preserveAspectRatio="xMinYMin meet" x="2174.5" y="-1536"/>
<text text-anchor="middle" x="2225" y="-1420.6" font-family="Sans-Serif" font-size="13.00" fill="#2d3436">SCUM</text>
</g>
<!-- d35fcdc062a349ec9024d489e3046cf4&#45;&gt;d4df5144c3a9481298cc6ac135412aa3 -->
<g id="edge7" class="edge">
<title>d35fcdc062a349ec9024d489e3046cf4&#45;&gt;d4df5144c3a9481298cc6ac135412aa3</title>
<path fill="none" stroke="#7b8894" d="M2225,-1417.28C2225,-1376.28 2225,-1332 2225,-1332 2225,-1332 1926.95,-1332 1926.95,-1332"/>
<polygon fill="#7b8894" stroke="#7b8894" points="1926.95,-1328.5 1916.95,-1332 1926.95,-1335.5 1926.95,-1328.5"/>
</g>
<!-- 17d4d94587194399a20f5e64088a34f7 -->
<g id="ec2&#45;Billing" class="node">
<title>17d4d94587194399a20f5e64088a34f7</title>
<image xlink:href="/usr/local/lib/python3.10/site-packages/resources/aws/compute/ec2.png" width="101px" height="101px" preserveAspectRatio="xMinYMin meet" x="2030.5" y="-1536"/>
<text text-anchor="middle" x="2081" y="-1420.6" font-family="Sans-Serif" font-size="13.00" fill="#2d3436">Billing</text>
</g>
<!-- 17d4d94587194399a20f5e64088a34f7&#45;&gt;d4df5144c3a9481298cc6ac135412aa3 -->
<g id="edge8" class="edge">
<title>17d4d94587194399a20f5e64088a34f7&#45;&gt;d4df5144c3a9481298cc6ac135412aa3</title>
<path fill="none" stroke="#7b8894" d="M2081,-1417.06C2081,-1382.17 2081,-1347 2081,-1347 2081,-1347 1926.88,-1347 1926.88,-1347"/>
<polygon fill="#7b8894" stroke="#7b8894" points="1926.88,-1343.5 1916.88,-1347 1926.88,-1350.5 1926.88,-1343.5"/>
</g>
<!-- 65aff7bd42a54e98b1896630789a7946 -->
<g id="ec2&#45;Message Achieve" class="node">
<title>65aff7bd42a54e98b1896630789a7946</title>
<image xlink:href="/usr/local/lib/python3.10/site-packages/resources/aws/compute/ec2.png" width="101px" height="101px" preserveAspectRatio="xMinYMin meet" x="1886.5" y="-1536"/>
<text text-anchor="middle" x="1937" y="-1420.6" font-family="Sans-Serif" font-size="13.00" fill="#2d3436">Message Achieve</text>
</g>
<!-- 65aff7bd42a54e98b1896630789a7946&#45;&gt;d4df5144c3a9481298cc6ac135412aa3 -->
<g id="edge9" class="edge">
<title>65aff7bd42a54e98b1896630789a7946&#45;&gt;d4df5144c3a9481298cc6ac135412aa3</title>
<path fill="none" stroke="#7b8894" d="M1901,-1417.08C1901,-1417.08 1901,-1374.27 1901,-1374.27"/>
<polygon fill="#7b8894" stroke="#7b8894" points="1904.5,-1374.27 1901,-1364.27 1897.5,-1374.27 1904.5,-1374.27"/>
</g>
<!-- 2d12bf0e2b5d43e3972619f2ae3c4bb7 -->
<g id="ec2&#45;Message Review" class="node">
<title>2d12bf0e2b5d43e3972619f2ae3c4bb7</title>
<image xlink:href="/usr/local/lib/python3.10/site-packages/resources/aws/compute/ec2.png" width="101px" height="101px" preserveAspectRatio="xMinYMin meet" x="1742.5" y="-1536"/>
<text text-anchor="middle" x="1793" y="-1420.6" font-family="Sans-Serif" font-size="13.00" fill="#2d3436">Message Review</text>
</g>
<!-- 2d12bf0e2b5d43e3972619f2ae3c4bb7&#45;&gt;d4df5144c3a9481298cc6ac135412aa3 -->
<g id="edge10" class="edge">
<title>2d12bf0e2b5d43e3972619f2ae3c4bb7&#45;&gt;d4df5144c3a9481298cc6ac135412aa3</title>
<path fill="none" stroke="#7b8894" d="M1829,-1417.08C1829,-1417.08 1829,-1374.27 1829,-1374.27"/>
<polygon fill="#7b8894" stroke="#7b8894" points="1832.5,-1374.27 1829,-1364.27 1825.5,-1374.27 1832.5,-1374.27"/>
</g>
<!-- 855a1b0934b24269862aec2d47f9f635 -->
<g id="ec2&#45;Scheduled Data" class="node">
<title>855a1b0934b24269862aec2d47f9f635</title>
<image xlink:href="/usr/local/lib/python3.10/site-packages/resources/aws/compute/ec2.png" width="101px" height="101px" preserveAspectRatio="xMinYMin meet" x="1598.5" y="-1536"/>
<text text-anchor="middle" x="1649" y="-1420.6" font-family="Sans-Serif" font-size="13.00" fill="#2d3436">Scheduled Data</text>
</g>
<!-- 855a1b0934b24269862aec2d47f9f635&#45;&gt;d4df5144c3a9481298cc6ac135412aa3 -->
<g id="edge11" class="edge">
<title>855a1b0934b24269862aec2d47f9f635&#45;&gt;d4df5144c3a9481298cc6ac135412aa3</title>
<path fill="none" stroke="#7b8894" d="M1662,-1417.31C1662,-1381.51 1662,-1345 1662,-1345 1662,-1345 1803.05,-1345 1803.05,-1345"/>
<polygon fill="#7b8894" stroke="#7b8894" points="1803.05,-1348.5 1813.05,-1345 1803.05,-1341.5 1803.05,-1348.5"/>
</g>
<!-- f8471fa0e7aa461a9ceeda540d4fc7ad -->
<g id="ec2&#45;Core" class="node">
<title>f8471fa0e7aa461a9ceeda540d4fc7ad</title>
<image xlink:href="/usr/local/lib/python3.10/site-packages/resources/aws/compute/ec2.png" width="101px" height="101px" preserveAspectRatio="xMinYMin meet" x="1454.5" y="-1536"/>
<text text-anchor="middle" x="1505" y="-1420.6" font-family="Sans-Serif" font-size="13.00" fill="#2d3436">Core</text>
</g>
<!-- f8471fa0e7aa461a9ceeda540d4fc7ad&#45;&gt;d4df5144c3a9481298cc6ac135412aa3 -->
<g id="edge12" class="edge">
<title>f8471fa0e7aa461a9ceeda540d4fc7ad&#45;&gt;d4df5144c3a9481298cc6ac135412aa3</title>
<path fill="none" stroke="#7b8894" d="M1539.5,-1417.33C1539.5,-1374.77 1539.5,-1328 1539.5,-1328 1539.5,-1328 1803.34,-1328 1803.34,-1328"/>
<polygon fill="#7b8894" stroke="#7b8894" points="1803.34,-1331.5 1813.34,-1328 1803.34,-1324.5 1803.34,-1331.5"/>
</g>
<!-- 0741cfcc757f434b8aaf6032b86dd2b4 -->
<g id="ec2&#45;TOPS" class="node">
<title>0741cfcc757f434b8aaf6032b86dd2b4</title>
<image xlink:href="/usr/local/lib/python3.10/site-packages/resources/aws/compute/ec2.png" width="101px" height="101px" preserveAspectRatio="xMinYMin meet" x="1310.5" y="-1536"/>
<text text-anchor="middle" x="1361" y="-1420.6" font-family="Sans-Serif" font-size="13.00" fill="#2d3436">TOPS</text>
</g>
<!-- 0741cfcc757f434b8aaf6032b86dd2b4&#45;&gt;d4df5144c3a9481298cc6ac135412aa3 -->
<g id="edge13" class="edge">
<title>0741cfcc757f434b8aaf6032b86dd2b4&#45;&gt;d4df5144c3a9481298cc6ac135412aa3</title>
<path fill="none" stroke="#7b8894" d="M1395.5,-1417.03C1395.5,-1368.15 1395.5,-1311 1395.5,-1311 1395.5,-1311 1803.24,-1311 1803.24,-1311"/>
<polygon fill="#7b8894" stroke="#7b8894" points="1803.24,-1314.5 1813.24,-1311 1803.24,-1307.5 1803.24,-1314.5"/>
</g>
<!-- be3e4f41ded0440a816ee5ddfaad90b2 -->
<g id="ec2&#45;GSS" class="node">
<title>be3e4f41ded0440a816ee5ddfaad90b2</title>
<image xlink:href="/usr/local/lib/python3.10/site-packages/resources/aws/compute/ec2.png" width="101px" height="101px" preserveAspectRatio="xMinYMin meet" x="1166.5" y="-1536"/>
<text text-anchor="middle" x="1217" y="-1420.6" font-family="Sans-Serif" font-size="13.00" fill="#2d3436">GSS</text>
</g>
<!-- be3e4f41ded0440a816ee5ddfaad90b2&#45;&gt;d4df5144c3a9481298cc6ac135412aa3 -->
<g id="edge14" class="edge">
<title>be3e4f41ded0440a816ee5ddfaad90b2&#45;&gt;d4df5144c3a9481298cc6ac135412aa3</title>
<path fill="none" stroke="#7b8894" d="M1251.5,-1417.18C1251.5,-1362.18 1251.5,-1294 1251.5,-1294 1251.5,-1294 1803.02,-1294 1803.02,-1294"/>
<polygon fill="#7b8894" stroke="#7b8894" points="1803.02,-1297.5 1813.02,-1294 1803.02,-1290.5 1803.02,-1297.5"/>
</g>
<!-- 18f4563c42f44f4f8ee20ab9c53bc6dd -->
<g id="ec2&#45;HootSupport" class="node">
<title>18f4563c42f44f4f8ee20ab9c53bc6dd</title>
<image xlink:href="/usr/local/lib/python3.10/site-packages/resources/aws/compute/ec2.png" width="101px" height="101px" preserveAspectRatio="xMinYMin meet" x="1022.5" y="-1536"/>
<text text-anchor="middle" x="1073" y="-1420.6" font-family="Sans-Serif" font-size="13.00" fill="#2d3436">HootSupport</text>
</g>
<!-- 18f4563c42f44f4f8ee20ab9c53bc6dd&#45;&gt;d4df5144c3a9481298cc6ac135412aa3 -->
<g id="edge15" class="edge">
<title>18f4563c42f44f4f8ee20ab9c53bc6dd&#45;&gt;d4df5144c3a9481298cc6ac135412aa3</title>
<path fill="none" stroke="#7b8894" d="M1107.5,-1417.23C1107.5,-1356.42 1107.5,-1277 1107.5,-1277 1107.5,-1277 1803.2,-1277 1803.2,-1277"/>
<polygon fill="#7b8894" stroke="#7b8894" points="1803.2,-1280.5 1813.2,-1277 1803.2,-1273.5 1803.2,-1280.5"/>
</g>
<!-- 2a2c2c431b634eeab0fe374bf06cecef -->
<g id="ec2&#45;Push Notifications" class="node">
<title>2a2c2c431b634eeab0fe374bf06cecef</title>
<image xlink:href="/usr/local/lib/python3.10/site-packages/resources/aws/compute/ec2.png" width="101px" height="101px" preserveAspectRatio="xMinYMin meet" x="878.5" y="-1536"/>
<text text-anchor="middle" x="929" y="-1420.6" font-family="Sans-Serif" font-size="13.00" fill="#2d3436">Push Notifications</text>
</g>
<!-- 2a2c2c431b634eeab0fe374bf06cecef&#45;&gt;d4df5144c3a9481298cc6ac135412aa3 -->
<g id="edge16" class="edge">
<title>2a2c2c431b634eeab0fe374bf06cecef&#45;&gt;d4df5144c3a9481298cc6ac135412aa3</title>
<path fill="none" stroke="#7b8894" d="M958.17,-1417.23C958.17,-1350.86 958.17,-1260 958.17,-1260 958.17,-1260 1803.11,-1260 1803.11,-1260"/>
<polygon fill="#7b8894" stroke="#7b8894" points="1803.11,-1263.5 1813.11,-1260 1803.11,-1256.5 1803.11,-1263.5"/>
</g>
<!-- 51d53bcd0d224ba5a9325fcaa0f6d336 -->
<g id="ec2&#45;Crypto" class="node">
<title>51d53bcd0d224ba5a9325fcaa0f6d336</title>
<image xlink:href="/usr/local/lib/python3.10/site-packages/resources/aws/compute/ec2.png" width="101px" height="101px" preserveAspectRatio="xMinYMin meet" x="734.5" y="-1536"/>
<text text-anchor="middle" x="785" y="-1420.6" font-family="Sans-Serif" font-size="13.00" fill="#2d3436">Crypto</text>
</g>
<!-- 51d53bcd0d224ba5a9325fcaa0f6d336&#45;&gt;d4df5144c3a9481298cc6ac135412aa3 -->
<g id="edge17" class="edge">
<title>51d53bcd0d224ba5a9325fcaa0f6d336&#45;&gt;d4df5144c3a9481298cc6ac135412aa3</title>
<path fill="none" stroke="#7b8894" d="M819.5,-1417.3C819.5,-1345.58 819.5,-1243 819.5,-1243 819.5,-1243 1803.06,-1243 1803.06,-1243"/>
<polygon fill="#7b8894" stroke="#7b8894" points="1803.06,-1246.5 1813.06,-1243 1803.06,-1239.5 1803.06,-1246.5"/>
</g>
<!-- 54f769c12fb94d01a5357f8e9b52e07b -->
<g id="ec2&#45;Aperture Authz" class="node">
<title>54f769c12fb94d01a5357f8e9b52e07b</title>
<image xlink:href="/usr/local/lib/python3.10/site-packages/resources/aws/compute/ec2.png" width="101px" height="101px" preserveAspectRatio="xMinYMin meet" x="3038.5" y="-1536"/>
<text text-anchor="middle" x="3089" y="-1420.6" font-family="Sans-Serif" font-size="13.00" fill="#2d3436">Aperture Authz</text>
</g>
<!-- 54f769c12fb94d01a5357f8e9b52e07b&#45;&gt;d4df5144c3a9481298cc6ac135412aa3 -->
<g id="edge18" class="edge">
<title>54f769c12fb94d01a5357f8e9b52e07b&#45;&gt;d4df5144c3a9481298cc6ac135412aa3</title>
<path fill="none" stroke="#7b8894" d="M3089,-1417.07C3089,-1344.74 3089,-1241 3089,-1241 3089,-1241 1926.78,-1241 1926.78,-1241"/>
<polygon fill="#7b8894" stroke="#7b8894" points="1926.78,-1237.5 1916.78,-1241 1926.78,-1244.5 1926.78,-1237.5"/>
</g>
<!-- ba6d1c5feabd455ca20a1e8a2a77232c -->
<g id="ec2&#45;Amplify" class="node">
<title>ba6d1c5feabd455ca20a1e8a2a77232c</title>
<image xlink:href="/usr/local/lib/python3.10/site-packages/resources/aws/compute/ec2.png" width="101px" height="101px" preserveAspectRatio="xMinYMin meet" x="2894.5" y="-1536"/>
<text text-anchor="middle" x="2945" y="-1420.6" font-family="Sans-Serif" font-size="13.00" fill="#2d3436">Amplify</text>
</g>
<!-- ba6d1c5feabd455ca20a1e8a2a77232c&#45;&gt;d4df5144c3a9481298cc6ac135412aa3 -->
<g id="edge19" class="edge">
<title>ba6d1c5feabd455ca20a1e8a2a77232c&#45;&gt;d4df5144c3a9481298cc6ac135412aa3</title>
<path fill="none" stroke="#7b8894" d="M2945,-1417.26C2945,-1349.61 2945,-1256 2945,-1256 2945,-1256 1926.8,-1256 1926.8,-1256"/>
<polygon fill="#7b8894" stroke="#7b8894" points="1926.8,-1252.5 1916.8,-1256 1926.8,-1259.5 1926.8,-1252.5"/>
</g>
<!-- 6dcef4ab531d454eaf5fd50a77d90c2e -->
<g id="skylineBridge" class="node">
<title>6dcef4ab531d454eaf5fd50a77d90c2e</title>
<image xlink:href="/usr/local/lib/python3.10/site-packages/resources/aws/compute/ec2.png" width="101px" height="101px" preserveAspectRatio="xMinYMin meet" x="1814.5" y="-1154"/>
<text text-anchor="middle" x="1865" y="-1038.6" font-family="Sans-Serif" font-size="13.00" fill="#2d3436">Skyline Bridge</text>
</g>
<!-- d4df5144c3a9481298cc6ac135412aa3&#45;&gt;6dcef4ab531d454eaf5fd50a77d90c2e -->
<g id="edge20" class="edge">
<title>d4df5144c3a9481298cc6ac135412aa3&#45;&gt;6dcef4ab531d454eaf5fd50a77d90c2e</title>
<path fill="none" stroke="#7b8894" d="M1865,-1226.08C1865,-1226.08 1865,-1183.27 1865,-1183.27"/>
<polygon fill="#7b8894" stroke="#7b8894" points="1868.5,-1183.27 1865,-1173.27 1861.5,-1183.27 1868.5,-1183.27"/>
</g>
<!-- 6dcef4ab531d454eaf5fd50a77d90c2e&#45;&gt;3473fc02de934d40918ecc8c736ecd4b -->
<g id="edge21" class="edge">
<title>6dcef4ab531d454eaf5fd50a77d90c2e&#45;&gt;3473fc02de934d40918ecc8c736ecd4b</title>
<path fill="none" stroke="#7b8894" d="M1865,-1035.25C1865,-970.82 1865,-884 1865,-884 1865,-884 712.75,-884 712.75,-884"/>
<polygon fill="#7b8894" stroke="#7b8894" points="712.75,-880.5 702.75,-884 712.75,-887.5 712.75,-880.5"/>
</g>
<!-- 0af3e69b83124cc7a3f8a7033f6e7435 -->
<g id="traefikPods" class="node">
<title>0af3e69b83124cc7a3f8a7033f6e7435</title>
<image xlink:href="/usr/local/lib/python3.10/site-packages/resources/k8s/compute/pod.png" width="101px" height="101px" preserveAspectRatio="xMinYMin meet" x="600.5" y="-744"/>
<text text-anchor="middle" x="651" y="-628.6" font-family="Sans-Serif" font-size="13.00" fill="#2d3436">Traefik Pods</text>
</g>
<!-- 3473fc02de934d40918ecc8c736ecd4b&#45;&gt;0af3e69b83124cc7a3f8a7033f6e7435 -->
<g id="edge28" class="edge">
<title>3473fc02de934d40918ecc8c736ecd4b&#45;&gt;0af3e69b83124cc7a3f8a7033f6e7435</title>
<path fill="none" stroke="#7b8894" d="M651,-816.08C651,-816.08 651,-773.27 651,-773.27"/>
<polygon fill="#7b8894" stroke="#7b8894" points="654.5,-773.27 651,-763.27 647.5,-773.27 654.5,-773.27"/>
</g>
<!-- a398d97c5d634f0e9ab984e947fa5e19 -->
<g id="servicePods" class="node">
<title>a398d97c5d634f0e9ab984e947fa5e19</title>
<image xlink:href="/usr/local/lib/python3.10/site-packages/resources/k8s/compute/pod.png" width="101px" height="101px" preserveAspectRatio="xMinYMin meet" x="600.5" y="-553"/>
<text text-anchor="middle" x="651" y="-437.6" font-family="Sans-Serif" font-size="13.00" fill="#2d3436">More service pods... </text>
</g>
<!-- 0af3e69b83124cc7a3f8a7033f6e7435&#45;&gt;a398d97c5d634f0e9ab984e947fa5e19 -->
<g id="edge29" class="edge">
<title>0af3e69b83124cc7a3f8a7033f6e7435&#45;&gt;a398d97c5d634f0e9ab984e947fa5e19</title>
<path fill="none" stroke="#7b8894" d="M667.83,-625.08C667.83,-625.08 667.83,-582.27 667.83,-582.27"/>
<polygon fill="#7b8894" stroke="#7b8894" points="671.33,-582.27 667.83,-572.27 664.33,-582.27 671.33,-582.27"/>
</g>
<!-- a398d97c5d634f0e9ab984e947fa5e19&#45;&gt;a398d97c5d634f0e9ab984e947fa5e19 -->
<g id="edge31" class="edge">
<title>a398d97c5d634f0e9ab984e947fa5e19&#45;&gt;a398d97c5d634f0e9ab984e947fa5e19</title>
<path fill="none" stroke="red" stroke-dasharray="5,2" d="M634.17,-582.4C634.17,-582.4 634.17,-598 634.17,-598 634.17,-598 593,-598 593,-598 593,-598 593,-406 593,-406 593,-406 681.3,-406 681.3,-406 681.3,-406 681.3,-422.66 681.3,-422.66"/>
<polygon fill="red" stroke="red" points="637.67,-582.4 634.17,-572.4 630.67,-582.4 637.67,-582.4"/>
<polygon fill="red" stroke="red" points="677.8,-422.66 681.3,-432.66 684.8,-422.66 677.8,-422.66"/>
</g>
<!-- 0a1c4a4317274f8aaa61ed1d9f63dd86 -->
<g id="VPC Local" class="node">
<title>0a1c4a4317274f8aaa61ed1d9f63dd86</title>
<image xlink:href="/usr/local/lib/python3.10/site-packages/resources/onprem/queue/kafka.png" width="101px" height="101px" preserveAspectRatio="xMinYMin meet" x="484.5" y="-334"/>
<text text-anchor="middle" x="535" y="-218.6" font-family="Sans-Serif" font-size="13.00" fill="#2d3436">VPC Local</text>
</g>
<!-- a398d97c5d634f0e9ab984e947fa5e19&#45;&gt;0a1c4a4317274f8aaa61ed1d9f63dd86 -->
<g id="edge32" class="edge">
<title>a398d97c5d634f0e9ab984e947fa5e19&#45;&gt;0a1c4a4317274f8aaa61ed1d9f63dd86</title>
<path fill="none" stroke="#7b8894" d="M589.14,-502C589.14,-502 571.5,-502 571.5,-502 571.5,-502 571.5,-415.85 571.5,-351.74"/>
<polygon fill="#7b8894" stroke="#7b8894" points="589.14,-505.5 599.14,-502 589.14,-498.5 589.14,-505.5"/>
</g>
<!-- 9a09f65af1934df3b3816ee09fbaa123 -->
<g id="Limbo Aggregate" class="node">
<title>9a09f65af1934df3b3816ee09fbaa123</title>
<image xlink:href="/usr/local/lib/python3.10/site-packages/resources/onprem/queue/kafka.png" width="101px" height="101px" preserveAspectRatio="xMinYMin meet" x="484.5" y="-143"/>
<text text-anchor="middle" x="535" y="-27.6" font-family="Sans-Serif" font-size="13.00" fill="#2d3436">Limbo Aggregate</text>
</g>
<!-- a398d97c5d634f0e9ab984e947fa5e19&#45;&gt;9a09f65af1934df3b3816ee09fbaa123 -->
<g id="edge35" class="edge">
<title>a398d97c5d634f0e9ab984e947fa5e19&#45;&gt;9a09f65af1934df3b3816ee09fbaa123</title>
<path fill="none" stroke="#7b8894" d="M661.1,-422.74C661.1,-422.74 661.1,-92 661.1,-92 661.1,-92 620.37,-92 585.2,-92"/>
<polygon fill="#7b8894" stroke="#7b8894" points="657.6,-422.74 661.1,-432.74 664.6,-422.74 657.6,-422.74"/>
</g>
<!-- e4e77d895c7e4c599172158f64e0caf6 -->
<g id="Limbo Local" class="node">
<title>e4e77d895c7e4c599172158f64e0caf6</title>
<image xlink:href="/usr/local/lib/python3.10/site-packages/resources/onprem/queue/kafka.png" width="101px" height="101px" preserveAspectRatio="xMinYMin meet" x="340.5" y="-143"/>
<text text-anchor="middle" x="391" y="-27.6" font-family="Sans-Serif" font-size="13.00" fill="#2d3436">Limbo Local</text>
</g>
<!-- a398d97c5d634f0e9ab984e947fa5e19&#45;&gt;e4e77d895c7e4c599172158f64e0caf6 -->
<g id="edge34" class="edge">
<title>a398d97c5d634f0e9ab984e947fa5e19&#45;&gt;e4e77d895c7e4c599172158f64e0caf6</title>
<path fill="none" stroke="#7b8894" d="M640.9,-422.74C640.9,-422.74 640.9,-188 640.9,-188 640.9,-188 407.83,-188 407.83,-188 407.83,-188 407.83,-176.2 407.83,-160.89"/>
<polygon fill="#7b8894" stroke="#7b8894" points="637.4,-422.74 640.9,-432.74 644.4,-422.74 637.4,-422.74"/>
</g>
<!-- 887f4f39f0fe444d990edd52ee530fba -->
<g id="VPC Aggregate" class="node">
<title>887f4f39f0fe444d990edd52ee530fba</title>
<image xlink:href="/usr/local/lib/python3.10/site-packages/resources/onprem/queue/kafka.png" width="101px" height="101px" preserveAspectRatio="xMinYMin meet" x="340.5" y="-334"/>
<text text-anchor="middle" x="391" y="-218.6" font-family="Sans-Serif" font-size="13.00" fill="#2d3436">VPC Aggregate</text>
</g>
<!-- a398d97c5d634f0e9ab984e947fa5e19&#45;&gt;887f4f39f0fe444d990edd52ee530fba -->
<g id="edge33" class="edge">
<title>a398d97c5d634f0e9ab984e947fa5e19&#45;&gt;887f4f39f0fe444d990edd52ee530fba</title>
<path fill="none" stroke="#7b8894" d="M620.7,-422.73C620.7,-422.73 620.7,-379 620.7,-379 620.7,-379 427.5,-379 427.5,-379 427.5,-379 427.5,-367.2 427.5,-351.89"/>
<polygon fill="#7b8894" stroke="#7b8894" points="617.2,-422.73 620.7,-432.73 624.2,-422.73 617.2,-422.73"/>
</g>
<!-- 8bf81a0fcd97460ebbd4ae6e1b032811 -->
<g id="node40" class="node">
<title>8bf81a0fcd97460ebbd4ae6e1b032811</title>
<image xlink:href="/usr/local/lib/python3.10/site-packages/resources/aws/storage/simple-storage-service-s3.png" width="101px" height="101px" preserveAspectRatio="xMinYMin meet" x="947.5" y="-334"/>
<text text-anchor="middle" x="998" y="-218.6" font-family="Sans-Serif" font-size="13.00" fill="#2d3436">S3</text>
</g>
<!-- a398d97c5d634f0e9ab984e947fa5e19&#45;&gt;8bf81a0fcd97460ebbd4ae6e1b032811 -->
<g id="edge30" class="edge">
<title>a398d97c5d634f0e9ab984e947fa5e19&#45;&gt;8bf81a0fcd97460ebbd4ae6e1b032811</title>
<path fill="none" stroke="#7b8894" d="M701.36,-502C790.98,-502 968.83,-502 968.83,-502 968.83,-502 968.83,-363.25 968.83,-363.25"/>
<polygon fill="#7b8894" stroke="#7b8894" points="972.33,-363.25 968.83,-353.25 965.33,-363.25 972.33,-363.25"/>
</g>
<!-- 5f25db1906494783b1f0a49d31fb3d08 -->
<g id="node28" class="node">
<title>5f25db1906494783b1f0a49d31fb3d08</title>
<image xlink:href="/usr/local/lib/python3.10/site-packages/resources/k8s/compute/pod.png" width="101px" height="101px" preserveAspectRatio="xMinYMin meet" x="456.5" y="-553"/>
<text text-anchor="middle" x="507" y="-437.6" font-family="Sans-Serif" font-size="13.00" fill="#2d3436">Service POD</text>
</g>
<!-- 736e3c952d7b443cbc057bc2bc67eafc -->
<g id="node29" class="node">
<title>736e3c952d7b443cbc057bc2bc67eafc</title>
<image xlink:href="/usr/local/lib/python3.10/site-packages/resources/k8s/compute/pod.png" width="101px" height="101px" preserveAspectRatio="xMinYMin meet" x="312.5" y="-553"/>
<text text-anchor="middle" x="363" y="-437.6" font-family="Sans-Serif" font-size="13.00" fill="#2d3436">Service POD</text>
</g>
<!-- d4e2657d416d460186b92642df2de42b -->
<g id="node30" class="node">
<title>d4e2657d416d460186b92642df2de42b</title>
<image xlink:href="/usr/local/lib/python3.10/site-packages/resources/k8s/compute/pod.png" width="101px" height="101px" preserveAspectRatio="xMinYMin meet" x="168.5" y="-553"/>
<text text-anchor="middle" x="219" y="-437.6" font-family="Sans-Serif" font-size="13.00" fill="#2d3436">Service POD</text>
</g>
<!-- ab0d392c7b7c4d22b678075c5de1afe1 -->
<g id="node31" class="node">
<title>ab0d392c7b7c4d22b678075c5de1afe1</title>
<image xlink:href="/usr/local/lib/python3.10/site-packages/resources/k8s/compute/pod.png" width="101px" height="101px" preserveAspectRatio="xMinYMin meet" x="24.5" y="-553"/>
<text text-anchor="middle" x="75" y="-437.6" font-family="Sans-Serif" font-size="13.00" fill="#2d3436">Service POD</text>
</g>
<!-- 0a1c4a4317274f8aaa61ed1d9f63dd86&#45;&gt;9a09f65af1934df3b3816ee09fbaa123 -->
<g id="edge1" class="edge">
<title>0a1c4a4317274f8aaa61ed1d9f63dd86&#45;&gt;9a09f65af1934df3b3816ee09fbaa123</title>
<path fill="none" stroke="#7b8894" d="M535,-215.08C535,-215.08 535,-172.27 535,-172.27"/>
<polygon fill="#7b8894" stroke="#7b8894" points="538.5,-172.27 535,-162.27 531.5,-172.27 538.5,-172.27"/>
</g>
<!-- e4e77d895c7e4c599172158f64e0caf6&#45;&gt;887f4f39f0fe444d990edd52ee530fba -->
<g id="edge2" class="edge">
<title>e4e77d895c7e4c599172158f64e0caf6&#45;&gt;887f4f39f0fe444d990edd52ee530fba</title>
<path fill="none" stroke="#7b8894" d="M374.17,-160.92C374.17,-160.92 374.17,-203.73 374.17,-203.73"/>
<polygon fill="#7b8894" stroke="#7b8894" points="370.67,-203.73 374.17,-213.73 377.67,-203.73 370.67,-203.73"/>
</g>
<!-- 458a68a933ce445eac829bfd86551b47 -->
<g id="node36" class="node">
<title>458a68a933ce445eac829bfd86551b47</title>
<image xlink:href="/usr/local/lib/python3.10/site-packages/resources/aws/database/rds.png" width="101px" height="101px" preserveAspectRatio="xMinYMin meet" x="1523.5" y="-334"/>
<text text-anchor="middle" x="1574" y="-218.6" font-family="Sans-Serif" font-size="13.00" fill="#2d3436">RDS</text>
</g>
<!-- 2bbf1cc8dd4040fcb44ffb0eac5266e3 -->
<g id="node37" class="node">
<title>2bbf1cc8dd4040fcb44ffb0eac5266e3</title>
<image xlink:href="/usr/local/lib/python3.10/site-packages/resources/aws/database/aurora.png" width="101px" height="101px" preserveAspectRatio="xMinYMin meet" x="1379.5" y="-334"/>
<text text-anchor="middle" x="1430" y="-218.6" font-family="Sans-Serif" font-size="13.00" fill="#2d3436">Aurora</text>
</g>
<!-- d45683dee80a4a8b851eb76fafc44977 -->
<g id="node38" class="node">
<title>d45683dee80a4a8b851eb76fafc44977</title>
<image xlink:href="/usr/local/lib/python3.10/site-packages/resources/aws/database/elasticache-for-memcached.png" width="101px" height="101px" preserveAspectRatio="xMinYMin meet" x="1235.5" y="-334"/>
<text text-anchor="middle" x="1286" y="-218.6" font-family="Sans-Serif" font-size="13.00" fill="#2d3436">Memcached</text>
</g>
<!-- 2103e832655740799b75d4f02ac1c1e1 -->
<g id="node39" class="node">
<title>2103e832655740799b75d4f02ac1c1e1</title>
<image xlink:href="/usr/local/lib/python3.10/site-packages/resources/aws/database/elasticache-for-redis.png" width="101px" height="101px" preserveAspectRatio="xMinYMin meet" x="1091.5" y="-334"/>
<text text-anchor="middle" x="1142" y="-218.6" font-family="Sans-Serif" font-size="13.00" fill="#2d3436">Redis</text>
</g>
<!-- c793ba61d44b46e49bb3669871baa8f4 -->
<g id="node41" class="node">
<title>c793ba61d44b46e49bb3669871baa8f4</title>
<image xlink:href="/usr/local/lib/python3.10/site-packages/resources/aws/compute/ec2.png" width="101px" height="101px" preserveAspectRatio="xMinYMin meet" x="803.5" y="-334"/>
<text text-anchor="middle" x="854" y="-218.6" font-family="Sans-Serif" font-size="13.00" fill="#2d3436">Mongo</text>
</g>
</g>
</svg>
