<?xml version="1.0" encoding="UTF-8" standalone="no"?>
<!DOCTYPE svg PUBLIC "-//W3C//DTD SVG 1.1//EN"
 "http://www.w3.org/Graphics/SVG/1.1/DTD/svg11.dtd">
<!-- Generated by graphviz version 7.0.0 (20221023.0053)
 -->
<!-- Pages: 1 -->
<svg width="3734pt" height="2444pt"
 viewBox="0.00 0.00 3734.00 2444.00" xmlns="http://www.w3.org/2000/svg" xmlns:xlink="http://www.w3.org/1999/xlink">
<g id="graph0" class="graph" transform="scale(1 1) rotate(0) translate(144 2300)">
<g id="cluster_edge" class="cluster">
<title>cluster_Edge</title>
<path fill="#e5f5fd" stroke="#aeb6be" d="M2172,-1584C2172,-1584 2426,-1584 2426,-1584 2432,-1584 2438,-1590 2438,-1596 2438,-1596 2438,-2136 2438,-2136 2438,-2142 2432,-2148 2426,-2148 2426,-2148 2172,-2148 2172,-2148 2166,-2148 2160,-2142 2160,-2136 2160,-2136 2160,-1596 2160,-1596 2160,-1590 2166,-1584 2172,-1584"/>
<text text-anchor="middle" x="2182.5" y="-2134.4" font-family="Sans-Serif" font-size="12.00" fill="#2d3436">Edge</text>
</g>
<g id="cluster_auth_facade" class="cluster">
<title>cluster_Auth Facade</title>
<path fill="#ebf3e7" stroke="#aeb6be" d="M2180,-1592C2180,-1592 2274,-1592 2274,-1592 2280,-1592 2286,-1598 2286,-1604 2286,-1604 2286,-1945 2286,-1945 2286,-1951 2280,-1957 2274,-1957 2274,-1957 2180,-1957 2180,-1957 2174,-1957 2168,-1951 2168,-1945 2168,-1945 2168,-1604 2168,-1604 2168,-1598 2174,-1592 2180,-1592"/>
<text text-anchor="middle" x="2210.5" y="-1943.4" font-family="Sans-Serif" font-size="12.00" fill="#2d3436">Auth Facade</text>
</g>
<g id="cluster_aperture" class="cluster">
<title>cluster_Aperture</title>
<path fill="#ebf3e7" stroke="#aeb6be" d="M2324,-1592C2324,-1592 2418,-1592 2418,-1592 2424,-1592 2430,-1598 2430,-1604 2430,-1604 2430,-1945 2430,-1945 2430,-1951 2424,-1957 2418,-1957 2418,-1957 2324,-1957 2324,-1957 2318,-1957 2312,-1951 2312,-1945 2312,-1945 2312,-1604 2312,-1604 2312,-1598 2318,-1592 2324,-1592"/>
<text text-anchor="middle" x="2343" y="-1943.4" font-family="Sans-Serif" font-size="12.00" fill="#2d3436">Aperture</text>
</g>
<g id="cluster_k8s" class="cluster">
<title>cluster_Kubernetes Cluster</title>
<path fill="#e5f5fd" stroke="#aeb6be" d="M2100,-418C2100,-418 2786,-418 2786,-418 2792,-418 2798,-424 2798,-430 2798,-430 2798,-999 2798,-999 2798,-1005 2792,-1011 2786,-1011 2786,-1011 2100,-1011 2100,-1011 2094,-1011 2088,-1005 2088,-999 2088,-999 2088,-430 2088,-430 2088,-424 2094,-418 2100,-418"/>
<text text-anchor="middle" x="2147.5" y="-997.4" font-family="Sans-Serif" font-size="12.00" fill="#2d3436">Kubernetes Cluster</text>
</g>
<g id="cluster_k8s_ingress" class="cluster">
<title>cluster_Ingress Nodes</title>
<path fill="#ebf3e7" stroke="#aeb6be" d="M2324,-617C2324,-617 2418,-617 2418,-617 2424,-617 2430,-623 2430,-629 2430,-629 2430,-970 2430,-970 2430,-976 2424,-982 2418,-982 2418,-982 2324,-982 2324,-982 2318,-982 2312,-976 2312,-970 2312,-970 2312,-629 2312,-629 2312,-623 2318,-617 2324,-617"/>
<text text-anchor="middle" x="2359" y="-968.4" font-family="Sans-Serif" font-size="12.00" fill="#2d3436">Ingress Nodes</text>
</g>
<g id="cluster_k8s_worker" class="cluster">
<title>cluster_Worker Nodes</title>
<path fill="#ebf3e7" stroke="#aeb6be" d="M2108,-426C2108,-426 2778,-426 2778,-426 2784,-426 2790,-432 2790,-438 2790,-438 2790,-588 2790,-588 2790,-594 2784,-600 2778,-600 2778,-600 2108,-600 2108,-600 2102,-600 2096,-594 2096,-588 2096,-588 2096,-438 2096,-438 2096,-432 2102,-426 2108,-426"/>
<text text-anchor="middle" x="2142.5" y="-586.4" font-family="Sans-Serif" font-size="12.00" fill="#2d3436">Worker Nodes</text>
</g>
<g id="cluster_ec2" class="cluster">
<title>cluster_EC2 Services</title>
<path fill="#e5f5fd" stroke="#aeb6be" d="M20,-1401C20,-1401 2418,-1401 2418,-1401 2424,-1401 2430,-1407 2430,-1413 2430,-1413 2430,-1563 2430,-1563 2430,-1569 2424,-1575 2418,-1575 2418,-1575 20,-1575 20,-1575 14,-1575 8,-1569 8,-1563 8,-1563 8,-1413 8,-1413 8,-1407 14,-1401 20,-1401"/>
<text text-anchor="middle" x="53" y="-1561.4" font-family="Sans-Serif" font-size="12.00" fill="#2d3436">EC2 Services</text>
</g>
<g id="cluster_skyline" class="cluster">
<title>cluster_Skyline</title>
<path fill="#e5f5fd" stroke="#aeb6be" d="M2324,-1019C2324,-1019 2418,-1019 2418,-1019 2424,-1019 2430,-1025 2430,-1031 2430,-1031 2430,-1372 2430,-1372 2430,-1378 2424,-1384 2418,-1384 2418,-1384 2324,-1384 2324,-1384 2318,-1384 2312,-1378 2312,-1372 2312,-1372 2312,-1031 2312,-1031 2312,-1025 2318,-1019 2324,-1019"/>
<text text-anchor="middle" x="2340" y="-1370.4" font-family="Sans-Serif" font-size="12.00" fill="#2d3436">Skyline</text>
</g>
<g id="cluster_kafka" class="cluster">
<title>cluster_Event Bus (Kafka)</title>
<path fill="#e5f5fd" stroke="#aeb6be" d="M2141,-8C2141,-8 2395,-8 2395,-8 2401,-8 2407,-14 2407,-20 2407,-20 2407,-398 2407,-398 2407,-404 2401,-410 2395,-410 2395,-410 2141,-410 2141,-410 2135,-410 2129,-404 2129,-398 2129,-398 2129,-20 2129,-20 2129,-14 2135,-8 2141,-8"/>
<text text-anchor="middle" x="2185.5" y="-396.4" font-family="Sans-Serif" font-size="12.00" fill="#2d3436">Event Bus (Kafka)</text>
</g>
<g id="cluster_kafka_vpc" class="cluster">
<title>cluster_VPC</title>
<path fill="#ebf3e7" stroke="#aeb6be" d="M2149,-207C2149,-207 2387,-207 2387,-207 2393,-207 2399,-213 2399,-219 2399,-219 2399,-369 2399,-369 2399,-375 2393,-381 2387,-381 2387,-381 2149,-381 2149,-381 2143,-381 2137,-375 2137,-369 2137,-369 2137,-219 2137,-219 2137,-213 2143,-207 2149,-207"/>
<text text-anchor="middle" x="2158" y="-367.4" font-family="Sans-Serif" font-size="12.00" fill="#2d3436">VPC</text>
</g>
<g id="cluster_kafka_limbo" class="cluster">
<title>cluster_EC2 Classic aka Limbo</title>
<path fill="#ebf3e7" stroke="#aeb6be" d="M2149,-16C2149,-16 2387,-16 2387,-16 2393,-16 2399,-22 2399,-28 2399,-28 2399,-178 2399,-178 2399,-184 2393,-190 2387,-190 2387,-190 2149,-190 2149,-190 2143,-190 2137,-184 2137,-178 2137,-178 2137,-28 2137,-28 2137,-22 2143,-16 2149,-16"/>
<text text-anchor="middle" x="2208" y="-176.4" font-family="Sans-Serif" font-size="12.00" fill="#2d3436">EC2 Classic aka Limbo</text>
</g>
<g id="cluster_data_storage" class="cluster">
<title>cluster_Data Storage</title>
<path fill="#e5f5fd" stroke="#aeb6be" d="M2612,-207C2612,-207 3426,-207 3426,-207 3432,-207 3438,-213 3438,-219 3438,-219 3438,-369 3438,-369 3438,-375 3432,-381 3426,-381 3426,-381 2612,-381 2612,-381 2606,-381 2600,-375 2600,-369 2600,-369 2600,-219 2600,-219 2600,-213 2606,-207 2612,-207"/>
<text text-anchor="middle" x="2643.5" y="-367.4" font-family="Sans-Serif" font-size="12.00" fill="#2d3436">Data Storage</text>
</g>
<!-- 9770c0d0f26541a2b19e625f49e97280 -->
<g id="node1" class="node">
<title>9770c0d0f26541a2b19e625f49e97280</title>
<image xlink:href="/usr/local/lib/python3.10/site-packages/resources/aws/network/route-53.png" width="101px" height="101px" preserveAspectRatio="xMinYMin meet" x="2248.5" y="-2101"/>
<text text-anchor="middle" x="2299" y="-1985.6" font-family="Sans-Serif" font-size="13.00" fill="#2d3436">dns</text>
</g>
<!-- e2217bc902344fe5a604d3d3e60dfe7d -->
<g id="node3" class="node">
<title>e2217bc902344fe5a604d3d3e60dfe7d</title>
<image xlink:href="/usr/local/lib/python3.10/site-packages/resources/aws/network/elb-application-load-balancer.png" width="101px" height="101px" preserveAspectRatio="xMinYMin meet" x="2176.5" y="-1910"/>
<text text-anchor="middle" x="2227" y="-1794.6" font-family="Sans-Serif" font-size="13.00" fill="#2d3436">Auth Facade ALB</text>
</g>
<!-- 9770c0d0f26541a2b19e625f49e97280&#45;&gt;e2217bc902344fe5a604d3d3e60dfe7d -->
<g id="edge9" class="edge">
<title>9770c0d0f26541a2b19e625f49e97280&#45;&gt;e2217bc902344fe5a604d3d3e60dfe7d</title>
<path fill="none" stroke="#7b8894" d="M2263,-1982.08C2263,-1982.08 2263,-1939.27 2263,-1939.27"/>
<polygon fill="#7b8894" stroke="#7b8894" points="2266.5,-1939.27 2263,-1929.27 2259.5,-1939.27 2266.5,-1939.27"/>
</g>
<!-- 07c9390dee4c4ef2ac856edf13f1c7b2 -->
<g id="apertureNLB" class="node">
<title>07c9390dee4c4ef2ac856edf13f1c7b2</title>
<image xlink:href="/usr/local/lib/python3.10/site-packages/resources/aws/network/elb-network-load-balancer.png" width="101px" height="101px" preserveAspectRatio="xMinYMin meet" x="2320.5" y="-1910"/>
<text text-anchor="middle" x="2371" y="-1794.6" font-family="Sans-Serif" font-size="13.00" fill="#2d3436">Aperture NLB</text>
</g>
<!-- 9770c0d0f26541a2b19e625f49e97280&#45;&gt;07c9390dee4c4ef2ac856edf13f1c7b2 -->
<g id="edge6" class="edge">
<title>9770c0d0f26541a2b19e625f49e97280&#45;&gt;07c9390dee4c4ef2ac856edf13f1c7b2</title>
<path fill="none" stroke="#7b8894" d="M2335,-1982.08C2335,-1982.08 2335,-1939.27 2335,-1939.27"/>
<polygon fill="#7b8894" stroke="#7b8894" points="2338.5,-1939.27 2335,-1929.27 2331.5,-1939.27 2338.5,-1939.27"/>
</g>
<!-- a819a5b4610b44e5accaa3dabcb44cb8 -->
<g id="node2" class="node">
<title>a819a5b4610b44e5accaa3dabcb44cb8</title>
<image xlink:href="/usr/local/lib/python3.10/site-packages/resources/aws/compute/application-auto-scaling.png" width="101px" height="101px" preserveAspectRatio="xMinYMin meet" x="2176.5" y="-1719"/>
<text text-anchor="middle" x="2227" y="-1603.6" font-family="Sans-Serif" font-size="13.00" fill="#2d3436">Auth Facade</text>
</g>
<!-- d7e37d30fc214ddb9654434e269c23a2 -->
<g id="node6" class="node">
<title>d7e37d30fc214ddb9654434e269c23a2</title>
<image xlink:href="/usr/local/lib/python3.10/site-packages/resources/aws/network/elb-network-load-balancer.png" width="101px" height="101px" preserveAspectRatio="xMinYMin meet" x="2320.5" y="-935"/>
<text text-anchor="middle" x="2371" y="-819.6" font-family="Sans-Serif" font-size="13.00" fill="#2d3436">Ingress LB</text>
</g>
<!-- a819a5b4610b44e5accaa3dabcb44cb8&#45;&gt;d7e37d30fc214ddb9654434e269c23a2 -->
<g id="edge11" class="edge">
<title>a819a5b4610b44e5accaa3dabcb44cb8&#45;&gt;d7e37d30fc214ddb9654434e269c23a2</title>
<path fill="none" stroke="#7b8894" d="M2277.44,-1691C2285.81,-1691 2291.83,-1691 2291.83,-1691 2291.83,-1691 2291.83,-861 2291.83,-861 2291.83,-861 2309.35,-861 2309.35,-861"/>
<polygon fill="#7b8894" stroke="#7b8894" points="2309.35,-864.5 2319.35,-861 2309.35,-857.5 2309.35,-864.5"/>
</g>
<!-- e2217bc902344fe5a604d3d3e60dfe7d&#45;&gt;a819a5b4610b44e5accaa3dabcb44cb8 -->
<g id="edge10" class="edge">
<title>e2217bc902344fe5a604d3d3e60dfe7d&#45;&gt;a819a5b4610b44e5accaa3dabcb44cb8</title>
<path fill="none" stroke="#7b8894" d="M2227,-1791.08C2227,-1791.08 2227,-1748.27 2227,-1748.27"/>
<polygon fill="#7b8894" stroke="#7b8894" points="2230.5,-1748.27 2227,-1738.27 2223.5,-1748.27 2230.5,-1748.27"/>
</g>
<!-- e8b82179c49443269a091c093e6abd13 -->
<g id="traefik" class="node">
<title>e8b82179c49443269a091c093e6abd13</title>
<image xlink:href="/usr/local/lib/python3.10/site-packages/resources/aws/compute/application-auto-scaling.png" width="101px" height="101px" preserveAspectRatio="xMinYMin meet" x="2320.5" y="-1719"/>
<text text-anchor="middle" x="2371" y="-1603.6" font-family="Sans-Serif" font-size="13.00" fill="#2d3436">Aperture Traefik</text>
</g>
<!-- 07c9390dee4c4ef2ac856edf13f1c7b2&#45;&gt;e8b82179c49443269a091c093e6abd13 -->
<g id="edge7" class="edge">
<title>07c9390dee4c4ef2ac856edf13f1c7b2&#45;&gt;e8b82179c49443269a091c093e6abd13</title>
<path fill="none" stroke="#7b8894" d="M2371,-1791.08C2371,-1791.08 2371,-1748.27 2371,-1748.27"/>
<polygon fill="#7b8894" stroke="#7b8894" points="2374.5,-1748.27 2371,-1738.27 2367.5,-1748.27 2374.5,-1748.27"/>
</g>
<!-- e8b82179c49443269a091c093e6abd13&#45;&gt;d7e37d30fc214ddb9654434e269c23a2 -->
<g id="edge8" class="edge">
<title>e8b82179c49443269a091c093e6abd13&#45;&gt;d7e37d30fc214ddb9654434e269c23a2</title>
<path fill="none" stroke="#7b8894" d="M2320.56,-1645C2312.19,-1645 2306.17,-1645 2306.17,-1645 2306.17,-1645 2306.17,-907 2306.17,-907 2306.17,-907 2309.04,-907 2309.04,-907"/>
<polygon fill="#7b8894" stroke="#7b8894" points="2309.04,-910.5 2319.04,-907 2309.04,-903.5 2309.04,-910.5"/>
</g>
<!-- cc0d03f8e0644f1684517a68171a924e -->
<g id="ec2&#45;Aperture Authz" class="node">
<title>cc0d03f8e0644f1684517a68171a924e</title>
<image xlink:href="/usr/local/lib/python3.10/site-packages/resources/aws/compute/ec2.png" width="101px" height="101px" preserveAspectRatio="xMinYMin meet" x="2320.5" y="-1528"/>
<text text-anchor="middle" x="2371" y="-1412.6" font-family="Sans-Serif" font-size="13.00" fill="#2d3436">Aperture Authz</text>
</g>
<!-- e8b82179c49443269a091c093e6abd13&#45;&gt;cc0d03f8e0644f1684517a68171a924e -->
<g id="edge27" class="edge">
<title>e8b82179c49443269a091c093e6abd13&#45;&gt;cc0d03f8e0644f1684517a68171a924e</title>
<path fill="none" stroke="black" stroke-dasharray="5,2" d="M2371,-1588.57C2371,-1588.57 2371,-1557.27 2371,-1557.27"/>
<polygon fill="black" stroke="black" points="2374.5,-1557.27 2371,-1547.27 2367.5,-1557.27 2374.5,-1557.27"/>
<polygon fill="black" stroke="black" points="2367.5,-1588.57 2371,-1598.57 2374.5,-1588.57 2367.5,-1588.57"/>
</g>
<!-- 04ef391425d44468a2967ff56b84a9b5 -->
<g id="traefikPods" class="node">
<title>04ef391425d44468a2967ff56b84a9b5</title>
<image xlink:href="/usr/local/lib/python3.10/site-packages/resources/k8s/compute/pod.png" width="101px" height="101px" preserveAspectRatio="xMinYMin meet" x="2320.5" y="-744"/>
<text text-anchor="middle" x="2371" y="-628.6" font-family="Sans-Serif" font-size="13.00" fill="#2d3436">Traefik Pods</text>
</g>
<!-- d7e37d30fc214ddb9654434e269c23a2&#45;&gt;04ef391425d44468a2967ff56b84a9b5 -->
<g id="edge16" class="edge">
<title>d7e37d30fc214ddb9654434e269c23a2&#45;&gt;04ef391425d44468a2967ff56b84a9b5</title>
<path fill="none" stroke="#7b8894" d="M2371,-816.08C2371,-816.08 2371,-773.27 2371,-773.27"/>
<polygon fill="#7b8894" stroke="#7b8894" points="2374.5,-773.27 2371,-763.27 2367.5,-773.27 2374.5,-773.27"/>
</g>
<!-- 00757b1509764c57b2614c93a44b1355 -->
<g id="service_pod" class="node">
<title>00757b1509764c57b2614c93a44b1355</title>
<image xlink:href="/usr/local/lib/python3.10/site-packages/resources/k8s/compute/pod.png" width="101px" height="101px" preserveAspectRatio="xMinYMin meet" x="2104.5" y="-553"/>
<text text-anchor="middle" x="2155" y="-437.6" font-family="Sans-Serif" font-size="13.00" fill="#2d3436">Service POD</text>
</g>
<!-- 04ef391425d44468a2967ff56b84a9b5&#45;&gt;00757b1509764c57b2614c93a44b1355 -->
<g id="edge17" class="edge">
<title>04ef391425d44468a2967ff56b84a9b5&#45;&gt;00757b1509764c57b2614c93a44b1355</title>
<path fill="none" stroke="black" stroke-dasharray="5,2" d="M2309.35,-693C2309.35,-693 2191,-693 2191,-693 2191,-693 2191,-582.25 2191,-582.25"/>
<polygon fill="black" stroke="black" points="2309.35,-696.5 2319.35,-693 2309.35,-689.5 2309.35,-696.5"/>
<polygon fill="black" stroke="black" points="2194.5,-582.25 2191,-572.25 2187.5,-582.25 2194.5,-582.25"/>
</g>
<!-- 8abfc380a64a429597b1fd9353eb8479 -->
<g id="service_pod" class="node">
<title>8abfc380a64a429597b1fd9353eb8479</title>
<image xlink:href="/usr/local/lib/python3.10/site-packages/resources/k8s/compute/pod.png" width="101px" height="101px" preserveAspectRatio="xMinYMin meet" x="2536.5" y="-553"/>
<text text-anchor="middle" x="2587" y="-437.6" font-family="Sans-Serif" font-size="13.00" fill="#2d3436">Service POD</text>
</g>
<!-- 04ef391425d44468a2967ff56b84a9b5&#45;&gt;8abfc380a64a429597b1fd9353eb8479 -->
<g id="edge18" class="edge">
<title>04ef391425d44468a2967ff56b84a9b5&#45;&gt;8abfc380a64a429597b1fd9353eb8479</title>
<path fill="none" stroke="black" stroke-dasharray="5,2" d="M2432.88,-693C2432.88,-693 2587,-693 2587,-693 2587,-693 2587,-582.25 2587,-582.25"/>
<polygon fill="black" stroke="black" points="2432.88,-689.5 2422.88,-693 2432.88,-696.5 2432.88,-689.5"/>
<polygon fill="black" stroke="black" points="2590.5,-582.25 2587,-572.25 2583.5,-582.25 2590.5,-582.25"/>
</g>
<!-- 7e596645e4c74942891e4f4f1b6738ed -->
<g id="service_pod" class="node">
<title>7e596645e4c74942891e4f4f1b6738ed</title>
<image xlink:href="/usr/local/lib/python3.10/site-packages/resources/k8s/compute/pod.png" width="101px" height="101px" preserveAspectRatio="xMinYMin meet" x="2392.5" y="-553"/>
<text text-anchor="middle" x="2443" y="-437.6" font-family="Sans-Serif" font-size="13.00" fill="#2d3436">Service POD</text>
</g>
<!-- 04ef391425d44468a2967ff56b84a9b5&#45;&gt;7e596645e4c74942891e4f4f1b6738ed -->
<g id="edge19" class="edge">
<title>04ef391425d44468a2967ff56b84a9b5&#45;&gt;7e596645e4c74942891e4f4f1b6738ed</title>
<path fill="none" stroke="black" stroke-dasharray="5,2" d="M2407,-613.57C2407,-613.57 2407,-582.27 2407,-582.27"/>
<polygon fill="black" stroke="black" points="2410.5,-582.27 2407,-572.27 2403.5,-582.27 2410.5,-582.27"/>
<polygon fill="black" stroke="black" points="2403.5,-613.57 2407,-623.57 2410.5,-613.57 2403.5,-613.57"/>
</g>
<!-- beb72165c3194d21b9ca6d5f6be0194b -->
<g id="service_pod" class="node">
<title>beb72165c3194d21b9ca6d5f6be0194b</title>
<image xlink:href="/usr/local/lib/python3.10/site-packages/resources/k8s/compute/pod.png" width="101px" height="101px" preserveAspectRatio="xMinYMin meet" x="2248.5" y="-553"/>
<text text-anchor="middle" x="2299" y="-437.6" font-family="Sans-Serif" font-size="13.00" fill="#2d3436">Service POD</text>
</g>
<!-- 04ef391425d44468a2967ff56b84a9b5&#45;&gt;beb72165c3194d21b9ca6d5f6be0194b -->
<g id="edge20" class="edge">
<title>04ef391425d44468a2967ff56b84a9b5&#45;&gt;beb72165c3194d21b9ca6d5f6be0194b</title>
<path fill="none" stroke="black" stroke-dasharray="5,2" d="M2335,-613.57C2335,-613.57 2335,-582.27 2335,-582.27"/>
<polygon fill="black" stroke="black" points="2338.5,-582.27 2335,-572.27 2331.5,-582.27 2338.5,-582.27"/>
<polygon fill="black" stroke="black" points="2331.5,-613.57 2335,-623.57 2338.5,-613.57 2331.5,-613.57"/>
</g>
<!-- d32b97a55b154a43bdaabb415c6d02e7 -->
<g id="servicePods" class="node">
<title>d32b97a55b154a43bdaabb415c6d02e7</title>
<image xlink:href="/usr/local/lib/python3.10/site-packages/resources/k8s/compute/pod.png" width="101px" height="101px" preserveAspectRatio="xMinYMin meet" x="2680.5" y="-553"/>
<text text-anchor="middle" x="2731" y="-437.6" font-family="Sans-Serif" font-size="13.00" fill="#2d3436">More service pods... </text>
</g>
<!-- 4ec1a7c8fede4143a89b619d16b31332 -->
<g id="VPC Local" class="node">
<title>4ec1a7c8fede4143a89b619d16b31332</title>
<image xlink:href="/usr/local/lib/python3.10/site-packages/resources/onprem/queue/kafka.png" width="101px" height="101px" preserveAspectRatio="xMinYMin meet" x="2289.5" y="-334"/>
<text text-anchor="middle" x="2340" y="-218.6" font-family="Sans-Serif" font-size="13.00" fill="#2d3436">VPC Local</text>
</g>
<!-- d32b97a55b154a43bdaabb415c6d02e7&#45;&gt;4ec1a7c8fede4143a89b619d16b31332 -->
<g id="edge12" class="edge">
<title>d32b97a55b154a43bdaabb415c6d02e7&#45;&gt;4ec1a7c8fede4143a89b619d16b31332</title>
<path fill="none" stroke="black" stroke-dasharray="5,2" d="M2695,-422.73C2695,-422.73 2695,-379 2695,-379 2695,-379 2370,-379 2370,-379 2370,-379 2370,-363.4 2370,-363.4"/>
<polygon fill="black" stroke="black" points="2691.5,-422.73 2695,-432.73 2698.5,-422.73 2691.5,-422.73"/>
<polygon fill="black" stroke="black" points="2373.5,-363.4 2370,-353.4 2366.5,-363.4 2373.5,-363.4"/>
</g>
<!-- 9ca3943f247b4ccd81f7422ac6d4573f -->
<g id="Limbo Aggregate" class="node">
<title>9ca3943f247b4ccd81f7422ac6d4573f</title>
<image xlink:href="/usr/local/lib/python3.10/site-packages/resources/onprem/queue/kafka.png" width="101px" height="101px" preserveAspectRatio="xMinYMin meet" x="2289.5" y="-143"/>
<text text-anchor="middle" x="2340" y="-27.6" font-family="Sans-Serif" font-size="13.00" fill="#2d3436">Limbo Aggregate</text>
</g>
<!-- d32b97a55b154a43bdaabb415c6d02e7&#45;&gt;9ca3943f247b4ccd81f7422ac6d4573f -->
<g id="edge15" class="edge">
<title>d32b97a55b154a43bdaabb415c6d02e7&#45;&gt;9ca3943f247b4ccd81f7422ac6d4573f</title>
<path fill="none" stroke="black" stroke-dasharray="5,2" d="M2738.17,-422.74C2738.17,-422.74 2738.17,-92 2738.17,-92 2738.17,-92 2401.94,-92 2401.94,-92"/>
<polygon fill="black" stroke="black" points="2734.67,-422.74 2738.17,-432.74 2741.67,-422.74 2734.67,-422.74"/>
<polygon fill="black" stroke="black" points="2401.94,-88.5 2391.94,-92 2401.94,-95.5 2401.94,-88.5"/>
</g>
<!-- 855c7c80378b4a92bb0dfc780ac67577 -->
<g id="Limbo Local" class="node">
<title>855c7c80378b4a92bb0dfc780ac67577</title>
<image xlink:href="/usr/local/lib/python3.10/site-packages/resources/onprem/queue/kafka.png" width="101px" height="101px" preserveAspectRatio="xMinYMin meet" x="2145.5" y="-143"/>
<text text-anchor="middle" x="2196" y="-27.6" font-family="Sans-Serif" font-size="13.00" fill="#2d3436">Limbo Local</text>
</g>
<!-- d32b97a55b154a43bdaabb415c6d02e7&#45;&gt;855c7c80378b4a92bb0dfc780ac67577 -->
<g id="edge14" class="edge">
<title>d32b97a55b154a43bdaabb415c6d02e7&#45;&gt;855c7c80378b4a92bb0dfc780ac67577</title>
<path fill="none" stroke="black" stroke-dasharray="5,2" d="M2723.83,-422.74C2723.83,-422.74 2723.83,-188 2723.83,-188 2723.83,-188 2212.83,-188 2212.83,-188 2212.83,-188 2212.83,-172.4 2212.83,-172.4"/>
<polygon fill="black" stroke="black" points="2720.33,-422.74 2723.83,-432.74 2727.33,-422.74 2720.33,-422.74"/>
<polygon fill="black" stroke="black" points="2216.33,-172.4 2212.83,-162.4 2209.33,-172.4 2216.33,-172.4"/>
</g>
<!-- da6a32dcf65942a8a2ce2340b717cb5f -->
<g id="VPC Aggregate" class="node">
<title>da6a32dcf65942a8a2ce2340b717cb5f</title>
<image xlink:href="/usr/local/lib/python3.10/site-packages/resources/onprem/queue/kafka.png" width="101px" height="101px" preserveAspectRatio="xMinYMin meet" x="2145.5" y="-334"/>
<text text-anchor="middle" x="2196" y="-218.6" font-family="Sans-Serif" font-size="13.00" fill="#2d3436">VPC Aggregate</text>
</g>
<!-- d32b97a55b154a43bdaabb415c6d02e7&#45;&gt;da6a32dcf65942a8a2ce2340b717cb5f -->
<g id="edge13" class="edge">
<title>d32b97a55b154a43bdaabb415c6d02e7&#45;&gt;da6a32dcf65942a8a2ce2340b717cb5f</title>
<path fill="none" stroke="black" stroke-dasharray="5,2" d="M2687.75,-422.66C2687.75,-422.66 2687.75,-406 2687.75,-406 2687.75,-406 2226,-406 2226,-406 2226,-406 2226,-363.43 2226,-363.43"/>
<polygon fill="black" stroke="black" points="2684.25,-422.66 2687.75,-432.66 2691.25,-422.66 2684.25,-422.66"/>
<polygon fill="black" stroke="black" points="2229.5,-363.43 2226,-353.43 2222.5,-363.43 2229.5,-363.43"/>
</g>
<!-- c5d0dc0de854429196077aab87c8ac2c -->
<g id="node36" class="node">
<title>c5d0dc0de854429196077aab87c8ac2c</title>
<image xlink:href="/usr/local/lib/python3.10/site-packages/resources/aws/database/rds.png" width="101px" height="101px" preserveAspectRatio="xMinYMin meet" x="3328.5" y="-334"/>
<text text-anchor="middle" x="3379" y="-218.6" font-family="Sans-Serif" font-size="13.00" fill="#2d3436">RDS</text>
</g>
<!-- d32b97a55b154a43bdaabb415c6d02e7&#45;&gt;c5d0dc0de854429196077aab87c8ac2c -->
<g id="edge21" class="edge">
<title>d32b97a55b154a43bdaabb415c6d02e7&#45;&gt;c5d0dc0de854429196077aab87c8ac2c</title>
<path fill="none" stroke="black" stroke-dasharray="5,2" d="M2792.82,-543C2792.82,-543 3379,-543 3379,-543 3379,-543 3379,-363.19 3379,-363.19"/>
<polygon fill="black" stroke="black" points="2792.82,-539.5 2782.82,-543 2792.82,-546.5 2792.82,-539.5"/>
<polygon fill="black" stroke="black" points="3382.5,-363.19 3379,-353.19 3375.5,-363.19 3382.5,-363.19"/>
</g>
<!-- 7ae79663a02f44318a4710540f1c6c5c -->
<g id="node37" class="node">
<title>7ae79663a02f44318a4710540f1c6c5c</title>
<image xlink:href="/usr/local/lib/python3.10/site-packages/resources/aws/database/aurora.png" width="101px" height="101px" preserveAspectRatio="xMinYMin meet" x="3184.5" y="-334"/>
<text text-anchor="middle" x="3235" y="-218.6" font-family="Sans-Serif" font-size="13.00" fill="#2d3436">Aurora</text>
</g>
<!-- d32b97a55b154a43bdaabb415c6d02e7&#45;&gt;7ae79663a02f44318a4710540f1c6c5c -->
<g id="edge22" class="edge">
<title>d32b97a55b154a43bdaabb415c6d02e7&#45;&gt;7ae79663a02f44318a4710540f1c6c5c</title>
<path fill="none" stroke="black" stroke-dasharray="5,2" d="M2792.68,-516C2792.68,-516 3235,-516 3235,-516 3235,-516 3235,-363.2 3235,-363.2"/>
<polygon fill="black" stroke="black" points="2792.68,-512.5 2782.68,-516 2792.68,-519.5 2792.68,-512.5"/>
<polygon fill="black" stroke="black" points="3238.5,-363.2 3235,-353.2 3231.5,-363.2 3238.5,-363.2"/>
</g>
<!-- 8227b95b5da54d2491f5fd0af2d872c4 -->
<g id="node38" class="node">
<title>8227b95b5da54d2491f5fd0af2d872c4</title>
<image xlink:href="/usr/local/lib/python3.10/site-packages/resources/aws/database/elasticache-for-memcached.png" width="101px" height="101px" preserveAspectRatio="xMinYMin meet" x="3040.5" y="-334"/>
<text text-anchor="middle" x="3091" y="-218.6" font-family="Sans-Serif" font-size="13.00" fill="#2d3436">Memcached</text>
</g>
<!-- d32b97a55b154a43bdaabb415c6d02e7&#45;&gt;8227b95b5da54d2491f5fd0af2d872c4 -->
<g id="edge23" class="edge">
<title>d32b97a55b154a43bdaabb415c6d02e7&#45;&gt;8227b95b5da54d2491f5fd0af2d872c4</title>
<path fill="none" stroke="black" stroke-dasharray="5,2" d="M2792.95,-488C2792.95,-488 3091,-488 3091,-488 3091,-488 3091,-363.39 3091,-363.39"/>
<polygon fill="black" stroke="black" points="2792.95,-484.5 2782.95,-488 2792.95,-491.5 2792.95,-484.5"/>
<polygon fill="black" stroke="black" points="3094.5,-363.39 3091,-353.39 3087.5,-363.39 3094.5,-363.39"/>
</g>
<!-- bd12fd988fcf4e288c3c7abbe3eefb7e -->
<g id="node39" class="node">
<title>bd12fd988fcf4e288c3c7abbe3eefb7e</title>
<image xlink:href="/usr/local/lib/python3.10/site-packages/resources/aws/database/elasticache-for-redis.png" width="101px" height="101px" preserveAspectRatio="xMinYMin meet" x="2896.5" y="-334"/>
<text text-anchor="middle" x="2947" y="-218.6" font-family="Sans-Serif" font-size="13.00" fill="#2d3436">Redis</text>
</g>
<!-- d32b97a55b154a43bdaabb415c6d02e7&#45;&gt;bd12fd988fcf4e288c3c7abbe3eefb7e -->
<g id="edge24" class="edge">
<title>d32b97a55b154a43bdaabb415c6d02e7&#45;&gt;bd12fd988fcf4e288c3c7abbe3eefb7e</title>
<path fill="none" stroke="black" stroke-dasharray="5,2" d="M2792.88,-461C2792.88,-461 2947,-461 2947,-461 2947,-461 2947,-363.39 2947,-363.39"/>
<polygon fill="black" stroke="black" points="2792.88,-457.5 2782.88,-461 2792.88,-464.5 2792.88,-457.5"/>
<polygon fill="black" stroke="black" points="2950.5,-363.39 2947,-353.39 2943.5,-363.39 2950.5,-363.39"/>
</g>
<!-- baf02ef34ea14ebd94767139e493a4e7 -->
<g id="node40" class="node">
<title>baf02ef34ea14ebd94767139e493a4e7</title>
<image xlink:href="/usr/local/lib/python3.10/site-packages/resources/aws/storage/simple-storage-service-s3.png" width="101px" height="101px" preserveAspectRatio="xMinYMin meet" x="2752.5" y="-334"/>
<text text-anchor="middle" x="2803" y="-218.6" font-family="Sans-Serif" font-size="13.00" fill="#2d3436">S3</text>
</g>
<!-- d32b97a55b154a43bdaabb415c6d02e7&#45;&gt;baf02ef34ea14ebd94767139e493a4e7 -->
<g id="edge25" class="edge">
<title>d32b97a55b154a43bdaabb415c6d02e7&#45;&gt;baf02ef34ea14ebd94767139e493a4e7</title>
<path fill="none" stroke="black" stroke-dasharray="5,2" d="M2767,-422.59C2767,-422.59 2767,-363.26 2767,-363.26"/>
<polygon fill="black" stroke="black" points="2770.5,-363.26 2767,-353.26 2763.5,-363.26 2770.5,-363.26"/>
<polygon fill="black" stroke="black" points="2763.5,-422.59 2767,-432.59 2770.5,-422.59 2763.5,-422.59"/>
</g>
<!-- 009aceb7fd5e4ca68500fc465eba675f -->
<g id="node41" class="node">
<title>009aceb7fd5e4ca68500fc465eba675f</title>
<image xlink:href="/usr/local/lib/python3.10/site-packages/resources/aws/compute/ec2.png" width="101px" height="101px" preserveAspectRatio="xMinYMin meet" x="2608.5" y="-334"/>
<text text-anchor="middle" x="2659" y="-218.6" font-family="Sans-Serif" font-size="13.00" fill="#2d3436">Mongo</text>
</g>
<!-- d32b97a55b154a43bdaabb415c6d02e7&#45;&gt;009aceb7fd5e4ca68500fc465eba675f -->
<g id="edge26" class="edge">
<title>d32b97a55b154a43bdaabb415c6d02e7&#45;&gt;009aceb7fd5e4ca68500fc465eba675f</title>
<path fill="none" stroke="black" stroke-dasharray="5,2" d="M2702.25,-422.59C2702.25,-422.59 2702.25,-363.26 2702.25,-363.26"/>
<polygon fill="black" stroke="black" points="2705.75,-363.26 2702.25,-353.26 2698.75,-363.26 2705.75,-363.26"/>
<polygon fill="black" stroke="black" points="2698.75,-422.59 2702.25,-432.59 2705.75,-422.59 2698.75,-422.59"/>
</g>
<!-- 254c3821e8c64ff387cf5a8672357248 -->
<g id="skylineLB" class="node">
<title>254c3821e8c64ff387cf5a8672357248</title>
<image xlink:href="/usr/local/lib/python3.10/site-packages/resources/aws/network/elb-application-load-balancer.png" width="101px" height="101px" preserveAspectRatio="xMinYMin meet" x="2320.5" y="-1337"/>
<text text-anchor="middle" x="2371" y="-1221.6" font-family="Sans-Serif" font-size="13.00" fill="#2d3436">Skyline ALB</text>
</g>
<!-- cc0d03f8e0644f1684517a68171a924e&#45;&gt;254c3821e8c64ff387cf5a8672357248 -->
<g id="edge3" class="edge">
<title>cc0d03f8e0644f1684517a68171a924e&#45;&gt;254c3821e8c64ff387cf5a8672357248</title>
<path fill="none" stroke="#7b8894" d="M2371,-1409.08C2371,-1409.08 2371,-1366.27 2371,-1366.27"/>
<polygon fill="#7b8894" stroke="#7b8894" points="2374.5,-1366.27 2371,-1356.27 2367.5,-1366.27 2374.5,-1366.27"/>
</g>
<!-- af2d40facc2d4bcb89ed8af4158fafe1 -->
<g id="ec2&#45;Dashboard&#45;Web" class="node">
<title>af2d40facc2d4bcb89ed8af4158fafe1</title>
<image xlink:href="/usr/local/lib/python3.10/site-packages/resources/aws/compute/ec2.png" width="101px" height="101px" preserveAspectRatio="xMinYMin meet" x="2176.5" y="-1528"/>
<text text-anchor="middle" x="2227" y="-1412.6" font-family="Sans-Serif" font-size="13.00" fill="#2d3436">Dashboard&#45;Web</text>
</g>
<!-- 1a093a78779b4750986e3163393c1d73 -->
<g id="ec2&#45;Dashboard&#45;Gear" class="node">
<title>1a093a78779b4750986e3163393c1d73</title>
<image xlink:href="/usr/local/lib/python3.10/site-packages/resources/aws/compute/ec2.png" width="101px" height="101px" preserveAspectRatio="xMinYMin meet" x="2032.5" y="-1528"/>
<text text-anchor="middle" x="2083" y="-1412.6" font-family="Sans-Serif" font-size="13.00" fill="#2d3436">Dashboard&#45;Gear</text>
</g>
<!-- 8e6d931e347f4929b78ae89afdcb1833 -->
<g id="ec2&#45;Dashboard&#45;Cron" class="node">
<title>8e6d931e347f4929b78ae89afdcb1833</title>
<image xlink:href="/usr/local/lib/python3.10/site-packages/resources/aws/compute/ec2.png" width="101px" height="101px" preserveAspectRatio="xMinYMin meet" x="1888.5" y="-1528"/>
<text text-anchor="middle" x="1939" y="-1412.6" font-family="Sans-Serif" font-size="13.00" fill="#2d3436">Dashboard&#45;Cron</text>
</g>
<!-- 41e63afd515945b58de087e480f08d09 -->
<g id="ec2&#45;Member" class="node">
<title>41e63afd515945b58de087e480f08d09</title>
<image xlink:href="/usr/local/lib/python3.10/site-packages/resources/aws/compute/ec2.png" width="101px" height="101px" preserveAspectRatio="xMinYMin meet" x="1744.5" y="-1528"/>
<text text-anchor="middle" x="1795" y="-1412.6" font-family="Sans-Serif" font-size="13.00" fill="#2d3436">Member</text>
</g>
<!-- 2ef4356cfeb24b1bb246179ec99852ee -->
<g id="ec2&#45;SCUM" class="node">
<title>2ef4356cfeb24b1bb246179ec99852ee</title>
<image xlink:href="/usr/local/lib/python3.10/site-packages/resources/aws/compute/ec2.png" width="101px" height="101px" preserveAspectRatio="xMinYMin meet" x="1600.5" y="-1528"/>
<text text-anchor="middle" x="1651" y="-1412.6" font-family="Sans-Serif" font-size="13.00" fill="#2d3436">SCUM</text>
</g>
<!-- 24354c9c7f50480c9df0223a3cef5c17 -->
<g id="ec2&#45;Billing" class="node">
<title>24354c9c7f50480c9df0223a3cef5c17</title>
<image xlink:href="/usr/local/lib/python3.10/site-packages/resources/aws/compute/ec2.png" width="101px" height="101px" preserveAspectRatio="xMinYMin meet" x="1456.5" y="-1528"/>
<text text-anchor="middle" x="1507" y="-1412.6" font-family="Sans-Serif" font-size="13.00" fill="#2d3436">Billing</text>
</g>
<!-- c71c35fd0bcf4ced8cf2dec78294d23d -->
<g id="ec2&#45;Message Achieve" class="node">
<title>c71c35fd0bcf4ced8cf2dec78294d23d</title>
<image xlink:href="/usr/local/lib/python3.10/site-packages/resources/aws/compute/ec2.png" width="101px" height="101px" preserveAspectRatio="xMinYMin meet" x="1312.5" y="-1528"/>
<text text-anchor="middle" x="1363" y="-1412.6" font-family="Sans-Serif" font-size="13.00" fill="#2d3436">Message Achieve</text>
</g>
<!-- 741086f0edcb4f908ab23d6b3d7348c6 -->
<g id="ec2&#45;Message Review" class="node">
<title>741086f0edcb4f908ab23d6b3d7348c6</title>
<image xlink:href="/usr/local/lib/python3.10/site-packages/resources/aws/compute/ec2.png" width="101px" height="101px" preserveAspectRatio="xMinYMin meet" x="1168.5" y="-1528"/>
<text text-anchor="middle" x="1219" y="-1412.6" font-family="Sans-Serif" font-size="13.00" fill="#2d3436">Message Review</text>
</g>
<!-- f414e746b4c2421a88b910bc9c263548 -->
<g id="ec2&#45;Scheduled Data" class="node">
<title>f414e746b4c2421a88b910bc9c263548</title>
<image xlink:href="/usr/local/lib/python3.10/site-packages/resources/aws/compute/ec2.png" width="101px" height="101px" preserveAspectRatio="xMinYMin meet" x="1024.5" y="-1528"/>
<text text-anchor="middle" x="1075" y="-1412.6" font-family="Sans-Serif" font-size="13.00" fill="#2d3436">Scheduled Data</text>
</g>
<!-- bb7cf5ea0c7440a28a7fd36e261f5ca2 -->
<g id="ec2&#45;Core" class="node">
<title>bb7cf5ea0c7440a28a7fd36e261f5ca2</title>
<image xlink:href="/usr/local/lib/python3.10/site-packages/resources/aws/compute/ec2.png" width="101px" height="101px" preserveAspectRatio="xMinYMin meet" x="880.5" y="-1528"/>
<text text-anchor="middle" x="931" y="-1412.6" font-family="Sans-Serif" font-size="13.00" fill="#2d3436">Core</text>
</g>
<!-- c531d6aee9fd4025bc3ec142feb66970 -->
<g id="ec2&#45;TOPS" class="node">
<title>c531d6aee9fd4025bc3ec142feb66970</title>
<image xlink:href="/usr/local/lib/python3.10/site-packages/resources/aws/compute/ec2.png" width="101px" height="101px" preserveAspectRatio="xMinYMin meet" x="736.5" y="-1528"/>
<text text-anchor="middle" x="787" y="-1412.6" font-family="Sans-Serif" font-size="13.00" fill="#2d3436">TOPS</text>
</g>
<!-- a226f974faba4dc5afd98d2268d0d9d9 -->
<g id="ec2&#45;GSS" class="node">
<title>a226f974faba4dc5afd98d2268d0d9d9</title>
<image xlink:href="/usr/local/lib/python3.10/site-packages/resources/aws/compute/ec2.png" width="101px" height="101px" preserveAspectRatio="xMinYMin meet" x="592.5" y="-1528"/>
<text text-anchor="middle" x="643" y="-1412.6" font-family="Sans-Serif" font-size="13.00" fill="#2d3436">GSS</text>
</g>
<!-- cf103d84d8c147d4bd5bf60220479f2f -->
<g id="ec2&#45;HootSupport" class="node">
<title>cf103d84d8c147d4bd5bf60220479f2f</title>
<image xlink:href="/usr/local/lib/python3.10/site-packages/resources/aws/compute/ec2.png" width="101px" height="101px" preserveAspectRatio="xMinYMin meet" x="448.5" y="-1528"/>
<text text-anchor="middle" x="499" y="-1412.6" font-family="Sans-Serif" font-size="13.00" fill="#2d3436">HootSupport</text>
</g>
<!-- 6a0cca45ed7943cd93747a8598bac09e -->
<g id="ec2&#45;Push Notifications" class="node">
<title>6a0cca45ed7943cd93747a8598bac09e</title>
<image xlink:href="/usr/local/lib/python3.10/site-packages/resources/aws/compute/ec2.png" width="101px" height="101px" preserveAspectRatio="xMinYMin meet" x="304.5" y="-1528"/>
<text text-anchor="middle" x="355" y="-1412.6" font-family="Sans-Serif" font-size="13.00" fill="#2d3436">Push Notifications</text>
</g>
<!-- 9189c840d8ae494185c2d7f61ae25ffe -->
<g id="ec2&#45;Crypto" class="node">
<title>9189c840d8ae494185c2d7f61ae25ffe</title>
<image xlink:href="/usr/local/lib/python3.10/site-packages/resources/aws/compute/ec2.png" width="101px" height="101px" preserveAspectRatio="xMinYMin meet" x="160.5" y="-1528"/>
<text text-anchor="middle" x="211" y="-1412.6" font-family="Sans-Serif" font-size="13.00" fill="#2d3436">Crypto</text>
</g>
<!-- ea6cc1e344804f43878175971294993e -->
<g id="ec2&#45;Amplify" class="node">
<title>ea6cc1e344804f43878175971294993e</title>
<image xlink:href="/usr/local/lib/python3.10/site-packages/resources/aws/compute/ec2.png" width="101px" height="101px" preserveAspectRatio="xMinYMin meet" x="16.5" y="-1528"/>
<text text-anchor="middle" x="67" y="-1412.6" font-family="Sans-Serif" font-size="13.00" fill="#2d3436">Amplify</text>
</g>
<!-- d7b5159790464010974e58fbde65f98b -->
<g id="skylineBridge" class="node">
<title>d7b5159790464010974e58fbde65f98b</title>
<image xlink:href="/usr/local/lib/python3.10/site-packages/resources/aws/compute/ec2.png" width="101px" height="101px" preserveAspectRatio="xMinYMin meet" x="2320.5" y="-1146"/>
<text text-anchor="middle" x="2371" y="-1030.6" font-family="Sans-Serif" font-size="13.00" fill="#2d3436">Skyline Bridge</text>
</g>
<!-- 254c3821e8c64ff387cf5a8672357248&#45;&gt;d7b5159790464010974e58fbde65f98b -->
<g id="edge4" class="edge">
<title>254c3821e8c64ff387cf5a8672357248&#45;&gt;d7b5159790464010974e58fbde65f98b</title>
<path fill="none" stroke="#7b8894" d="M2371,-1218.08C2371,-1218.08 2371,-1175.27 2371,-1175.27"/>
<polygon fill="#7b8894" stroke="#7b8894" points="2374.5,-1175.27 2371,-1165.27 2367.5,-1175.27 2374.5,-1175.27"/>
</g>
<!-- d7b5159790464010974e58fbde65f98b&#45;&gt;d7e37d30fc214ddb9654434e269c23a2 -->
<g id="edge5" class="edge">
<title>d7b5159790464010974e58fbde65f98b&#45;&gt;d7e37d30fc214ddb9654434e269c23a2</title>
<path fill="none" stroke="#7b8894" d="M2371,-1027.29C2371,-1027.29 2371,-964.35 2371,-964.35"/>
<polygon fill="#7b8894" stroke="#7b8894" points="2374.5,-964.35 2371,-954.35 2367.5,-964.35 2374.5,-964.35"/>
</g>
<!-- 4ec1a7c8fede4143a89b619d16b31332&#45;&gt;9ca3943f247b4ccd81f7422ac6d4573f -->
<g id="edge1" class="edge">
<title>4ec1a7c8fede4143a89b619d16b31332&#45;&gt;9ca3943f247b4ccd81f7422ac6d4573f</title>
<path fill="none" stroke="#7b8894" d="M2340,-215.08C2340,-215.08 2340,-172.27 2340,-172.27"/>
<polygon fill="#7b8894" stroke="#7b8894" points="2343.5,-172.27 2340,-162.27 2336.5,-172.27 2343.5,-172.27"/>
</g>
<!-- 855c7c80378b4a92bb0dfc780ac67577&#45;&gt;da6a32dcf65942a8a2ce2340b717cb5f -->
<g id="edge2" class="edge">
<title>855c7c80378b4a92bb0dfc780ac67577&#45;&gt;da6a32dcf65942a8a2ce2340b717cb5f</title>
<path fill="none" stroke="#7b8894" d="M2179.17,-160.92C2179.17,-160.92 2179.17,-203.73 2179.17,-203.73"/>
<polygon fill="#7b8894" stroke="#7b8894" points="2175.67,-203.73 2179.17,-213.73 2182.67,-203.73 2175.67,-203.73"/>
</g>
</g>
</svg>
