<?xml version="1.0" encoding="UTF-8" standalone="no"?>
<!DOCTYPE svg PUBLIC "-//W3C//DTD SVG 1.1//EN"
 "http://www.w3.org/Graphics/SVG/1.1/DTD/svg11.dtd">
<!-- Generated by graphviz version 7.0.0 (20221023.0053)
 -->
<!-- Title: Hootsuite 2019 Pages: 1 -->
<svg width="3310pt" height="1945pt"
 viewBox="0.00 0.00 3310.00 1945.00" xmlns="http://www.w3.org/2000/svg" xmlns:xlink="http://www.w3.org/1999/xlink">
<g id="graph0" class="graph" transform="scale(1 1) rotate(0) translate(144 1801)">
<title>Hootsuite 2019</title>
<text text-anchor="middle" x="1511" y="-22" font-family="Sans-Serif" font-size="60.00" fill="#2d3436">Hootsuite 2019</text>
<g id="clust1" class="cluster">
<title>cluster_Edge</title>
<path fill="#e5f5fd" stroke="#aeb6be" d="M460,-1475C460,-1475 554,-1475 554,-1475 560,-1475 566,-1481 566,-1487 566,-1487 566,-1637 566,-1637 566,-1643 560,-1649 554,-1649 554,-1649 460,-1649 460,-1649 454,-1649 448,-1643 448,-1637 448,-1637 448,-1487 448,-1487 448,-1481 454,-1475 460,-1475"/>
<text text-anchor="middle" x="470.5" y="-1635.4" font-family="Sans-Serif" font-size="12.00" fill="#2d3436">Edge</text>
</g>
<g id="clust4" class="cluster">
<title>cluster_EC2 Services</title>
<path fill="#e5f5fd" stroke="#aeb6be" d="M604,-1475C604,-1475 3002,-1475 3002,-1475 3008,-1475 3014,-1481 3014,-1487 3014,-1487 3014,-1637 3014,-1637 3014,-1643 3008,-1649 3002,-1649 3002,-1649 604,-1649 604,-1649 598,-1649 592,-1643 592,-1637 592,-1637 592,-1487 592,-1487 592,-1481 598,-1475 604,-1475"/>
<text text-anchor="middle" x="637" y="-1635.4" font-family="Sans-Serif" font-size="12.00" fill="#2d3436">EC2 Services</text>
</g>
<g id="clust2" class="cluster">
<title>cluster_Auth Facade</title>
<path fill="#e5f5fd" stroke="#aeb6be" d="M460,-1093C460,-1093 554,-1093 554,-1093 560,-1093 566,-1099 566,-1105 566,-1105 566,-1446 566,-1446 566,-1452 560,-1458 554,-1458 554,-1458 460,-1458 460,-1458 454,-1458 448,-1452 448,-1446 448,-1446 448,-1105 448,-1105 448,-1099 454,-1093 460,-1093"/>
<text text-anchor="middle" x="490.5" y="-1444.4" font-family="Sans-Serif" font-size="12.00" fill="#2d3436">Auth Facade</text>
</g>
<g id="clust3" class="cluster">
<title>cluster_Aperture</title>
<path fill="#e5f5fd" stroke="#aeb6be" d="M604,-1093C604,-1093 698,-1093 698,-1093 704,-1093 710,-1099 710,-1105 710,-1105 710,-1446 710,-1446 710,-1452 704,-1458 698,-1458 698,-1458 604,-1458 604,-1458 598,-1458 592,-1452 592,-1446 592,-1446 592,-1105 592,-1105 592,-1099 598,-1093 604,-1093"/>
<text text-anchor="middle" x="623" y="-1444.4" font-family="Sans-Serif" font-size="12.00" fill="#2d3436">Aperture</text>
</g>
<g id="clust5" class="cluster">
<title>cluster_Skyline</title>
<path fill="#e5f5fd" stroke="#aeb6be" d="M1684,-1093C1684,-1093 1778,-1093 1778,-1093 1784,-1093 1790,-1099 1790,-1105 1790,-1105 1790,-1446 1790,-1446 1790,-1452 1784,-1458 1778,-1458 1778,-1458 1684,-1458 1684,-1458 1678,-1458 1672,-1452 1672,-1446 1672,-1446 1672,-1105 1672,-1105 1672,-1099 1678,-1093 1684,-1093"/>
<text text-anchor="middle" x="1700" y="-1444.4" font-family="Sans-Serif" font-size="12.00" fill="#2d3436">Skyline</text>
</g>
<g id="clust6" class="cluster">
<title>cluster_Kubernetes Cluster</title>
<path fill="#e5f5fd" stroke="#aeb6be" d="M20,-492C20,-492 724,-492 724,-492 730,-492 736,-498 736,-504 736,-504 736,-1073 736,-1073 736,-1079 730,-1085 724,-1085 724,-1085 20,-1085 20,-1085 14,-1085 8,-1079 8,-1073 8,-1073 8,-504 8,-504 8,-498 14,-492 20,-492"/>
<text text-anchor="middle" x="67.5" y="-1071.4" font-family="Sans-Serif" font-size="12.00" fill="#2d3436">Kubernetes Cluster</text>
</g>
<g id="clust7" class="cluster">
<title>cluster_Ingress Nodes</title>
<path fill="#ebf3e7" stroke="#aeb6be" d="M604,-691C604,-691 698,-691 698,-691 704,-691 710,-697 710,-703 710,-703 710,-1044 710,-1044 710,-1050 704,-1056 698,-1056 698,-1056 604,-1056 604,-1056 598,-1056 592,-1050 592,-1044 592,-1044 592,-703 592,-703 592,-697 598,-691 604,-691"/>
<text text-anchor="middle" x="639" y="-1042.4" font-family="Sans-Serif" font-size="12.00" fill="#2d3436">Ingress Nodes</text>
</g>
<g id="clust8" class="cluster">
<title>cluster_Worker Nodes</title>
<path fill="#ebf3e7" stroke="#aeb6be" d="M28,-500C28,-500 716,-500 716,-500 722,-500 728,-506 728,-512 728,-512 728,-662 728,-662 728,-668 722,-674 716,-674 716,-674 28,-674 28,-674 22,-674 16,-668 16,-662 16,-662 16,-512 16,-512 16,-506 22,-500 28,-500"/>
<text text-anchor="middle" x="62.5" y="-660.4" font-family="Sans-Serif" font-size="12.00" fill="#2d3436">Worker Nodes</text>
</g>
<g id="clust9" class="cluster">
<title>cluster_Event Bus (Kafka)</title>
<path fill="#e5f5fd" stroke="#aeb6be" d="M336,-82C336,-82 590,-82 590,-82 596,-82 602,-88 602,-94 602,-94 602,-472 602,-472 602,-478 596,-484 590,-484 590,-484 336,-484 336,-484 330,-484 324,-478 324,-472 324,-472 324,-94 324,-94 324,-88 330,-82 336,-82"/>
<text text-anchor="middle" x="380.5" y="-470.4" font-family="Sans-Serif" font-size="12.00" fill="#2d3436">Event Bus (Kafka)</text>
</g>
<g id="clust10" class="cluster">
<title>cluster_VPC</title>
<path fill="#ebf3e7" stroke="#aeb6be" d="M344,-281C344,-281 582,-281 582,-281 588,-281 594,-287 594,-293 594,-293 594,-443 594,-443 594,-449 588,-455 582,-455 582,-455 344,-455 344,-455 338,-455 332,-449 332,-443 332,-443 332,-293 332,-293 332,-287 338,-281 344,-281"/>
<text text-anchor="middle" x="353" y="-441.4" font-family="Sans-Serif" font-size="12.00" fill="#2d3436">VPC</text>
</g>
<g id="clust11" class="cluster">
<title>cluster_EC2 Classic aka Limbo</title>
<path fill="#ebf3e7" stroke="#aeb6be" d="M344,-90C344,-90 582,-90 582,-90 588,-90 594,-96 594,-102 594,-102 594,-252 594,-252 594,-258 588,-264 582,-264 582,-264 344,-264 344,-264 338,-264 332,-258 332,-252 332,-252 332,-102 332,-102 332,-96 338,-90 344,-90"/>
<text text-anchor="middle" x="403" y="-250.4" font-family="Sans-Serif" font-size="12.00" fill="#2d3436">EC2 Classic aka Limbo</text>
</g>
<g id="clust12" class="cluster">
<title>cluster_Data Storage</title>
<path fill="#e5f5fd" stroke="#aeb6be" d="M807,-281C807,-281 1621,-281 1621,-281 1627,-281 1633,-287 1633,-293 1633,-293 1633,-443 1633,-443 1633,-449 1627,-455 1621,-455 1621,-455 807,-455 807,-455 801,-455 795,-449 795,-443 795,-443 795,-293 795,-293 795,-287 801,-281 807,-281"/>
<text text-anchor="middle" x="838.5" y="-441.4" font-family="Sans-Serif" font-size="12.00" fill="#2d3436">Data Storage</text>
</g>
<!-- 793bc7fe59144dd3a0a71817b3858e2b -->
<g id="node1" class="node">
<title>793bc7fe59144dd3a0a71817b3858e2b</title>
<image xlink:href="/usr/local/lib/python3.10/site-packages/resources/aws/network/route-53.png" width="101px" height="101px" preserveAspectRatio="xMinYMin meet" x="456.5" y="-1602"/>
<text text-anchor="middle" x="507" y="-1486.6" font-family="Sans-Serif" font-size="13.00" fill="#2d3436">dns</text>
</g>
<!-- 14cd6e0a333c4ba984d0ecc86aea11d3 -->
<g id="node3" class="node">
<title>14cd6e0a333c4ba984d0ecc86aea11d3</title>
<image xlink:href="/usr/local/lib/python3.10/site-packages/resources/aws/network/elb-application-load-balancer.png" width="101px" height="101px" preserveAspectRatio="xMinYMin meet" x="456.5" y="-1411"/>
<text text-anchor="middle" x="507" y="-1295.6" font-family="Sans-Serif" font-size="13.00" fill="#2d3436">Auth Facade ALB</text>
</g>
<!-- 793bc7fe59144dd3a0a71817b3858e2b&#45;&gt;14cd6e0a333c4ba984d0ecc86aea11d3 -->
<g id="edge25" class="edge">
<title>793bc7fe59144dd3a0a71817b3858e2b&#45;&gt;14cd6e0a333c4ba984d0ecc86aea11d3</title>
<path fill="none" stroke="#7b8894" d="M490.17,-1483.08C490.17,-1483.08 490.17,-1440.27 490.17,-1440.27"/>
<polygon fill="#7b8894" stroke="#7b8894" points="493.67,-1440.27 490.17,-1430.27 486.67,-1440.27 493.67,-1440.27"/>
</g>
<!-- a87e51796919425b9d08579dc757c7d8 -->
<g id="apertureNLB" class="node">
<title>a87e51796919425b9d08579dc757c7d8</title>
<image xlink:href="/usr/local/lib/python3.10/site-packages/resources/aws/network/elb-network-load-balancer.png" width="101px" height="101px" preserveAspectRatio="xMinYMin meet" x="600.5" y="-1411"/>
<text text-anchor="middle" x="651" y="-1295.6" font-family="Sans-Serif" font-size="13.00" fill="#2d3436">Aperture NLB</text>
</g>
<!-- 793bc7fe59144dd3a0a71817b3858e2b&#45;&gt;a87e51796919425b9d08579dc757c7d8 -->
<g id="edge22" class="edge">
<title>793bc7fe59144dd3a0a71817b3858e2b&#45;&gt;a87e51796919425b9d08579dc757c7d8</title>
<path fill="none" stroke="#7b8894" d="M523.83,-1483.26C523.83,-1463.43 523.83,-1447 523.83,-1447 523.83,-1447 634.17,-1447 634.17,-1447 634.17,-1447 634.17,-1440.17 634.17,-1440.17"/>
<polygon fill="#7b8894" stroke="#7b8894" points="637.67,-1440.17 634.17,-1430.17 630.67,-1440.17 637.67,-1440.17"/>
</g>
<!-- 257e8f681f5941839abf53f164de1b24 -->
<g id="node2" class="node">
<title>257e8f681f5941839abf53f164de1b24</title>
<image xlink:href="/usr/local/lib/python3.10/site-packages/resources/aws/compute/application-auto-scaling.png" width="101px" height="101px" preserveAspectRatio="xMinYMin meet" x="456.5" y="-1220"/>
<text text-anchor="middle" x="507" y="-1104.6" font-family="Sans-Serif" font-size="13.00" fill="#2d3436">Auth Facade</text>
</g>
<!-- 0982cac241654663a00aae8535071a1e -->
<g id="node25" class="node">
<title>0982cac241654663a00aae8535071a1e</title>
<image xlink:href="/usr/local/lib/python3.10/site-packages/resources/aws/network/elb-network-load-balancer.png" width="101px" height="101px" preserveAspectRatio="xMinYMin meet" x="600.5" y="-1009"/>
<text text-anchor="middle" x="651" y="-893.6" font-family="Sans-Serif" font-size="13.00" fill="#2d3436">Ingress LB</text>
</g>
<!-- 257e8f681f5941839abf53f164de1b24&#45;&gt;0982cac241654663a00aae8535071a1e -->
<g id="edge27" class="edge">
<title>257e8f681f5941839abf53f164de1b24&#45;&gt;0982cac241654663a00aae8535071a1e</title>
<path fill="none" stroke="#7b8894" d="M507,-1101.12C507,-1039.33 507,-958 507,-958 507,-958 589.12,-958 589.12,-958"/>
<polygon fill="#7b8894" stroke="#7b8894" points="589.12,-961.5 599.12,-958 589.12,-954.5 589.12,-961.5"/>
</g>
<!-- 14cd6e0a333c4ba984d0ecc86aea11d3&#45;&gt;257e8f681f5941839abf53f164de1b24 -->
<g id="edge26" class="edge">
<title>14cd6e0a333c4ba984d0ecc86aea11d3&#45;&gt;257e8f681f5941839abf53f164de1b24</title>
<path fill="none" stroke="#7b8894" d="M507,-1292.08C507,-1292.08 507,-1249.27 507,-1249.27"/>
<polygon fill="#7b8894" stroke="#7b8894" points="510.5,-1249.27 507,-1239.27 503.5,-1249.27 510.5,-1249.27"/>
</g>
<!-- 61148a0704c24567b6f11c96e4c2dd5a -->
<g id="traefik" class="node">
<title>61148a0704c24567b6f11c96e4c2dd5a</title>
<image xlink:href="/usr/local/lib/python3.10/site-packages/resources/aws/compute/application-auto-scaling.png" width="101px" height="101px" preserveAspectRatio="xMinYMin meet" x="600.5" y="-1220"/>
<text text-anchor="middle" x="651" y="-1104.6" font-family="Sans-Serif" font-size="13.00" fill="#2d3436">Aperture Traefik</text>
</g>
<!-- a87e51796919425b9d08579dc757c7d8&#45;&gt;61148a0704c24567b6f11c96e4c2dd5a -->
<g id="edge23" class="edge">
<title>a87e51796919425b9d08579dc757c7d8&#45;&gt;61148a0704c24567b6f11c96e4c2dd5a</title>
<path fill="none" stroke="#7b8894" d="M651,-1292.08C651,-1292.08 651,-1249.27 651,-1249.27"/>
<polygon fill="#7b8894" stroke="#7b8894" points="654.5,-1249.27 651,-1239.27 647.5,-1249.27 654.5,-1249.27"/>
</g>
<!-- 61148a0704c24567b6f11c96e4c2dd5a&#45;&gt;0982cac241654663a00aae8535071a1e -->
<g id="edge24" class="edge">
<title>61148a0704c24567b6f11c96e4c2dd5a&#45;&gt;0982cac241654663a00aae8535071a1e</title>
<path fill="none" stroke="#7b8894" d="M651,-1101.29C651,-1101.29 651,-1038.35 651,-1038.35"/>
<polygon fill="#7b8894" stroke="#7b8894" points="654.5,-1038.35 651,-1028.35 647.5,-1038.35 654.5,-1038.35"/>
</g>
<!-- 5f037b9f94524e6e8b7fbcd4430e50f1 -->
<g id="ec2&#45;Dashboard&#45;Web" class="node">
<title>5f037b9f94524e6e8b7fbcd4430e50f1</title>
<image xlink:href="/usr/local/lib/python3.10/site-packages/resources/aws/compute/ec2.png" width="101px" height="101px" preserveAspectRatio="xMinYMin meet" x="2616.5" y="-1602"/>
<text text-anchor="middle" x="2667" y="-1486.6" font-family="Sans-Serif" font-size="13.00" fill="#2d3436">Dashboard&#45;Web</text>
</g>
<!-- d76e6f3adf0f4726a41908344c143d97 -->
<g id="skylineLB" class="node">
<title>d76e6f3adf0f4726a41908344c143d97</title>
<image xlink:href="/usr/local/lib/python3.10/site-packages/resources/aws/network/elb-application-load-balancer.png" width="101px" height="101px" preserveAspectRatio="xMinYMin meet" x="1680.5" y="-1411"/>
<text text-anchor="middle" x="1731" y="-1295.6" font-family="Sans-Serif" font-size="13.00" fill="#2d3436">Skyline ALB</text>
</g>
<!-- 5f037b9f94524e6e8b7fbcd4430e50f1&#45;&gt;d76e6f3adf0f4726a41908344c143d97 -->
<g id="edge3" class="edge">
<title>5f037b9f94524e6e8b7fbcd4430e50f1&#45;&gt;d76e6f3adf0f4726a41908344c143d97</title>
<path fill="none" stroke="#7b8894" d="M2667,-1483.04C2667,-1420.27 2667,-1337 2667,-1337 2667,-1337 1792.84,-1337 1792.84,-1337"/>
<polygon fill="#7b8894" stroke="#7b8894" points="1792.84,-1333.5 1782.84,-1337 1792.84,-1340.5 1792.84,-1333.5"/>
</g>
<!-- 8a508c7cf3b142ba8051532069e60728 -->
<g id="ec2&#45;Dashboard&#45;Gear" class="node">
<title>8a508c7cf3b142ba8051532069e60728</title>
<image xlink:href="/usr/local/lib/python3.10/site-packages/resources/aws/compute/ec2.png" width="101px" height="101px" preserveAspectRatio="xMinYMin meet" x="2472.5" y="-1602"/>
<text text-anchor="middle" x="2523" y="-1486.6" font-family="Sans-Serif" font-size="13.00" fill="#2d3436">Dashboard&#45;Gear</text>
</g>
<!-- 8a508c7cf3b142ba8051532069e60728&#45;&gt;d76e6f3adf0f4726a41908344c143d97 -->
<g id="edge4" class="edge">
<title>8a508c7cf3b142ba8051532069e60728&#45;&gt;d76e6f3adf0f4726a41908344c143d97</title>
<path fill="none" stroke="#7b8894" d="M2523,-1483.12C2523,-1425.37 2523,-1352 2523,-1352 2523,-1352 1792.96,-1352 1792.96,-1352"/>
<polygon fill="#7b8894" stroke="#7b8894" points="1792.96,-1348.5 1782.96,-1352 1792.96,-1355.5 1792.96,-1348.5"/>
</g>
<!-- 8bcc735d59b54d338247a110d918d578 -->
<g id="ec2&#45;Dashboard&#45;Cron" class="node">
<title>8bcc735d59b54d338247a110d918d578</title>
<image xlink:href="/usr/local/lib/python3.10/site-packages/resources/aws/compute/ec2.png" width="101px" height="101px" preserveAspectRatio="xMinYMin meet" x="2328.5" y="-1602"/>
<text text-anchor="middle" x="2379" y="-1486.6" font-family="Sans-Serif" font-size="13.00" fill="#2d3436">Dashboard&#45;Cron</text>
</g>
<!-- 8bcc735d59b54d338247a110d918d578&#45;&gt;d76e6f3adf0f4726a41908344c143d97 -->
<g id="edge5" class="edge">
<title>8bcc735d59b54d338247a110d918d578&#45;&gt;d76e6f3adf0f4726a41908344c143d97</title>
<path fill="none" stroke="#7b8894" d="M2379,-1483.17C2379,-1431 2379,-1368 2379,-1368 2379,-1368 1792.82,-1368 1792.82,-1368"/>
<polygon fill="#7b8894" stroke="#7b8894" points="1792.82,-1364.5 1782.82,-1368 1792.82,-1371.5 1792.82,-1364.5"/>
</g>
<!-- cbebfabd2f5944459e818a3b5f9ee815 -->
<g id="ec2&#45;Member" class="node">
<title>cbebfabd2f5944459e818a3b5f9ee815</title>
<image xlink:href="/usr/local/lib/python3.10/site-packages/resources/aws/compute/ec2.png" width="101px" height="101px" preserveAspectRatio="xMinYMin meet" x="2184.5" y="-1602"/>
<text text-anchor="middle" x="2235" y="-1486.6" font-family="Sans-Serif" font-size="13.00" fill="#2d3436">Member</text>
</g>
<!-- cbebfabd2f5944459e818a3b5f9ee815&#45;&gt;d76e6f3adf0f4726a41908344c143d97 -->
<g id="edge6" class="edge">
<title>cbebfabd2f5944459e818a3b5f9ee815&#45;&gt;d76e6f3adf0f4726a41908344c143d97</title>
<path fill="none" stroke="#7b8894" d="M2235,-1483.45C2235,-1436.69 2235,-1383 2235,-1383 2235,-1383 1792.68,-1383 1792.68,-1383"/>
<polygon fill="#7b8894" stroke="#7b8894" points="1792.68,-1379.5 1782.68,-1383 1792.68,-1386.5 1792.68,-1379.5"/>
</g>
<!-- dfe472cfab854961beea02f94e08a9f3 -->
<g id="ec2&#45;SCUM" class="node">
<title>dfe472cfab854961beea02f94e08a9f3</title>
<image xlink:href="/usr/local/lib/python3.10/site-packages/resources/aws/compute/ec2.png" width="101px" height="101px" preserveAspectRatio="xMinYMin meet" x="2040.5" y="-1602"/>
<text text-anchor="middle" x="2091" y="-1486.6" font-family="Sans-Serif" font-size="13.00" fill="#2d3436">SCUM</text>
</g>
<!-- dfe472cfab854961beea02f94e08a9f3&#45;&gt;d76e6f3adf0f4726a41908344c143d97 -->
<g id="edge7" class="edge">
<title>dfe472cfab854961beea02f94e08a9f3&#45;&gt;d76e6f3adf0f4726a41908344c143d97</title>
<path fill="none" stroke="#7b8894" d="M2091,-1483.28C2091,-1442.28 2091,-1398 2091,-1398 2091,-1398 1792.95,-1398 1792.95,-1398"/>
<polygon fill="#7b8894" stroke="#7b8894" points="1792.95,-1394.5 1782.95,-1398 1792.95,-1401.5 1792.95,-1394.5"/>
</g>
<!-- e3a890a1c2a0403abd0cce5a0b9f4f86 -->
<g id="ec2&#45;Billing" class="node">
<title>e3a890a1c2a0403abd0cce5a0b9f4f86</title>
<image xlink:href="/usr/local/lib/python3.10/site-packages/resources/aws/compute/ec2.png" width="101px" height="101px" preserveAspectRatio="xMinYMin meet" x="1896.5" y="-1602"/>
<text text-anchor="middle" x="1947" y="-1486.6" font-family="Sans-Serif" font-size="13.00" fill="#2d3436">Billing</text>
</g>
<!-- e3a890a1c2a0403abd0cce5a0b9f4f86&#45;&gt;d76e6f3adf0f4726a41908344c143d97 -->
<g id="edge8" class="edge">
<title>e3a890a1c2a0403abd0cce5a0b9f4f86&#45;&gt;d76e6f3adf0f4726a41908344c143d97</title>
<path fill="none" stroke="#7b8894" d="M1947,-1483.06C1947,-1448.17 1947,-1413 1947,-1413 1947,-1413 1792.88,-1413 1792.88,-1413"/>
<polygon fill="#7b8894" stroke="#7b8894" points="1792.88,-1409.5 1782.88,-1413 1792.88,-1416.5 1792.88,-1409.5"/>
</g>
<!-- 7e4b4faaa97843f693977cf52dbd1e1e -->
<g id="ec2&#45;Message Achieve" class="node">
<title>7e4b4faaa97843f693977cf52dbd1e1e</title>
<image xlink:href="/usr/local/lib/python3.10/site-packages/resources/aws/compute/ec2.png" width="101px" height="101px" preserveAspectRatio="xMinYMin meet" x="1752.5" y="-1602"/>
<text text-anchor="middle" x="1803" y="-1486.6" font-family="Sans-Serif" font-size="13.00" fill="#2d3436">Message Achieve</text>
</g>
<!-- 7e4b4faaa97843f693977cf52dbd1e1e&#45;&gt;d76e6f3adf0f4726a41908344c143d97 -->
<g id="edge9" class="edge">
<title>7e4b4faaa97843f693977cf52dbd1e1e&#45;&gt;d76e6f3adf0f4726a41908344c143d97</title>
<path fill="none" stroke="#7b8894" d="M1767,-1483.08C1767,-1483.08 1767,-1440.27 1767,-1440.27"/>
<polygon fill="#7b8894" stroke="#7b8894" points="1770.5,-1440.27 1767,-1430.27 1763.5,-1440.27 1770.5,-1440.27"/>
</g>
<!-- db1e4cc4939a4f99809495b9fe1db661 -->
<g id="ec2&#45;Message Review" class="node">
<title>db1e4cc4939a4f99809495b9fe1db661</title>
<image xlink:href="/usr/local/lib/python3.10/site-packages/resources/aws/compute/ec2.png" width="101px" height="101px" preserveAspectRatio="xMinYMin meet" x="1608.5" y="-1602"/>
<text text-anchor="middle" x="1659" y="-1486.6" font-family="Sans-Serif" font-size="13.00" fill="#2d3436">Message Review</text>
</g>
<!-- db1e4cc4939a4f99809495b9fe1db661&#45;&gt;d76e6f3adf0f4726a41908344c143d97 -->
<g id="edge10" class="edge">
<title>db1e4cc4939a4f99809495b9fe1db661&#45;&gt;d76e6f3adf0f4726a41908344c143d97</title>
<path fill="none" stroke="#7b8894" d="M1699.83,-1483.08C1699.83,-1483.08 1699.83,-1440.27 1699.83,-1440.27"/>
<polygon fill="#7b8894" stroke="#7b8894" points="1703.33,-1440.27 1699.83,-1430.27 1696.33,-1440.27 1703.33,-1440.27"/>
</g>
<!-- cc0479fba0a34f5e91066142c3a7bdc0 -->
<g id="ec2&#45;Scheduled Data" class="node">
<title>cc0479fba0a34f5e91066142c3a7bdc0</title>
<image xlink:href="/usr/local/lib/python3.10/site-packages/resources/aws/compute/ec2.png" width="101px" height="101px" preserveAspectRatio="xMinYMin meet" x="1464.5" y="-1602"/>
<text text-anchor="middle" x="1515" y="-1486.6" font-family="Sans-Serif" font-size="13.00" fill="#2d3436">Scheduled Data</text>
</g>
<!-- cc0479fba0a34f5e91066142c3a7bdc0&#45;&gt;d76e6f3adf0f4726a41908344c143d97 -->
<g id="edge11" class="edge">
<title>cc0479fba0a34f5e91066142c3a7bdc0&#45;&gt;d76e6f3adf0f4726a41908344c143d97</title>
<path fill="none" stroke="#7b8894" d="M1544.5,-1483.17C1544.5,-1446.6 1544.5,-1409 1544.5,-1409 1544.5,-1409 1669.02,-1409 1669.02,-1409"/>
<polygon fill="#7b8894" stroke="#7b8894" points="1669.02,-1412.5 1679.02,-1409 1669.02,-1405.5 1669.02,-1412.5"/>
</g>
<!-- dfcec76cf4534cc6ad859e2c41ca16ab -->
<g id="ec2&#45;Core" class="node">
<title>dfcec76cf4534cc6ad859e2c41ca16ab</title>
<image xlink:href="/usr/local/lib/python3.10/site-packages/resources/aws/compute/ec2.png" width="101px" height="101px" preserveAspectRatio="xMinYMin meet" x="1320.5" y="-1602"/>
<text text-anchor="middle" x="1371" y="-1486.6" font-family="Sans-Serif" font-size="13.00" fill="#2d3436">Core</text>
</g>
<!-- dfcec76cf4534cc6ad859e2c41ca16ab&#45;&gt;d76e6f3adf0f4726a41908344c143d97 -->
<g id="edge12" class="edge">
<title>dfcec76cf4534cc6ad859e2c41ca16ab&#45;&gt;d76e6f3adf0f4726a41908344c143d97</title>
<path fill="none" stroke="#7b8894" d="M1400.5,-1483.06C1400.5,-1438.65 1400.5,-1389 1400.5,-1389 1400.5,-1389 1669.29,-1389 1669.29,-1389"/>
<polygon fill="#7b8894" stroke="#7b8894" points="1669.29,-1392.5 1679.29,-1389 1669.29,-1385.5 1669.29,-1392.5"/>
</g>
<!-- 1b24cdf3041c4971a5b8e99b3b8ceb75 -->
<g id="ec2&#45;TOPS" class="node">
<title>1b24cdf3041c4971a5b8e99b3b8ceb75</title>
<image xlink:href="/usr/local/lib/python3.10/site-packages/resources/aws/compute/ec2.png" width="101px" height="101px" preserveAspectRatio="xMinYMin meet" x="1176.5" y="-1602"/>
<text text-anchor="middle" x="1227" y="-1486.6" font-family="Sans-Serif" font-size="13.00" fill="#2d3436">TOPS</text>
</g>
<!-- 1b24cdf3041c4971a5b8e99b3b8ceb75&#45;&gt;d76e6f3adf0f4726a41908344c143d97 -->
<g id="edge13" class="edge">
<title>1b24cdf3041c4971a5b8e99b3b8ceb75&#45;&gt;d76e6f3adf0f4726a41908344c143d97</title>
<path fill="none" stroke="#7b8894" d="M1256.5,-1483.14C1256.5,-1431.69 1256.5,-1370 1256.5,-1370 1256.5,-1370 1669.16,-1370 1669.16,-1370"/>
<polygon fill="#7b8894" stroke="#7b8894" points="1669.16,-1373.5 1679.16,-1370 1669.16,-1366.5 1669.16,-1373.5"/>
</g>
<!-- e10a097e9d554d0684beafcaf8d9cc94 -->
<g id="ec2&#45;GSS" class="node">
<title>e10a097e9d554d0684beafcaf8d9cc94</title>
<image xlink:href="/usr/local/lib/python3.10/site-packages/resources/aws/compute/ec2.png" width="101px" height="101px" preserveAspectRatio="xMinYMin meet" x="1032.5" y="-1602"/>
<text text-anchor="middle" x="1083" y="-1486.6" font-family="Sans-Serif" font-size="13.00" fill="#2d3436">GSS</text>
</g>
<!-- e10a097e9d554d0684beafcaf8d9cc94&#45;&gt;d76e6f3adf0f4726a41908344c143d97 -->
<g id="edge14" class="edge">
<title>e10a097e9d554d0684beafcaf8d9cc94&#45;&gt;d76e6f3adf0f4726a41908344c143d97</title>
<path fill="none" stroke="#7b8894" d="M1112.5,-1483C1112.5,-1424.58 1112.5,-1350 1112.5,-1350 1112.5,-1350 1669.13,-1350 1669.13,-1350"/>
<polygon fill="#7b8894" stroke="#7b8894" points="1669.13,-1353.5 1679.13,-1350 1669.13,-1346.5 1669.13,-1353.5"/>
</g>
<!-- 4f656be610234f968edebf4495568abc -->
<g id="ec2&#45;HootSupport" class="node">
<title>4f656be610234f968edebf4495568abc</title>
<image xlink:href="/usr/local/lib/python3.10/site-packages/resources/aws/compute/ec2.png" width="101px" height="101px" preserveAspectRatio="xMinYMin meet" x="888.5" y="-1602"/>
<text text-anchor="middle" x="939" y="-1486.6" font-family="Sans-Serif" font-size="13.00" fill="#2d3436">HootSupport</text>
</g>
<!-- 4f656be610234f968edebf4495568abc&#45;&gt;d76e6f3adf0f4726a41908344c143d97 -->
<g id="edge15" class="edge">
<title>4f656be610234f968edebf4495568abc&#45;&gt;d76e6f3adf0f4726a41908344c143d97</title>
<path fill="none" stroke="#7b8894" d="M961.5,-1483.24C961.5,-1418.48 961.5,-1331 961.5,-1331 961.5,-1331 1669,-1331 1669,-1331"/>
<polygon fill="#7b8894" stroke="#7b8894" points="1669,-1334.5 1679,-1331 1669,-1327.5 1669,-1334.5"/>
</g>
<!-- 887e4af07e0d4a8a9e9af97973fd517f -->
<g id="ec2&#45;Push Notifications" class="node">
<title>887e4af07e0d4a8a9e9af97973fd517f</title>
<image xlink:href="/usr/local/lib/python3.10/site-packages/resources/aws/compute/ec2.png" width="101px" height="101px" preserveAspectRatio="xMinYMin meet" x="744.5" y="-1602"/>
<text text-anchor="middle" x="795" y="-1486.6" font-family="Sans-Serif" font-size="13.00" fill="#2d3436">Push Notifications</text>
</g>
<!-- 887e4af07e0d4a8a9e9af97973fd517f&#45;&gt;d76e6f3adf0f4726a41908344c143d97 -->
<g id="edge16" class="edge">
<title>887e4af07e0d4a8a9e9af97973fd517f&#45;&gt;d76e6f3adf0f4726a41908344c143d97</title>
<path fill="none" stroke="#7b8894" d="M824.5,-1483.23C824.5,-1412.12 824.5,-1311 824.5,-1311 824.5,-1311 1669.13,-1311 1669.13,-1311"/>
<polygon fill="#7b8894" stroke="#7b8894" points="1669.13,-1314.5 1679.13,-1311 1669.13,-1307.5 1669.13,-1314.5"/>
</g>
<!-- be240ebe530c40f8b9dcd6c6550e1a73 -->
<g id="ec2&#45;Crypto" class="node">
<title>be240ebe530c40f8b9dcd6c6550e1a73</title>
<image xlink:href="/usr/local/lib/python3.10/site-packages/resources/aws/compute/ec2.png" width="101px" height="101px" preserveAspectRatio="xMinYMin meet" x="600.5" y="-1602"/>
<text text-anchor="middle" x="651" y="-1486.6" font-family="Sans-Serif" font-size="13.00" fill="#2d3436">Crypto</text>
</g>
<!-- be240ebe530c40f8b9dcd6c6550e1a73&#45;&gt;d76e6f3adf0f4726a41908344c143d97 -->
<g id="edge17" class="edge">
<title>be240ebe530c40f8b9dcd6c6550e1a73&#45;&gt;d76e6f3adf0f4726a41908344c143d97</title>
<path fill="none" stroke="#7b8894" d="M667.83,-1483.34C667.83,-1472.62 667.83,-1465 667.83,-1465 667.83,-1465 1690.17,-1465 1690.17,-1465 1690.17,-1465 1690.17,-1440.26 1690.17,-1440.26"/>
<polygon fill="#7b8894" stroke="#7b8894" points="1693.67,-1440.26 1690.17,-1430.26 1686.67,-1440.26 1693.67,-1440.26"/>
</g>
<!-- 3cb3ebecbfa34f4b812406872f5c90e4 -->
<g id="ec2&#45;Aperture Authz" class="node">
<title>3cb3ebecbfa34f4b812406872f5c90e4</title>
<image xlink:href="/usr/local/lib/python3.10/site-packages/resources/aws/compute/ec2.png" width="101px" height="101px" preserveAspectRatio="xMinYMin meet" x="2904.5" y="-1602"/>
<text text-anchor="middle" x="2955" y="-1486.6" font-family="Sans-Serif" font-size="13.00" fill="#2d3436">Aperture Authz</text>
</g>
<!-- 3cb3ebecbfa34f4b812406872f5c90e4&#45;&gt;d76e6f3adf0f4726a41908344c143d97 -->
<g id="edge18" class="edge">
<title>3cb3ebecbfa34f4b812406872f5c90e4&#45;&gt;d76e6f3adf0f4726a41908344c143d97</title>
<path fill="none" stroke="#7b8894" d="M2955,-1483.07C2955,-1410.74 2955,-1307 2955,-1307 2955,-1307 1792.78,-1307 1792.78,-1307"/>
<polygon fill="#7b8894" stroke="#7b8894" points="1792.78,-1303.5 1782.78,-1307 1792.78,-1310.5 1792.78,-1303.5"/>
</g>
<!-- d7f03f89510748719bb32e26eec66c87 -->
<g id="ec2&#45;Amplify" class="node">
<title>d7f03f89510748719bb32e26eec66c87</title>
<image xlink:href="/usr/local/lib/python3.10/site-packages/resources/aws/compute/ec2.png" width="101px" height="101px" preserveAspectRatio="xMinYMin meet" x="2760.5" y="-1602"/>
<text text-anchor="middle" x="2811" y="-1486.6" font-family="Sans-Serif" font-size="13.00" fill="#2d3436">Amplify</text>
</g>
<!-- d7f03f89510748719bb32e26eec66c87&#45;&gt;d76e6f3adf0f4726a41908344c143d97 -->
<g id="edge19" class="edge">
<title>d7f03f89510748719bb32e26eec66c87&#45;&gt;d76e6f3adf0f4726a41908344c143d97</title>
<path fill="none" stroke="#7b8894" d="M2811,-1483.26C2811,-1415.61 2811,-1322 2811,-1322 2811,-1322 1792.8,-1322 1792.8,-1322"/>
<polygon fill="#7b8894" stroke="#7b8894" points="1792.8,-1318.5 1782.8,-1322 1792.8,-1325.5 1792.8,-1318.5"/>
</g>
<!-- 946192f8165e4b73add5b6e8151c28e6 -->
<g id="skylineBridge" class="node">
<title>946192f8165e4b73add5b6e8151c28e6</title>
<image xlink:href="/usr/local/lib/python3.10/site-packages/resources/aws/compute/ec2.png" width="101px" height="101px" preserveAspectRatio="xMinYMin meet" x="1680.5" y="-1220"/>
<text text-anchor="middle" x="1731" y="-1104.6" font-family="Sans-Serif" font-size="13.00" fill="#2d3436">Skyline Bridge</text>
</g>
<!-- d76e6f3adf0f4726a41908344c143d97&#45;&gt;946192f8165e4b73add5b6e8151c28e6 -->
<g id="edge20" class="edge">
<title>d76e6f3adf0f4726a41908344c143d97&#45;&gt;946192f8165e4b73add5b6e8151c28e6</title>
<path fill="none" stroke="#7b8894" d="M1731,-1292.08C1731,-1292.08 1731,-1249.27 1731,-1249.27"/>
<polygon fill="#7b8894" stroke="#7b8894" points="1734.5,-1249.27 1731,-1239.27 1727.5,-1249.27 1734.5,-1249.27"/>
</g>
<!-- 946192f8165e4b73add5b6e8151c28e6&#45;&gt;0982cac241654663a00aae8535071a1e -->
<g id="edge21" class="edge">
<title>946192f8165e4b73add5b6e8151c28e6&#45;&gt;0982cac241654663a00aae8535071a1e</title>
<path fill="none" stroke="#7b8894" d="M1731,-1101.12C1731,-1039.33 1731,-958 1731,-958 1731,-958 712.8,-958 712.8,-958"/>
<polygon fill="#7b8894" stroke="#7b8894" points="712.8,-954.5 702.8,-958 712.8,-961.5 712.8,-954.5"/>
</g>
<!-- a8a865a3818d4b189badbc79aa610e58 -->
<g id="traefikPods" class="node">
<title>a8a865a3818d4b189badbc79aa610e58</title>
<image xlink:href="/usr/local/lib/python3.10/site-packages/resources/k8s/compute/pod.png" width="101px" height="101px" preserveAspectRatio="xMinYMin meet" x="600.5" y="-818"/>
<text text-anchor="middle" x="651" y="-702.6" font-family="Sans-Serif" font-size="13.00" fill="#2d3436">Traefik Pods</text>
</g>
<!-- 0982cac241654663a00aae8535071a1e&#45;&gt;a8a865a3818d4b189badbc79aa610e58 -->
<g id="edge28" class="edge">
<title>0982cac241654663a00aae8535071a1e&#45;&gt;a8a865a3818d4b189badbc79aa610e58</title>
<path fill="none" stroke="#7b8894" d="M651,-890.08C651,-890.08 651,-847.27 651,-847.27"/>
<polygon fill="#7b8894" stroke="#7b8894" points="654.5,-847.27 651,-837.27 647.5,-847.27 654.5,-847.27"/>
</g>
<!-- 9fd5197f698b4c86985824ceb4bd10d2 -->
<g id="servicePods" class="node">
<title>9fd5197f698b4c86985824ceb4bd10d2</title>
<image xlink:href="/usr/local/lib/python3.10/site-packages/resources/k8s/compute/pod.png" width="101px" height="101px" preserveAspectRatio="xMinYMin meet" x="600.5" y="-627"/>
<text text-anchor="middle" x="651" y="-511.6" font-family="Sans-Serif" font-size="13.00" fill="#2d3436">More service pods... </text>
</g>
<!-- a8a865a3818d4b189badbc79aa610e58&#45;&gt;9fd5197f698b4c86985824ceb4bd10d2 -->
<g id="edge29" class="edge">
<title>a8a865a3818d4b189badbc79aa610e58&#45;&gt;9fd5197f698b4c86985824ceb4bd10d2</title>
<path fill="none" stroke="#7b8894" d="M667.83,-699.08C667.83,-699.08 667.83,-656.27 667.83,-656.27"/>
<polygon fill="#7b8894" stroke="#7b8894" points="671.33,-656.27 667.83,-646.27 664.33,-656.27 671.33,-656.27"/>
</g>
<!-- 9fd5197f698b4c86985824ceb4bd10d2&#45;&gt;9fd5197f698b4c86985824ceb4bd10d2 -->
<g id="edge31" class="edge">
<title>9fd5197f698b4c86985824ceb4bd10d2&#45;&gt;9fd5197f698b4c86985824ceb4bd10d2</title>
<path fill="none" stroke="red" stroke-dasharray="5,2" d="M634.17,-656.4C634.17,-656.4 634.17,-672 634.17,-672 634.17,-672 593,-672 593,-672 593,-672 593,-480 593,-480 593,-480 681.3,-480 681.3,-480 681.3,-480 681.3,-496.66 681.3,-496.66"/>
<polygon fill="red" stroke="red" points="637.67,-656.4 634.17,-646.4 630.67,-656.4 637.67,-656.4"/>
<polygon fill="red" stroke="red" points="677.8,-496.66 681.3,-506.66 684.8,-496.66 677.8,-496.66"/>
</g>
<!-- a35101a60f794712b00eb9d06c8f2689 -->
<g id="VPC Local" class="node">
<title>a35101a60f794712b00eb9d06c8f2689</title>
<image xlink:href="/usr/local/lib/python3.10/site-packages/resources/onprem/queue/kafka.png" width="101px" height="101px" preserveAspectRatio="xMinYMin meet" x="484.5" y="-408"/>
<text text-anchor="middle" x="535" y="-292.6" font-family="Sans-Serif" font-size="13.00" fill="#2d3436">VPC Local</text>
</g>
<!-- 9fd5197f698b4c86985824ceb4bd10d2&#45;&gt;a35101a60f794712b00eb9d06c8f2689 -->
<g id="edge32" class="edge">
<title>9fd5197f698b4c86985824ceb4bd10d2&#45;&gt;a35101a60f794712b00eb9d06c8f2689</title>
<path fill="none" stroke="#7b8894" d="M589.14,-576C589.14,-576 571.5,-576 571.5,-576 571.5,-576 571.5,-489.85 571.5,-425.74"/>
<polygon fill="#7b8894" stroke="#7b8894" points="589.14,-579.5 599.14,-576 589.14,-572.5 589.14,-579.5"/>
</g>
<!-- 8fe74388a48d4be0aad8fc1e7f517830 -->
<g id="Limbo Aggregate" class="node">
<title>8fe74388a48d4be0aad8fc1e7f517830</title>
<image xlink:href="/usr/local/lib/python3.10/site-packages/resources/onprem/queue/kafka.png" width="101px" height="101px" preserveAspectRatio="xMinYMin meet" x="484.5" y="-217"/>
<text text-anchor="middle" x="535" y="-101.6" font-family="Sans-Serif" font-size="13.00" fill="#2d3436">Limbo Aggregate</text>
</g>
<!-- 9fd5197f698b4c86985824ceb4bd10d2&#45;&gt;8fe74388a48d4be0aad8fc1e7f517830 -->
<g id="edge35" class="edge">
<title>9fd5197f698b4c86985824ceb4bd10d2&#45;&gt;8fe74388a48d4be0aad8fc1e7f517830</title>
<path fill="none" stroke="#7b8894" d="M661.1,-496.74C661.1,-496.74 661.1,-166 661.1,-166 661.1,-166 620.37,-166 585.2,-166"/>
<polygon fill="#7b8894" stroke="#7b8894" points="657.6,-496.74 661.1,-506.74 664.6,-496.74 657.6,-496.74"/>
</g>
<!-- c087dc01d689456590e1457164c39054 -->
<g id="Limbo Local" class="node">
<title>c087dc01d689456590e1457164c39054</title>
<image xlink:href="/usr/local/lib/python3.10/site-packages/resources/onprem/queue/kafka.png" width="101px" height="101px" preserveAspectRatio="xMinYMin meet" x="340.5" y="-217"/>
<text text-anchor="middle" x="391" y="-101.6" font-family="Sans-Serif" font-size="13.00" fill="#2d3436">Limbo Local</text>
</g>
<!-- 9fd5197f698b4c86985824ceb4bd10d2&#45;&gt;c087dc01d689456590e1457164c39054 -->
<g id="edge34" class="edge">
<title>9fd5197f698b4c86985824ceb4bd10d2&#45;&gt;c087dc01d689456590e1457164c39054</title>
<path fill="none" stroke="#7b8894" d="M640.9,-496.74C640.9,-496.74 640.9,-262 640.9,-262 640.9,-262 407.83,-262 407.83,-262 407.83,-262 407.83,-250.2 407.83,-234.89"/>
<polygon fill="#7b8894" stroke="#7b8894" points="637.4,-496.74 640.9,-506.74 644.4,-496.74 637.4,-496.74"/>
</g>
<!-- e4c9810be36544738b7bf8e348022e70 -->
<g id="VPC Aggregate" class="node">
<title>e4c9810be36544738b7bf8e348022e70</title>
<image xlink:href="/usr/local/lib/python3.10/site-packages/resources/onprem/queue/kafka.png" width="101px" height="101px" preserveAspectRatio="xMinYMin meet" x="340.5" y="-408"/>
<text text-anchor="middle" x="391" y="-292.6" font-family="Sans-Serif" font-size="13.00" fill="#2d3436">VPC Aggregate</text>
</g>
<!-- 9fd5197f698b4c86985824ceb4bd10d2&#45;&gt;e4c9810be36544738b7bf8e348022e70 -->
<g id="edge33" class="edge">
<title>9fd5197f698b4c86985824ceb4bd10d2&#45;&gt;e4c9810be36544738b7bf8e348022e70</title>
<path fill="none" stroke="#7b8894" d="M620.7,-496.73C620.7,-496.73 620.7,-453 620.7,-453 620.7,-453 427.5,-453 427.5,-453 427.5,-453 427.5,-441.2 427.5,-425.89"/>
<polygon fill="#7b8894" stroke="#7b8894" points="617.2,-496.73 620.7,-506.73 624.2,-496.73 617.2,-496.73"/>
</g>
<!-- f5ab73dc8f9c4f31bb62410796c8823d -->
<g id="node40" class="node">
<title>f5ab73dc8f9c4f31bb62410796c8823d</title>
<image xlink:href="/usr/local/lib/python3.10/site-packages/resources/aws/storage/simple-storage-service-s3.png" width="101px" height="101px" preserveAspectRatio="xMinYMin meet" x="947.5" y="-408"/>
<text text-anchor="middle" x="998" y="-292.6" font-family="Sans-Serif" font-size="13.00" fill="#2d3436">S3</text>
</g>
<!-- 9fd5197f698b4c86985824ceb4bd10d2&#45;&gt;f5ab73dc8f9c4f31bb62410796c8823d -->
<g id="edge30" class="edge">
<title>9fd5197f698b4c86985824ceb4bd10d2&#45;&gt;f5ab73dc8f9c4f31bb62410796c8823d</title>
<path fill="none" stroke="#7b8894" d="M701.35,-576C792.49,-576 975.5,-576 975.5,-576 975.5,-576 975.5,-437.25 975.5,-437.25"/>
<polygon fill="#7b8894" stroke="#7b8894" points="979,-437.25 975.5,-427.25 972,-437.25 979,-437.25"/>
</g>
<!-- 8df4b15054c44814b02c1b2a9c850101 -->
<g id="node28" class="node">
<title>8df4b15054c44814b02c1b2a9c850101</title>
<image xlink:href="/usr/local/lib/python3.10/site-packages/resources/k8s/compute/pod.png" width="101px" height="101px" preserveAspectRatio="xMinYMin meet" x="456.5" y="-627"/>
<text text-anchor="middle" x="507" y="-511.6" font-family="Sans-Serif" font-size="13.00" fill="#2d3436">Service POD</text>
</g>
<!-- 6226836b3b6c46d8b365d388a3a0c7a4 -->
<g id="node29" class="node">
<title>6226836b3b6c46d8b365d388a3a0c7a4</title>
<image xlink:href="/usr/local/lib/python3.10/site-packages/resources/k8s/compute/pod.png" width="101px" height="101px" preserveAspectRatio="xMinYMin meet" x="312.5" y="-627"/>
<text text-anchor="middle" x="363" y="-511.6" font-family="Sans-Serif" font-size="13.00" fill="#2d3436">Service POD</text>
</g>
<!-- d500e0ab2dce48718206eea8bb410bd5 -->
<g id="node30" class="node">
<title>d500e0ab2dce48718206eea8bb410bd5</title>
<image xlink:href="/usr/local/lib/python3.10/site-packages/resources/k8s/compute/pod.png" width="101px" height="101px" preserveAspectRatio="xMinYMin meet" x="168.5" y="-627"/>
<text text-anchor="middle" x="219" y="-511.6" font-family="Sans-Serif" font-size="13.00" fill="#2d3436">Service POD</text>
</g>
<!-- cdb2fc7d2c5b4529983bc7aab4ce438d -->
<g id="node31" class="node">
<title>cdb2fc7d2c5b4529983bc7aab4ce438d</title>
<image xlink:href="/usr/local/lib/python3.10/site-packages/resources/k8s/compute/pod.png" width="101px" height="101px" preserveAspectRatio="xMinYMin meet" x="24.5" y="-627"/>
<text text-anchor="middle" x="75" y="-511.6" font-family="Sans-Serif" font-size="13.00" fill="#2d3436">Service POD</text>
</g>
<!-- a35101a60f794712b00eb9d06c8f2689&#45;&gt;8fe74388a48d4be0aad8fc1e7f517830 -->
<g id="edge1" class="edge">
<title>a35101a60f794712b00eb9d06c8f2689&#45;&gt;8fe74388a48d4be0aad8fc1e7f517830</title>
<path fill="none" stroke="#7b8894" d="M535,-289.08C535,-289.08 535,-246.27 535,-246.27"/>
<polygon fill="#7b8894" stroke="#7b8894" points="538.5,-246.27 535,-236.27 531.5,-246.27 538.5,-246.27"/>
</g>
<!-- c087dc01d689456590e1457164c39054&#45;&gt;e4c9810be36544738b7bf8e348022e70 -->
<g id="edge2" class="edge">
<title>c087dc01d689456590e1457164c39054&#45;&gt;e4c9810be36544738b7bf8e348022e70</title>
<path fill="none" stroke="#7b8894" d="M374.17,-234.92C374.17,-234.92 374.17,-277.73 374.17,-277.73"/>
<polygon fill="#7b8894" stroke="#7b8894" points="370.67,-277.73 374.17,-287.73 377.67,-277.73 370.67,-277.73"/>
</g>
<!-- 041c5c59f3a948dd87172659142a50c3 -->
<g id="node36" class="node">
<title>041c5c59f3a948dd87172659142a50c3</title>
<image xlink:href="/usr/local/lib/python3.10/site-packages/resources/aws/database/rds.png" width="101px" height="101px" preserveAspectRatio="xMinYMin meet" x="1523.5" y="-408"/>
<text text-anchor="middle" x="1574" y="-292.6" font-family="Sans-Serif" font-size="13.00" fill="#2d3436">RDS</text>
</g>
<!-- 231b44c447144ab883e6661659fc9d34 -->
<g id="node37" class="node">
<title>231b44c447144ab883e6661659fc9d34</title>
<image xlink:href="/usr/local/lib/python3.10/site-packages/resources/aws/database/aurora.png" width="101px" height="101px" preserveAspectRatio="xMinYMin meet" x="1379.5" y="-408"/>
<text text-anchor="middle" x="1430" y="-292.6" font-family="Sans-Serif" font-size="13.00" fill="#2d3436">Aurora</text>
</g>
<!-- 720b881588fc41ee8125ac5eed4c2257 -->
<g id="node38" class="node">
<title>720b881588fc41ee8125ac5eed4c2257</title>
<image xlink:href="/usr/local/lib/python3.10/site-packages/resources/aws/database/elasticache-for-memcached.png" width="101px" height="101px" preserveAspectRatio="xMinYMin meet" x="1235.5" y="-408"/>
<text text-anchor="middle" x="1286" y="-292.6" font-family="Sans-Serif" font-size="13.00" fill="#2d3436">Memcached</text>
</g>
<!-- b7e6dfc613a04b58bd448aad65114391 -->
<g id="node39" class="node">
<title>b7e6dfc613a04b58bd448aad65114391</title>
<image xlink:href="/usr/local/lib/python3.10/site-packages/resources/aws/database/elasticache-for-redis.png" width="101px" height="101px" preserveAspectRatio="xMinYMin meet" x="1091.5" y="-408"/>
<text text-anchor="middle" x="1142" y="-292.6" font-family="Sans-Serif" font-size="13.00" fill="#2d3436">Redis</text>
</g>
<!-- 5dbcd50f91cf49b38a20f4db4ba0cc48 -->
<g id="node41" class="node">
<title>5dbcd50f91cf49b38a20f4db4ba0cc48</title>
<image xlink:href="/usr/local/lib/python3.10/site-packages/resources/aws/compute/ec2.png" width="101px" height="101px" preserveAspectRatio="xMinYMin meet" x="803.5" y="-408"/>
<text text-anchor="middle" x="854" y="-292.6" font-family="Sans-Serif" font-size="13.00" fill="#2d3436">Mongo</text>
</g>
</g>
</svg>
