<?xml version="1.0" encoding="UTF-8" standalone="no"?>
<!DOCTYPE svg PUBLIC "-//W3C//DTD SVG 1.1//EN"
 "http://www.w3.org/Graphics/SVG/1.1/DTD/svg11.dtd">
<!-- Generated by graphviz version 7.0.0 (20221023.0053)
 -->
<!-- Title: Hootsuite 2019 Pages: 1 -->
<svg width="3734pt" height="1945pt"
 viewBox="0.00 0.00 3734.00 1945.00" xmlns="http://www.w3.org/2000/svg" xmlns:xlink="http://www.w3.org/1999/xlink">
<g id="graph0" class="graph" transform="scale(1 1) rotate(0) translate(144 1801)">
<title>Hootsuite 2019</title>
<text text-anchor="middle" x="1723" y="-22" font-family="Sans-Serif" font-size="60.00" fill="#2d3436">Hootsuite 2019</text>
<g id="clust1" class="cluster">
<title>cluster_Edge</title>
<path fill="#e5f5fd" stroke="#aeb6be" d="M884,-1475C884,-1475 978,-1475 978,-1475 984,-1475 990,-1481 990,-1487 990,-1487 990,-1637 990,-1637 990,-1643 984,-1649 978,-1649 978,-1649 884,-1649 884,-1649 878,-1649 872,-1643 872,-1637 872,-1637 872,-1487 872,-1487 872,-1481 878,-1475 884,-1475"/>
<text text-anchor="middle" x="894.5" y="-1635.4" font-family="Sans-Serif" font-size="12.00" fill="#2d3436">Edge</text>
</g>
<g id="clust4" class="cluster">
<title>cluster_EC2 Services</title>
<path fill="#e5f5fd" stroke="#aeb6be" d="M1028,-1475C1028,-1475 3426,-1475 3426,-1475 3432,-1475 3438,-1481 3438,-1487 3438,-1487 3438,-1637 3438,-1637 3438,-1643 3432,-1649 3426,-1649 3426,-1649 1028,-1649 1028,-1649 1022,-1649 1016,-1643 1016,-1637 1016,-1637 1016,-1487 1016,-1487 1016,-1481 1022,-1475 1028,-1475"/>
<text text-anchor="middle" x="1061" y="-1635.4" font-family="Sans-Serif" font-size="12.00" fill="#2d3436">EC2 Services</text>
</g>
<g id="clust2" class="cluster">
<title>cluster_Auth Facade</title>
<path fill="#e5f5fd" stroke="#aeb6be" d="M884,-1093C884,-1093 978,-1093 978,-1093 984,-1093 990,-1099 990,-1105 990,-1105 990,-1446 990,-1446 990,-1452 984,-1458 978,-1458 978,-1458 884,-1458 884,-1458 878,-1458 872,-1452 872,-1446 872,-1446 872,-1105 872,-1105 872,-1099 878,-1093 884,-1093"/>
<text text-anchor="middle" x="914.5" y="-1444.4" font-family="Sans-Serif" font-size="12.00" fill="#2d3436">Auth Facade</text>
</g>
<g id="clust3" class="cluster">
<title>cluster_Aperture</title>
<path fill="#e5f5fd" stroke="#aeb6be" d="M1028,-1093C1028,-1093 1122,-1093 1122,-1093 1128,-1093 1134,-1099 1134,-1105 1134,-1105 1134,-1446 1134,-1446 1134,-1452 1128,-1458 1122,-1458 1122,-1458 1028,-1458 1028,-1458 1022,-1458 1016,-1452 1016,-1446 1016,-1446 1016,-1105 1016,-1105 1016,-1099 1022,-1093 1028,-1093"/>
<text text-anchor="middle" x="1047" y="-1444.4" font-family="Sans-Serif" font-size="12.00" fill="#2d3436">Aperture</text>
</g>
<g id="clust5" class="cluster">
<title>cluster_Skyline</title>
<path fill="#e5f5fd" stroke="#aeb6be" d="M2108,-1093C2108,-1093 2202,-1093 2202,-1093 2208,-1093 2214,-1099 2214,-1105 2214,-1105 2214,-1446 2214,-1446 2214,-1452 2208,-1458 2202,-1458 2202,-1458 2108,-1458 2108,-1458 2102,-1458 2096,-1452 2096,-1446 2096,-1446 2096,-1105 2096,-1105 2096,-1099 2102,-1093 2108,-1093"/>
<text text-anchor="middle" x="2124" y="-1444.4" font-family="Sans-Serif" font-size="12.00" fill="#2d3436">Skyline</text>
</g>
<g id="clust6" class="cluster">
<title>cluster_Kubernetes Cluster</title>
<path fill="#e5f5fd" stroke="#aeb6be" d="M444,-492C444,-492 1148,-492 1148,-492 1154,-492 1160,-498 1160,-504 1160,-504 1160,-1073 1160,-1073 1160,-1079 1154,-1085 1148,-1085 1148,-1085 444,-1085 444,-1085 438,-1085 432,-1079 432,-1073 432,-1073 432,-504 432,-504 432,-498 438,-492 444,-492"/>
<text text-anchor="middle" x="491.5" y="-1071.4" font-family="Sans-Serif" font-size="12.00" fill="#2d3436">Kubernetes Cluster</text>
</g>
<g id="clust7" class="cluster">
<title>cluster_Ingress Nodes</title>
<path fill="#ebf3e7" stroke="#aeb6be" d="M1028,-691C1028,-691 1122,-691 1122,-691 1128,-691 1134,-697 1134,-703 1134,-703 1134,-1044 1134,-1044 1134,-1050 1128,-1056 1122,-1056 1122,-1056 1028,-1056 1028,-1056 1022,-1056 1016,-1050 1016,-1044 1016,-1044 1016,-703 1016,-703 1016,-697 1022,-691 1028,-691"/>
<text text-anchor="middle" x="1063" y="-1042.4" font-family="Sans-Serif" font-size="12.00" fill="#2d3436">Ingress Nodes</text>
</g>
<g id="clust8" class="cluster">
<title>cluster_Worker Nodes</title>
<path fill="#ebf3e7" stroke="#aeb6be" d="M452,-500C452,-500 1140,-500 1140,-500 1146,-500 1152,-506 1152,-512 1152,-512 1152,-662 1152,-662 1152,-668 1146,-674 1140,-674 1140,-674 452,-674 452,-674 446,-674 440,-668 440,-662 440,-662 440,-512 440,-512 440,-506 446,-500 452,-500"/>
<text text-anchor="middle" x="486.5" y="-660.4" font-family="Sans-Serif" font-size="12.00" fill="#2d3436">Worker Nodes</text>
</g>
<g id="clust9" class="cluster">
<title>cluster_Data Storage</title>
<path fill="#e5f5fd" stroke="#aeb6be" d="M20,-281C20,-281 834,-281 834,-281 840,-281 846,-287 846,-293 846,-293 846,-443 846,-443 846,-449 840,-455 834,-455 834,-455 20,-455 20,-455 14,-455 8,-449 8,-443 8,-443 8,-293 8,-293 8,-287 14,-281 20,-281"/>
<text text-anchor="middle" x="51.5" y="-441.4" font-family="Sans-Serif" font-size="12.00" fill="#2d3436">Data Storage</text>
</g>
<g id="clust10" class="cluster">
<title>cluster_Event Bus (Kafka)</title>
<path fill="#e5f5fd" stroke="#aeb6be" d="M876,-82C876,-82 1130,-82 1130,-82 1136,-82 1142,-88 1142,-94 1142,-94 1142,-472 1142,-472 1142,-478 1136,-484 1130,-484 1130,-484 876,-484 876,-484 870,-484 864,-478 864,-472 864,-472 864,-94 864,-94 864,-88 870,-82 876,-82"/>
<text text-anchor="middle" x="920.5" y="-470.4" font-family="Sans-Serif" font-size="12.00" fill="#2d3436">Event Bus (Kafka)</text>
</g>
<g id="clust11" class="cluster">
<title>cluster_VPC</title>
<path fill="#ebf3e7" stroke="#aeb6be" d="M884,-281C884,-281 1122,-281 1122,-281 1128,-281 1134,-287 1134,-293 1134,-293 1134,-443 1134,-443 1134,-449 1128,-455 1122,-455 1122,-455 884,-455 884,-455 878,-455 872,-449 872,-443 872,-443 872,-293 872,-293 872,-287 878,-281 884,-281"/>
<text text-anchor="middle" x="893" y="-441.4" font-family="Sans-Serif" font-size="12.00" fill="#2d3436">VPC</text>
</g>
<g id="clust12" class="cluster">
<title>cluster_EC2 Classic aka Limbo</title>
<path fill="#ebf3e7" stroke="#aeb6be" d="M884,-90C884,-90 1122,-90 1122,-90 1128,-90 1134,-96 1134,-102 1134,-102 1134,-252 1134,-252 1134,-258 1128,-264 1122,-264 1122,-264 884,-264 884,-264 878,-264 872,-258 872,-252 872,-252 872,-102 872,-102 872,-96 878,-90 884,-90"/>
<text text-anchor="middle" x="943" y="-250.4" font-family="Sans-Serif" font-size="12.00" fill="#2d3436">EC2 Classic aka Limbo</text>
</g>
<!-- a3336fd53c91485fbc19f49171da423e -->
<g id="node1" class="node">
<title>a3336fd53c91485fbc19f49171da423e</title>
<image xlink:href="/usr/local/lib/python3.10/site-packages/resources/aws/network/route-53.png" width="101px" height="101px" preserveAspectRatio="xMinYMin meet" x="880.5" y="-1602"/>
<text text-anchor="middle" x="931" y="-1486.6" font-family="Sans-Serif" font-size="13.00" fill="#2d3436">dns</text>
</g>
<!-- 069349118764456ba25c68833180da9b -->
<g id="node3" class="node">
<title>069349118764456ba25c68833180da9b</title>
<image xlink:href="/usr/local/lib/python3.10/site-packages/resources/aws/network/elb-application-load-balancer.png" width="101px" height="101px" preserveAspectRatio="xMinYMin meet" x="880.5" y="-1411"/>
<text text-anchor="middle" x="931" y="-1295.6" font-family="Sans-Serif" font-size="13.00" fill="#2d3436">Auth Facade ALB</text>
</g>
<!-- a3336fd53c91485fbc19f49171da423e&#45;&gt;069349118764456ba25c68833180da9b -->
<g id="edge25" class="edge">
<title>a3336fd53c91485fbc19f49171da423e&#45;&gt;069349118764456ba25c68833180da9b</title>
<path fill="none" stroke="#7b8894" d="M914.17,-1483.08C914.17,-1483.08 914.17,-1440.27 914.17,-1440.27"/>
<polygon fill="#7b8894" stroke="#7b8894" points="917.67,-1440.27 914.17,-1430.27 910.67,-1440.27 917.67,-1440.27"/>
</g>
<!-- 368dad06e48d412caf62b57ebb8eeaa8 -->
<g id="apertureNLB" class="node">
<title>368dad06e48d412caf62b57ebb8eeaa8</title>
<image xlink:href="/usr/local/lib/python3.10/site-packages/resources/aws/network/elb-network-load-balancer.png" width="101px" height="101px" preserveAspectRatio="xMinYMin meet" x="1024.5" y="-1411"/>
<text text-anchor="middle" x="1075" y="-1295.6" font-family="Sans-Serif" font-size="13.00" fill="#2d3436">Aperture NLB</text>
</g>
<!-- a3336fd53c91485fbc19f49171da423e&#45;&gt;368dad06e48d412caf62b57ebb8eeaa8 -->
<g id="edge22" class="edge">
<title>a3336fd53c91485fbc19f49171da423e&#45;&gt;368dad06e48d412caf62b57ebb8eeaa8</title>
<path fill="none" stroke="#7b8894" d="M947.83,-1483.26C947.83,-1463.43 947.83,-1447 947.83,-1447 947.83,-1447 1058.17,-1447 1058.17,-1447 1058.17,-1447 1058.17,-1440.17 1058.17,-1440.17"/>
<polygon fill="#7b8894" stroke="#7b8894" points="1061.67,-1440.17 1058.17,-1430.17 1054.67,-1440.17 1061.67,-1440.17"/>
</g>
<!-- 28ab545b6b55475fab62828654852350 -->
<g id="node2" class="node">
<title>28ab545b6b55475fab62828654852350</title>
<image xlink:href="/usr/local/lib/python3.10/site-packages/resources/aws/compute/application-auto-scaling.png" width="101px" height="101px" preserveAspectRatio="xMinYMin meet" x="880.5" y="-1220"/>
<text text-anchor="middle" x="931" y="-1104.6" font-family="Sans-Serif" font-size="13.00" fill="#2d3436">Auth Facade</text>
</g>
<!-- 88b9e6d611da4b87a8210b7b926bcd08 -->
<g id="node25" class="node">
<title>88b9e6d611da4b87a8210b7b926bcd08</title>
<image xlink:href="/usr/local/lib/python3.10/site-packages/resources/aws/network/elb-network-load-balancer.png" width="101px" height="101px" preserveAspectRatio="xMinYMin meet" x="1024.5" y="-1009"/>
<text text-anchor="middle" x="1075" y="-893.6" font-family="Sans-Serif" font-size="13.00" fill="#2d3436">Ingress LB</text>
</g>
<!-- 28ab545b6b55475fab62828654852350&#45;&gt;88b9e6d611da4b87a8210b7b926bcd08 -->
<g id="edge27" class="edge">
<title>28ab545b6b55475fab62828654852350&#45;&gt;88b9e6d611da4b87a8210b7b926bcd08</title>
<path fill="none" stroke="#7b8894" d="M931,-1101.12C931,-1039.33 931,-958 931,-958 931,-958 1013.12,-958 1013.12,-958"/>
<polygon fill="#7b8894" stroke="#7b8894" points="1013.12,-961.5 1023.12,-958 1013.12,-954.5 1013.12,-961.5"/>
</g>
<!-- 069349118764456ba25c68833180da9b&#45;&gt;28ab545b6b55475fab62828654852350 -->
<g id="edge26" class="edge">
<title>069349118764456ba25c68833180da9b&#45;&gt;28ab545b6b55475fab62828654852350</title>
<path fill="none" stroke="#7b8894" d="M931,-1292.08C931,-1292.08 931,-1249.27 931,-1249.27"/>
<polygon fill="#7b8894" stroke="#7b8894" points="934.5,-1249.27 931,-1239.27 927.5,-1249.27 934.5,-1249.27"/>
</g>
<!-- 405487959a9540e19d27b305fa3900c4 -->
<g id="traefik" class="node">
<title>405487959a9540e19d27b305fa3900c4</title>
<image xlink:href="/usr/local/lib/python3.10/site-packages/resources/aws/compute/application-auto-scaling.png" width="101px" height="101px" preserveAspectRatio="xMinYMin meet" x="1024.5" y="-1220"/>
<text text-anchor="middle" x="1075" y="-1104.6" font-family="Sans-Serif" font-size="13.00" fill="#2d3436">Aperture Traefik</text>
</g>
<!-- 368dad06e48d412caf62b57ebb8eeaa8&#45;&gt;405487959a9540e19d27b305fa3900c4 -->
<g id="edge23" class="edge">
<title>368dad06e48d412caf62b57ebb8eeaa8&#45;&gt;405487959a9540e19d27b305fa3900c4</title>
<path fill="none" stroke="#7b8894" d="M1075,-1292.08C1075,-1292.08 1075,-1249.27 1075,-1249.27"/>
<polygon fill="#7b8894" stroke="#7b8894" points="1078.5,-1249.27 1075,-1239.27 1071.5,-1249.27 1078.5,-1249.27"/>
</g>
<!-- 405487959a9540e19d27b305fa3900c4&#45;&gt;88b9e6d611da4b87a8210b7b926bcd08 -->
<g id="edge24" class="edge">
<title>405487959a9540e19d27b305fa3900c4&#45;&gt;88b9e6d611da4b87a8210b7b926bcd08</title>
<path fill="none" stroke="#7b8894" d="M1075,-1101.29C1075,-1101.29 1075,-1038.35 1075,-1038.35"/>
<polygon fill="#7b8894" stroke="#7b8894" points="1078.5,-1038.35 1075,-1028.35 1071.5,-1038.35 1078.5,-1038.35"/>
</g>
<!-- c7f551d8827841aa8c176c2c7736554e -->
<g id="ec2&#45;Dashboard&#45;Web" class="node">
<title>c7f551d8827841aa8c176c2c7736554e</title>
<image xlink:href="/usr/local/lib/python3.10/site-packages/resources/aws/compute/ec2.png" width="101px" height="101px" preserveAspectRatio="xMinYMin meet" x="3040.5" y="-1602"/>
<text text-anchor="middle" x="3091" y="-1486.6" font-family="Sans-Serif" font-size="13.00" fill="#2d3436">Dashboard&#45;Web</text>
</g>
<!-- 2acb399343214f3b8ff7210b537685d2 -->
<g id="skylineLB" class="node">
<title>2acb399343214f3b8ff7210b537685d2</title>
<image xlink:href="/usr/local/lib/python3.10/site-packages/resources/aws/network/elb-application-load-balancer.png" width="101px" height="101px" preserveAspectRatio="xMinYMin meet" x="2104.5" y="-1411"/>
<text text-anchor="middle" x="2155" y="-1295.6" font-family="Sans-Serif" font-size="13.00" fill="#2d3436">Skyline ALB</text>
</g>
<!-- c7f551d8827841aa8c176c2c7736554e&#45;&gt;2acb399343214f3b8ff7210b537685d2 -->
<g id="edge3" class="edge">
<title>c7f551d8827841aa8c176c2c7736554e&#45;&gt;2acb399343214f3b8ff7210b537685d2</title>
<path fill="none" stroke="#7b8894" d="M3091,-1483.04C3091,-1420.27 3091,-1337 3091,-1337 3091,-1337 2216.84,-1337 2216.84,-1337"/>
<polygon fill="#7b8894" stroke="#7b8894" points="2216.84,-1333.5 2206.84,-1337 2216.84,-1340.5 2216.84,-1333.5"/>
</g>
<!-- b76b6d7dad464fd3bb8c7cce36dac611 -->
<g id="ec2&#45;Dashboard&#45;Gear" class="node">
<title>b76b6d7dad464fd3bb8c7cce36dac611</title>
<image xlink:href="/usr/local/lib/python3.10/site-packages/resources/aws/compute/ec2.png" width="101px" height="101px" preserveAspectRatio="xMinYMin meet" x="2896.5" y="-1602"/>
<text text-anchor="middle" x="2947" y="-1486.6" font-family="Sans-Serif" font-size="13.00" fill="#2d3436">Dashboard&#45;Gear</text>
</g>
<!-- b76b6d7dad464fd3bb8c7cce36dac611&#45;&gt;2acb399343214f3b8ff7210b537685d2 -->
<g id="edge4" class="edge">
<title>b76b6d7dad464fd3bb8c7cce36dac611&#45;&gt;2acb399343214f3b8ff7210b537685d2</title>
<path fill="none" stroke="#7b8894" d="M2947,-1483.12C2947,-1425.37 2947,-1352 2947,-1352 2947,-1352 2216.96,-1352 2216.96,-1352"/>
<polygon fill="#7b8894" stroke="#7b8894" points="2216.96,-1348.5 2206.96,-1352 2216.96,-1355.5 2216.96,-1348.5"/>
</g>
<!-- d7a661c9baf84289bc9b0c23da75fd6b -->
<g id="ec2&#45;Dashboard&#45;Cron" class="node">
<title>d7a661c9baf84289bc9b0c23da75fd6b</title>
<image xlink:href="/usr/local/lib/python3.10/site-packages/resources/aws/compute/ec2.png" width="101px" height="101px" preserveAspectRatio="xMinYMin meet" x="2752.5" y="-1602"/>
<text text-anchor="middle" x="2803" y="-1486.6" font-family="Sans-Serif" font-size="13.00" fill="#2d3436">Dashboard&#45;Cron</text>
</g>
<!-- d7a661c9baf84289bc9b0c23da75fd6b&#45;&gt;2acb399343214f3b8ff7210b537685d2 -->
<g id="edge5" class="edge">
<title>d7a661c9baf84289bc9b0c23da75fd6b&#45;&gt;2acb399343214f3b8ff7210b537685d2</title>
<path fill="none" stroke="#7b8894" d="M2803,-1483.17C2803,-1431 2803,-1368 2803,-1368 2803,-1368 2216.82,-1368 2216.82,-1368"/>
<polygon fill="#7b8894" stroke="#7b8894" points="2216.82,-1364.5 2206.82,-1368 2216.82,-1371.5 2216.82,-1364.5"/>
</g>
<!-- 77cb54700fe04e5782b8f94bf8a18071 -->
<g id="ec2&#45;Member" class="node">
<title>77cb54700fe04e5782b8f94bf8a18071</title>
<image xlink:href="/usr/local/lib/python3.10/site-packages/resources/aws/compute/ec2.png" width="101px" height="101px" preserveAspectRatio="xMinYMin meet" x="2608.5" y="-1602"/>
<text text-anchor="middle" x="2659" y="-1486.6" font-family="Sans-Serif" font-size="13.00" fill="#2d3436">Member</text>
</g>
<!-- 77cb54700fe04e5782b8f94bf8a18071&#45;&gt;2acb399343214f3b8ff7210b537685d2 -->
<g id="edge6" class="edge">
<title>77cb54700fe04e5782b8f94bf8a18071&#45;&gt;2acb399343214f3b8ff7210b537685d2</title>
<path fill="none" stroke="#7b8894" d="M2659,-1483.45C2659,-1436.69 2659,-1383 2659,-1383 2659,-1383 2216.68,-1383 2216.68,-1383"/>
<polygon fill="#7b8894" stroke="#7b8894" points="2216.68,-1379.5 2206.68,-1383 2216.68,-1386.5 2216.68,-1379.5"/>
</g>
<!-- 7dc4225815024744a081febec64f2ec0 -->
<g id="ec2&#45;SCUM" class="node">
<title>7dc4225815024744a081febec64f2ec0</title>
<image xlink:href="/usr/local/lib/python3.10/site-packages/resources/aws/compute/ec2.png" width="101px" height="101px" preserveAspectRatio="xMinYMin meet" x="2464.5" y="-1602"/>
<text text-anchor="middle" x="2515" y="-1486.6" font-family="Sans-Serif" font-size="13.00" fill="#2d3436">SCUM</text>
</g>
<!-- 7dc4225815024744a081febec64f2ec0&#45;&gt;2acb399343214f3b8ff7210b537685d2 -->
<g id="edge7" class="edge">
<title>7dc4225815024744a081febec64f2ec0&#45;&gt;2acb399343214f3b8ff7210b537685d2</title>
<path fill="none" stroke="#7b8894" d="M2515,-1483.28C2515,-1442.28 2515,-1398 2515,-1398 2515,-1398 2216.95,-1398 2216.95,-1398"/>
<polygon fill="#7b8894" stroke="#7b8894" points="2216.95,-1394.5 2206.95,-1398 2216.95,-1401.5 2216.95,-1394.5"/>
</g>
<!-- c76dec8a900742c2960e217b82b11475 -->
<g id="ec2&#45;Billing" class="node">
<title>c76dec8a900742c2960e217b82b11475</title>
<image xlink:href="/usr/local/lib/python3.10/site-packages/resources/aws/compute/ec2.png" width="101px" height="101px" preserveAspectRatio="xMinYMin meet" x="2320.5" y="-1602"/>
<text text-anchor="middle" x="2371" y="-1486.6" font-family="Sans-Serif" font-size="13.00" fill="#2d3436">Billing</text>
</g>
<!-- c76dec8a900742c2960e217b82b11475&#45;&gt;2acb399343214f3b8ff7210b537685d2 -->
<g id="edge8" class="edge">
<title>c76dec8a900742c2960e217b82b11475&#45;&gt;2acb399343214f3b8ff7210b537685d2</title>
<path fill="none" stroke="#7b8894" d="M2371,-1483.06C2371,-1448.17 2371,-1413 2371,-1413 2371,-1413 2216.88,-1413 2216.88,-1413"/>
<polygon fill="#7b8894" stroke="#7b8894" points="2216.88,-1409.5 2206.88,-1413 2216.88,-1416.5 2216.88,-1409.5"/>
</g>
<!-- 5bbffca7e0d749e28a4114733df89774 -->
<g id="ec2&#45;Message Achieve" class="node">
<title>5bbffca7e0d749e28a4114733df89774</title>
<image xlink:href="/usr/local/lib/python3.10/site-packages/resources/aws/compute/ec2.png" width="101px" height="101px" preserveAspectRatio="xMinYMin meet" x="2176.5" y="-1602"/>
<text text-anchor="middle" x="2227" y="-1486.6" font-family="Sans-Serif" font-size="13.00" fill="#2d3436">Message Achieve</text>
</g>
<!-- 5bbffca7e0d749e28a4114733df89774&#45;&gt;2acb399343214f3b8ff7210b537685d2 -->
<g id="edge9" class="edge">
<title>5bbffca7e0d749e28a4114733df89774&#45;&gt;2acb399343214f3b8ff7210b537685d2</title>
<path fill="none" stroke="#7b8894" d="M2191,-1483.08C2191,-1483.08 2191,-1440.27 2191,-1440.27"/>
<polygon fill="#7b8894" stroke="#7b8894" points="2194.5,-1440.27 2191,-1430.27 2187.5,-1440.27 2194.5,-1440.27"/>
</g>
<!-- 4ce656b837074ce29c22defbaca4f3b2 -->
<g id="ec2&#45;Message Review" class="node">
<title>4ce656b837074ce29c22defbaca4f3b2</title>
<image xlink:href="/usr/local/lib/python3.10/site-packages/resources/aws/compute/ec2.png" width="101px" height="101px" preserveAspectRatio="xMinYMin meet" x="2032.5" y="-1602"/>
<text text-anchor="middle" x="2083" y="-1486.6" font-family="Sans-Serif" font-size="13.00" fill="#2d3436">Message Review</text>
</g>
<!-- 4ce656b837074ce29c22defbaca4f3b2&#45;&gt;2acb399343214f3b8ff7210b537685d2 -->
<g id="edge10" class="edge">
<title>4ce656b837074ce29c22defbaca4f3b2&#45;&gt;2acb399343214f3b8ff7210b537685d2</title>
<path fill="none" stroke="#7b8894" d="M2123.83,-1483.08C2123.83,-1483.08 2123.83,-1440.27 2123.83,-1440.27"/>
<polygon fill="#7b8894" stroke="#7b8894" points="2127.33,-1440.27 2123.83,-1430.27 2120.33,-1440.27 2127.33,-1440.27"/>
</g>
<!-- 4cb210eaf1704ad7bdf69bc084ef8adf -->
<g id="ec2&#45;Scheduled Data" class="node">
<title>4cb210eaf1704ad7bdf69bc084ef8adf</title>
<image xlink:href="/usr/local/lib/python3.10/site-packages/resources/aws/compute/ec2.png" width="101px" height="101px" preserveAspectRatio="xMinYMin meet" x="1888.5" y="-1602"/>
<text text-anchor="middle" x="1939" y="-1486.6" font-family="Sans-Serif" font-size="13.00" fill="#2d3436">Scheduled Data</text>
</g>
<!-- 4cb210eaf1704ad7bdf69bc084ef8adf&#45;&gt;2acb399343214f3b8ff7210b537685d2 -->
<g id="edge11" class="edge">
<title>4cb210eaf1704ad7bdf69bc084ef8adf&#45;&gt;2acb399343214f3b8ff7210b537685d2</title>
<path fill="none" stroke="#7b8894" d="M1939,-1483.17C1939,-1446.6 1939,-1409 1939,-1409 1939,-1409 2093.12,-1409 2093.12,-1409"/>
<polygon fill="#7b8894" stroke="#7b8894" points="2093.12,-1412.5 2103.12,-1409 2093.12,-1405.5 2093.12,-1412.5"/>
</g>
<!-- 5e9a39b5a4a748a1a9b21cc46c978b7c -->
<g id="ec2&#45;Core" class="node">
<title>5e9a39b5a4a748a1a9b21cc46c978b7c</title>
<image xlink:href="/usr/local/lib/python3.10/site-packages/resources/aws/compute/ec2.png" width="101px" height="101px" preserveAspectRatio="xMinYMin meet" x="1744.5" y="-1602"/>
<text text-anchor="middle" x="1795" y="-1486.6" font-family="Sans-Serif" font-size="13.00" fill="#2d3436">Core</text>
</g>
<!-- 5e9a39b5a4a748a1a9b21cc46c978b7c&#45;&gt;2acb399343214f3b8ff7210b537685d2 -->
<g id="edge12" class="edge">
<title>5e9a39b5a4a748a1a9b21cc46c978b7c&#45;&gt;2acb399343214f3b8ff7210b537685d2</title>
<path fill="none" stroke="#7b8894" d="M1795,-1483.06C1795,-1438.65 1795,-1389 1795,-1389 1795,-1389 2093.05,-1389 2093.05,-1389"/>
<polygon fill="#7b8894" stroke="#7b8894" points="2093.05,-1392.5 2103.05,-1389 2093.05,-1385.5 2093.05,-1392.5"/>
</g>
<!-- 5fac3ec847f64969a3ca5aa34da09afc -->
<g id="ec2&#45;TOPS" class="node">
<title>5fac3ec847f64969a3ca5aa34da09afc</title>
<image xlink:href="/usr/local/lib/python3.10/site-packages/resources/aws/compute/ec2.png" width="101px" height="101px" preserveAspectRatio="xMinYMin meet" x="1600.5" y="-1602"/>
<text text-anchor="middle" x="1651" y="-1486.6" font-family="Sans-Serif" font-size="13.00" fill="#2d3436">TOPS</text>
</g>
<!-- 5fac3ec847f64969a3ca5aa34da09afc&#45;&gt;2acb399343214f3b8ff7210b537685d2 -->
<g id="edge13" class="edge">
<title>5fac3ec847f64969a3ca5aa34da09afc&#45;&gt;2acb399343214f3b8ff7210b537685d2</title>
<path fill="none" stroke="#7b8894" d="M1651,-1483.14C1651,-1431.69 1651,-1370 1651,-1370 1651,-1370 2093.32,-1370 2093.32,-1370"/>
<polygon fill="#7b8894" stroke="#7b8894" points="2093.32,-1373.5 2103.32,-1370 2093.32,-1366.5 2093.32,-1373.5"/>
</g>
<!-- 2185871d42d4410e869d64300e391b1c -->
<g id="ec2&#45;GSS" class="node">
<title>2185871d42d4410e869d64300e391b1c</title>
<image xlink:href="/usr/local/lib/python3.10/site-packages/resources/aws/compute/ec2.png" width="101px" height="101px" preserveAspectRatio="xMinYMin meet" x="1456.5" y="-1602"/>
<text text-anchor="middle" x="1507" y="-1486.6" font-family="Sans-Serif" font-size="13.00" fill="#2d3436">GSS</text>
</g>
<!-- 2185871d42d4410e869d64300e391b1c&#45;&gt;2acb399343214f3b8ff7210b537685d2 -->
<g id="edge14" class="edge">
<title>2185871d42d4410e869d64300e391b1c&#45;&gt;2acb399343214f3b8ff7210b537685d2</title>
<path fill="none" stroke="#7b8894" d="M1507,-1483C1507,-1424.58 1507,-1350 1507,-1350 1507,-1350 2093.18,-1350 2093.18,-1350"/>
<polygon fill="#7b8894" stroke="#7b8894" points="2093.18,-1353.5 2103.18,-1350 2093.18,-1346.5 2093.18,-1353.5"/>
</g>
<!-- 3f6341f12fa44b948f5b430c72ca867d -->
<g id="ec2&#45;HootSupport" class="node">
<title>3f6341f12fa44b948f5b430c72ca867d</title>
<image xlink:href="/usr/local/lib/python3.10/site-packages/resources/aws/compute/ec2.png" width="101px" height="101px" preserveAspectRatio="xMinYMin meet" x="1312.5" y="-1602"/>
<text text-anchor="middle" x="1363" y="-1486.6" font-family="Sans-Serif" font-size="13.00" fill="#2d3436">HootSupport</text>
</g>
<!-- 3f6341f12fa44b948f5b430c72ca867d&#45;&gt;2acb399343214f3b8ff7210b537685d2 -->
<g id="edge15" class="edge">
<title>3f6341f12fa44b948f5b430c72ca867d&#45;&gt;2acb399343214f3b8ff7210b537685d2</title>
<path fill="none" stroke="#7b8894" d="M1363,-1483.24C1363,-1418.48 1363,-1331 1363,-1331 1363,-1331 2093.04,-1331 2093.04,-1331"/>
<polygon fill="#7b8894" stroke="#7b8894" points="2093.04,-1334.5 2103.04,-1331 2093.04,-1327.5 2093.04,-1334.5"/>
</g>
<!-- 1aa5447c98dd46e18ddef56a082b1bec -->
<g id="ec2&#45;Push Notifications" class="node">
<title>1aa5447c98dd46e18ddef56a082b1bec</title>
<image xlink:href="/usr/local/lib/python3.10/site-packages/resources/aws/compute/ec2.png" width="101px" height="101px" preserveAspectRatio="xMinYMin meet" x="1168.5" y="-1602"/>
<text text-anchor="middle" x="1219" y="-1486.6" font-family="Sans-Serif" font-size="13.00" fill="#2d3436">Push Notifications</text>
</g>
<!-- 1aa5447c98dd46e18ddef56a082b1bec&#45;&gt;2acb399343214f3b8ff7210b537685d2 -->
<g id="edge16" class="edge">
<title>1aa5447c98dd46e18ddef56a082b1bec&#45;&gt;2acb399343214f3b8ff7210b537685d2</title>
<path fill="none" stroke="#7b8894" d="M1219,-1483.23C1219,-1412.12 1219,-1311 1219,-1311 1219,-1311 2093.16,-1311 2093.16,-1311"/>
<polygon fill="#7b8894" stroke="#7b8894" points="2093.16,-1314.5 2103.16,-1311 2093.16,-1307.5 2093.16,-1314.5"/>
</g>
<!-- e197eba8c988445888ca3b41b3e342d7 -->
<g id="ec2&#45;Crypto" class="node">
<title>e197eba8c988445888ca3b41b3e342d7</title>
<image xlink:href="/usr/local/lib/python3.10/site-packages/resources/aws/compute/ec2.png" width="101px" height="101px" preserveAspectRatio="xMinYMin meet" x="1024.5" y="-1602"/>
<text text-anchor="middle" x="1075" y="-1486.6" font-family="Sans-Serif" font-size="13.00" fill="#2d3436">Crypto</text>
</g>
<!-- e197eba8c988445888ca3b41b3e342d7&#45;&gt;2acb399343214f3b8ff7210b537685d2 -->
<g id="edge17" class="edge">
<title>e197eba8c988445888ca3b41b3e342d7&#45;&gt;2acb399343214f3b8ff7210b537685d2</title>
<path fill="none" stroke="#7b8894" d="M1091.83,-1483.34C1091.83,-1472.62 1091.83,-1465 1091.83,-1465 1091.83,-1465 2114.17,-1465 2114.17,-1465 2114.17,-1465 2114.17,-1440.26 2114.17,-1440.26"/>
<polygon fill="#7b8894" stroke="#7b8894" points="2117.67,-1440.26 2114.17,-1430.26 2110.67,-1440.26 2117.67,-1440.26"/>
</g>
<!-- 5ccc4df53cfe4a61be59df4f33707608 -->
<g id="ec2&#45;Aperture Authz" class="node">
<title>5ccc4df53cfe4a61be59df4f33707608</title>
<image xlink:href="/usr/local/lib/python3.10/site-packages/resources/aws/compute/ec2.png" width="101px" height="101px" preserveAspectRatio="xMinYMin meet" x="3328.5" y="-1602"/>
<text text-anchor="middle" x="3379" y="-1486.6" font-family="Sans-Serif" font-size="13.00" fill="#2d3436">Aperture Authz</text>
</g>
<!-- 5ccc4df53cfe4a61be59df4f33707608&#45;&gt;2acb399343214f3b8ff7210b537685d2 -->
<g id="edge18" class="edge">
<title>5ccc4df53cfe4a61be59df4f33707608&#45;&gt;2acb399343214f3b8ff7210b537685d2</title>
<path fill="none" stroke="#7b8894" d="M3379,-1483.07C3379,-1410.74 3379,-1307 3379,-1307 3379,-1307 2216.78,-1307 2216.78,-1307"/>
<polygon fill="#7b8894" stroke="#7b8894" points="2216.78,-1303.5 2206.78,-1307 2216.78,-1310.5 2216.78,-1303.5"/>
</g>
<!-- af8348bf193a4da68aab74a0cb840648 -->
<g id="ec2&#45;Amplify" class="node">
<title>af8348bf193a4da68aab74a0cb840648</title>
<image xlink:href="/usr/local/lib/python3.10/site-packages/resources/aws/compute/ec2.png" width="101px" height="101px" preserveAspectRatio="xMinYMin meet" x="3184.5" y="-1602"/>
<text text-anchor="middle" x="3235" y="-1486.6" font-family="Sans-Serif" font-size="13.00" fill="#2d3436">Amplify</text>
</g>
<!-- af8348bf193a4da68aab74a0cb840648&#45;&gt;2acb399343214f3b8ff7210b537685d2 -->
<g id="edge19" class="edge">
<title>af8348bf193a4da68aab74a0cb840648&#45;&gt;2acb399343214f3b8ff7210b537685d2</title>
<path fill="none" stroke="#7b8894" d="M3235,-1483.26C3235,-1415.61 3235,-1322 3235,-1322 3235,-1322 2216.8,-1322 2216.8,-1322"/>
<polygon fill="#7b8894" stroke="#7b8894" points="2216.8,-1318.5 2206.8,-1322 2216.8,-1325.5 2216.8,-1318.5"/>
</g>
<!-- 2f05beb6aab64e7394e6924cb7bae40a -->
<g id="skylineBridge" class="node">
<title>2f05beb6aab64e7394e6924cb7bae40a</title>
<image xlink:href="/usr/local/lib/python3.10/site-packages/resources/aws/compute/ec2.png" width="101px" height="101px" preserveAspectRatio="xMinYMin meet" x="2104.5" y="-1220"/>
<text text-anchor="middle" x="2155" y="-1104.6" font-family="Sans-Serif" font-size="13.00" fill="#2d3436">Skyline Bridge</text>
</g>
<!-- 2acb399343214f3b8ff7210b537685d2&#45;&gt;2f05beb6aab64e7394e6924cb7bae40a -->
<g id="edge20" class="edge">
<title>2acb399343214f3b8ff7210b537685d2&#45;&gt;2f05beb6aab64e7394e6924cb7bae40a</title>
<path fill="none" stroke="#7b8894" d="M2155,-1292.08C2155,-1292.08 2155,-1249.27 2155,-1249.27"/>
<polygon fill="#7b8894" stroke="#7b8894" points="2158.5,-1249.27 2155,-1239.27 2151.5,-1249.27 2158.5,-1249.27"/>
</g>
<!-- 2f05beb6aab64e7394e6924cb7bae40a&#45;&gt;88b9e6d611da4b87a8210b7b926bcd08 -->
<g id="edge21" class="edge">
<title>2f05beb6aab64e7394e6924cb7bae40a&#45;&gt;88b9e6d611da4b87a8210b7b926bcd08</title>
<path fill="none" stroke="#7b8894" d="M2155,-1101.12C2155,-1039.33 2155,-958 2155,-958 2155,-958 1136.8,-958 1136.8,-958"/>
<polygon fill="#7b8894" stroke="#7b8894" points="1136.8,-954.5 1126.8,-958 1136.8,-961.5 1136.8,-954.5"/>
</g>
<!-- dcc36069154a49a4ba06dbfcb56b7f1d -->
<g id="traefikPods" class="node">
<title>dcc36069154a49a4ba06dbfcb56b7f1d</title>
<image xlink:href="/usr/local/lib/python3.10/site-packages/resources/k8s/compute/pod.png" width="101px" height="101px" preserveAspectRatio="xMinYMin meet" x="1024.5" y="-818"/>
<text text-anchor="middle" x="1075" y="-702.6" font-family="Sans-Serif" font-size="13.00" fill="#2d3436">Traefik Pods</text>
</g>
<!-- 88b9e6d611da4b87a8210b7b926bcd08&#45;&gt;dcc36069154a49a4ba06dbfcb56b7f1d -->
<g id="edge28" class="edge">
<title>88b9e6d611da4b87a8210b7b926bcd08&#45;&gt;dcc36069154a49a4ba06dbfcb56b7f1d</title>
<path fill="none" stroke="#7b8894" d="M1075,-890.08C1075,-890.08 1075,-847.27 1075,-847.27"/>
<polygon fill="#7b8894" stroke="#7b8894" points="1078.5,-847.27 1075,-837.27 1071.5,-847.27 1078.5,-847.27"/>
</g>
<!-- 24723d85661941499ee4e002dbfc4613 -->
<g id="servicePods" class="node">
<title>24723d85661941499ee4e002dbfc4613</title>
<image xlink:href="/usr/local/lib/python3.10/site-packages/resources/k8s/compute/pod.png" width="101px" height="101px" preserveAspectRatio="xMinYMin meet" x="1024.5" y="-627"/>
<text text-anchor="middle" x="1075" y="-511.6" font-family="Sans-Serif" font-size="13.00" fill="#2d3436">More service pods... </text>
</g>
<!-- dcc36069154a49a4ba06dbfcb56b7f1d&#45;&gt;24723d85661941499ee4e002dbfc4613 -->
<g id="edge29" class="edge">
<title>dcc36069154a49a4ba06dbfcb56b7f1d&#45;&gt;24723d85661941499ee4e002dbfc4613</title>
<path fill="none" stroke="#7b8894" d="M1058.17,-699.08C1058.17,-699.08 1058.17,-656.27 1058.17,-656.27"/>
<polygon fill="#7b8894" stroke="#7b8894" points="1061.67,-656.27 1058.17,-646.27 1054.67,-656.27 1061.67,-656.27"/>
</g>
<!-- 24723d85661941499ee4e002dbfc4613&#45;&gt;24723d85661941499ee4e002dbfc4613 -->
<g id="edge31" class="edge">
<title>24723d85661941499ee4e002dbfc4613&#45;&gt;24723d85661941499ee4e002dbfc4613</title>
<path fill="none" stroke="red" stroke-dasharray="5,2" d="M1091.83,-656.4C1091.83,-656.4 1091.83,-672 1091.83,-672 1091.83,-672 1147,-672 1147,-672 1147,-672 1147,-446 1147,-446 1147,-446 1105.3,-446 1105.3,-446 1105.3,-446 1105.3,-496.68 1105.3,-496.68"/>
<polygon fill="red" stroke="red" points="1095.33,-656.4 1091.83,-646.4 1088.33,-656.4 1095.33,-656.4"/>
<polygon fill="red" stroke="red" points="1101.8,-496.68 1105.3,-506.68 1108.8,-496.68 1101.8,-496.68"/>
</g>
<!-- 64e595ee853a4f7cba0c9af94ed21b86 -->
<g id="node36" class="node">
<title>64e595ee853a4f7cba0c9af94ed21b86</title>
<image xlink:href="/usr/local/lib/python3.10/site-packages/resources/aws/storage/simple-storage-service-s3.png" width="101px" height="101px" preserveAspectRatio="xMinYMin meet" x="160.5" y="-408"/>
<text text-anchor="middle" x="211" y="-292.6" font-family="Sans-Serif" font-size="13.00" fill="#2d3436">S3</text>
</g>
<!-- 24723d85661941499ee4e002dbfc4613&#45;&gt;64e595ee853a4f7cba0c9af94ed21b86 -->
<g id="edge30" class="edge">
<title>24723d85661941499ee4e002dbfc4613&#45;&gt;64e595ee853a4f7cba0c9af94ed21b86</title>
<path fill="none" stroke="#7b8894" d="M1044.7,-508.21C1044.7,-495.96 1044.7,-487 1044.7,-487 1044.7,-487 211,-487 211,-487 211,-487 211,-437.18 211,-437.18"/>
<polygon fill="#7b8894" stroke="#7b8894" points="214.5,-437.18 211,-427.18 207.5,-437.18 214.5,-437.18"/>
</g>
<!-- 5e7ef356691b43639b36d047c363ddd0 -->
<g id="VPC Local" class="node">
<title>5e7ef356691b43639b36d047c363ddd0</title>
<image xlink:href="/usr/local/lib/python3.10/site-packages/resources/onprem/queue/kafka.png" width="101px" height="101px" preserveAspectRatio="xMinYMin meet" x="1024.5" y="-408"/>
<text text-anchor="middle" x="1075" y="-292.6" font-family="Sans-Serif" font-size="13.00" fill="#2d3436">VPC Local</text>
</g>
<!-- 24723d85661941499ee4e002dbfc4613&#45;&gt;5e7ef356691b43639b36d047c363ddd0 -->
<g id="edge32" class="edge">
<title>24723d85661941499ee4e002dbfc4613&#45;&gt;5e7ef356691b43639b36d047c363ddd0</title>
<path fill="none" stroke="#7b8894" d="M1085.1,-496.59C1085.1,-496.59 1085.1,-425.75 1085.1,-425.75"/>
<polygon fill="#7b8894" stroke="#7b8894" points="1081.6,-496.59 1085.1,-506.59 1088.6,-496.59 1081.6,-496.59"/>
</g>
<!-- 2507f205aa9b4fbcb5bb2ffdf3a23fe4 -->
<g id="Limbo Aggregate" class="node">
<title>2507f205aa9b4fbcb5bb2ffdf3a23fe4</title>
<image xlink:href="/usr/local/lib/python3.10/site-packages/resources/onprem/queue/kafka.png" width="101px" height="101px" preserveAspectRatio="xMinYMin meet" x="1024.5" y="-217"/>
<text text-anchor="middle" x="1075" y="-101.6" font-family="Sans-Serif" font-size="13.00" fill="#2d3436">Limbo Aggregate</text>
</g>
<!-- 24723d85661941499ee4e002dbfc4613&#45;&gt;2507f205aa9b4fbcb5bb2ffdf3a23fe4 -->
<g id="edge35" class="edge">
<title>24723d85661941499ee4e002dbfc4613&#45;&gt;2507f205aa9b4fbcb5bb2ffdf3a23fe4</title>
<path fill="none" stroke="#7b8894" d="M1013.04,-553C1013.04,-553 1010.17,-553 1010.17,-553 1010.17,-553 1010.17,-189 1010.17,-189 1010.17,-189 1016.19,-189 1024.56,-189"/>
<polygon fill="#7b8894" stroke="#7b8894" points="1013.04,-556.5 1023.04,-553 1013.04,-549.5 1013.04,-556.5"/>
</g>
<!-- 9f24d52710fe462fba1e110be28018b6 -->
<g id="Limbo Local" class="node">
<title>9f24d52710fe462fba1e110be28018b6</title>
<image xlink:href="/usr/local/lib/python3.10/site-packages/resources/onprem/queue/kafka.png" width="101px" height="101px" preserveAspectRatio="xMinYMin meet" x="880.5" y="-217"/>
<text text-anchor="middle" x="931" y="-101.6" font-family="Sans-Serif" font-size="13.00" fill="#2d3436">Limbo Local</text>
</g>
<!-- 24723d85661941499ee4e002dbfc4613&#45;&gt;9f24d52710fe462fba1e110be28018b6 -->
<g id="edge34" class="edge">
<title>24723d85661941499ee4e002dbfc4613&#45;&gt;9f24d52710fe462fba1e110be28018b6</title>
<path fill="none" stroke="#7b8894" d="M1013.35,-599C1013.35,-599 995.83,-599 995.83,-599 995.83,-599 995.83,-143 995.83,-143 995.83,-143 989.81,-143 981.44,-143"/>
<polygon fill="#7b8894" stroke="#7b8894" points="1013.35,-602.5 1023.35,-599 1013.35,-595.5 1013.35,-602.5"/>
</g>
<!-- 72e9d0607c2046cdaef6504254d8aa21 -->
<g id="VPC Aggregate" class="node">
<title>72e9d0607c2046cdaef6504254d8aa21</title>
<image xlink:href="/usr/local/lib/python3.10/site-packages/resources/onprem/queue/kafka.png" width="101px" height="101px" preserveAspectRatio="xMinYMin meet" x="880.5" y="-408"/>
<text text-anchor="middle" x="931" y="-292.6" font-family="Sans-Serif" font-size="13.00" fill="#2d3436">VPC Aggregate</text>
</g>
<!-- 24723d85661941499ee4e002dbfc4613&#45;&gt;72e9d0607c2046cdaef6504254d8aa21 -->
<g id="edge33" class="edge">
<title>24723d85661941499ee4e002dbfc4613&#45;&gt;72e9d0607c2046cdaef6504254d8aa21</title>
<path fill="none" stroke="#7b8894" d="M1064.9,-496.57C1064.9,-496.57 1064.9,-467 1064.9,-467 1064.9,-467 931,-467 931,-467 931,-467 931,-448.05 931,-425.91"/>
<polygon fill="#7b8894" stroke="#7b8894" points="1061.4,-496.57 1064.9,-506.57 1068.4,-496.57 1061.4,-496.57"/>
</g>
<!-- 45479c3db3fa40efb85b0e5fa2ccfaed -->
<g id="node28" class="node">
<title>45479c3db3fa40efb85b0e5fa2ccfaed</title>
<image xlink:href="/usr/local/lib/python3.10/site-packages/resources/k8s/compute/pod.png" width="101px" height="101px" preserveAspectRatio="xMinYMin meet" x="880.5" y="-627"/>
<text text-anchor="middle" x="931" y="-511.6" font-family="Sans-Serif" font-size="13.00" fill="#2d3436">Service POD</text>
</g>
<!-- bb5db36c7266420eb4948b6d0355a7cc -->
<g id="node29" class="node">
<title>bb5db36c7266420eb4948b6d0355a7cc</title>
<image xlink:href="/usr/local/lib/python3.10/site-packages/resources/k8s/compute/pod.png" width="101px" height="101px" preserveAspectRatio="xMinYMin meet" x="736.5" y="-627"/>
<text text-anchor="middle" x="787" y="-511.6" font-family="Sans-Serif" font-size="13.00" fill="#2d3436">Service POD</text>
</g>
<!-- 164cfe2c1299437ebb6dcfc6935a455c -->
<g id="node30" class="node">
<title>164cfe2c1299437ebb6dcfc6935a455c</title>
<image xlink:href="/usr/local/lib/python3.10/site-packages/resources/k8s/compute/pod.png" width="101px" height="101px" preserveAspectRatio="xMinYMin meet" x="592.5" y="-627"/>
<text text-anchor="middle" x="643" y="-511.6" font-family="Sans-Serif" font-size="13.00" fill="#2d3436">Service POD</text>
</g>
<!-- 2dc8f33d4c3840eda1ea7567e213b1e7 -->
<g id="node31" class="node">
<title>2dc8f33d4c3840eda1ea7567e213b1e7</title>
<image xlink:href="/usr/local/lib/python3.10/site-packages/resources/k8s/compute/pod.png" width="101px" height="101px" preserveAspectRatio="xMinYMin meet" x="448.5" y="-627"/>
<text text-anchor="middle" x="499" y="-511.6" font-family="Sans-Serif" font-size="13.00" fill="#2d3436">Service POD</text>
</g>
<!-- b9b6c9440c6b4813813877763eb87bfd -->
<g id="node32" class="node">
<title>b9b6c9440c6b4813813877763eb87bfd</title>
<image xlink:href="/usr/local/lib/python3.10/site-packages/resources/aws/database/rds.png" width="101px" height="101px" preserveAspectRatio="xMinYMin meet" x="736.5" y="-408"/>
<text text-anchor="middle" x="787" y="-292.6" font-family="Sans-Serif" font-size="13.00" fill="#2d3436">RDS</text>
</g>
<!-- 8a249120c4ae4d5d9b48931ba074b6c0 -->
<g id="node33" class="node">
<title>8a249120c4ae4d5d9b48931ba074b6c0</title>
<image xlink:href="/usr/local/lib/python3.10/site-packages/resources/aws/database/aurora.png" width="101px" height="101px" preserveAspectRatio="xMinYMin meet" x="592.5" y="-408"/>
<text text-anchor="middle" x="643" y="-292.6" font-family="Sans-Serif" font-size="13.00" fill="#2d3436">Aurora</text>
</g>
<!-- bbbdea50953148c79578f1a61b7575f0 -->
<g id="node34" class="node">
<title>bbbdea50953148c79578f1a61b7575f0</title>
<image xlink:href="/usr/local/lib/python3.10/site-packages/resources/aws/database/elasticache-for-memcached.png" width="101px" height="101px" preserveAspectRatio="xMinYMin meet" x="448.5" y="-408"/>
<text text-anchor="middle" x="499" y="-292.6" font-family="Sans-Serif" font-size="13.00" fill="#2d3436">Memcached</text>
</g>
<!-- 3c2c1215a43e44a585c024ba8392dcdf -->
<g id="node35" class="node">
<title>3c2c1215a43e44a585c024ba8392dcdf</title>
<image xlink:href="/usr/local/lib/python3.10/site-packages/resources/aws/database/elasticache-for-redis.png" width="101px" height="101px" preserveAspectRatio="xMinYMin meet" x="304.5" y="-408"/>
<text text-anchor="middle" x="355" y="-292.6" font-family="Sans-Serif" font-size="13.00" fill="#2d3436">Redis</text>
</g>
<!-- 9a55a0c2fb094623b32e8d77a44401fd -->
<g id="node37" class="node">
<title>9a55a0c2fb094623b32e8d77a44401fd</title>
<image xlink:href="/usr/local/lib/python3.10/site-packages/resources/aws/compute/ec2.png" width="101px" height="101px" preserveAspectRatio="xMinYMin meet" x="16.5" y="-408"/>
<text text-anchor="middle" x="67" y="-292.6" font-family="Sans-Serif" font-size="13.00" fill="#2d3436">Mongo</text>
</g>
<!-- 5e7ef356691b43639b36d047c363ddd0&#45;&gt;2507f205aa9b4fbcb5bb2ffdf3a23fe4 -->
<g id="edge1" class="edge">
<title>5e7ef356691b43639b36d047c363ddd0&#45;&gt;2507f205aa9b4fbcb5bb2ffdf3a23fe4</title>
<path fill="none" stroke="#7b8894" d="M1075,-289.08C1075,-289.08 1075,-246.27 1075,-246.27"/>
<polygon fill="#7b8894" stroke="#7b8894" points="1078.5,-246.27 1075,-236.27 1071.5,-246.27 1078.5,-246.27"/>
</g>
<!-- 9f24d52710fe462fba1e110be28018b6&#45;&gt;72e9d0607c2046cdaef6504254d8aa21 -->
<g id="edge2" class="edge">
<title>9f24d52710fe462fba1e110be28018b6&#45;&gt;72e9d0607c2046cdaef6504254d8aa21</title>
<path fill="none" stroke="#7b8894" d="M931,-234.92C931,-234.92 931,-277.73 931,-277.73"/>
<polygon fill="#7b8894" stroke="#7b8894" points="927.5,-277.73 931,-287.73 934.5,-277.73 927.5,-277.73"/>
</g>
</g>
</svg>
