<?xml version="1.0" encoding="UTF-8" standalone="no"?>
<!DOCTYPE svg PUBLIC "-//W3C//DTD SVG 1.1//EN"
 "http://www.w3.org/Graphics/SVG/1.1/DTD/svg11.dtd">
<!-- Generated by graphviz version 7.0.0 (20221023.0053)
 -->
<!-- Title: Hootsuite 2019 Pages: 1 -->
<svg width="3598pt" height="1747pt"
 viewBox="0.00 0.00 3598.00 1747.00" xmlns="http://www.w3.org/2000/svg" xmlns:xlink="http://www.w3.org/1999/xlink">
<g id="graph0" class="graph" transform="scale(1 1) rotate(0) translate(144 1603)">
<title>Hootsuite 2019</title>
<text text-anchor="middle" x="1655" y="-22" font-family="Sans-Serif" font-size="60.00" fill="#2d3436">Hootsuite 2019</text>
<g id="clust1" class="cluster">
<title>cluster_Edge</title>
<path fill="#e5f5fd" stroke="#aeb6be" d="M452,-1248C452,-1248 546,-1248 546,-1248 552,-1248 558,-1254 558,-1260 558,-1260 558,-1410 558,-1410 558,-1416 552,-1422 546,-1422 546,-1422 452,-1422 452,-1422 446,-1422 440,-1416 440,-1410 440,-1410 440,-1260 440,-1260 440,-1254 446,-1248 452,-1248"/>
<text text-anchor="middle" x="462.5" y="-1408.4" font-family="Sans-Serif" font-size="12.00" fill="#2d3436">Edge</text>
</g>
<g id="clust4" class="cluster">
<title>cluster_EC2 Services</title>
<path fill="#e5f5fd" stroke="#aeb6be" d="M596,-1248C596,-1248 2994,-1248 2994,-1248 3000,-1248 3006,-1254 3006,-1260 3006,-1260 3006,-1410 3006,-1410 3006,-1416 3000,-1422 2994,-1422 2994,-1422 596,-1422 596,-1422 590,-1422 584,-1416 584,-1410 584,-1410 584,-1260 584,-1260 584,-1254 590,-1248 596,-1248"/>
<text text-anchor="middle" x="629" y="-1408.4" font-family="Sans-Serif" font-size="12.00" fill="#2d3436">EC2 Services</text>
</g>
<g id="clust2" class="cluster">
<title>cluster_Auth Facade</title>
<path fill="#e5f5fd" stroke="#aeb6be" d="M452,-866C452,-866 546,-866 546,-866 552,-866 558,-872 558,-878 558,-878 558,-1219 558,-1219 558,-1225 552,-1231 546,-1231 546,-1231 452,-1231 452,-1231 446,-1231 440,-1225 440,-1219 440,-1219 440,-878 440,-878 440,-872 446,-866 452,-866"/>
<text text-anchor="middle" x="482.5" y="-1217.4" font-family="Sans-Serif" font-size="12.00" fill="#2d3436">Auth Facade</text>
</g>
<g id="clust3" class="cluster">
<title>cluster_Aperture</title>
<path fill="#e5f5fd" stroke="#aeb6be" d="M596,-866C596,-866 690,-866 690,-866 696,-866 702,-872 702,-878 702,-878 702,-1219 702,-1219 702,-1225 696,-1231 690,-1231 690,-1231 596,-1231 596,-1231 590,-1231 584,-1225 584,-1219 584,-1219 584,-878 584,-878 584,-872 590,-866 596,-866"/>
<text text-anchor="middle" x="615" y="-1217.4" font-family="Sans-Serif" font-size="12.00" fill="#2d3436">Aperture</text>
</g>
<g id="clust5" class="cluster">
<title>cluster_Skyline</title>
<path fill="#e5f5fd" stroke="#aeb6be" d="M1676,-866C1676,-866 1770,-866 1770,-866 1776,-866 1782,-872 1782,-878 1782,-878 1782,-1219 1782,-1219 1782,-1225 1776,-1231 1770,-1231 1770,-1231 1676,-1231 1676,-1231 1670,-1231 1664,-1225 1664,-1219 1664,-1219 1664,-878 1664,-878 1664,-872 1670,-866 1676,-866"/>
<text text-anchor="middle" x="1692" y="-1217.4" font-family="Sans-Serif" font-size="12.00" fill="#2d3436">Skyline</text>
</g>
<g id="clust6" class="cluster">
<title>cluster_Kubernetes Cluster</title>
<path fill="#e5f5fd" stroke="#aeb6be" d="M588,-265C588,-265 1274,-265 1274,-265 1280,-265 1286,-271 1286,-277 1286,-277 1286,-846 1286,-846 1286,-852 1280,-858 1274,-858 1274,-858 588,-858 588,-858 582,-858 576,-852 576,-846 576,-846 576,-277 576,-277 576,-271 582,-265 588,-265"/>
<text text-anchor="middle" x="635.5" y="-844.4" font-family="Sans-Serif" font-size="12.00" fill="#2d3436">Kubernetes Cluster</text>
</g>
<g id="clust7" class="cluster">
<title>cluster_Ingress Nodes</title>
<path fill="#ebf3e7" stroke="#aeb6be" d="M596,-464C596,-464 690,-464 690,-464 696,-464 702,-470 702,-476 702,-476 702,-817 702,-817 702,-823 696,-829 690,-829 690,-829 596,-829 596,-829 590,-829 584,-823 584,-817 584,-817 584,-476 584,-476 584,-470 590,-464 596,-464"/>
<text text-anchor="middle" x="631" y="-815.4" font-family="Sans-Serif" font-size="12.00" fill="#2d3436">Ingress Nodes</text>
</g>
<g id="clust8" class="cluster">
<title>cluster_Worker Nodes</title>
<path fill="#ebf3e7" stroke="#aeb6be" d="M596,-273C596,-273 1266,-273 1266,-273 1272,-273 1278,-279 1278,-285 1278,-285 1278,-435 1278,-435 1278,-441 1272,-447 1266,-447 1266,-447 596,-447 596,-447 590,-447 584,-441 584,-435 584,-435 584,-285 584,-285 584,-279 590,-273 596,-273"/>
<text text-anchor="middle" x="630.5" y="-433.4" font-family="Sans-Serif" font-size="12.00" fill="#2d3436">Worker Nodes</text>
</g>
<g id="clust9" class="cluster">
<title>cluster_Data Storage</title>
<path fill="#e5f5fd" stroke="#aeb6be" d="M20,-82C20,-82 690,-82 690,-82 696,-82 702,-88 702,-94 702,-94 702,-244 702,-244 702,-250 696,-256 690,-256 690,-256 20,-256 20,-256 14,-256 8,-250 8,-244 8,-244 8,-94 8,-94 8,-88 14,-82 20,-82"/>
<text text-anchor="middle" x="51.5" y="-242.4" font-family="Sans-Serif" font-size="12.00" fill="#2d3436">Data Storage</text>
</g>
<g id="clust10" class="cluster">
<title>cluster_Event Bus (Kafka)</title>
<path fill="#e5f5fd" stroke="#aeb6be" d="M3036,-1049C3036,-1049 3290,-1049 3290,-1049 3296,-1049 3302,-1055 3302,-1061 3302,-1061 3302,-1439 3302,-1439 3302,-1445 3296,-1451 3290,-1451 3290,-1451 3036,-1451 3036,-1451 3030,-1451 3024,-1445 3024,-1439 3024,-1439 3024,-1061 3024,-1061 3024,-1055 3030,-1049 3036,-1049"/>
<text text-anchor="middle" x="3080.5" y="-1437.4" font-family="Sans-Serif" font-size="12.00" fill="#2d3436">Event Bus (Kafka)</text>
</g>
<g id="clust11" class="cluster">
<title>cluster_VPC</title>
<path fill="#ebf3e7" stroke="#aeb6be" d="M3044,-1248C3044,-1248 3282,-1248 3282,-1248 3288,-1248 3294,-1254 3294,-1260 3294,-1260 3294,-1410 3294,-1410 3294,-1416 3288,-1422 3282,-1422 3282,-1422 3044,-1422 3044,-1422 3038,-1422 3032,-1416 3032,-1410 3032,-1410 3032,-1260 3032,-1260 3032,-1254 3038,-1248 3044,-1248"/>
<text text-anchor="middle" x="3053" y="-1408.4" font-family="Sans-Serif" font-size="12.00" fill="#2d3436">VPC</text>
</g>
<g id="clust12" class="cluster">
<title>cluster_EC2 Classic aka Limbo</title>
<path fill="#ebf3e7" stroke="#aeb6be" d="M3044,-1057C3044,-1057 3282,-1057 3282,-1057 3288,-1057 3294,-1063 3294,-1069 3294,-1069 3294,-1219 3294,-1219 3294,-1225 3288,-1231 3282,-1231 3282,-1231 3044,-1231 3044,-1231 3038,-1231 3032,-1225 3032,-1219 3032,-1219 3032,-1069 3032,-1069 3032,-1063 3038,-1057 3044,-1057"/>
<text text-anchor="middle" x="3103" y="-1217.4" font-family="Sans-Serif" font-size="12.00" fill="#2d3436">EC2 Classic aka Limbo</text>
</g>
<!-- 96ad13126a1540f48a1a96e2e1a0b5eb -->
<g id="node1" class="node">
<title>96ad13126a1540f48a1a96e2e1a0b5eb</title>
<image xlink:href="/usr/local/lib/python3.10/site-packages/resources/aws/network/route-53.png" width="101px" height="101px" preserveAspectRatio="xMinYMin meet" x="448.5" y="-1375"/>
<text text-anchor="middle" x="499" y="-1259.6" font-family="Sans-Serif" font-size="13.00" fill="#2d3436">dns</text>
</g>
<!-- 8937eed98aac4f019166b8298782427c -->
<g id="node3" class="node">
<title>8937eed98aac4f019166b8298782427c</title>
<image xlink:href="/usr/local/lib/python3.10/site-packages/resources/aws/network/elb-application-load-balancer.png" width="101px" height="101px" preserveAspectRatio="xMinYMin meet" x="448.5" y="-1184"/>
<text text-anchor="middle" x="499" y="-1068.6" font-family="Sans-Serif" font-size="13.00" fill="#2d3436">Auth Facade ALB</text>
</g>
<!-- 96ad13126a1540f48a1a96e2e1a0b5eb&#45;&gt;8937eed98aac4f019166b8298782427c -->
<g id="edge25" class="edge">
<title>96ad13126a1540f48a1a96e2e1a0b5eb&#45;&gt;8937eed98aac4f019166b8298782427c</title>
<path fill="none" stroke="#7b8894" d="M482.17,-1256.08C482.17,-1256.08 482.17,-1213.27 482.17,-1213.27"/>
<polygon fill="#7b8894" stroke="#7b8894" points="485.67,-1213.27 482.17,-1203.27 478.67,-1213.27 485.67,-1213.27"/>
</g>
<!-- 51b17c1293244cb8b58359090e5bb50c -->
<g id="apertureNLB" class="node">
<title>51b17c1293244cb8b58359090e5bb50c</title>
<image xlink:href="/usr/local/lib/python3.10/site-packages/resources/aws/network/elb-network-load-balancer.png" width="101px" height="101px" preserveAspectRatio="xMinYMin meet" x="592.5" y="-1184"/>
<text text-anchor="middle" x="643" y="-1068.6" font-family="Sans-Serif" font-size="13.00" fill="#2d3436">Aperture NLB</text>
</g>
<!-- 96ad13126a1540f48a1a96e2e1a0b5eb&#45;&gt;51b17c1293244cb8b58359090e5bb50c -->
<g id="edge22" class="edge">
<title>96ad13126a1540f48a1a96e2e1a0b5eb&#45;&gt;51b17c1293244cb8b58359090e5bb50c</title>
<path fill="none" stroke="#7b8894" d="M515.83,-1256.26C515.83,-1236.43 515.83,-1220 515.83,-1220 515.83,-1220 626.17,-1220 626.17,-1220 626.17,-1220 626.17,-1213.17 626.17,-1213.17"/>
<polygon fill="#7b8894" stroke="#7b8894" points="629.67,-1213.17 626.17,-1203.17 622.67,-1213.17 629.67,-1213.17"/>
</g>
<!-- 7963e35bab7a41c6934c106212a58be7 -->
<g id="node2" class="node">
<title>7963e35bab7a41c6934c106212a58be7</title>
<image xlink:href="/usr/local/lib/python3.10/site-packages/resources/aws/compute/application-auto-scaling.png" width="101px" height="101px" preserveAspectRatio="xMinYMin meet" x="448.5" y="-993"/>
<text text-anchor="middle" x="499" y="-877.6" font-family="Sans-Serif" font-size="13.00" fill="#2d3436">Auth Facade</text>
</g>
<!-- d43f8243de404cc6ba41edb3a472f585 -->
<g id="node25" class="node">
<title>d43f8243de404cc6ba41edb3a472f585</title>
<image xlink:href="/usr/local/lib/python3.10/site-packages/resources/aws/network/elb-network-load-balancer.png" width="101px" height="101px" preserveAspectRatio="xMinYMin meet" x="592.5" y="-782"/>
<text text-anchor="middle" x="643" y="-666.6" font-family="Sans-Serif" font-size="13.00" fill="#2d3436">Ingress LB</text>
</g>
<!-- 7963e35bab7a41c6934c106212a58be7&#45;&gt;d43f8243de404cc6ba41edb3a472f585 -->
<g id="edge27" class="edge">
<title>7963e35bab7a41c6934c106212a58be7&#45;&gt;d43f8243de404cc6ba41edb3a472f585</title>
<path fill="none" stroke="#7b8894" d="M499,-874.12C499,-812.33 499,-731 499,-731 499,-731 581.12,-731 581.12,-731"/>
<polygon fill="#7b8894" stroke="#7b8894" points="581.12,-734.5 591.12,-731 581.12,-727.5 581.12,-734.5"/>
</g>
<!-- 8937eed98aac4f019166b8298782427c&#45;&gt;7963e35bab7a41c6934c106212a58be7 -->
<g id="edge26" class="edge">
<title>8937eed98aac4f019166b8298782427c&#45;&gt;7963e35bab7a41c6934c106212a58be7</title>
<path fill="none" stroke="#7b8894" d="M499,-1065.08C499,-1065.08 499,-1022.27 499,-1022.27"/>
<polygon fill="#7b8894" stroke="#7b8894" points="502.5,-1022.27 499,-1012.27 495.5,-1022.27 502.5,-1022.27"/>
</g>
<!-- 4b173d8b867a452aaa02d6655f0ca2a0 -->
<g id="traefik" class="node">
<title>4b173d8b867a452aaa02d6655f0ca2a0</title>
<image xlink:href="/usr/local/lib/python3.10/site-packages/resources/aws/compute/application-auto-scaling.png" width="101px" height="101px" preserveAspectRatio="xMinYMin meet" x="592.5" y="-993"/>
<text text-anchor="middle" x="643" y="-877.6" font-family="Sans-Serif" font-size="13.00" fill="#2d3436">Aperture Traefik</text>
</g>
<!-- 51b17c1293244cb8b58359090e5bb50c&#45;&gt;4b173d8b867a452aaa02d6655f0ca2a0 -->
<g id="edge23" class="edge">
<title>51b17c1293244cb8b58359090e5bb50c&#45;&gt;4b173d8b867a452aaa02d6655f0ca2a0</title>
<path fill="none" stroke="#7b8894" d="M643,-1065.08C643,-1065.08 643,-1022.27 643,-1022.27"/>
<polygon fill="#7b8894" stroke="#7b8894" points="646.5,-1022.27 643,-1012.27 639.5,-1022.27 646.5,-1022.27"/>
</g>
<!-- 4b173d8b867a452aaa02d6655f0ca2a0&#45;&gt;d43f8243de404cc6ba41edb3a472f585 -->
<g id="edge24" class="edge">
<title>4b173d8b867a452aaa02d6655f0ca2a0&#45;&gt;d43f8243de404cc6ba41edb3a472f585</title>
<path fill="none" stroke="#7b8894" d="M643,-874.29C643,-874.29 643,-811.35 643,-811.35"/>
<polygon fill="#7b8894" stroke="#7b8894" points="646.5,-811.35 643,-801.35 639.5,-811.35 646.5,-811.35"/>
</g>
<!-- 9bea863afb1d4073a558f5c8a02f7da5 -->
<g id="ec2&#45;Dashboard&#45;Web" class="node">
<title>9bea863afb1d4073a558f5c8a02f7da5</title>
<image xlink:href="/usr/local/lib/python3.10/site-packages/resources/aws/compute/ec2.png" width="101px" height="101px" preserveAspectRatio="xMinYMin meet" x="2896.5" y="-1375"/>
<text text-anchor="middle" x="2947" y="-1259.6" font-family="Sans-Serif" font-size="13.00" fill="#2d3436">Dashboard&#45;Web</text>
</g>
<!-- 0fb1071759024f0297f026092d0b8b4e -->
<g id="skylineLB" class="node">
<title>0fb1071759024f0297f026092d0b8b4e</title>
<image xlink:href="/usr/local/lib/python3.10/site-packages/resources/aws/network/elb-application-load-balancer.png" width="101px" height="101px" preserveAspectRatio="xMinYMin meet" x="1672.5" y="-1184"/>
<text text-anchor="middle" x="1723" y="-1068.6" font-family="Sans-Serif" font-size="13.00" fill="#2d3436">Skyline ALB</text>
</g>
<!-- 9bea863afb1d4073a558f5c8a02f7da5&#45;&gt;0fb1071759024f0297f026092d0b8b4e -->
<g id="edge3" class="edge">
<title>9bea863afb1d4073a558f5c8a02f7da5&#45;&gt;0fb1071759024f0297f026092d0b8b4e</title>
<path fill="none" stroke="#7b8894" d="M2947,-1256.07C2947,-1183.74 2947,-1080 2947,-1080 2947,-1080 1784.78,-1080 1784.78,-1080"/>
<polygon fill="#7b8894" stroke="#7b8894" points="1784.78,-1076.5 1774.78,-1080 1784.78,-1083.5 1784.78,-1076.5"/>
</g>
<!-- af575ccf3ec24a8ba159627ca2273ff6 -->
<g id="ec2&#45;Dashboard&#45;Gear" class="node">
<title>af575ccf3ec24a8ba159627ca2273ff6</title>
<image xlink:href="/usr/local/lib/python3.10/site-packages/resources/aws/compute/ec2.png" width="101px" height="101px" preserveAspectRatio="xMinYMin meet" x="2752.5" y="-1375"/>
<text text-anchor="middle" x="2803" y="-1259.6" font-family="Sans-Serif" font-size="13.00" fill="#2d3436">Dashboard&#45;Gear</text>
</g>
<!-- af575ccf3ec24a8ba159627ca2273ff6&#45;&gt;0fb1071759024f0297f026092d0b8b4e -->
<g id="edge4" class="edge">
<title>af575ccf3ec24a8ba159627ca2273ff6&#45;&gt;0fb1071759024f0297f026092d0b8b4e</title>
<path fill="none" stroke="#7b8894" d="M2803,-1256.26C2803,-1188.61 2803,-1095 2803,-1095 2803,-1095 1784.8,-1095 1784.8,-1095"/>
<polygon fill="#7b8894" stroke="#7b8894" points="1784.8,-1091.5 1774.8,-1095 1784.8,-1098.5 1784.8,-1091.5"/>
</g>
<!-- 22543b48f5284a75a8c69e8bbe6cec29 -->
<g id="ec2&#45;Dashboard&#45;Cron" class="node">
<title>22543b48f5284a75a8c69e8bbe6cec29</title>
<image xlink:href="/usr/local/lib/python3.10/site-packages/resources/aws/compute/ec2.png" width="101px" height="101px" preserveAspectRatio="xMinYMin meet" x="2608.5" y="-1375"/>
<text text-anchor="middle" x="2659" y="-1259.6" font-family="Sans-Serif" font-size="13.00" fill="#2d3436">Dashboard&#45;Cron</text>
</g>
<!-- 22543b48f5284a75a8c69e8bbe6cec29&#45;&gt;0fb1071759024f0297f026092d0b8b4e -->
<g id="edge5" class="edge">
<title>22543b48f5284a75a8c69e8bbe6cec29&#45;&gt;0fb1071759024f0297f026092d0b8b4e</title>
<path fill="none" stroke="#7b8894" d="M2659,-1256.04C2659,-1193.27 2659,-1110 2659,-1110 2659,-1110 1784.84,-1110 1784.84,-1110"/>
<polygon fill="#7b8894" stroke="#7b8894" points="1784.84,-1106.5 1774.84,-1110 1784.84,-1113.5 1784.84,-1106.5"/>
</g>
<!-- 6b860ed5e1f9425d9617dba7cbcc65d7 -->
<g id="ec2&#45;Member" class="node">
<title>6b860ed5e1f9425d9617dba7cbcc65d7</title>
<image xlink:href="/usr/local/lib/python3.10/site-packages/resources/aws/compute/ec2.png" width="101px" height="101px" preserveAspectRatio="xMinYMin meet" x="2464.5" y="-1375"/>
<text text-anchor="middle" x="2515" y="-1259.6" font-family="Sans-Serif" font-size="13.00" fill="#2d3436">Member</text>
</g>
<!-- 6b860ed5e1f9425d9617dba7cbcc65d7&#45;&gt;0fb1071759024f0297f026092d0b8b4e -->
<g id="edge6" class="edge">
<title>6b860ed5e1f9425d9617dba7cbcc65d7&#45;&gt;0fb1071759024f0297f026092d0b8b4e</title>
<path fill="none" stroke="#7b8894" d="M2515,-1256.12C2515,-1198.37 2515,-1125 2515,-1125 2515,-1125 1784.96,-1125 1784.96,-1125"/>
<polygon fill="#7b8894" stroke="#7b8894" points="1784.96,-1121.5 1774.96,-1125 1784.96,-1128.5 1784.96,-1121.5"/>
</g>
<!-- 1d4944dca99940a28e7cdc47019fc1dc -->
<g id="ec2&#45;SCUM" class="node">
<title>1d4944dca99940a28e7cdc47019fc1dc</title>
<image xlink:href="/usr/local/lib/python3.10/site-packages/resources/aws/compute/ec2.png" width="101px" height="101px" preserveAspectRatio="xMinYMin meet" x="2320.5" y="-1375"/>
<text text-anchor="middle" x="2371" y="-1259.6" font-family="Sans-Serif" font-size="13.00" fill="#2d3436">SCUM</text>
</g>
<!-- 1d4944dca99940a28e7cdc47019fc1dc&#45;&gt;0fb1071759024f0297f026092d0b8b4e -->
<g id="edge7" class="edge">
<title>1d4944dca99940a28e7cdc47019fc1dc&#45;&gt;0fb1071759024f0297f026092d0b8b4e</title>
<path fill="none" stroke="#7b8894" d="M2371,-1256.17C2371,-1204 2371,-1141 2371,-1141 2371,-1141 1784.82,-1141 1784.82,-1141"/>
<polygon fill="#7b8894" stroke="#7b8894" points="1784.82,-1137.5 1774.82,-1141 1784.82,-1144.5 1784.82,-1137.5"/>
</g>
<!-- 816b664a656c46b797da4d04b4b23f05 -->
<g id="ec2&#45;Billing" class="node">
<title>816b664a656c46b797da4d04b4b23f05</title>
<image xlink:href="/usr/local/lib/python3.10/site-packages/resources/aws/compute/ec2.png" width="101px" height="101px" preserveAspectRatio="xMinYMin meet" x="2176.5" y="-1375"/>
<text text-anchor="middle" x="2227" y="-1259.6" font-family="Sans-Serif" font-size="13.00" fill="#2d3436">Billing</text>
</g>
<!-- 816b664a656c46b797da4d04b4b23f05&#45;&gt;0fb1071759024f0297f026092d0b8b4e -->
<g id="edge8" class="edge">
<title>816b664a656c46b797da4d04b4b23f05&#45;&gt;0fb1071759024f0297f026092d0b8b4e</title>
<path fill="none" stroke="#7b8894" d="M2227,-1256.45C2227,-1209.69 2227,-1156 2227,-1156 2227,-1156 1784.68,-1156 1784.68,-1156"/>
<polygon fill="#7b8894" stroke="#7b8894" points="1784.68,-1152.5 1774.68,-1156 1784.68,-1159.5 1784.68,-1152.5"/>
</g>
<!-- 8b0d08deb65046c1bc19371579e794e3 -->
<g id="ec2&#45;Message Achieve" class="node">
<title>8b0d08deb65046c1bc19371579e794e3</title>
<image xlink:href="/usr/local/lib/python3.10/site-packages/resources/aws/compute/ec2.png" width="101px" height="101px" preserveAspectRatio="xMinYMin meet" x="2032.5" y="-1375"/>
<text text-anchor="middle" x="2083" y="-1259.6" font-family="Sans-Serif" font-size="13.00" fill="#2d3436">Message Achieve</text>
</g>
<!-- 8b0d08deb65046c1bc19371579e794e3&#45;&gt;0fb1071759024f0297f026092d0b8b4e -->
<g id="edge9" class="edge">
<title>8b0d08deb65046c1bc19371579e794e3&#45;&gt;0fb1071759024f0297f026092d0b8b4e</title>
<path fill="none" stroke="#7b8894" d="M2083,-1256.28C2083,-1215.28 2083,-1171 2083,-1171 2083,-1171 1784.95,-1171 1784.95,-1171"/>
<polygon fill="#7b8894" stroke="#7b8894" points="1784.95,-1167.5 1774.95,-1171 1784.95,-1174.5 1784.95,-1167.5"/>
</g>
<!-- a85b20b6ce63458cb64a9d4d93864064 -->
<g id="ec2&#45;Message Review" class="node">
<title>a85b20b6ce63458cb64a9d4d93864064</title>
<image xlink:href="/usr/local/lib/python3.10/site-packages/resources/aws/compute/ec2.png" width="101px" height="101px" preserveAspectRatio="xMinYMin meet" x="1888.5" y="-1375"/>
<text text-anchor="middle" x="1939" y="-1259.6" font-family="Sans-Serif" font-size="13.00" fill="#2d3436">Message Review</text>
</g>
<!-- a85b20b6ce63458cb64a9d4d93864064&#45;&gt;0fb1071759024f0297f026092d0b8b4e -->
<g id="edge10" class="edge">
<title>a85b20b6ce63458cb64a9d4d93864064&#45;&gt;0fb1071759024f0297f026092d0b8b4e</title>
<path fill="none" stroke="#7b8894" d="M1939,-1256.06C1939,-1221.17 1939,-1186 1939,-1186 1939,-1186 1784.88,-1186 1784.88,-1186"/>
<polygon fill="#7b8894" stroke="#7b8894" points="1784.88,-1182.5 1774.88,-1186 1784.88,-1189.5 1784.88,-1182.5"/>
</g>
<!-- f1f173daba584366a9afc845642641b7 -->
<g id="ec2&#45;Scheduled Data" class="node">
<title>f1f173daba584366a9afc845642641b7</title>
<image xlink:href="/usr/local/lib/python3.10/site-packages/resources/aws/compute/ec2.png" width="101px" height="101px" preserveAspectRatio="xMinYMin meet" x="1744.5" y="-1375"/>
<text text-anchor="middle" x="1795" y="-1259.6" font-family="Sans-Serif" font-size="13.00" fill="#2d3436">Scheduled Data</text>
</g>
<!-- f1f173daba584366a9afc845642641b7&#45;&gt;0fb1071759024f0297f026092d0b8b4e -->
<g id="edge11" class="edge">
<title>f1f173daba584366a9afc845642641b7&#45;&gt;0fb1071759024f0297f026092d0b8b4e</title>
<path fill="none" stroke="#7b8894" d="M1759,-1256.08C1759,-1256.08 1759,-1213.27 1759,-1213.27"/>
<polygon fill="#7b8894" stroke="#7b8894" points="1762.5,-1213.27 1759,-1203.27 1755.5,-1213.27 1762.5,-1213.27"/>
</g>
<!-- 5bf7edfc052e4115b042f97bf450a5f3 -->
<g id="ec2&#45;Core" class="node">
<title>5bf7edfc052e4115b042f97bf450a5f3</title>
<image xlink:href="/usr/local/lib/python3.10/site-packages/resources/aws/compute/ec2.png" width="101px" height="101px" preserveAspectRatio="xMinYMin meet" x="1600.5" y="-1375"/>
<text text-anchor="middle" x="1651" y="-1259.6" font-family="Sans-Serif" font-size="13.00" fill="#2d3436">Core</text>
</g>
<!-- 5bf7edfc052e4115b042f97bf450a5f3&#45;&gt;0fb1071759024f0297f026092d0b8b4e -->
<g id="edge12" class="edge">
<title>5bf7edfc052e4115b042f97bf450a5f3&#45;&gt;0fb1071759024f0297f026092d0b8b4e</title>
<path fill="none" stroke="#7b8894" d="M1691.83,-1256.08C1691.83,-1256.08 1691.83,-1213.27 1691.83,-1213.27"/>
<polygon fill="#7b8894" stroke="#7b8894" points="1695.33,-1213.27 1691.83,-1203.27 1688.33,-1213.27 1695.33,-1213.27"/>
</g>
<!-- 22b0ae65238645858d52cc9ef9c84b8d -->
<g id="ec2&#45;TOPS" class="node">
<title>22b0ae65238645858d52cc9ef9c84b8d</title>
<image xlink:href="/usr/local/lib/python3.10/site-packages/resources/aws/compute/ec2.png" width="101px" height="101px" preserveAspectRatio="xMinYMin meet" x="1456.5" y="-1375"/>
<text text-anchor="middle" x="1507" y="-1259.6" font-family="Sans-Serif" font-size="13.00" fill="#2d3436">TOPS</text>
</g>
<!-- 22b0ae65238645858d52cc9ef9c84b8d&#45;&gt;0fb1071759024f0297f026092d0b8b4e -->
<g id="edge13" class="edge">
<title>22b0ae65238645858d52cc9ef9c84b8d&#45;&gt;0fb1071759024f0297f026092d0b8b4e</title>
<path fill="none" stroke="#7b8894" d="M1507,-1256.17C1507,-1219.6 1507,-1182 1507,-1182 1507,-1182 1661.12,-1182 1661.12,-1182"/>
<polygon fill="#7b8894" stroke="#7b8894" points="1661.12,-1185.5 1671.12,-1182 1661.12,-1178.5 1661.12,-1185.5"/>
</g>
<!-- a81799959639493aab3dade336b187a0 -->
<g id="ec2&#45;GSS" class="node">
<title>a81799959639493aab3dade336b187a0</title>
<image xlink:href="/usr/local/lib/python3.10/site-packages/resources/aws/compute/ec2.png" width="101px" height="101px" preserveAspectRatio="xMinYMin meet" x="1312.5" y="-1375"/>
<text text-anchor="middle" x="1363" y="-1259.6" font-family="Sans-Serif" font-size="13.00" fill="#2d3436">GSS</text>
</g>
<!-- a81799959639493aab3dade336b187a0&#45;&gt;0fb1071759024f0297f026092d0b8b4e -->
<g id="edge14" class="edge">
<title>a81799959639493aab3dade336b187a0&#45;&gt;0fb1071759024f0297f026092d0b8b4e</title>
<path fill="none" stroke="#7b8894" d="M1363,-1256.06C1363,-1211.65 1363,-1162 1363,-1162 1363,-1162 1661.05,-1162 1661.05,-1162"/>
<polygon fill="#7b8894" stroke="#7b8894" points="1661.05,-1165.5 1671.05,-1162 1661.05,-1158.5 1661.05,-1165.5"/>
</g>
<!-- 0bea80e2f2b34da7bfd85a554b694f36 -->
<g id="ec2&#45;HootSupport" class="node">
<title>0bea80e2f2b34da7bfd85a554b694f36</title>
<image xlink:href="/usr/local/lib/python3.10/site-packages/resources/aws/compute/ec2.png" width="101px" height="101px" preserveAspectRatio="xMinYMin meet" x="1168.5" y="-1375"/>
<text text-anchor="middle" x="1219" y="-1259.6" font-family="Sans-Serif" font-size="13.00" fill="#2d3436">HootSupport</text>
</g>
<!-- 0bea80e2f2b34da7bfd85a554b694f36&#45;&gt;0fb1071759024f0297f026092d0b8b4e -->
<g id="edge15" class="edge">
<title>0bea80e2f2b34da7bfd85a554b694f36&#45;&gt;0fb1071759024f0297f026092d0b8b4e</title>
<path fill="none" stroke="#7b8894" d="M1219,-1256.14C1219,-1204.69 1219,-1143 1219,-1143 1219,-1143 1661.32,-1143 1661.32,-1143"/>
<polygon fill="#7b8894" stroke="#7b8894" points="1661.32,-1146.5 1671.32,-1143 1661.32,-1139.5 1661.32,-1146.5"/>
</g>
<!-- 59e7d09dbf8a41c481241f75a6bb7830 -->
<g id="ec2&#45;Push Notifications" class="node">
<title>59e7d09dbf8a41c481241f75a6bb7830</title>
<image xlink:href="/usr/local/lib/python3.10/site-packages/resources/aws/compute/ec2.png" width="101px" height="101px" preserveAspectRatio="xMinYMin meet" x="1024.5" y="-1375"/>
<text text-anchor="middle" x="1075" y="-1259.6" font-family="Sans-Serif" font-size="13.00" fill="#2d3436">Push Notifications</text>
</g>
<!-- 59e7d09dbf8a41c481241f75a6bb7830&#45;&gt;0fb1071759024f0297f026092d0b8b4e -->
<g id="edge16" class="edge">
<title>59e7d09dbf8a41c481241f75a6bb7830&#45;&gt;0fb1071759024f0297f026092d0b8b4e</title>
<path fill="none" stroke="#7b8894" d="M1075,-1256C1075,-1197.58 1075,-1123 1075,-1123 1075,-1123 1661.18,-1123 1661.18,-1123"/>
<polygon fill="#7b8894" stroke="#7b8894" points="1661.18,-1126.5 1671.18,-1123 1661.18,-1119.5 1661.18,-1126.5"/>
</g>
<!-- 03ad020cc0a0411c9ee38f5a5dafaa29 -->
<g id="ec2&#45;Crypto" class="node">
<title>03ad020cc0a0411c9ee38f5a5dafaa29</title>
<image xlink:href="/usr/local/lib/python3.10/site-packages/resources/aws/compute/ec2.png" width="101px" height="101px" preserveAspectRatio="xMinYMin meet" x="880.5" y="-1375"/>
<text text-anchor="middle" x="931" y="-1259.6" font-family="Sans-Serif" font-size="13.00" fill="#2d3436">Crypto</text>
</g>
<!-- 03ad020cc0a0411c9ee38f5a5dafaa29&#45;&gt;0fb1071759024f0297f026092d0b8b4e -->
<g id="edge17" class="edge">
<title>03ad020cc0a0411c9ee38f5a5dafaa29&#45;&gt;0fb1071759024f0297f026092d0b8b4e</title>
<path fill="none" stroke="#7b8894" d="M931,-1256.24C931,-1191.48 931,-1104 931,-1104 931,-1104 1661.04,-1104 1661.04,-1104"/>
<polygon fill="#7b8894" stroke="#7b8894" points="1661.04,-1107.5 1671.04,-1104 1661.04,-1100.5 1661.04,-1107.5"/>
</g>
<!-- 65f9500018f74dd9b5d50fed34340862 -->
<g id="ec2&#45;Aperture Authz" class="node">
<title>65f9500018f74dd9b5d50fed34340862</title>
<image xlink:href="/usr/local/lib/python3.10/site-packages/resources/aws/compute/ec2.png" width="101px" height="101px" preserveAspectRatio="xMinYMin meet" x="736.5" y="-1375"/>
<text text-anchor="middle" x="787" y="-1259.6" font-family="Sans-Serif" font-size="13.00" fill="#2d3436">Aperture Authz</text>
</g>
<!-- 65f9500018f74dd9b5d50fed34340862&#45;&gt;0fb1071759024f0297f026092d0b8b4e -->
<g id="edge18" class="edge">
<title>65f9500018f74dd9b5d50fed34340862&#45;&gt;0fb1071759024f0297f026092d0b8b4e</title>
<path fill="none" stroke="#7b8894" d="M787,-1256.23C787,-1185.12 787,-1084 787,-1084 787,-1084 1661.16,-1084 1661.16,-1084"/>
<polygon fill="#7b8894" stroke="#7b8894" points="1661.16,-1087.5 1671.16,-1084 1661.16,-1080.5 1661.16,-1087.5"/>
</g>
<!-- b713af8cdb364d13a63092ef12833af6 -->
<g id="ec2&#45;Amplify" class="node">
<title>b713af8cdb364d13a63092ef12833af6</title>
<image xlink:href="/usr/local/lib/python3.10/site-packages/resources/aws/compute/ec2.png" width="101px" height="101px" preserveAspectRatio="xMinYMin meet" x="592.5" y="-1375"/>
<text text-anchor="middle" x="643" y="-1259.6" font-family="Sans-Serif" font-size="13.00" fill="#2d3436">Amplify</text>
</g>
<!-- b713af8cdb364d13a63092ef12833af6&#45;&gt;0fb1071759024f0297f026092d0b8b4e -->
<g id="edge19" class="edge">
<title>b713af8cdb364d13a63092ef12833af6&#45;&gt;0fb1071759024f0297f026092d0b8b4e</title>
<path fill="none" stroke="#7b8894" d="M659.83,-1256.34C659.83,-1245.62 659.83,-1238 659.83,-1238 659.83,-1238 1682.17,-1238 1682.17,-1238 1682.17,-1238 1682.17,-1213.26 1682.17,-1213.26"/>
<polygon fill="#7b8894" stroke="#7b8894" points="1685.67,-1213.26 1682.17,-1203.26 1678.67,-1213.26 1685.67,-1213.26"/>
</g>
<!-- 0d83727ea37f49539699269ba3a9423d -->
<g id="skylineBridge" class="node">
<title>0d83727ea37f49539699269ba3a9423d</title>
<image xlink:href="/usr/local/lib/python3.10/site-packages/resources/aws/compute/ec2.png" width="101px" height="101px" preserveAspectRatio="xMinYMin meet" x="1672.5" y="-993"/>
<text text-anchor="middle" x="1723" y="-877.6" font-family="Sans-Serif" font-size="13.00" fill="#2d3436">Skyline Bridge</text>
</g>
<!-- 0fb1071759024f0297f026092d0b8b4e&#45;&gt;0d83727ea37f49539699269ba3a9423d -->
<g id="edge20" class="edge">
<title>0fb1071759024f0297f026092d0b8b4e&#45;&gt;0d83727ea37f49539699269ba3a9423d</title>
<path fill="none" stroke="#7b8894" d="M1723,-1065.08C1723,-1065.08 1723,-1022.27 1723,-1022.27"/>
<polygon fill="#7b8894" stroke="#7b8894" points="1726.5,-1022.27 1723,-1012.27 1719.5,-1022.27 1726.5,-1022.27"/>
</g>
<!-- 0d83727ea37f49539699269ba3a9423d&#45;&gt;d43f8243de404cc6ba41edb3a472f585 -->
<g id="edge21" class="edge">
<title>0d83727ea37f49539699269ba3a9423d&#45;&gt;d43f8243de404cc6ba41edb3a472f585</title>
<path fill="none" stroke="#7b8894" d="M1723,-874.12C1723,-812.33 1723,-731 1723,-731 1723,-731 704.8,-731 704.8,-731"/>
<polygon fill="#7b8894" stroke="#7b8894" points="704.8,-727.5 694.8,-731 704.8,-734.5 704.8,-727.5"/>
</g>
<!-- 49d4528f008e4b8f87858ff7725866c1 -->
<g id="node26" class="node">
<title>49d4528f008e4b8f87858ff7725866c1</title>
<image xlink:href="/usr/local/lib/python3.10/site-packages/resources/k8s/compute/pod.png" width="101px" height="101px" preserveAspectRatio="xMinYMin meet" x="592.5" y="-591"/>
<text text-anchor="middle" x="643" y="-475.6" font-family="Sans-Serif" font-size="13.00" fill="#2d3436">Traefik</text>
</g>
<!-- d43f8243de404cc6ba41edb3a472f585&#45;&gt;49d4528f008e4b8f87858ff7725866c1 -->
<g id="edge28" class="edge">
<title>d43f8243de404cc6ba41edb3a472f585&#45;&gt;49d4528f008e4b8f87858ff7725866c1</title>
<path fill="none" stroke="#7b8894" d="M643,-663.08C643,-663.08 643,-620.27 643,-620.27"/>
<polygon fill="#7b8894" stroke="#7b8894" points="646.5,-620.27 643,-610.27 639.5,-620.27 646.5,-620.27"/>
</g>
<!-- ecdb526ec6e0400ba890d7f9a0d7a926 -->
<g id="servicePods" class="node">
<title>ecdb526ec6e0400ba890d7f9a0d7a926</title>
<image xlink:href="/usr/local/lib/python3.10/site-packages/resources/k8s/compute/pod.png" width="101px" height="101px" preserveAspectRatio="xMinYMin meet" x="592.5" y="-400"/>
<text text-anchor="middle" x="643" y="-284.6" font-family="Sans-Serif" font-size="13.00" fill="#2d3436">More service pods... </text>
</g>
<!-- 49d4528f008e4b8f87858ff7725866c1&#45;&gt;ecdb526ec6e0400ba890d7f9a0d7a926 -->
<g id="edge29" class="edge">
<title>49d4528f008e4b8f87858ff7725866c1&#45;&gt;ecdb526ec6e0400ba890d7f9a0d7a926</title>
<path fill="none" stroke="#7b8894" d="M643,-472.08C643,-472.08 643,-429.27 643,-429.27"/>
<polygon fill="#7b8894" stroke="#7b8894" points="646.5,-429.27 643,-419.27 639.5,-429.27 646.5,-429.27"/>
</g>
<!-- 23b519647f78417d8d1aabf6a19ffbe5 -->
<g id="node27" class="node">
<title>23b519647f78417d8d1aabf6a19ffbe5</title>
<image xlink:href="/usr/local/lib/python3.10/site-packages/resources/k8s/compute/pod.png" width="101px" height="101px" preserveAspectRatio="xMinYMin meet" x="1168.5" y="-400"/>
<text text-anchor="middle" x="1219" y="-284.6" font-family="Sans-Serif" font-size="13.00" fill="#2d3436">Service POD</text>
</g>
<!-- 5df6c27bb6794e72b38487b77427394d -->
<g id="node28" class="node">
<title>5df6c27bb6794e72b38487b77427394d</title>
<image xlink:href="/usr/local/lib/python3.10/site-packages/resources/k8s/compute/pod.png" width="101px" height="101px" preserveAspectRatio="xMinYMin meet" x="1024.5" y="-400"/>
<text text-anchor="middle" x="1075" y="-284.6" font-family="Sans-Serif" font-size="13.00" fill="#2d3436">Service POD</text>
</g>
<!-- 0ea3c07f220e48a9953e1c36e5da3319 -->
<g id="node29" class="node">
<title>0ea3c07f220e48a9953e1c36e5da3319</title>
<image xlink:href="/usr/local/lib/python3.10/site-packages/resources/k8s/compute/pod.png" width="101px" height="101px" preserveAspectRatio="xMinYMin meet" x="880.5" y="-400"/>
<text text-anchor="middle" x="931" y="-284.6" font-family="Sans-Serif" font-size="13.00" fill="#2d3436">Service POD</text>
</g>
<!-- 8c008230c2924863a70e71aefef3f9c0 -->
<g id="node30" class="node">
<title>8c008230c2924863a70e71aefef3f9c0</title>
<image xlink:href="/usr/local/lib/python3.10/site-packages/resources/k8s/compute/pod.png" width="101px" height="101px" preserveAspectRatio="xMinYMin meet" x="736.5" y="-400"/>
<text text-anchor="middle" x="787" y="-284.6" font-family="Sans-Serif" font-size="13.00" fill="#2d3436">Service POD</text>
</g>
<!-- 2679572e5f9f479fb12b4b2a1c62533d -->
<g id="node32" class="node">
<title>2679572e5f9f479fb12b4b2a1c62533d</title>
<image xlink:href="/usr/local/lib/python3.10/site-packages/resources/aws/database/rds.png" width="101px" height="101px" preserveAspectRatio="xMinYMin meet" x="592.5" y="-209"/>
<text text-anchor="middle" x="643" y="-93.6" font-family="Sans-Serif" font-size="13.00" fill="#2d3436">RDS</text>
</g>
<!-- ecdb526ec6e0400ba890d7f9a0d7a926&#45;&gt;2679572e5f9f479fb12b4b2a1c62533d -->
<g id="edge30" class="edge">
<title>ecdb526ec6e0400ba890d7f9a0d7a926&#45;&gt;2679572e5f9f479fb12b4b2a1c62533d</title>
<path fill="none" stroke="#7b8894" d="M643,-281.08C643,-281.08 643,-238.27 643,-238.27"/>
<polygon fill="#7b8894" stroke="#7b8894" points="646.5,-238.27 643,-228.27 639.5,-238.27 646.5,-238.27"/>
</g>
<!-- 3089c3e3dc6b44479939c451d6eded8e -->
<g id="node33" class="node">
<title>3089c3e3dc6b44479939c451d6eded8e</title>
<image xlink:href="/usr/local/lib/python3.10/site-packages/resources/aws/database/aurora.png" width="101px" height="101px" preserveAspectRatio="xMinYMin meet" x="448.5" y="-209"/>
<text text-anchor="middle" x="499" y="-93.6" font-family="Sans-Serif" font-size="13.00" fill="#2d3436">Aurora</text>
</g>
<!-- 0ce1290aa2fe4ebd937613dfba969f07 -->
<g id="node34" class="node">
<title>0ce1290aa2fe4ebd937613dfba969f07</title>
<image xlink:href="/usr/local/lib/python3.10/site-packages/resources/aws/database/elasticache-for-memcached.png" width="101px" height="101px" preserveAspectRatio="xMinYMin meet" x="304.5" y="-209"/>
<text text-anchor="middle" x="355" y="-93.6" font-family="Sans-Serif" font-size="13.00" fill="#2d3436">Memcached</text>
</g>
<!-- f283f531c1d142b880532f701f29f6eb -->
<g id="node35" class="node">
<title>f283f531c1d142b880532f701f29f6eb</title>
<image xlink:href="/usr/local/lib/python3.10/site-packages/resources/aws/database/elasticache-for-redis.png" width="101px" height="101px" preserveAspectRatio="xMinYMin meet" x="160.5" y="-209"/>
<text text-anchor="middle" x="211" y="-93.6" font-family="Sans-Serif" font-size="13.00" fill="#2d3436">Redis</text>
</g>
<!-- 73dabcae5c7145a9925933eb95e97a99 -->
<g id="node36" class="node">
<title>73dabcae5c7145a9925933eb95e97a99</title>
<image xlink:href="/usr/local/lib/python3.10/site-packages/resources/aws/storage/simple-storage-service-s3.png" width="101px" height="101px" preserveAspectRatio="xMinYMin meet" x="16.5" y="-209"/>
<text text-anchor="middle" x="67" y="-93.6" font-family="Sans-Serif" font-size="13.00" fill="#2d3436">S3</text>
</g>
<!-- ea803cdd058b442f89c5ef8c881cda89 -->
<g id="VPC Local" class="node">
<title>ea803cdd058b442f89c5ef8c881cda89</title>
<image xlink:href="/usr/local/lib/python3.10/site-packages/resources/onprem/queue/kafka.png" width="101px" height="101px" preserveAspectRatio="xMinYMin meet" x="3184.5" y="-1375"/>
<text text-anchor="middle" x="3235" y="-1259.6" font-family="Sans-Serif" font-size="13.00" fill="#2d3436">VPC Local</text>
</g>
<!-- 9cfd4065c6dd4727be2d19dde351f92a -->
<g id="Limbo Aggregate" class="node">
<title>9cfd4065c6dd4727be2d19dde351f92a</title>
<image xlink:href="/usr/local/lib/python3.10/site-packages/resources/onprem/queue/kafka.png" width="101px" height="101px" preserveAspectRatio="xMinYMin meet" x="3184.5" y="-1184"/>
<text text-anchor="middle" x="3235" y="-1068.6" font-family="Sans-Serif" font-size="13.00" fill="#2d3436">Limbo Aggregate</text>
</g>
<!-- ea803cdd058b442f89c5ef8c881cda89&#45;&gt;9cfd4065c6dd4727be2d19dde351f92a -->
<g id="edge1" class="edge">
<title>ea803cdd058b442f89c5ef8c881cda89&#45;&gt;9cfd4065c6dd4727be2d19dde351f92a</title>
<path fill="none" stroke="#7b8894" d="M3235,-1256.08C3235,-1256.08 3235,-1213.27 3235,-1213.27"/>
<polygon fill="#7b8894" stroke="#7b8894" points="3238.5,-1213.27 3235,-1203.27 3231.5,-1213.27 3238.5,-1213.27"/>
</g>
<!-- deafb381b51241888e4bb6bd4e468120 -->
<g id="Limbo Local" class="node">
<title>deafb381b51241888e4bb6bd4e468120</title>
<image xlink:href="/usr/local/lib/python3.10/site-packages/resources/onprem/queue/kafka.png" width="101px" height="101px" preserveAspectRatio="xMinYMin meet" x="3040.5" y="-1184"/>
<text text-anchor="middle" x="3091" y="-1068.6" font-family="Sans-Serif" font-size="13.00" fill="#2d3436">Limbo Local</text>
</g>
<!-- d20e427b1e12420db19c91b37a7a1433 -->
<g id="VPC Aggregate" class="node">
<title>d20e427b1e12420db19c91b37a7a1433</title>
<image xlink:href="/usr/local/lib/python3.10/site-packages/resources/onprem/queue/kafka.png" width="101px" height="101px" preserveAspectRatio="xMinYMin meet" x="3040.5" y="-1375"/>
<text text-anchor="middle" x="3091" y="-1259.6" font-family="Sans-Serif" font-size="13.00" fill="#2d3436">VPC Aggregate</text>
</g>
<!-- deafb381b51241888e4bb6bd4e468120&#45;&gt;d20e427b1e12420db19c91b37a7a1433 -->
<g id="edge2" class="edge">
<title>deafb381b51241888e4bb6bd4e468120&#45;&gt;d20e427b1e12420db19c91b37a7a1433</title>
<path fill="none" stroke="#7b8894" d="M3091,-1201.92C3091,-1201.92 3091,-1244.73 3091,-1244.73"/>
<polygon fill="#7b8894" stroke="#7b8894" points="3087.5,-1244.73 3091,-1254.73 3094.5,-1244.73 3087.5,-1244.73"/>
</g>
</g>
</svg>
