<?xml version="1.0" encoding="UTF-8" standalone="no"?>
<!DOCTYPE svg PUBLIC "-//W3C//DTD SVG 1.1//EN"
 "http://www.w3.org/Graphics/SVG/1.1/DTD/svg11.dtd">
<!-- Generated by graphviz version 7.0.0 (20221023.0053)
 -->
<!-- Title: Hootsuite 2019 Pages: 1 -->
<svg width="3598pt" height="1747pt"
 viewBox="0.00 0.00 3598.00 1747.00" xmlns="http://www.w3.org/2000/svg" xmlns:xlink="http://www.w3.org/1999/xlink">
<g id="graph0" class="graph" transform="scale(1 1) rotate(0) translate(144 1603)">
<title>Hootsuite 2019</title>
<text text-anchor="middle" x="1655" y="-22" font-family="Sans-Serif" font-size="60.00" fill="#2d3436">Hootsuite 2019</text>
<g id="clust1" class="cluster">
<title>cluster_Edge</title>
<path fill="#e5f5fd" stroke="#aeb6be" d="M452,-1248C452,-1248 546,-1248 546,-1248 552,-1248 558,-1254 558,-1260 558,-1260 558,-1410 558,-1410 558,-1416 552,-1422 546,-1422 546,-1422 452,-1422 452,-1422 446,-1422 440,-1416 440,-1410 440,-1410 440,-1260 440,-1260 440,-1254 446,-1248 452,-1248"/>
<text text-anchor="middle" x="462.5" y="-1408.4" font-family="Sans-Serif" font-size="12.00" fill="#2d3436">Edge</text>
</g>
<g id="clust4" class="cluster">
<title>cluster_EC2 Services</title>
<path fill="#e5f5fd" stroke="#aeb6be" d="M596,-1248C596,-1248 2994,-1248 2994,-1248 3000,-1248 3006,-1254 3006,-1260 3006,-1260 3006,-1410 3006,-1410 3006,-1416 3000,-1422 2994,-1422 2994,-1422 596,-1422 596,-1422 590,-1422 584,-1416 584,-1410 584,-1410 584,-1260 584,-1260 584,-1254 590,-1248 596,-1248"/>
<text text-anchor="middle" x="629" y="-1408.4" font-family="Sans-Serif" font-size="12.00" fill="#2d3436">EC2 Services</text>
</g>
<g id="clust2" class="cluster">
<title>cluster_Auth Facade</title>
<path fill="#e5f5fd" stroke="#aeb6be" d="M452,-866C452,-866 546,-866 546,-866 552,-866 558,-872 558,-878 558,-878 558,-1219 558,-1219 558,-1225 552,-1231 546,-1231 546,-1231 452,-1231 452,-1231 446,-1231 440,-1225 440,-1219 440,-1219 440,-878 440,-878 440,-872 446,-866 452,-866"/>
<text text-anchor="middle" x="482.5" y="-1217.4" font-family="Sans-Serif" font-size="12.00" fill="#2d3436">Auth Facade</text>
</g>
<g id="clust3" class="cluster">
<title>cluster_Aperture</title>
<path fill="#e5f5fd" stroke="#aeb6be" d="M596,-866C596,-866 690,-866 690,-866 696,-866 702,-872 702,-878 702,-878 702,-1219 702,-1219 702,-1225 696,-1231 690,-1231 690,-1231 596,-1231 596,-1231 590,-1231 584,-1225 584,-1219 584,-1219 584,-878 584,-878 584,-872 590,-866 596,-866"/>
<text text-anchor="middle" x="615" y="-1217.4" font-family="Sans-Serif" font-size="12.00" fill="#2d3436">Aperture</text>
</g>
<g id="clust5" class="cluster">
<title>cluster_Skyline</title>
<path fill="#e5f5fd" stroke="#aeb6be" d="M1676,-866C1676,-866 1770,-866 1770,-866 1776,-866 1782,-872 1782,-878 1782,-878 1782,-1219 1782,-1219 1782,-1225 1776,-1231 1770,-1231 1770,-1231 1676,-1231 1676,-1231 1670,-1231 1664,-1225 1664,-1219 1664,-1219 1664,-878 1664,-878 1664,-872 1670,-866 1676,-866"/>
<text text-anchor="middle" x="1692" y="-1217.4" font-family="Sans-Serif" font-size="12.00" fill="#2d3436">Skyline</text>
</g>
<g id="clust6" class="cluster">
<title>cluster_Kubernetes Cluster</title>
<path fill="#e5f5fd" stroke="#aeb6be" d="M588,-265C588,-265 698,-265 698,-265 704,-265 710,-271 710,-277 710,-277 710,-846 710,-846 710,-852 704,-858 698,-858 698,-858 588,-858 588,-858 582,-858 576,-852 576,-846 576,-846 576,-277 576,-277 576,-271 582,-265 588,-265"/>
<text text-anchor="middle" x="635.5" y="-844.4" font-family="Sans-Serif" font-size="12.00" fill="#2d3436">Kubernetes Cluster</text>
</g>
<g id="clust7" class="cluster">
<title>cluster_Ingress Nodes</title>
<path fill="#ebf3e7" stroke="#aeb6be" d="M596,-464C596,-464 690,-464 690,-464 696,-464 702,-470 702,-476 702,-476 702,-817 702,-817 702,-823 696,-829 690,-829 690,-829 596,-829 596,-829 590,-829 584,-823 584,-817 584,-817 584,-476 584,-476 584,-470 590,-464 596,-464"/>
<text text-anchor="middle" x="631" y="-815.4" font-family="Sans-Serif" font-size="12.00" fill="#2d3436">Ingress Nodes</text>
</g>
<g id="clust8" class="cluster">
<title>cluster_Worker Nodes</title>
<path fill="#ebf3e7" stroke="#aeb6be" d="M596,-273C596,-273 690,-273 690,-273 696,-273 702,-279 702,-285 702,-285 702,-435 702,-435 702,-441 696,-447 690,-447 690,-447 596,-447 596,-447 590,-447 584,-441 584,-435 584,-435 584,-285 584,-285 584,-279 590,-273 596,-273"/>
<text text-anchor="middle" x="630.5" y="-433.4" font-family="Sans-Serif" font-size="12.00" fill="#2d3436">Worker Nodes</text>
</g>
<g id="clust9" class="cluster">
<title>cluster_Data Storage</title>
<path fill="#e5f5fd" stroke="#aeb6be" d="M20,-82C20,-82 690,-82 690,-82 696,-82 702,-88 702,-94 702,-94 702,-244 702,-244 702,-250 696,-256 690,-256 690,-256 20,-256 20,-256 14,-256 8,-250 8,-244 8,-244 8,-94 8,-94 8,-88 14,-82 20,-82"/>
<text text-anchor="middle" x="51.5" y="-242.4" font-family="Sans-Serif" font-size="12.00" fill="#2d3436">Data Storage</text>
</g>
<g id="clust10" class="cluster">
<title>cluster_Event Bus (Kafka)</title>
<path fill="#e5f5fd" stroke="#aeb6be" d="M3036,-1049C3036,-1049 3290,-1049 3290,-1049 3296,-1049 3302,-1055 3302,-1061 3302,-1061 3302,-1439 3302,-1439 3302,-1445 3296,-1451 3290,-1451 3290,-1451 3036,-1451 3036,-1451 3030,-1451 3024,-1445 3024,-1439 3024,-1439 3024,-1061 3024,-1061 3024,-1055 3030,-1049 3036,-1049"/>
<text text-anchor="middle" x="3080.5" y="-1437.4" font-family="Sans-Serif" font-size="12.00" fill="#2d3436">Event Bus (Kafka)</text>
</g>
<g id="clust11" class="cluster">
<title>cluster_VPC</title>
<path fill="#ebf3e7" stroke="#aeb6be" d="M3044,-1248C3044,-1248 3282,-1248 3282,-1248 3288,-1248 3294,-1254 3294,-1260 3294,-1260 3294,-1410 3294,-1410 3294,-1416 3288,-1422 3282,-1422 3282,-1422 3044,-1422 3044,-1422 3038,-1422 3032,-1416 3032,-1410 3032,-1410 3032,-1260 3032,-1260 3032,-1254 3038,-1248 3044,-1248"/>
<text text-anchor="middle" x="3053" y="-1408.4" font-family="Sans-Serif" font-size="12.00" fill="#2d3436">VPC</text>
</g>
<g id="clust12" class="cluster">
<title>cluster_EC2 Classic aka Limbo</title>
<path fill="#ebf3e7" stroke="#aeb6be" d="M3044,-1057C3044,-1057 3282,-1057 3282,-1057 3288,-1057 3294,-1063 3294,-1069 3294,-1069 3294,-1219 3294,-1219 3294,-1225 3288,-1231 3282,-1231 3282,-1231 3044,-1231 3044,-1231 3038,-1231 3032,-1225 3032,-1219 3032,-1219 3032,-1069 3032,-1069 3032,-1063 3038,-1057 3044,-1057"/>
<text text-anchor="middle" x="3103" y="-1217.4" font-family="Sans-Serif" font-size="12.00" fill="#2d3436">EC2 Classic aka Limbo</text>
</g>
<!-- e67a9f3113614329b860030cba8c6aee -->
<g id="node1" class="node">
<title>e67a9f3113614329b860030cba8c6aee</title>
<image xlink:href="/usr/local/lib/python3.10/site-packages/resources/aws/network/route-53.png" width="101px" height="101px" preserveAspectRatio="xMinYMin meet" x="448.5" y="-1375"/>
<text text-anchor="middle" x="499" y="-1259.6" font-family="Sans-Serif" font-size="13.00" fill="#2d3436">dns</text>
</g>
<!-- d0356071e70c4a3fb45d1141f4950865 -->
<g id="node3" class="node">
<title>d0356071e70c4a3fb45d1141f4950865</title>
<image xlink:href="/usr/local/lib/python3.10/site-packages/resources/aws/network/elb-application-load-balancer.png" width="101px" height="101px" preserveAspectRatio="xMinYMin meet" x="448.5" y="-1184"/>
<text text-anchor="middle" x="499" y="-1068.6" font-family="Sans-Serif" font-size="13.00" fill="#2d3436">Auth Facade ALB</text>
</g>
<!-- e67a9f3113614329b860030cba8c6aee&#45;&gt;d0356071e70c4a3fb45d1141f4950865 -->
<g id="edge25" class="edge">
<title>e67a9f3113614329b860030cba8c6aee&#45;&gt;d0356071e70c4a3fb45d1141f4950865</title>
<path fill="none" stroke="#7b8894" d="M482.17,-1256.08C482.17,-1256.08 482.17,-1213.27 482.17,-1213.27"/>
<polygon fill="#7b8894" stroke="#7b8894" points="485.67,-1213.27 482.17,-1203.27 478.67,-1213.27 485.67,-1213.27"/>
</g>
<!-- 3a635e0a98aa4fc48e06975ef660e928 -->
<g id="apertureNLB" class="node">
<title>3a635e0a98aa4fc48e06975ef660e928</title>
<image xlink:href="/usr/local/lib/python3.10/site-packages/resources/aws/network/elb-network-load-balancer.png" width="101px" height="101px" preserveAspectRatio="xMinYMin meet" x="592.5" y="-1184"/>
<text text-anchor="middle" x="643" y="-1068.6" font-family="Sans-Serif" font-size="13.00" fill="#2d3436">Aperture NLB</text>
</g>
<!-- e67a9f3113614329b860030cba8c6aee&#45;&gt;3a635e0a98aa4fc48e06975ef660e928 -->
<g id="edge22" class="edge">
<title>e67a9f3113614329b860030cba8c6aee&#45;&gt;3a635e0a98aa4fc48e06975ef660e928</title>
<path fill="none" stroke="#7b8894" d="M515.83,-1256.26C515.83,-1236.43 515.83,-1220 515.83,-1220 515.83,-1220 626.17,-1220 626.17,-1220 626.17,-1220 626.17,-1213.17 626.17,-1213.17"/>
<polygon fill="#7b8894" stroke="#7b8894" points="629.67,-1213.17 626.17,-1203.17 622.67,-1213.17 629.67,-1213.17"/>
</g>
<!-- 4939452a0246400a8ac20089055fecee -->
<g id="node2" class="node">
<title>4939452a0246400a8ac20089055fecee</title>
<image xlink:href="/usr/local/lib/python3.10/site-packages/resources/aws/compute/application-auto-scaling.png" width="101px" height="101px" preserveAspectRatio="xMinYMin meet" x="448.5" y="-993"/>
<text text-anchor="middle" x="499" y="-877.6" font-family="Sans-Serif" font-size="13.00" fill="#2d3436">Auth Facade</text>
</g>
<!-- ba8a65cf3ad448e4b6d0cccb30694e54 -->
<g id="node25" class="node">
<title>ba8a65cf3ad448e4b6d0cccb30694e54</title>
<image xlink:href="/usr/local/lib/python3.10/site-packages/resources/aws/network/elb-network-load-balancer.png" width="101px" height="101px" preserveAspectRatio="xMinYMin meet" x="592.5" y="-782"/>
<text text-anchor="middle" x="643" y="-666.6" font-family="Sans-Serif" font-size="13.00" fill="#2d3436">Ingress LB</text>
</g>
<!-- 4939452a0246400a8ac20089055fecee&#45;&gt;ba8a65cf3ad448e4b6d0cccb30694e54 -->
<g id="edge27" class="edge">
<title>4939452a0246400a8ac20089055fecee&#45;&gt;ba8a65cf3ad448e4b6d0cccb30694e54</title>
<path fill="none" stroke="#7b8894" d="M499,-874.12C499,-812.33 499,-731 499,-731 499,-731 581.12,-731 581.12,-731"/>
<polygon fill="#7b8894" stroke="#7b8894" points="581.12,-734.5 591.12,-731 581.12,-727.5 581.12,-734.5"/>
</g>
<!-- d0356071e70c4a3fb45d1141f4950865&#45;&gt;4939452a0246400a8ac20089055fecee -->
<g id="edge26" class="edge">
<title>d0356071e70c4a3fb45d1141f4950865&#45;&gt;4939452a0246400a8ac20089055fecee</title>
<path fill="none" stroke="#7b8894" d="M499,-1065.08C499,-1065.08 499,-1022.27 499,-1022.27"/>
<polygon fill="#7b8894" stroke="#7b8894" points="502.5,-1022.27 499,-1012.27 495.5,-1022.27 502.5,-1022.27"/>
</g>
<!-- 82deabda3b03436fa929dea5b180ec53 -->
<g id="traefik" class="node">
<title>82deabda3b03436fa929dea5b180ec53</title>
<image xlink:href="/usr/local/lib/python3.10/site-packages/resources/aws/compute/application-auto-scaling.png" width="101px" height="101px" preserveAspectRatio="xMinYMin meet" x="592.5" y="-993"/>
<text text-anchor="middle" x="643" y="-877.6" font-family="Sans-Serif" font-size="13.00" fill="#2d3436">Aperture Traefik</text>
</g>
<!-- 3a635e0a98aa4fc48e06975ef660e928&#45;&gt;82deabda3b03436fa929dea5b180ec53 -->
<g id="edge23" class="edge">
<title>3a635e0a98aa4fc48e06975ef660e928&#45;&gt;82deabda3b03436fa929dea5b180ec53</title>
<path fill="none" stroke="#7b8894" d="M643,-1065.08C643,-1065.08 643,-1022.27 643,-1022.27"/>
<polygon fill="#7b8894" stroke="#7b8894" points="646.5,-1022.27 643,-1012.27 639.5,-1022.27 646.5,-1022.27"/>
</g>
<!-- 82deabda3b03436fa929dea5b180ec53&#45;&gt;ba8a65cf3ad448e4b6d0cccb30694e54 -->
<g id="edge24" class="edge">
<title>82deabda3b03436fa929dea5b180ec53&#45;&gt;ba8a65cf3ad448e4b6d0cccb30694e54</title>
<path fill="none" stroke="#7b8894" d="M643,-874.29C643,-874.29 643,-811.35 643,-811.35"/>
<polygon fill="#7b8894" stroke="#7b8894" points="646.5,-811.35 643,-801.35 639.5,-811.35 646.5,-811.35"/>
</g>
<!-- 916db0842a84424ca07f13a52efa9cf0 -->
<g id="ec2&#45;Dashboard&#45;Web" class="node">
<title>916db0842a84424ca07f13a52efa9cf0</title>
<image xlink:href="/usr/local/lib/python3.10/site-packages/resources/aws/compute/ec2.png" width="101px" height="101px" preserveAspectRatio="xMinYMin meet" x="2896.5" y="-1375"/>
<text text-anchor="middle" x="2947" y="-1259.6" font-family="Sans-Serif" font-size="13.00" fill="#2d3436">Dashboard&#45;Web</text>
</g>
<!-- a6c81ffe2ac9433085282977465dbc60 -->
<g id="skylineLB" class="node">
<title>a6c81ffe2ac9433085282977465dbc60</title>
<image xlink:href="/usr/local/lib/python3.10/site-packages/resources/aws/network/elb-application-load-balancer.png" width="101px" height="101px" preserveAspectRatio="xMinYMin meet" x="1672.5" y="-1184"/>
<text text-anchor="middle" x="1723" y="-1068.6" font-family="Sans-Serif" font-size="13.00" fill="#2d3436">Skyline ALB</text>
</g>
<!-- 916db0842a84424ca07f13a52efa9cf0&#45;&gt;a6c81ffe2ac9433085282977465dbc60 -->
<g id="edge3" class="edge">
<title>916db0842a84424ca07f13a52efa9cf0&#45;&gt;a6c81ffe2ac9433085282977465dbc60</title>
<path fill="none" stroke="#7b8894" d="M2947,-1256.07C2947,-1183.74 2947,-1080 2947,-1080 2947,-1080 1784.78,-1080 1784.78,-1080"/>
<polygon fill="#7b8894" stroke="#7b8894" points="1784.78,-1076.5 1774.78,-1080 1784.78,-1083.5 1784.78,-1076.5"/>
</g>
<!-- b5220762730d40cc85f562268397783e -->
<g id="ec2&#45;Dashboard&#45;Gear" class="node">
<title>b5220762730d40cc85f562268397783e</title>
<image xlink:href="/usr/local/lib/python3.10/site-packages/resources/aws/compute/ec2.png" width="101px" height="101px" preserveAspectRatio="xMinYMin meet" x="2752.5" y="-1375"/>
<text text-anchor="middle" x="2803" y="-1259.6" font-family="Sans-Serif" font-size="13.00" fill="#2d3436">Dashboard&#45;Gear</text>
</g>
<!-- b5220762730d40cc85f562268397783e&#45;&gt;a6c81ffe2ac9433085282977465dbc60 -->
<g id="edge4" class="edge">
<title>b5220762730d40cc85f562268397783e&#45;&gt;a6c81ffe2ac9433085282977465dbc60</title>
<path fill="none" stroke="#7b8894" d="M2803,-1256.26C2803,-1188.61 2803,-1095 2803,-1095 2803,-1095 1784.8,-1095 1784.8,-1095"/>
<polygon fill="#7b8894" stroke="#7b8894" points="1784.8,-1091.5 1774.8,-1095 1784.8,-1098.5 1784.8,-1091.5"/>
</g>
<!-- 29be097340f54cac8b223d5177a92268 -->
<g id="ec2&#45;Dashboard&#45;Cron" class="node">
<title>29be097340f54cac8b223d5177a92268</title>
<image xlink:href="/usr/local/lib/python3.10/site-packages/resources/aws/compute/ec2.png" width="101px" height="101px" preserveAspectRatio="xMinYMin meet" x="2608.5" y="-1375"/>
<text text-anchor="middle" x="2659" y="-1259.6" font-family="Sans-Serif" font-size="13.00" fill="#2d3436">Dashboard&#45;Cron</text>
</g>
<!-- 29be097340f54cac8b223d5177a92268&#45;&gt;a6c81ffe2ac9433085282977465dbc60 -->
<g id="edge5" class="edge">
<title>29be097340f54cac8b223d5177a92268&#45;&gt;a6c81ffe2ac9433085282977465dbc60</title>
<path fill="none" stroke="#7b8894" d="M2659,-1256.04C2659,-1193.27 2659,-1110 2659,-1110 2659,-1110 1784.84,-1110 1784.84,-1110"/>
<polygon fill="#7b8894" stroke="#7b8894" points="1784.84,-1106.5 1774.84,-1110 1784.84,-1113.5 1784.84,-1106.5"/>
</g>
<!-- d043f02ba5a2441ca9b21521ccdb99d7 -->
<g id="ec2&#45;Member" class="node">
<title>d043f02ba5a2441ca9b21521ccdb99d7</title>
<image xlink:href="/usr/local/lib/python3.10/site-packages/resources/aws/compute/ec2.png" width="101px" height="101px" preserveAspectRatio="xMinYMin meet" x="2464.5" y="-1375"/>
<text text-anchor="middle" x="2515" y="-1259.6" font-family="Sans-Serif" font-size="13.00" fill="#2d3436">Member</text>
</g>
<!-- d043f02ba5a2441ca9b21521ccdb99d7&#45;&gt;a6c81ffe2ac9433085282977465dbc60 -->
<g id="edge6" class="edge">
<title>d043f02ba5a2441ca9b21521ccdb99d7&#45;&gt;a6c81ffe2ac9433085282977465dbc60</title>
<path fill="none" stroke="#7b8894" d="M2515,-1256.12C2515,-1198.37 2515,-1125 2515,-1125 2515,-1125 1784.96,-1125 1784.96,-1125"/>
<polygon fill="#7b8894" stroke="#7b8894" points="1784.96,-1121.5 1774.96,-1125 1784.96,-1128.5 1784.96,-1121.5"/>
</g>
<!-- 077c958d27fd4208955b15435b70a7c8 -->
<g id="ec2&#45;SCUM" class="node">
<title>077c958d27fd4208955b15435b70a7c8</title>
<image xlink:href="/usr/local/lib/python3.10/site-packages/resources/aws/compute/ec2.png" width="101px" height="101px" preserveAspectRatio="xMinYMin meet" x="2320.5" y="-1375"/>
<text text-anchor="middle" x="2371" y="-1259.6" font-family="Sans-Serif" font-size="13.00" fill="#2d3436">SCUM</text>
</g>
<!-- 077c958d27fd4208955b15435b70a7c8&#45;&gt;a6c81ffe2ac9433085282977465dbc60 -->
<g id="edge7" class="edge">
<title>077c958d27fd4208955b15435b70a7c8&#45;&gt;a6c81ffe2ac9433085282977465dbc60</title>
<path fill="none" stroke="#7b8894" d="M2371,-1256.17C2371,-1204 2371,-1141 2371,-1141 2371,-1141 1784.82,-1141 1784.82,-1141"/>
<polygon fill="#7b8894" stroke="#7b8894" points="1784.82,-1137.5 1774.82,-1141 1784.82,-1144.5 1784.82,-1137.5"/>
</g>
<!-- 1d90413e6e854b49a0156f4dc5dda7b8 -->
<g id="ec2&#45;Billing" class="node">
<title>1d90413e6e854b49a0156f4dc5dda7b8</title>
<image xlink:href="/usr/local/lib/python3.10/site-packages/resources/aws/compute/ec2.png" width="101px" height="101px" preserveAspectRatio="xMinYMin meet" x="2176.5" y="-1375"/>
<text text-anchor="middle" x="2227" y="-1259.6" font-family="Sans-Serif" font-size="13.00" fill="#2d3436">Billing</text>
</g>
<!-- 1d90413e6e854b49a0156f4dc5dda7b8&#45;&gt;a6c81ffe2ac9433085282977465dbc60 -->
<g id="edge8" class="edge">
<title>1d90413e6e854b49a0156f4dc5dda7b8&#45;&gt;a6c81ffe2ac9433085282977465dbc60</title>
<path fill="none" stroke="#7b8894" d="M2227,-1256.45C2227,-1209.69 2227,-1156 2227,-1156 2227,-1156 1784.68,-1156 1784.68,-1156"/>
<polygon fill="#7b8894" stroke="#7b8894" points="1784.68,-1152.5 1774.68,-1156 1784.68,-1159.5 1784.68,-1152.5"/>
</g>
<!-- 90ed18c061304e4ca768aa6fd5e00093 -->
<g id="ec2&#45;Message Achieve" class="node">
<title>90ed18c061304e4ca768aa6fd5e00093</title>
<image xlink:href="/usr/local/lib/python3.10/site-packages/resources/aws/compute/ec2.png" width="101px" height="101px" preserveAspectRatio="xMinYMin meet" x="2032.5" y="-1375"/>
<text text-anchor="middle" x="2083" y="-1259.6" font-family="Sans-Serif" font-size="13.00" fill="#2d3436">Message Achieve</text>
</g>
<!-- 90ed18c061304e4ca768aa6fd5e00093&#45;&gt;a6c81ffe2ac9433085282977465dbc60 -->
<g id="edge9" class="edge">
<title>90ed18c061304e4ca768aa6fd5e00093&#45;&gt;a6c81ffe2ac9433085282977465dbc60</title>
<path fill="none" stroke="#7b8894" d="M2083,-1256.28C2083,-1215.28 2083,-1171 2083,-1171 2083,-1171 1784.95,-1171 1784.95,-1171"/>
<polygon fill="#7b8894" stroke="#7b8894" points="1784.95,-1167.5 1774.95,-1171 1784.95,-1174.5 1784.95,-1167.5"/>
</g>
<!-- 9d5e2c5864d24806b36b07faf9310feb -->
<g id="ec2&#45;Message Review" class="node">
<title>9d5e2c5864d24806b36b07faf9310feb</title>
<image xlink:href="/usr/local/lib/python3.10/site-packages/resources/aws/compute/ec2.png" width="101px" height="101px" preserveAspectRatio="xMinYMin meet" x="1888.5" y="-1375"/>
<text text-anchor="middle" x="1939" y="-1259.6" font-family="Sans-Serif" font-size="13.00" fill="#2d3436">Message Review</text>
</g>
<!-- 9d5e2c5864d24806b36b07faf9310feb&#45;&gt;a6c81ffe2ac9433085282977465dbc60 -->
<g id="edge10" class="edge">
<title>9d5e2c5864d24806b36b07faf9310feb&#45;&gt;a6c81ffe2ac9433085282977465dbc60</title>
<path fill="none" stroke="#7b8894" d="M1939,-1256.06C1939,-1221.17 1939,-1186 1939,-1186 1939,-1186 1784.88,-1186 1784.88,-1186"/>
<polygon fill="#7b8894" stroke="#7b8894" points="1784.88,-1182.5 1774.88,-1186 1784.88,-1189.5 1784.88,-1182.5"/>
</g>
<!-- d50abfdbbd9e4c8b9e57ad95b4a54e88 -->
<g id="ec2&#45;Scheduled Data" class="node">
<title>d50abfdbbd9e4c8b9e57ad95b4a54e88</title>
<image xlink:href="/usr/local/lib/python3.10/site-packages/resources/aws/compute/ec2.png" width="101px" height="101px" preserveAspectRatio="xMinYMin meet" x="1744.5" y="-1375"/>
<text text-anchor="middle" x="1795" y="-1259.6" font-family="Sans-Serif" font-size="13.00" fill="#2d3436">Scheduled Data</text>
</g>
<!-- d50abfdbbd9e4c8b9e57ad95b4a54e88&#45;&gt;a6c81ffe2ac9433085282977465dbc60 -->
<g id="edge11" class="edge">
<title>d50abfdbbd9e4c8b9e57ad95b4a54e88&#45;&gt;a6c81ffe2ac9433085282977465dbc60</title>
<path fill="none" stroke="#7b8894" d="M1759,-1256.08C1759,-1256.08 1759,-1213.27 1759,-1213.27"/>
<polygon fill="#7b8894" stroke="#7b8894" points="1762.5,-1213.27 1759,-1203.27 1755.5,-1213.27 1762.5,-1213.27"/>
</g>
<!-- b813ac66ca0d4c1ca473e49748eb8392 -->
<g id="ec2&#45;Core" class="node">
<title>b813ac66ca0d4c1ca473e49748eb8392</title>
<image xlink:href="/usr/local/lib/python3.10/site-packages/resources/aws/compute/ec2.png" width="101px" height="101px" preserveAspectRatio="xMinYMin meet" x="1600.5" y="-1375"/>
<text text-anchor="middle" x="1651" y="-1259.6" font-family="Sans-Serif" font-size="13.00" fill="#2d3436">Core</text>
</g>
<!-- b813ac66ca0d4c1ca473e49748eb8392&#45;&gt;a6c81ffe2ac9433085282977465dbc60 -->
<g id="edge12" class="edge">
<title>b813ac66ca0d4c1ca473e49748eb8392&#45;&gt;a6c81ffe2ac9433085282977465dbc60</title>
<path fill="none" stroke="#7b8894" d="M1691.83,-1256.08C1691.83,-1256.08 1691.83,-1213.27 1691.83,-1213.27"/>
<polygon fill="#7b8894" stroke="#7b8894" points="1695.33,-1213.27 1691.83,-1203.27 1688.33,-1213.27 1695.33,-1213.27"/>
</g>
<!-- 51b98c9c350f4c90a4367dc5de0ceac9 -->
<g id="ec2&#45;TOPS" class="node">
<title>51b98c9c350f4c90a4367dc5de0ceac9</title>
<image xlink:href="/usr/local/lib/python3.10/site-packages/resources/aws/compute/ec2.png" width="101px" height="101px" preserveAspectRatio="xMinYMin meet" x="1456.5" y="-1375"/>
<text text-anchor="middle" x="1507" y="-1259.6" font-family="Sans-Serif" font-size="13.00" fill="#2d3436">TOPS</text>
</g>
<!-- 51b98c9c350f4c90a4367dc5de0ceac9&#45;&gt;a6c81ffe2ac9433085282977465dbc60 -->
<g id="edge13" class="edge">
<title>51b98c9c350f4c90a4367dc5de0ceac9&#45;&gt;a6c81ffe2ac9433085282977465dbc60</title>
<path fill="none" stroke="#7b8894" d="M1507,-1256.17C1507,-1219.6 1507,-1182 1507,-1182 1507,-1182 1661.12,-1182 1661.12,-1182"/>
<polygon fill="#7b8894" stroke="#7b8894" points="1661.12,-1185.5 1671.12,-1182 1661.12,-1178.5 1661.12,-1185.5"/>
</g>
<!-- 3914d87395fa4c7899c3e64d8455030f -->
<g id="ec2&#45;GSS" class="node">
<title>3914d87395fa4c7899c3e64d8455030f</title>
<image xlink:href="/usr/local/lib/python3.10/site-packages/resources/aws/compute/ec2.png" width="101px" height="101px" preserveAspectRatio="xMinYMin meet" x="1312.5" y="-1375"/>
<text text-anchor="middle" x="1363" y="-1259.6" font-family="Sans-Serif" font-size="13.00" fill="#2d3436">GSS</text>
</g>
<!-- 3914d87395fa4c7899c3e64d8455030f&#45;&gt;a6c81ffe2ac9433085282977465dbc60 -->
<g id="edge14" class="edge">
<title>3914d87395fa4c7899c3e64d8455030f&#45;&gt;a6c81ffe2ac9433085282977465dbc60</title>
<path fill="none" stroke="#7b8894" d="M1363,-1256.06C1363,-1211.65 1363,-1162 1363,-1162 1363,-1162 1661.05,-1162 1661.05,-1162"/>
<polygon fill="#7b8894" stroke="#7b8894" points="1661.05,-1165.5 1671.05,-1162 1661.05,-1158.5 1661.05,-1165.5"/>
</g>
<!-- 67d115751f554bba916583fb441e3cbd -->
<g id="ec2&#45;HootSupport" class="node">
<title>67d115751f554bba916583fb441e3cbd</title>
<image xlink:href="/usr/local/lib/python3.10/site-packages/resources/aws/compute/ec2.png" width="101px" height="101px" preserveAspectRatio="xMinYMin meet" x="1168.5" y="-1375"/>
<text text-anchor="middle" x="1219" y="-1259.6" font-family="Sans-Serif" font-size="13.00" fill="#2d3436">HootSupport</text>
</g>
<!-- 67d115751f554bba916583fb441e3cbd&#45;&gt;a6c81ffe2ac9433085282977465dbc60 -->
<g id="edge15" class="edge">
<title>67d115751f554bba916583fb441e3cbd&#45;&gt;a6c81ffe2ac9433085282977465dbc60</title>
<path fill="none" stroke="#7b8894" d="M1219,-1256.14C1219,-1204.69 1219,-1143 1219,-1143 1219,-1143 1661.32,-1143 1661.32,-1143"/>
<polygon fill="#7b8894" stroke="#7b8894" points="1661.32,-1146.5 1671.32,-1143 1661.32,-1139.5 1661.32,-1146.5"/>
</g>
<!-- 63b3c97fcc754b00bf3905d564a9be16 -->
<g id="ec2&#45;Push Notifications" class="node">
<title>63b3c97fcc754b00bf3905d564a9be16</title>
<image xlink:href="/usr/local/lib/python3.10/site-packages/resources/aws/compute/ec2.png" width="101px" height="101px" preserveAspectRatio="xMinYMin meet" x="1024.5" y="-1375"/>
<text text-anchor="middle" x="1075" y="-1259.6" font-family="Sans-Serif" font-size="13.00" fill="#2d3436">Push Notifications</text>
</g>
<!-- 63b3c97fcc754b00bf3905d564a9be16&#45;&gt;a6c81ffe2ac9433085282977465dbc60 -->
<g id="edge16" class="edge">
<title>63b3c97fcc754b00bf3905d564a9be16&#45;&gt;a6c81ffe2ac9433085282977465dbc60</title>
<path fill="none" stroke="#7b8894" d="M1075,-1256C1075,-1197.58 1075,-1123 1075,-1123 1075,-1123 1661.18,-1123 1661.18,-1123"/>
<polygon fill="#7b8894" stroke="#7b8894" points="1661.18,-1126.5 1671.18,-1123 1661.18,-1119.5 1661.18,-1126.5"/>
</g>
<!-- ed50caf60eab4b56ae19e52412c75533 -->
<g id="ec2&#45;Crypto" class="node">
<title>ed50caf60eab4b56ae19e52412c75533</title>
<image xlink:href="/usr/local/lib/python3.10/site-packages/resources/aws/compute/ec2.png" width="101px" height="101px" preserveAspectRatio="xMinYMin meet" x="880.5" y="-1375"/>
<text text-anchor="middle" x="931" y="-1259.6" font-family="Sans-Serif" font-size="13.00" fill="#2d3436">Crypto</text>
</g>
<!-- ed50caf60eab4b56ae19e52412c75533&#45;&gt;a6c81ffe2ac9433085282977465dbc60 -->
<g id="edge17" class="edge">
<title>ed50caf60eab4b56ae19e52412c75533&#45;&gt;a6c81ffe2ac9433085282977465dbc60</title>
<path fill="none" stroke="#7b8894" d="M931,-1256.24C931,-1191.48 931,-1104 931,-1104 931,-1104 1661.04,-1104 1661.04,-1104"/>
<polygon fill="#7b8894" stroke="#7b8894" points="1661.04,-1107.5 1671.04,-1104 1661.04,-1100.5 1661.04,-1107.5"/>
</g>
<!-- 21493fc544394c2da810f944817add6b -->
<g id="ec2&#45;Aperture Authz" class="node">
<title>21493fc544394c2da810f944817add6b</title>
<image xlink:href="/usr/local/lib/python3.10/site-packages/resources/aws/compute/ec2.png" width="101px" height="101px" preserveAspectRatio="xMinYMin meet" x="736.5" y="-1375"/>
<text text-anchor="middle" x="787" y="-1259.6" font-family="Sans-Serif" font-size="13.00" fill="#2d3436">Aperture Authz</text>
</g>
<!-- 21493fc544394c2da810f944817add6b&#45;&gt;a6c81ffe2ac9433085282977465dbc60 -->
<g id="edge18" class="edge">
<title>21493fc544394c2da810f944817add6b&#45;&gt;a6c81ffe2ac9433085282977465dbc60</title>
<path fill="none" stroke="#7b8894" d="M787,-1256.23C787,-1185.12 787,-1084 787,-1084 787,-1084 1661.16,-1084 1661.16,-1084"/>
<polygon fill="#7b8894" stroke="#7b8894" points="1661.16,-1087.5 1671.16,-1084 1661.16,-1080.5 1661.16,-1087.5"/>
</g>
<!-- 33979b47ef3745e19e991ce558bec088 -->
<g id="ec2&#45;Amplify" class="node">
<title>33979b47ef3745e19e991ce558bec088</title>
<image xlink:href="/usr/local/lib/python3.10/site-packages/resources/aws/compute/ec2.png" width="101px" height="101px" preserveAspectRatio="xMinYMin meet" x="592.5" y="-1375"/>
<text text-anchor="middle" x="643" y="-1259.6" font-family="Sans-Serif" font-size="13.00" fill="#2d3436">Amplify</text>
</g>
<!-- 33979b47ef3745e19e991ce558bec088&#45;&gt;a6c81ffe2ac9433085282977465dbc60 -->
<g id="edge19" class="edge">
<title>33979b47ef3745e19e991ce558bec088&#45;&gt;a6c81ffe2ac9433085282977465dbc60</title>
<path fill="none" stroke="#7b8894" d="M659.83,-1256.34C659.83,-1245.62 659.83,-1238 659.83,-1238 659.83,-1238 1682.17,-1238 1682.17,-1238 1682.17,-1238 1682.17,-1213.26 1682.17,-1213.26"/>
<polygon fill="#7b8894" stroke="#7b8894" points="1685.67,-1213.26 1682.17,-1203.26 1678.67,-1213.26 1685.67,-1213.26"/>
</g>
<!-- 19063f83460c467d85034997a4f68554 -->
<g id="skylineBridge" class="node">
<title>19063f83460c467d85034997a4f68554</title>
<image xlink:href="/usr/local/lib/python3.10/site-packages/resources/aws/compute/ec2.png" width="101px" height="101px" preserveAspectRatio="xMinYMin meet" x="1672.5" y="-993"/>
<text text-anchor="middle" x="1723" y="-877.6" font-family="Sans-Serif" font-size="13.00" fill="#2d3436">Skyline Bridge</text>
</g>
<!-- a6c81ffe2ac9433085282977465dbc60&#45;&gt;19063f83460c467d85034997a4f68554 -->
<g id="edge20" class="edge">
<title>a6c81ffe2ac9433085282977465dbc60&#45;&gt;19063f83460c467d85034997a4f68554</title>
<path fill="none" stroke="#7b8894" d="M1723,-1065.08C1723,-1065.08 1723,-1022.27 1723,-1022.27"/>
<polygon fill="#7b8894" stroke="#7b8894" points="1726.5,-1022.27 1723,-1012.27 1719.5,-1022.27 1726.5,-1022.27"/>
</g>
<!-- 19063f83460c467d85034997a4f68554&#45;&gt;ba8a65cf3ad448e4b6d0cccb30694e54 -->
<g id="edge21" class="edge">
<title>19063f83460c467d85034997a4f68554&#45;&gt;ba8a65cf3ad448e4b6d0cccb30694e54</title>
<path fill="none" stroke="#7b8894" d="M1723,-874.12C1723,-812.33 1723,-731 1723,-731 1723,-731 704.8,-731 704.8,-731"/>
<polygon fill="#7b8894" stroke="#7b8894" points="704.8,-727.5 694.8,-731 704.8,-734.5 704.8,-727.5"/>
</g>
<!-- 6b1589b5662e4b11abccc18c4a94674a -->
<g id="node26" class="node">
<title>6b1589b5662e4b11abccc18c4a94674a</title>
<image xlink:href="/usr/local/lib/python3.10/site-packages/resources/k8s/compute/pod.png" width="101px" height="101px" preserveAspectRatio="xMinYMin meet" x="592.5" y="-591"/>
<text text-anchor="middle" x="643" y="-475.6" font-family="Sans-Serif" font-size="13.00" fill="#2d3436">Traefik</text>
</g>
<!-- ba8a65cf3ad448e4b6d0cccb30694e54&#45;&gt;6b1589b5662e4b11abccc18c4a94674a -->
<g id="edge28" class="edge">
<title>ba8a65cf3ad448e4b6d0cccb30694e54&#45;&gt;6b1589b5662e4b11abccc18c4a94674a</title>
<path fill="none" stroke="#7b8894" d="M643,-663.08C643,-663.08 643,-620.27 643,-620.27"/>
<polygon fill="#7b8894" stroke="#7b8894" points="646.5,-620.27 643,-610.27 639.5,-620.27 646.5,-620.27"/>
</g>
<!-- ced415e3b23c4c32991b05446c5f4452 -->
<g id="servicePods" class="node">
<title>ced415e3b23c4c32991b05446c5f4452</title>
<image xlink:href="/usr/local/lib/python3.10/site-packages/resources/k8s/compute/pod.png" width="101px" height="101px" preserveAspectRatio="xMinYMin meet" x="592.5" y="-400"/>
<text text-anchor="middle" x="643" y="-284.6" font-family="Sans-Serif" font-size="13.00" fill="#2d3436">100+ Microservices</text>
</g>
<!-- 6b1589b5662e4b11abccc18c4a94674a&#45;&gt;ced415e3b23c4c32991b05446c5f4452 -->
<g id="edge29" class="edge">
<title>6b1589b5662e4b11abccc18c4a94674a&#45;&gt;ced415e3b23c4c32991b05446c5f4452</title>
<path fill="none" stroke="#7b8894" d="M643,-472.08C643,-472.08 643,-429.27 643,-429.27"/>
<polygon fill="#7b8894" stroke="#7b8894" points="646.5,-429.27 643,-419.27 639.5,-429.27 646.5,-429.27"/>
</g>
<!-- bd2e79fa7efc4573a126270025dcaf91 -->
<g id="node28" class="node">
<title>bd2e79fa7efc4573a126270025dcaf91</title>
<image xlink:href="/usr/local/lib/python3.10/site-packages/resources/aws/database/rds.png" width="101px" height="101px" preserveAspectRatio="xMinYMin meet" x="592.5" y="-209"/>
<text text-anchor="middle" x="643" y="-93.6" font-family="Sans-Serif" font-size="13.00" fill="#2d3436">RDS</text>
</g>
<!-- ced415e3b23c4c32991b05446c5f4452&#45;&gt;bd2e79fa7efc4573a126270025dcaf91 -->
<g id="edge30" class="edge">
<title>ced415e3b23c4c32991b05446c5f4452&#45;&gt;bd2e79fa7efc4573a126270025dcaf91</title>
<path fill="none" stroke="#7b8894" d="M643,-281.08C643,-281.08 643,-238.27 643,-238.27"/>
<polygon fill="#7b8894" stroke="#7b8894" points="646.5,-238.27 643,-228.27 639.5,-238.27 646.5,-238.27"/>
</g>
<!-- 45dd8e3c2aa14e2080cb3f2dd2c6d858 -->
<g id="node29" class="node">
<title>45dd8e3c2aa14e2080cb3f2dd2c6d858</title>
<image xlink:href="/usr/local/lib/python3.10/site-packages/resources/aws/database/aurora.png" width="101px" height="101px" preserveAspectRatio="xMinYMin meet" x="448.5" y="-209"/>
<text text-anchor="middle" x="499" y="-93.6" font-family="Sans-Serif" font-size="13.00" fill="#2d3436">Aurora</text>
</g>
<!-- 52e298233ebe4469a36bf0fe206ad717 -->
<g id="node30" class="node">
<title>52e298233ebe4469a36bf0fe206ad717</title>
<image xlink:href="/usr/local/lib/python3.10/site-packages/resources/aws/database/elasticache-for-memcached.png" width="101px" height="101px" preserveAspectRatio="xMinYMin meet" x="304.5" y="-209"/>
<text text-anchor="middle" x="355" y="-93.6" font-family="Sans-Serif" font-size="13.00" fill="#2d3436">Memcached</text>
</g>
<!-- 6a505f7d2a814401af6cb47e7ab0551d -->
<g id="node31" class="node">
<title>6a505f7d2a814401af6cb47e7ab0551d</title>
<image xlink:href="/usr/local/lib/python3.10/site-packages/resources/aws/database/elasticache-for-redis.png" width="101px" height="101px" preserveAspectRatio="xMinYMin meet" x="160.5" y="-209"/>
<text text-anchor="middle" x="211" y="-93.6" font-family="Sans-Serif" font-size="13.00" fill="#2d3436">Redis</text>
</g>
<!-- df78fb08e31c4e44affed8694eb68df6 -->
<g id="node32" class="node">
<title>df78fb08e31c4e44affed8694eb68df6</title>
<image xlink:href="/usr/local/lib/python3.10/site-packages/resources/aws/storage/simple-storage-service-s3.png" width="101px" height="101px" preserveAspectRatio="xMinYMin meet" x="16.5" y="-209"/>
<text text-anchor="middle" x="67" y="-93.6" font-family="Sans-Serif" font-size="13.00" fill="#2d3436">S3</text>
</g>
<!-- de0cce610bd54d42b3436073b679b679 -->
<g id="VPC Local" class="node">
<title>de0cce610bd54d42b3436073b679b679</title>
<image xlink:href="/usr/local/lib/python3.10/site-packages/resources/onprem/queue/kafka.png" width="101px" height="101px" preserveAspectRatio="xMinYMin meet" x="3184.5" y="-1375"/>
<text text-anchor="middle" x="3235" y="-1259.6" font-family="Sans-Serif" font-size="13.00" fill="#2d3436">VPC Local</text>
</g>
<!-- 6721bb02b0f9467cb171d4d4f1818dbb -->
<g id="Limbo Aggregate" class="node">
<title>6721bb02b0f9467cb171d4d4f1818dbb</title>
<image xlink:href="/usr/local/lib/python3.10/site-packages/resources/onprem/queue/kafka.png" width="101px" height="101px" preserveAspectRatio="xMinYMin meet" x="3184.5" y="-1184"/>
<text text-anchor="middle" x="3235" y="-1068.6" font-family="Sans-Serif" font-size="13.00" fill="#2d3436">Limbo Aggregate</text>
</g>
<!-- de0cce610bd54d42b3436073b679b679&#45;&gt;6721bb02b0f9467cb171d4d4f1818dbb -->
<g id="edge1" class="edge">
<title>de0cce610bd54d42b3436073b679b679&#45;&gt;6721bb02b0f9467cb171d4d4f1818dbb</title>
<path fill="none" stroke="#7b8894" d="M3235,-1256.08C3235,-1256.08 3235,-1213.27 3235,-1213.27"/>
<polygon fill="#7b8894" stroke="#7b8894" points="3238.5,-1213.27 3235,-1203.27 3231.5,-1213.27 3238.5,-1213.27"/>
</g>
<!-- 86e28a78c15f45a9a928ef7f0bcf7a8a -->
<g id="Limbo Local" class="node">
<title>86e28a78c15f45a9a928ef7f0bcf7a8a</title>
<image xlink:href="/usr/local/lib/python3.10/site-packages/resources/onprem/queue/kafka.png" width="101px" height="101px" preserveAspectRatio="xMinYMin meet" x="3040.5" y="-1184"/>
<text text-anchor="middle" x="3091" y="-1068.6" font-family="Sans-Serif" font-size="13.00" fill="#2d3436">Limbo Local</text>
</g>
<!-- c3fe5a13864c454fb163d5153a6258af -->
<g id="VPC Aggregate" class="node">
<title>c3fe5a13864c454fb163d5153a6258af</title>
<image xlink:href="/usr/local/lib/python3.10/site-packages/resources/onprem/queue/kafka.png" width="101px" height="101px" preserveAspectRatio="xMinYMin meet" x="3040.5" y="-1375"/>
<text text-anchor="middle" x="3091" y="-1259.6" font-family="Sans-Serif" font-size="13.00" fill="#2d3436">VPC Aggregate</text>
</g>
<!-- 86e28a78c15f45a9a928ef7f0bcf7a8a&#45;&gt;c3fe5a13864c454fb163d5153a6258af -->
<g id="edge2" class="edge">
<title>86e28a78c15f45a9a928ef7f0bcf7a8a&#45;&gt;c3fe5a13864c454fb163d5153a6258af</title>
<path fill="none" stroke="#7b8894" d="M3091,-1201.92C3091,-1201.92 3091,-1244.73 3091,-1244.73"/>
<polygon fill="#7b8894" stroke="#7b8894" points="3087.5,-1244.73 3091,-1254.73 3094.5,-1244.73 3087.5,-1244.73"/>
</g>
</g>
</svg>
