<?xml version="1.0" encoding="UTF-8" standalone="no"?>
<!DOCTYPE svg PUBLIC "-//W3C//DTD SVG 1.1//EN"
 "http://www.w3.org/Graphics/SVG/1.1/DTD/svg11.dtd">
<!-- Generated by graphviz version 7.0.0 (20221023.0053)
 -->
<!-- Title: Hootsuite 2022 Pages: 1 -->
<svg width="2886pt" height="1718pt"
 viewBox="0.00 0.00 2886.00 1718.00" xmlns="http://www.w3.org/2000/svg" xmlns:xlink="http://www.w3.org/1999/xlink">
<g id="graph0" class="graph" transform="scale(1 1) rotate(0) translate(144 1574)">
<title>Hootsuite 2022</title>
<text text-anchor="middle" x="1299" y="-22" font-family="Sans-Serif" font-size="60.00" fill="#2d3436">Hootsuite 2022</text>
<g id="clust1" class="cluster">
<title>cluster_Edge</title>
<path fill="#e5f5fd" stroke="#aeb6be" d="M1523,-1248C1523,-1248 1617,-1248 1617,-1248 1623,-1248 1629,-1254 1629,-1260 1629,-1260 1629,-1410 1629,-1410 1629,-1416 1623,-1422 1617,-1422 1617,-1422 1523,-1422 1523,-1422 1517,-1422 1511,-1416 1511,-1410 1511,-1410 1511,-1260 1511,-1260 1511,-1254 1517,-1248 1523,-1248"/>
<text text-anchor="middle" x="1533.5" y="-1408.4" font-family="Sans-Serif" font-size="12.00" fill="#2d3436">Edge</text>
</g>
<g id="clust2" class="cluster">
<title>cluster_Aperture</title>
<path fill="#e5f5fd" stroke="#aeb6be" d="M1252,-675C1252,-675 1634,-675 1634,-675 1640,-675 1646,-681 1646,-687 1646,-687 1646,-1219 1646,-1219 1646,-1225 1640,-1231 1634,-1231 1634,-1231 1252,-1231 1252,-1231 1246,-1231 1240,-1225 1240,-1219 1240,-1219 1240,-687 1240,-687 1240,-681 1246,-675 1252,-675"/>
<text text-anchor="middle" x="1271" y="-1217.4" font-family="Sans-Serif" font-size="12.00" fill="#2d3436">Aperture</text>
</g>
<g id="clust3" class="cluster">
<title>cluster_Auth Facade</title>
<path fill="#e5f5fd" stroke="#aeb6be" d="M1684,-675C1684,-675 1778,-675 1778,-675 1784,-675 1790,-681 1790,-687 1790,-687 1790,-1028 1790,-1028 1790,-1034 1784,-1040 1778,-1040 1778,-1040 1684,-1040 1684,-1040 1678,-1040 1672,-1034 1672,-1028 1672,-1028 1672,-687 1672,-687 1672,-681 1678,-675 1684,-675"/>
<text text-anchor="middle" x="1714.5" y="-1026.4" font-family="Sans-Serif" font-size="12.00" fill="#2d3436">Auth Facade</text>
</g>
<g id="clust4" class="cluster">
<title>cluster_EC2 Services</title>
<path fill="#e5f5fd" stroke="#aeb6be" d="M2103,-1248C2103,-1248 2197,-1248 2197,-1248 2203,-1248 2209,-1254 2209,-1260 2209,-1260 2209,-1410 2209,-1410 2209,-1416 2203,-1422 2197,-1422 2197,-1422 2103,-1422 2103,-1422 2097,-1422 2091,-1416 2091,-1410 2091,-1410 2091,-1260 2091,-1260 2091,-1254 2097,-1248 2103,-1248"/>
<text text-anchor="middle" x="2136" y="-1408.4" font-family="Sans-Serif" font-size="12.00" fill="#2d3436">EC2 Services</text>
</g>
<g id="clust5" class="cluster">
<title>cluster_Kubernetes Cluster</title>
<path fill="#e5f5fd" stroke="#aeb6be" d="M20,-265C20,-265 2578,-265 2578,-265 2584,-265 2590,-271 2590,-277 2590,-277 2590,-655 2590,-655 2590,-661 2584,-667 2578,-667 2578,-667 20,-667 20,-667 14,-667 8,-661 8,-655 8,-655 8,-277 8,-277 8,-271 14,-265 20,-265"/>
<text text-anchor="middle" x="67.5" y="-653.4" font-family="Sans-Serif" font-size="12.00" fill="#2d3436">Kubernetes Cluster</text>
</g>
<g id="clust6" class="cluster">
<title>cluster_Ingress Nodes</title>
<path fill="#ebf3e7" stroke="#aeb6be" d="M1324,-464C1324,-464 1562,-464 1562,-464 1568,-464 1574,-470 1574,-476 1574,-476 1574,-626 1574,-626 1574,-632 1568,-638 1562,-638 1562,-638 1324,-638 1324,-638 1318,-638 1312,-632 1312,-626 1312,-626 1312,-476 1312,-476 1312,-470 1318,-464 1324,-464"/>
<text text-anchor="middle" x="1359" y="-624.4" font-family="Sans-Serif" font-size="12.00" fill="#2d3436">Ingress Nodes</text>
</g>
<g id="clust7" class="cluster">
<title>cluster_Worker Nodes</title>
<path fill="#ebf3e7" stroke="#aeb6be" d="M28,-273C28,-273 2570,-273 2570,-273 2576,-273 2582,-279 2582,-285 2582,-285 2582,-435 2582,-435 2582,-441 2576,-447 2570,-447 2570,-447 28,-447 28,-447 22,-447 16,-441 16,-435 16,-435 16,-285 16,-285 16,-279 22,-273 28,-273"/>
<text text-anchor="middle" x="62.5" y="-433.4" font-family="Sans-Serif" font-size="12.00" fill="#2d3436">Worker Nodes</text>
</g>
<g id="clust8" class="cluster">
<title>cluster_Data Storage</title>
<path fill="#e5f5fd" stroke="#aeb6be" d="M748,-82C748,-82 1418,-82 1418,-82 1424,-82 1430,-88 1430,-94 1430,-94 1430,-244 1430,-244 1430,-250 1424,-256 1418,-256 1418,-256 748,-256 748,-256 742,-256 736,-250 736,-244 736,-244 736,-94 736,-94 736,-88 742,-82 748,-82"/>
<text text-anchor="middle" x="779.5" y="-242.4" font-family="Sans-Serif" font-size="12.00" fill="#2d3436">Data Storage</text>
</g>
<g id="clust9" class="cluster">
<title>cluster_Event Bus (Kafka)</title>
<path fill="#e5f5fd" stroke="#aeb6be" d="M2465,-1248C2465,-1248 2559,-1248 2559,-1248 2565,-1248 2571,-1254 2571,-1260 2571,-1260 2571,-1410 2571,-1410 2571,-1416 2565,-1422 2559,-1422 2559,-1422 2465,-1422 2465,-1422 2459,-1422 2453,-1416 2453,-1410 2453,-1410 2453,-1260 2453,-1260 2453,-1254 2459,-1248 2465,-1248"/>
<text text-anchor="middle" x="2509.5" y="-1408.4" font-family="Sans-Serif" font-size="12.00" fill="#2d3436">Event Bus (Kafka)</text>
</g>
<!-- a6f09bbcf5f04d93a0e547f18f9148e5 -->
<g id="node1" class="node">
<title>a6f09bbcf5f04d93a0e547f18f9148e5</title>
<image xlink:href="/usr/local/lib/python3.10/site-packages/resources/aws/network/route-53.png" width="101px" height="101px" preserveAspectRatio="xMinYMin meet" x="1519.5" y="-1375"/>
<text text-anchor="middle" x="1570" y="-1259.6" font-family="Sans-Serif" font-size="13.00" fill="#2d3436">dns</text>
</g>
<!-- 988e67808a75480eb76163e3608966f5 -->
<g id="node3" class="node">
<title>988e67808a75480eb76163e3608966f5</title>
<image xlink:href="/usr/local/lib/python3.10/site-packages/resources/aws/network/cloudfront.png" width="101px" height="101px" preserveAspectRatio="xMinYMin meet" x="1446.5" y="-1184"/>
<text text-anchor="middle" x="1497" y="-1068.6" font-family="Sans-Serif" font-size="13.00" fill="#2d3436">Aperture CDN</text>
</g>
<!-- a6f09bbcf5f04d93a0e547f18f9148e5&#45;&gt;988e67808a75480eb76163e3608966f5 -->
<g id="edge1" class="edge">
<title>a6f09bbcf5f04d93a0e547f18f9148e5&#45;&gt;988e67808a75480eb76163e3608966f5</title>
<path fill="none" stroke="#7b8894" d="M1533.5,-1256.08C1533.5,-1256.08 1533.5,-1213.27 1533.5,-1213.27"/>
<polygon fill="#7b8894" stroke="#7b8894" points="1537,-1213.27 1533.5,-1203.27 1530,-1213.27 1537,-1213.27"/>
</g>
<!-- f6982deffd6445fc88c6431674662b46 -->
<g id="node8" class="node">
<title>f6982deffd6445fc88c6431674662b46</title>
<image xlink:href="/usr/local/lib/python3.10/site-packages/resources/aws/network/elb-application-load-balancer.png" width="101px" height="101px" preserveAspectRatio="xMinYMin meet" x="1680.5" y="-993"/>
<text text-anchor="middle" x="1731" y="-877.6" font-family="Sans-Serif" font-size="13.00" fill="#2d3436">Auth Facade ALB</text>
</g>
<!-- a6f09bbcf5f04d93a0e547f18f9148e5&#45;&gt;f6982deffd6445fc88c6431674662b46 -->
<g id="edge9" class="edge">
<title>a6f09bbcf5f04d93a0e547f18f9148e5&#45;&gt;f6982deffd6445fc88c6431674662b46</title>
<path fill="none" stroke="#7b8894" d="M1584,-1256.03C1584,-1151.73 1584,-965 1584,-965 1584,-965 1669.31,-965 1669.31,-965"/>
<polygon fill="#7b8894" stroke="#7b8894" points="1669.31,-968.5 1679.31,-965 1669.31,-961.5 1669.31,-968.5"/>
</g>
<!-- f1391d05b1d74244a177880bd1ae9072 -->
<g id="node2" class="node">
<title>f1391d05b1d74244a177880bd1ae9072</title>
<image xlink:href="/usr/local/lib/python3.10/site-packages/resources/aws/network/elb-network-load-balancer.png" width="101px" height="101px" preserveAspectRatio="xMinYMin meet" x="1428.5" y="-993"/>
<text text-anchor="middle" x="1479" y="-877.6" font-family="Sans-Serif" font-size="13.00" fill="#2d3436">Aperture NLB</text>
</g>
<!-- 275c567130934890b8862cb028693a60 -->
<g id="node4" class="node">
<title>275c567130934890b8862cb028693a60</title>
<image xlink:href="/usr/local/lib/python3.10/site-packages/resources/aws/compute/application-auto-scaling.png" width="101px" height="101px" preserveAspectRatio="xMinYMin meet" x="1248.5" y="-802"/>
<text text-anchor="middle" x="1299" y="-686.6" font-family="Sans-Serif" font-size="13.00" fill="#2d3436">Aperture Traefik</text>
</g>
<!-- f1391d05b1d74244a177880bd1ae9072&#45;&gt;275c567130934890b8862cb028693a60 -->
<g id="edge3" class="edge">
<title>f1391d05b1d74244a177880bd1ae9072&#45;&gt;275c567130934890b8862cb028693a60</title>
<path fill="none" stroke="#7b8894" d="M1428.86,-942C1375.6,-942 1299,-942 1299,-942 1299,-942 1299,-831.25 1299,-831.25"/>
<polygon fill="#7b8894" stroke="#7b8894" points="1302.5,-831.25 1299,-821.25 1295.5,-831.25 1302.5,-831.25"/>
</g>
<!-- 4d3f60d172bf4fafb54eaeda61fd7619 -->
<g id="node5" class="node">
<title>4d3f60d172bf4fafb54eaeda61fd7619</title>
<image xlink:href="/usr/local/lib/python3.10/site-packages/resources/aws/compute/application-auto-scaling.png" width="101px" height="101px" preserveAspectRatio="xMinYMin meet" x="1392.5" y="-802"/>
<text text-anchor="middle" x="1443" y="-686.6" font-family="Sans-Serif" font-size="13.00" fill="#2d3436">Dashboard Traefik</text>
</g>
<!-- f1391d05b1d74244a177880bd1ae9072&#45;&gt;4d3f60d172bf4fafb54eaeda61fd7619 -->
<g id="edge4" class="edge">
<title>f1391d05b1d74244a177880bd1ae9072&#45;&gt;4d3f60d172bf4fafb54eaeda61fd7619</title>
<path fill="none" stroke="#7b8894" d="M1461,-874.08C1461,-874.08 1461,-831.27 1461,-831.27"/>
<polygon fill="#7b8894" stroke="#7b8894" points="1464.5,-831.27 1461,-821.27 1457.5,-831.27 1464.5,-831.27"/>
</g>
<!-- 76949e1be61148428a1faae0a73e6d64 -->
<g id="node6" class="node">
<title>76949e1be61148428a1faae0a73e6d64</title>
<image xlink:href="/usr/local/lib/python3.10/site-packages/resources/aws/compute/application-auto-scaling.png" width="101px" height="101px" preserveAspectRatio="xMinYMin meet" x="1536.5" y="-802"/>
<text text-anchor="middle" x="1587" y="-686.6" font-family="Sans-Serif" font-size="13.00" fill="#2d3436">Webhook Traefik</text>
</g>
<!-- f1391d05b1d74244a177880bd1ae9072&#45;&gt;76949e1be61148428a1faae0a73e6d64 -->
<g id="edge5" class="edge">
<title>f1391d05b1d74244a177880bd1ae9072&#45;&gt;76949e1be61148428a1faae0a73e6d64</title>
<path fill="none" stroke="#7b8894" d="M1529.25,-919C1536.74,-919 1542,-919 1542,-919 1542,-919 1542,-831.14 1542,-831.14"/>
<polygon fill="#7b8894" stroke="#7b8894" points="1545.5,-831.14 1542,-821.14 1538.5,-831.14 1545.5,-831.14"/>
</g>
<!-- 988e67808a75480eb76163e3608966f5&#45;&gt;f1391d05b1d74244a177880bd1ae9072 -->
<g id="edge2" class="edge">
<title>988e67808a75480eb76163e3608966f5&#45;&gt;f1391d05b1d74244a177880bd1ae9072</title>
<path fill="none" stroke="#7b8894" d="M1488,-1065.08C1488,-1065.08 1488,-1022.27 1488,-1022.27"/>
<polygon fill="#7b8894" stroke="#7b8894" points="1491.5,-1022.27 1488,-1012.27 1484.5,-1022.27 1491.5,-1022.27"/>
</g>
<!-- f0fbf3f105414b3ba6336221268c6058 -->
<g id="node10" class="node">
<title>f0fbf3f105414b3ba6336221268c6058</title>
<image xlink:href="/usr/local/lib/python3.10/site-packages/resources/aws/network/elb-network-load-balancer.png" width="101px" height="101px" preserveAspectRatio="xMinYMin meet" x="1464.5" y="-591"/>
<text text-anchor="middle" x="1515" y="-475.6" font-family="Sans-Serif" font-size="13.00" fill="#2d3436">Ingress LB</text>
</g>
<!-- 275c567130934890b8862cb028693a60&#45;&gt;f0fbf3f105414b3ba6336221268c6058 -->
<g id="edge6" class="edge">
<title>275c567130934890b8862cb028693a60&#45;&gt;f0fbf3f105414b3ba6336221268c6058</title>
<path fill="none" stroke="#7b8894" d="M1335,-683.2C1335,-662.91 1335,-646 1335,-646 1335,-646 1474.17,-646 1474.17,-646 1474.17,-646 1474.17,-620.32 1474.17,-620.32"/>
<polygon fill="#7b8894" stroke="#7b8894" points="1477.67,-620.32 1474.17,-610.32 1470.67,-620.32 1477.67,-620.32"/>
</g>
<!-- 4d3f60d172bf4fafb54eaeda61fd7619&#45;&gt;f0fbf3f105414b3ba6336221268c6058 -->
<g id="edge7" class="edge">
<title>4d3f60d172bf4fafb54eaeda61fd7619&#45;&gt;f0fbf3f105414b3ba6336221268c6058</title>
<path fill="none" stroke="#7b8894" d="M1483.83,-683.29C1483.83,-683.29 1483.83,-620.35 1483.83,-620.35"/>
<polygon fill="#7b8894" stroke="#7b8894" points="1487.33,-620.35 1483.83,-610.35 1480.33,-620.35 1487.33,-620.35"/>
</g>
<!-- 76949e1be61148428a1faae0a73e6d64&#45;&gt;f0fbf3f105414b3ba6336221268c6058 -->
<g id="edge8" class="edge">
<title>76949e1be61148428a1faae0a73e6d64&#45;&gt;f0fbf3f105414b3ba6336221268c6058</title>
<path fill="none" stroke="#7b8894" d="M1551,-683.29C1551,-683.29 1551,-620.35 1551,-620.35"/>
<polygon fill="#7b8894" stroke="#7b8894" points="1554.5,-620.35 1551,-610.35 1547.5,-620.35 1554.5,-620.35"/>
</g>
<!-- 5f3295050aa646959c0fe2150ead4232 -->
<g id="node7" class="node">
<title>5f3295050aa646959c0fe2150ead4232</title>
<image xlink:href="/usr/local/lib/python3.10/site-packages/resources/aws/compute/application-auto-scaling.png" width="101px" height="101px" preserveAspectRatio="xMinYMin meet" x="1680.5" y="-802"/>
<text text-anchor="middle" x="1731" y="-686.6" font-family="Sans-Serif" font-size="13.00" fill="#2d3436">Auth Facade</text>
</g>
<!-- 5f3295050aa646959c0fe2150ead4232&#45;&gt;f0fbf3f105414b3ba6336221268c6058 -->
<g id="edge11" class="edge">
<title>5f3295050aa646959c0fe2150ead4232&#45;&gt;f0fbf3f105414b3ba6336221268c6058</title>
<path fill="none" stroke="#7b8894" d="M1695,-683.12C1695,-621.33 1695,-540 1695,-540 1695,-540 1576.65,-540 1576.65,-540"/>
<polygon fill="#7b8894" stroke="#7b8894" points="1576.65,-536.5 1566.65,-540 1576.65,-543.5 1576.65,-536.5"/>
</g>
<!-- f6982deffd6445fc88c6431674662b46&#45;&gt;5f3295050aa646959c0fe2150ead4232 -->
<g id="edge10" class="edge">
<title>f6982deffd6445fc88c6431674662b46&#45;&gt;5f3295050aa646959c0fe2150ead4232</title>
<path fill="none" stroke="#7b8894" d="M1731,-874.08C1731,-874.08 1731,-831.27 1731,-831.27"/>
<polygon fill="#7b8894" stroke="#7b8894" points="1734.5,-831.27 1731,-821.27 1727.5,-831.27 1734.5,-831.27"/>
</g>
<!-- 973e37db7df0462e89330fbd3e1a244a -->
<g id="node9" class="node">
<title>973e37db7df0462e89330fbd3e1a244a</title>
<image xlink:href="/usr/local/lib/python3.10/site-packages/resources/aws/compute/ec2.png" width="101px" height="101px" preserveAspectRatio="xMinYMin meet" x="2099.5" y="-1375"/>
<text text-anchor="middle" x="2150" y="-1259.6" font-family="Sans-Serif" font-size="13.00" fill="#2d3436">Dashboard&#45;Geard</text>
</g>
<!-- fbd9167baf4b436da74d17d6544316a4 -->
<g id="node11" class="node">
<title>fbd9167baf4b436da74d17d6544316a4</title>
<image xlink:href="/usr/local/lib/python3.10/site-packages/resources/k8s/compute/pod.png" width="101px" height="101px" preserveAspectRatio="xMinYMin meet" x="1320.5" y="-591"/>
<text text-anchor="middle" x="1371" y="-475.6" font-family="Sans-Serif" font-size="13.00" fill="#2d3436">Traefik</text>
</g>
<!-- 80f7f34ee98d4687a4f9402463752285 -->
<g id="node12" class="node">
<title>80f7f34ee98d4687a4f9402463752285</title>
<image xlink:href="/usr/local/lib/python3.10/site-packages/resources/k8s/compute/pod.png" width="101px" height="101px" preserveAspectRatio="xMinYMin meet" x="2472.5" y="-400"/>
<text text-anchor="middle" x="2523" y="-284.6" font-family="Sans-Serif" font-size="13.00" fill="#2d3436">100+ Microservices</text>
</g>
<!-- fbd9167baf4b436da74d17d6544316a4&#45;&gt;80f7f34ee98d4687a4f9402463752285 -->
<g id="edge12" class="edge">
<title>fbd9167baf4b436da74d17d6544316a4&#45;&gt;80f7f34ee98d4687a4f9402463752285</title>
<path fill="none" stroke="#7b8894" d="M1411.4,-472.1C1411.4,-468.3 1411.4,-466 1411.4,-466 1411.4,-466 2517.5,-466 2517.5,-466 2517.5,-466 2517.5,-429.46 2517.5,-429.46"/>
<polygon fill="#7b8894" stroke="#7b8894" points="2521,-429.46 2517.5,-419.46 2514,-429.46 2521,-429.46"/>
</g>
<!-- 979b5b9fc6e34f2e8f3ba6d96ff77721 -->
<g id="node13" class="node">
<title>979b5b9fc6e34f2e8f3ba6d96ff77721</title>
<image xlink:href="/usr/local/lib/python3.10/site-packages/resources/k8s/compute/pod.png" width="101px" height="101px" preserveAspectRatio="xMinYMin meet" x="2328.5" y="-400"/>
<text text-anchor="middle" x="2379" y="-284.6" font-family="Sans-Serif" font-size="13.00" fill="#2d3436">Dashboard&#45;Web</text>
</g>
<!-- fbd9167baf4b436da74d17d6544316a4&#45;&gt;979b5b9fc6e34f2e8f3ba6d96ff77721 -->
<g id="edge13" class="edge">
<title>fbd9167baf4b436da74d17d6544316a4&#45;&gt;979b5b9fc6e34f2e8f3ba6d96ff77721</title>
<path fill="none" stroke="#7b8894" d="M1401.3,-472.23C1401.3,-464.88 1401.3,-460 1401.3,-460 1401.3,-460 2379,-460 2379,-460 2379,-460 2379,-429.42 2379,-429.42"/>
<polygon fill="#7b8894" stroke="#7b8894" points="2382.5,-429.42 2379,-419.42 2375.5,-429.42 2382.5,-429.42"/>
</g>
<!-- e7b35f66ebd1426ab60bbdb597590b44 -->
<g id="node14" class="node">
<title>e7b35f66ebd1426ab60bbdb597590b44</title>
<image xlink:href="/usr/local/lib/python3.10/site-packages/resources/k8s/compute/pod.png" width="101px" height="101px" preserveAspectRatio="xMinYMin meet" x="2184.5" y="-400"/>
<text text-anchor="middle" x="2235" y="-284.6" font-family="Sans-Serif" font-size="13.00" fill="#2d3436">Dashboard&#45;Gear</text>
</g>
<!-- fbd9167baf4b436da74d17d6544316a4&#45;&gt;e7b35f66ebd1426ab60bbdb597590b44 -->
<g id="edge14" class="edge">
<title>fbd9167baf4b436da74d17d6544316a4&#45;&gt;e7b35f66ebd1426ab60bbdb597590b44</title>
<path fill="none" stroke="#7b8894" d="M1391.2,-472.34C1391.2,-461.62 1391.2,-454 1391.2,-454 1391.2,-454 2192.5,-454 2192.5,-454 2192.5,-454 2192.5,-429.26 2192.5,-429.26"/>
<polygon fill="#7b8894" stroke="#7b8894" points="2196,-429.26 2192.5,-419.26 2189,-429.26 2196,-429.26"/>
</g>
<!-- 8fdb9b6903bb4027a72118eee89f21c4 -->
<g id="node15" class="node">
<title>8fdb9b6903bb4027a72118eee89f21c4</title>
<image xlink:href="/usr/local/lib/python3.10/site-packages/resources/k8s/compute/pod.png" width="101px" height="101px" preserveAspectRatio="xMinYMin meet" x="2040.5" y="-400"/>
<text text-anchor="middle" x="2091" y="-284.6" font-family="Sans-Serif" font-size="13.00" fill="#2d3436">Dashboard&#45;Cron</text>
</g>
<!-- fbd9167baf4b436da74d17d6544316a4&#45;&gt;8fdb9b6903bb4027a72118eee89f21c4 -->
<g id="edge15" class="edge">
<title>fbd9167baf4b436da74d17d6544316a4&#45;&gt;8fdb9b6903bb4027a72118eee89f21c4</title>
<path fill="none" stroke="#7b8894" d="M1381.1,-472.3C1381.1,-458.44 1381.1,-448 1381.1,-448 1381.1,-448 2070,-448 2070,-448 2070,-448 2070,-429.43 2070,-429.43"/>
<polygon fill="#7b8894" stroke="#7b8894" points="2073.5,-429.43 2070,-419.43 2066.5,-429.43 2073.5,-429.43"/>
</g>
<!-- 7a192f8d808f4d5680948a5b07ab7640 -->
<g id="node16" class="node">
<title>7a192f8d808f4d5680948a5b07ab7640</title>
<image xlink:href="/usr/local/lib/python3.10/site-packages/resources/k8s/compute/pod.png" width="101px" height="101px" preserveAspectRatio="xMinYMin meet" x="1896.5" y="-400"/>
<text text-anchor="middle" x="1947" y="-284.6" font-family="Sans-Serif" font-size="13.00" fill="#2d3436">Member</text>
</g>
<!-- fbd9167baf4b436da74d17d6544316a4&#45;&gt;7a192f8d808f4d5680948a5b07ab7640 -->
<g id="edge16" class="edge">
<title>fbd9167baf4b436da74d17d6544316a4&#45;&gt;7a192f8d808f4d5680948a5b07ab7640</title>
<path fill="none" stroke="#7b8894" d="M1371,-472.09C1371,-455.28 1371,-442 1371,-442 1371,-442 1947,-442 1947,-442 1947,-442 1947,-429.21 1947,-429.21"/>
<polygon fill="#7b8894" stroke="#7b8894" points="1950.5,-429.21 1947,-419.21 1943.5,-429.21 1950.5,-429.21"/>
</g>
<!-- d5f7b3769147495da5b9d1e9d93863ac -->
<g id="node17" class="node">
<title>d5f7b3769147495da5b9d1e9d93863ac</title>
<image xlink:href="/usr/local/lib/python3.10/site-packages/resources/k8s/compute/pod.png" width="101px" height="101px" preserveAspectRatio="xMinYMin meet" x="1752.5" y="-400"/>
<text text-anchor="middle" x="1803" y="-284.6" font-family="Sans-Serif" font-size="13.00" fill="#2d3436">SCUM</text>
</g>
<!-- fbd9167baf4b436da74d17d6544316a4&#45;&gt;d5f7b3769147495da5b9d1e9d93863ac -->
<g id="edge17" class="edge">
<title>fbd9167baf4b436da74d17d6544316a4&#45;&gt;d5f7b3769147495da5b9d1e9d93863ac</title>
<path fill="none" stroke="#7b8894" d="M1360.9,-472.26C1360.9,-452.43 1360.9,-436 1360.9,-436 1360.9,-436 1767,-436 1767,-436 1767,-436 1767,-429.17 1767,-429.17"/>
<polygon fill="#7b8894" stroke="#7b8894" points="1770.5,-429.17 1767,-419.17 1763.5,-429.17 1770.5,-429.17"/>
</g>
<!-- 3f8e481da4d2418cb569c4b9423c741a -->
<g id="node18" class="node">
<title>3f8e481da4d2418cb569c4b9423c741a</title>
<image xlink:href="/usr/local/lib/python3.10/site-packages/resources/k8s/compute/pod.png" width="101px" height="101px" preserveAspectRatio="xMinYMin meet" x="1608.5" y="-400"/>
<text text-anchor="middle" x="1659" y="-284.6" font-family="Sans-Serif" font-size="13.00" fill="#2d3436">Billing</text>
</g>
<!-- fbd9167baf4b436da74d17d6544316a4&#45;&gt;3f8e481da4d2418cb569c4b9423c741a -->
<g id="edge18" class="edge">
<title>fbd9167baf4b436da74d17d6544316a4&#45;&gt;3f8e481da4d2418cb569c4b9423c741a</title>
<path fill="none" stroke="#7b8894" d="M1350.8,-472.09C1350.8,-449.48 1350.8,-430 1350.8,-430 1350.8,-430 1623,-430 1623,-430 1623,-430 1623,-428.78 1623,-428.78"/>
<polygon fill="#7b8894" stroke="#7b8894" points="1626.5,-429.29 1623,-419.29 1619.5,-429.29 1626.5,-429.29"/>
</g>
<!-- 25c703c300de431e8220524ddc73e815 -->
<g id="node19" class="node">
<title>25c703c300de431e8220524ddc73e815</title>
<image xlink:href="/usr/local/lib/python3.10/site-packages/resources/k8s/compute/pod.png" width="101px" height="101px" preserveAspectRatio="xMinYMin meet" x="1464.5" y="-400"/>
<text text-anchor="middle" x="1515" y="-284.6" font-family="Sans-Serif" font-size="13.00" fill="#2d3436">Message Achieve</text>
</g>
<!-- fbd9167baf4b436da74d17d6544316a4&#45;&gt;25c703c300de431e8220524ddc73e815 -->
<g id="edge19" class="edge">
<title>fbd9167baf4b436da74d17d6544316a4&#45;&gt;25c703c300de431e8220524ddc73e815</title>
<path fill="none" stroke="#7b8894" d="M1340.7,-472.06C1340.7,-446.7 1340.7,-424 1340.7,-424 1340.7,-424 1515,-424 1515,-424 1515,-424 1515,-423.39 1515,-423.39"/>
<polygon fill="#7b8894" stroke="#7b8894" points="1518.5,-429.42 1515,-419.42 1511.5,-429.42 1518.5,-429.42"/>
</g>
<!-- 338ca62778314a86beba6b0d5bfc0000 -->
<g id="node20" class="node">
<title>338ca62778314a86beba6b0d5bfc0000</title>
<image xlink:href="/usr/local/lib/python3.10/site-packages/resources/k8s/compute/pod.png" width="101px" height="101px" preserveAspectRatio="xMinYMin meet" x="1320.5" y="-400"/>
<text text-anchor="middle" x="1371" y="-284.6" font-family="Sans-Serif" font-size="13.00" fill="#2d3436">Message Review</text>
</g>
<!-- fbd9167baf4b436da74d17d6544316a4&#45;&gt;338ca62778314a86beba6b0d5bfc0000 -->
<g id="edge20" class="edge">
<title>fbd9167baf4b436da74d17d6544316a4&#45;&gt;338ca62778314a86beba6b0d5bfc0000</title>
<path fill="none" stroke="#7b8894" d="M1330.6,-472.08C1330.6,-472.08 1330.6,-429.27 1330.6,-429.27"/>
<polygon fill="#7b8894" stroke="#7b8894" points="1334.1,-429.27 1330.6,-419.27 1327.1,-429.27 1334.1,-429.27"/>
</g>
<!-- bf2b1f030c3b4532a81e33bd2e661ee2 -->
<g id="node21" class="node">
<title>bf2b1f030c3b4532a81e33bd2e661ee2</title>
<image xlink:href="/usr/local/lib/python3.10/site-packages/resources/k8s/compute/pod.png" width="101px" height="101px" preserveAspectRatio="xMinYMin meet" x="1176.5" y="-400"/>
<text text-anchor="middle" x="1227" y="-284.6" font-family="Sans-Serif" font-size="13.00" fill="#2d3436">Scheduled Data</text>
</g>
<!-- fbd9167baf4b436da74d17d6544316a4&#45;&gt;bf2b1f030c3b4532a81e33bd2e661ee2 -->
<g id="edge21" class="edge">
<title>fbd9167baf4b436da74d17d6544316a4&#45;&gt;bf2b1f030c3b4532a81e33bd2e661ee2</title>
<path fill="none" stroke="#7b8894" d="M1320.79,-487C1292.59,-487 1263,-487 1263,-487 1263,-487 1263,-429.36 1263,-429.36"/>
<polygon fill="#7b8894" stroke="#7b8894" points="1266.5,-429.36 1263,-419.36 1259.5,-429.36 1266.5,-429.36"/>
</g>
<!-- e752010fce4145a48a15850e8e73db65 -->
<g id="node22" class="node">
<title>e752010fce4145a48a15850e8e73db65</title>
<image xlink:href="/usr/local/lib/python3.10/site-packages/resources/k8s/compute/pod.png" width="101px" height="101px" preserveAspectRatio="xMinYMin meet" x="1032.5" y="-400"/>
<text text-anchor="middle" x="1083" y="-284.6" font-family="Sans-Serif" font-size="13.00" fill="#2d3436">Core</text>
</g>
<!-- fbd9167baf4b436da74d17d6544316a4&#45;&gt;e752010fce4145a48a15850e8e73db65 -->
<g id="edge22" class="edge">
<title>fbd9167baf4b436da74d17d6544316a4&#45;&gt;e752010fce4145a48a15850e8e73db65</title>
<path fill="none" stroke="#7b8894" d="M1320.5,-502C1237.91,-502 1083,-502 1083,-502 1083,-502 1083,-429.23 1083,-429.23"/>
<polygon fill="#7b8894" stroke="#7b8894" points="1086.5,-429.23 1083,-419.23 1079.5,-429.23 1086.5,-429.23"/>
</g>
<!-- b3bf6260e8e649aab33c23238bba73d9 -->
<g id="node23" class="node">
<title>b3bf6260e8e649aab33c23238bba73d9</title>
<image xlink:href="/usr/local/lib/python3.10/site-packages/resources/k8s/compute/pod.png" width="101px" height="101px" preserveAspectRatio="xMinYMin meet" x="888.5" y="-400"/>
<text text-anchor="middle" x="939" y="-284.6" font-family="Sans-Serif" font-size="13.00" fill="#2d3436">TOPS</text>
</g>
<!-- fbd9167baf4b436da74d17d6544316a4&#45;&gt;b3bf6260e8e649aab33c23238bba73d9 -->
<g id="edge23" class="edge">
<title>fbd9167baf4b436da74d17d6544316a4&#45;&gt;b3bf6260e8e649aab33c23238bba73d9</title>
<path fill="none" stroke="#7b8894" d="M1320.6,-517C1206.64,-517 939,-517 939,-517 939,-517 939,-429.14 939,-429.14"/>
<polygon fill="#7b8894" stroke="#7b8894" points="942.5,-429.14 939,-419.14 935.5,-429.14 942.5,-429.14"/>
</g>
<!-- 7fc22697009341628d955ca0b90adf21 -->
<g id="node24" class="node">
<title>7fc22697009341628d955ca0b90adf21</title>
<image xlink:href="/usr/local/lib/python3.10/site-packages/resources/k8s/compute/pod.png" width="101px" height="101px" preserveAspectRatio="xMinYMin meet" x="744.5" y="-400"/>
<text text-anchor="middle" x="795" y="-284.6" font-family="Sans-Serif" font-size="13.00" fill="#2d3436">GSS</text>
</g>
<!-- fbd9167baf4b436da74d17d6544316a4&#45;&gt;7fc22697009341628d955ca0b90adf21 -->
<g id="edge24" class="edge">
<title>fbd9167baf4b436da74d17d6544316a4&#45;&gt;7fc22697009341628d955ca0b90adf21</title>
<path fill="none" stroke="#7b8894" d="M1320.64,-532C1180.29,-532 795,-532 795,-532 795,-532 795,-429.49 795,-429.49"/>
<polygon fill="#7b8894" stroke="#7b8894" points="798.5,-429.49 795,-419.49 791.5,-429.49 798.5,-429.49"/>
</g>
<!-- 132e57809b104254a7438247e555648e -->
<g id="node25" class="node">
<title>132e57809b104254a7438247e555648e</title>
<image xlink:href="/usr/local/lib/python3.10/site-packages/resources/k8s/compute/pod.png" width="101px" height="101px" preserveAspectRatio="xMinYMin meet" x="600.5" y="-400"/>
<text text-anchor="middle" x="651" y="-284.6" font-family="Sans-Serif" font-size="13.00" fill="#2d3436">HootSupport</text>
</g>
<!-- fbd9167baf4b436da74d17d6544316a4&#45;&gt;132e57809b104254a7438247e555648e -->
<g id="edge25" class="edge">
<title>fbd9167baf4b436da74d17d6544316a4&#45;&gt;132e57809b104254a7438247e555648e</title>
<path fill="none" stroke="#7b8894" d="M1320.66,-548C1157.07,-548 651,-548 651,-548 651,-548 651,-429.33 651,-429.33"/>
<polygon fill="#7b8894" stroke="#7b8894" points="654.5,-429.33 651,-419.33 647.5,-429.33 654.5,-429.33"/>
</g>
<!-- 309eea43ac8749599586e020d0b84a8f -->
<g id="node26" class="node">
<title>309eea43ac8749599586e020d0b84a8f</title>
<image xlink:href="/usr/local/lib/python3.10/site-packages/resources/k8s/compute/pod.png" width="101px" height="101px" preserveAspectRatio="xMinYMin meet" x="456.5" y="-400"/>
<text text-anchor="middle" x="507" y="-284.6" font-family="Sans-Serif" font-size="13.00" fill="#2d3436">Push Notifications</text>
</g>
<!-- fbd9167baf4b436da74d17d6544316a4&#45;&gt;309eea43ac8749599586e020d0b84a8f -->
<g id="edge26" class="edge">
<title>fbd9167baf4b436da74d17d6544316a4&#45;&gt;309eea43ac8749599586e020d0b84a8f</title>
<path fill="none" stroke="#7b8894" d="M1320.81,-563C1136.41,-563 507,-563 507,-563 507,-563 507,-429.45 507,-429.45"/>
<polygon fill="#7b8894" stroke="#7b8894" points="510.5,-429.45 507,-419.45 503.5,-429.45 510.5,-429.45"/>
</g>
<!-- f76ee86248e94ef280511ae64aa678de -->
<g id="node27" class="node">
<title>f76ee86248e94ef280511ae64aa678de</title>
<image xlink:href="/usr/local/lib/python3.10/site-packages/resources/k8s/compute/pod.png" width="101px" height="101px" preserveAspectRatio="xMinYMin meet" x="312.5" y="-400"/>
<text text-anchor="middle" x="363" y="-284.6" font-family="Sans-Serif" font-size="13.00" fill="#2d3436">Crypto</text>
</g>
<!-- fbd9167baf4b436da74d17d6544316a4&#45;&gt;f76ee86248e94ef280511ae64aa678de -->
<g id="edge27" class="edge">
<title>fbd9167baf4b436da74d17d6544316a4&#45;&gt;f76ee86248e94ef280511ae64aa678de</title>
<path fill="none" stroke="#7b8894" d="M1320.67,-578C1116.77,-578 363,-578 363,-578 363,-578 363,-429.26 363,-429.26"/>
<polygon fill="#7b8894" stroke="#7b8894" points="366.5,-429.26 363,-419.26 359.5,-429.26 366.5,-429.26"/>
</g>
<!-- 4aa8addc27a849dcb9499d7c059d8042 -->
<g id="node28" class="node">
<title>4aa8addc27a849dcb9499d7c059d8042</title>
<image xlink:href="/usr/local/lib/python3.10/site-packages/resources/k8s/compute/pod.png" width="101px" height="101px" preserveAspectRatio="xMinYMin meet" x="168.5" y="-400"/>
<text text-anchor="middle" x="219" y="-284.6" font-family="Sans-Serif" font-size="13.00" fill="#2d3436">Amplify</text>
</g>
<!-- fbd9167baf4b436da74d17d6544316a4&#45;&gt;4aa8addc27a849dcb9499d7c059d8042 -->
<g id="edge28" class="edge">
<title>fbd9167baf4b436da74d17d6544316a4&#45;&gt;4aa8addc27a849dcb9499d7c059d8042</title>
<path fill="none" stroke="#7b8894" d="M1320.76,-593C1099.03,-593 219,-593 219,-593 219,-593 219,-429.49 219,-429.49"/>
<polygon fill="#7b8894" stroke="#7b8894" points="222.5,-429.49 219,-419.49 215.5,-429.49 222.5,-429.49"/>
</g>
<!-- e3cb1281c0de41cfb9c225e6e232657b -->
<g id="node30" class="node">
<title>e3cb1281c0de41cfb9c225e6e232657b</title>
<image xlink:href="/usr/local/lib/python3.10/site-packages/resources/aws/database/rds.png" width="101px" height="101px" preserveAspectRatio="xMinYMin meet" x="1320.5" y="-209"/>
<text text-anchor="middle" x="1371" y="-93.6" font-family="Sans-Serif" font-size="13.00" fill="#2d3436">RDS</text>
</g>
<!-- 80f7f34ee98d4687a4f9402463752285&#45;&gt;e3cb1281c0de41cfb9c225e6e232657b -->
<g id="edge29" class="edge">
<title>80f7f34ee98d4687a4f9402463752285&#45;&gt;e3cb1281c0de41cfb9c225e6e232657b</title>
<path fill="none" stroke="#7b8894" d="M2523,-281.07C2523,-208.74 2523,-105 2523,-105 2523,-105 1432.75,-105 1432.75,-105"/>
<polygon fill="#7b8894" stroke="#7b8894" points="1432.75,-101.5 1422.75,-105 1432.75,-108.5 1432.75,-101.5"/>
</g>
<!-- 979b5b9fc6e34f2e8f3ba6d96ff77721&#45;&gt;e3cb1281c0de41cfb9c225e6e232657b -->
<g id="edge30" class="edge">
<title>979b5b9fc6e34f2e8f3ba6d96ff77721&#45;&gt;e3cb1281c0de41cfb9c225e6e232657b</title>
<path fill="none" stroke="#7b8894" d="M2379,-281.26C2379,-213.61 2379,-120 2379,-120 2379,-120 1432.85,-120 1432.85,-120"/>
<polygon fill="#7b8894" stroke="#7b8894" points="1432.85,-116.5 1422.85,-120 1432.85,-123.5 1432.85,-116.5"/>
</g>
<!-- e7b35f66ebd1426ab60bbdb597590b44&#45;&gt;e3cb1281c0de41cfb9c225e6e232657b -->
<g id="edge31" class="edge">
<title>e7b35f66ebd1426ab60bbdb597590b44&#45;&gt;e3cb1281c0de41cfb9c225e6e232657b</title>
<path fill="none" stroke="#7b8894" d="M2235,-281.04C2235,-218.27 2235,-135 2235,-135 2235,-135 1432.7,-135 1432.7,-135"/>
<polygon fill="#7b8894" stroke="#7b8894" points="1432.7,-131.5 1422.7,-135 1432.7,-138.5 1432.7,-131.5"/>
</g>
<!-- 8fdb9b6903bb4027a72118eee89f21c4&#45;&gt;e3cb1281c0de41cfb9c225e6e232657b -->
<g id="edge32" class="edge">
<title>8fdb9b6903bb4027a72118eee89f21c4&#45;&gt;e3cb1281c0de41cfb9c225e6e232657b</title>
<path fill="none" stroke="#7b8894" d="M2091,-281.12C2091,-223.37 2091,-150 2091,-150 2091,-150 1432.86,-150 1432.86,-150"/>
<polygon fill="#7b8894" stroke="#7b8894" points="1432.86,-146.5 1422.86,-150 1432.86,-153.5 1432.86,-146.5"/>
</g>
<!-- 7a192f8d808f4d5680948a5b07ab7640&#45;&gt;e3cb1281c0de41cfb9c225e6e232657b -->
<g id="edge33" class="edge">
<title>7a192f8d808f4d5680948a5b07ab7640&#45;&gt;e3cb1281c0de41cfb9c225e6e232657b</title>
<path fill="none" stroke="#7b8894" d="M1947,-281.17C1947,-229 1947,-166 1947,-166 1947,-166 1432.87,-166 1432.87,-166"/>
<polygon fill="#7b8894" stroke="#7b8894" points="1432.87,-162.5 1422.87,-166 1432.87,-169.5 1432.87,-162.5"/>
</g>
<!-- d5f7b3769147495da5b9d1e9d93863ac&#45;&gt;e3cb1281c0de41cfb9c225e6e232657b -->
<g id="edge34" class="edge">
<title>d5f7b3769147495da5b9d1e9d93863ac&#45;&gt;e3cb1281c0de41cfb9c225e6e232657b</title>
<path fill="none" stroke="#7b8894" d="M1803,-281.45C1803,-234.69 1803,-181 1803,-181 1803,-181 1432.91,-181 1432.91,-181"/>
<polygon fill="#7b8894" stroke="#7b8894" points="1432.91,-177.5 1422.91,-181 1432.91,-184.5 1432.91,-177.5"/>
</g>
<!-- 3f8e481da4d2418cb569c4b9423c741a&#45;&gt;e3cb1281c0de41cfb9c225e6e232657b -->
<g id="edge35" class="edge">
<title>3f8e481da4d2418cb569c4b9423c741a&#45;&gt;e3cb1281c0de41cfb9c225e6e232657b</title>
<path fill="none" stroke="#7b8894" d="M1659,-281.28C1659,-240.28 1659,-196 1659,-196 1659,-196 1433.01,-196 1433.01,-196"/>
<polygon fill="#7b8894" stroke="#7b8894" points="1433.01,-192.5 1423.01,-196 1433.01,-199.5 1433.01,-192.5"/>
</g>
<!-- 25c703c300de431e8220524ddc73e815&#45;&gt;e3cb1281c0de41cfb9c225e6e232657b -->
<g id="edge36" class="edge">
<title>25c703c300de431e8220524ddc73e815&#45;&gt;e3cb1281c0de41cfb9c225e6e232657b</title>
<path fill="none" stroke="#7b8894" d="M1515,-281.06C1515,-246.17 1515,-211 1515,-211 1515,-211 1432.88,-211 1432.88,-211"/>
<polygon fill="#7b8894" stroke="#7b8894" points="1432.88,-207.5 1422.88,-211 1432.88,-214.5 1432.88,-207.5"/>
</g>
<!-- 338ca62778314a86beba6b0d5bfc0000&#45;&gt;e3cb1281c0de41cfb9c225e6e232657b -->
<g id="edge37" class="edge">
<title>338ca62778314a86beba6b0d5bfc0000&#45;&gt;e3cb1281c0de41cfb9c225e6e232657b</title>
<path fill="none" stroke="#7b8894" d="M1411.4,-281.08C1411.4,-281.08 1411.4,-238.27 1411.4,-238.27"/>
<polygon fill="#7b8894" stroke="#7b8894" points="1414.9,-238.27 1411.4,-228.27 1407.9,-238.27 1414.9,-238.27"/>
</g>
<!-- bf2b1f030c3b4532a81e33bd2e661ee2&#45;&gt;e3cb1281c0de41cfb9c225e6e232657b -->
<g id="edge38" class="edge">
<title>bf2b1f030c3b4532a81e33bd2e661ee2&#45;&gt;e3cb1281c0de41cfb9c225e6e232657b</title>
<path fill="none" stroke="#7b8894" d="M1227,-281.1C1227,-277.3 1227,-275 1227,-275 1227,-275 1401.3,-275 1401.3,-275 1401.3,-275 1401.3,-238.46 1401.3,-238.46"/>
<polygon fill="#7b8894" stroke="#7b8894" points="1404.8,-238.46 1401.3,-228.46 1397.8,-238.46 1404.8,-238.46"/>
</g>
<!-- e752010fce4145a48a15850e8e73db65&#45;&gt;e3cb1281c0de41cfb9c225e6e232657b -->
<g id="edge39" class="edge">
<title>e752010fce4145a48a15850e8e73db65&#45;&gt;e3cb1281c0de41cfb9c225e6e232657b</title>
<path fill="none" stroke="#7b8894" d="M1083,-281.23C1083,-273.88 1083,-269 1083,-269 1083,-269 1391.2,-269 1391.2,-269 1391.2,-269 1391.2,-238.42 1391.2,-238.42"/>
<polygon fill="#7b8894" stroke="#7b8894" points="1394.7,-238.42 1391.2,-228.42 1387.7,-238.42 1394.7,-238.42"/>
</g>
<!-- b3bf6260e8e649aab33c23238bba73d9&#45;&gt;e3cb1281c0de41cfb9c225e6e232657b -->
<g id="edge40" class="edge">
<title>b3bf6260e8e649aab33c23238bba73d9&#45;&gt;e3cb1281c0de41cfb9c225e6e232657b</title>
<path fill="none" stroke="#7b8894" d="M939,-281.34C939,-270.62 939,-263 939,-263 939,-263 1381.1,-263 1381.1,-263 1381.1,-263 1381.1,-238.26 1381.1,-238.26"/>
<polygon fill="#7b8894" stroke="#7b8894" points="1384.6,-238.26 1381.1,-228.26 1377.6,-238.26 1384.6,-238.26"/>
</g>
<!-- 7fc22697009341628d955ca0b90adf21&#45;&gt;e3cb1281c0de41cfb9c225e6e232657b -->
<g id="edge41" class="edge">
<title>7fc22697009341628d955ca0b90adf21&#45;&gt;e3cb1281c0de41cfb9c225e6e232657b</title>
<path fill="none" stroke="#7b8894" d="M795,-281.3C795,-267.44 795,-257 795,-257 795,-257 1371,-257 1371,-257 1371,-257 1371,-238.43 1371,-238.43"/>
<polygon fill="#7b8894" stroke="#7b8894" points="1374.5,-238.43 1371,-228.43 1367.5,-238.43 1374.5,-238.43"/>
</g>
<!-- 132e57809b104254a7438247e555648e&#45;&gt;e3cb1281c0de41cfb9c225e6e232657b -->
<g id="edge42" class="edge">
<title>132e57809b104254a7438247e555648e&#45;&gt;e3cb1281c0de41cfb9c225e6e232657b</title>
<path fill="none" stroke="#7b8894" d="M651,-281.09C651,-264.28 651,-251 651,-251 651,-251 1360.9,-251 1360.9,-251 1360.9,-251 1360.9,-238.21 1360.9,-238.21"/>
<polygon fill="#7b8894" stroke="#7b8894" points="1364.4,-238.21 1360.9,-228.21 1357.4,-238.21 1364.4,-238.21"/>
</g>
<!-- 309eea43ac8749599586e020d0b84a8f&#45;&gt;e3cb1281c0de41cfb9c225e6e232657b -->
<g id="edge43" class="edge">
<title>309eea43ac8749599586e020d0b84a8f&#45;&gt;e3cb1281c0de41cfb9c225e6e232657b</title>
<path fill="none" stroke="#7b8894" d="M507,-281.26C507,-261.43 507,-245 507,-245 507,-245 1350.8,-245 1350.8,-245 1350.8,-245 1350.8,-238.17 1350.8,-238.17"/>
<polygon fill="#7b8894" stroke="#7b8894" points="1354.3,-238.17 1350.8,-228.17 1347.3,-238.17 1354.3,-238.17"/>
</g>
<!-- f76ee86248e94ef280511ae64aa678de&#45;&gt;e3cb1281c0de41cfb9c225e6e232657b -->
<g id="edge44" class="edge">
<title>f76ee86248e94ef280511ae64aa678de&#45;&gt;e3cb1281c0de41cfb9c225e6e232657b</title>
<path fill="none" stroke="#7b8894" d="M363,-281.09C363,-258.48 363,-239 363,-239 363,-239 1340.7,-239 1340.7,-239 1340.7,-239 1340.7,-237.78 1340.7,-237.78"/>
<polygon fill="#7b8894" stroke="#7b8894" points="1344.2,-238.29 1340.7,-228.29 1337.2,-238.29 1344.2,-238.29"/>
</g>
<!-- 4aa8addc27a849dcb9499d7c059d8042&#45;&gt;e3cb1281c0de41cfb9c225e6e232657b -->
<g id="edge45" class="edge">
<title>4aa8addc27a849dcb9499d7c059d8042&#45;&gt;e3cb1281c0de41cfb9c225e6e232657b</title>
<path fill="none" stroke="#7b8894" d="M219,-281.06C219,-255.7 219,-233 219,-233 219,-233 1330.6,-233 1330.6,-233 1330.6,-233 1330.6,-232.39 1330.6,-232.39"/>
<polygon fill="#7b8894" stroke="#7b8894" points="1334.1,-238.42 1330.6,-228.42 1327.1,-238.42 1334.1,-238.42"/>
</g>
<!-- 55e6ae00c83846cd894fa9690462e782 -->
<g id="node29" class="node">
<title>55e6ae00c83846cd894fa9690462e782</title>
<image xlink:href="/usr/local/lib/python3.10/site-packages/resources/k8s/compute/pod.png" width="101px" height="101px" preserveAspectRatio="xMinYMin meet" x="24.5" y="-400"/>
<text text-anchor="middle" x="75" y="-284.6" font-family="Sans-Serif" font-size="13.00" fill="#2d3436">Aperture Authz</text>
</g>
<!-- b48c9bbc480c46eaaad7be73a6e386c1 -->
<g id="node31" class="node">
<title>b48c9bbc480c46eaaad7be73a6e386c1</title>
<image xlink:href="/usr/local/lib/python3.10/site-packages/resources/aws/database/aurora.png" width="101px" height="101px" preserveAspectRatio="xMinYMin meet" x="1176.5" y="-209"/>
<text text-anchor="middle" x="1227" y="-93.6" font-family="Sans-Serif" font-size="13.00" fill="#2d3436">Aurora</text>
</g>
<!-- bfa5012926e34814a694b0002c33c04f -->
<g id="node32" class="node">
<title>bfa5012926e34814a694b0002c33c04f</title>
<image xlink:href="/usr/local/lib/python3.10/site-packages/resources/aws/database/elasticache-for-memcached.png" width="101px" height="101px" preserveAspectRatio="xMinYMin meet" x="1032.5" y="-209"/>
<text text-anchor="middle" x="1083" y="-93.6" font-family="Sans-Serif" font-size="13.00" fill="#2d3436">Memcached</text>
</g>
<!-- 5573bfa5fee44d93b3dcc2a5e354b71e -->
<g id="node33" class="node">
<title>5573bfa5fee44d93b3dcc2a5e354b71e</title>
<image xlink:href="/usr/local/lib/python3.10/site-packages/resources/aws/database/elasticache-for-redis.png" width="101px" height="101px" preserveAspectRatio="xMinYMin meet" x="888.5" y="-209"/>
<text text-anchor="middle" x="939" y="-93.6" font-family="Sans-Serif" font-size="13.00" fill="#2d3436">Redis</text>
</g>
<!-- bcf3d6f151b04c66aa21aa12f80f579d -->
<g id="node34" class="node">
<title>bcf3d6f151b04c66aa21aa12f80f579d</title>
<image xlink:href="/usr/local/lib/python3.10/site-packages/resources/aws/storage/simple-storage-service-s3.png" width="101px" height="101px" preserveAspectRatio="xMinYMin meet" x="744.5" y="-209"/>
<text text-anchor="middle" x="795" y="-93.6" font-family="Sans-Serif" font-size="13.00" fill="#2d3436">S3</text>
</g>
<!-- ff0268fe75ea40da9d584c64a9de2759 -->
<g id="node35" class="node">
<title>ff0268fe75ea40da9d584c64a9de2759</title>
<image xlink:href="/usr/local/lib/python3.10/site-packages/resources/onprem/queue/kafka.png" width="101px" height="101px" preserveAspectRatio="xMinYMin meet" x="2461.5" y="-1375"/>
<text text-anchor="middle" x="2512" y="-1259.6" font-family="Sans-Serif" font-size="13.00" fill="#2d3436">Kafka</text>
</g>
</g>
</svg>
